<svg id="_0298_new_message_1" xmlns="http://www.w3.org/2000/svg" viewBox="0 0 500 500" data-imageid="message-received-1-24" imageName="Message Received 1" class="illustrations_image" style="width: 158px;"><defs><style>.cls-1_message-received-1-24,.cls-2_message-received-1-24{fill:#fff;}.cls-3_message-received-1-24{fill:#f4a28c;}.cls-4_message-received-1-24{fill:#a5a5a5;}.cls-2_message-received-1-24{opacity:.42;}.cls-5_message-received-1-24,.cls-6_message-received-1-24{fill:#e6e6e6;}.cls-6_message-received-1-24{opacity:.3;}.cls-7_message-received-1-24{fill:#000001;opacity:.09;}.cls-8_message-received-1-24{fill:#24285b;}.cls-9_message-received-1-24{fill:#ffd200;}.cls-10_message-received-1-24{fill:#68e1fd;}</style></defs><path id="bg_message-received-1-24" class="cls-6_message-received-1-24" d="m40.66,203.42s-79.07,200.16,129.11,202.97c208.18,2.8,303.34-27.93,304.28-129.78s-74.03-196.88-204.72-197.94c-130.69-1.06-201.35,37.25-228.68,124.75Z"/><g id="hand_message-received-1-24"><path class="cls-3_message-received-1-24" d="m177.69,185.1s-36.14,11.89-27.05,33.97c4.92,11.95,21.52,16.89,35.71,18.9,11.79,1.67,20.33-10.8,14.67-21.28-3.37-6.24-8.15-12.67-14.88-17.68l-8.45-13.91Z"/><polygon class="cls-10_message-received-1-24 targetColor" points="272.85 472.89 272.85 363.78 381.96 354.04 401.44 472.89 272.85 472.89" style="fill: rgb(236, 156, 82);"/><path class="cls-3_message-received-1-24" d="m252.58,308.15l27.09,38.1v16.93l95.43-8.52-4.84-46.5s11.69-55.42-2.92-91.46c-7.89-19.47-9.06-38.84-8.46-52.54.72-16.5-22.98-20.28-27.23-4.32-1.8,6.76-3.05,20.5-2.91,34.33.06,5.83-1.18,11.6-3.58,16.92-5.82,12.88-15.56,38.15-9.72,52.3l-11.24,55.27-51.61-10.5Z"/><circle class="cls-2_message-received-1-24" cx="240.53" cy="267.21" r="11.25"/><path class="cls-7_message-received-1-24" d="m149.28,213.84h116.27v-13.4h-111.91s-5.37,5.99-4.36,13.4Z"/><polygon class="cls-7_message-received-1-24" points="304.2 318.65 313.84 360.12 279.67 363.18 279.67 346.25 252.58 308.15 304.2 318.65"/></g><g id="phone_message-received-1-24"><rect class="cls-4_message-received-1-24" x="180.46" y="83.84" width="147.37" height="222.36" transform="translate(43.96 -46.73) rotate(11.49)"/><rect class="cls-5_message-received-1-24" x="183.31" y="69.86" width="147.37" height="222.36" transform="translate(41.23 -47.58) rotate(11.49)"/><rect class="cls-1_message-received-1-24" x="197.19" y="86.82" width="125.26" height="160.61" transform="translate(38.51 -48.42) rotate(11.49)"/><circle class="cls-4_message-received-1-24" cx="240.53" cy="267.21" r="10.5"/></g><g id="message_message-received-1-24"><rect class="cls-8_message-received-1-24" x="77.64" y="52.92" width="196.33" height="147.05"/><circle class="cls-9_message-received-1-24" cx="268.2" cy="54.5" r="27.39"/><path class="cls-1_message-received-1-24" d="m262.18,42.96c1.57-1.31,3.64-1.96,6.2-1.96,1.75,0,3.25.31,4.49.92,1.25.61,2.19,1.44,2.82,2.48.64,1.04.95,2.22.95,3.54,0,1.51-.39,2.79-1.17,3.83-.78,1.04-1.71,1.74-2.79,2.1v.14c1.39.43,2.47,1.2,3.25,2.3.78,1.1,1.17,2.52,1.17,4.24,0,1.44-.33,2.72-.99,3.85-.66,1.13-1.63,2.01-2.91,2.64-1.28.64-2.82.95-4.62.95-2.71,0-4.91-.68-6.62-2.05-1.7-1.37-2.6-3.38-2.7-6.04h4.89c.05,1.17.45,2.12,1.21,2.82.76.71,1.79,1.06,3.11,1.06,1.22,0,2.16-.34,2.82-1.02.66-.68.99-1.57.99-2.65,0-1.44-.46-2.47-1.37-3.09-.91-.62-2.33-.94-4.24-.94h-1.04v-4.14h1.04c3.4,0,5.11-1.14,5.11-3.42,0-1.03-.31-1.83-.92-2.41-.61-.57-1.49-.86-2.64-.86s-2,.31-2.61.92c-.61.61-.97,1.38-1.06,2.32h-4.93c.12-2.4.96-4.25,2.53-5.55Z"/><rect class="cls-1_message-received-1-24" x="116.19" y="84.22" width="119.22" height="81.47"/><polygon class="cls-9_message-received-1-24" points="116.19 84.22 175.8 141.47 235.41 84.22 116.19 84.22"/></g></svg>