<svg version="1.1" id="Layer_1" xmlns="http://www.w3.org/2000/svg" xmlns:xlink="http://www.w3.org/1999/xlink" x="0px" y="0px" viewBox="0 0 500 500" style="width: 158px;" xml:space="preserve" data-imageid="calling-81" imageName="Calling" class="illustrations_image">
<style type="text/css">
	.st0_calling-81{fill:#68E1FD;}
	.st1_calling-81{fill:#231F20;}
	.st2_calling-81{fill:#FFFFFF;}
	.st3_calling-81{fill:none;}
	.st4_calling-81{fill:#D1D3D4;}
</style>
<g id="Character_calling-81">
	<path class="st0_calling-81 targetColor" d="M355.5,237.2l36-12.8c-1.5-2.2-21.7-49-40.7-58.4c-16.6-11-47.4-8.9-82.2-6.5c-11.2,0.6-22.2,2.8-32.6,6.8&#10;&#9;&#9;c-39.2,15.6-44.8,67.3-44.8,67.3l36.1,12.4c0,0-5.9,70.2-11.4,107c0,0,45.2,26.6,143.8,10.3C359.7,363.3,355.7,247.6,355.5,237.2z" style="fill: rgb(236, 156, 82);"/>
	<polygon class="st1_calling-81" points="266.6,188.9 283,268.5 310.6,176.6 &#9;"/>
	<path class="st1_calling-81" d="M283,269.3L283,269.3c-0.3,0-0.6-0.3-0.7-0.6l-16.4-79.6c-0.1-0.4,0.2-0.8,0.5-0.9l43.9-12.3&#10;&#9;&#9;c0.4-0.1,0.8,0.1,0.9,0.5c0,0.1,0,0.3,0,0.4l-27.5,91.9C283.7,269.1,283.4,269.3,283,269.3z M267.5,189.5l15.7,75.9l26.3-87.7&#10;&#9;&#9;L267.5,189.5z"/>
	<path class="st2_calling-81" d="M302.4,80c-3-0.4-5.1,0.7-7.9,1.4c-3.6,0.9-2.6,1-5.9-1.1c-7.6-4.9-17.6-2.7-26.1,0.3s-17.6,6.7-26.3,4.2&#10;&#9;&#9;c3,3.3,7.1,5.3,11.6,5.5c-7.1,4.2-17.5,1-23.5,6.7c5.7,7.2,12,13.8,18.9,19.8c-5.1-0.8-10.1-2.3-14.8-4.5&#10;&#9;&#9;c8.5,9.6,19.4,16.8,31.1,22c8.6,3.8,18,6.5,27.4,5.9c15.1-1,30.6-12.9,31.8-28.6C319.6,100.8,315.5,81.8,302.4,80z"/>
	<path class="st1_calling-81" d="M284.2,140.9c-7.5,0-15.7-2-25-6c-12.7-5.6-23.3-13.1-31.4-22.2c-0.2-0.3-0.2-0.7,0-1c0.2-0.3,0.6-0.4,0.9-0.2&#10;&#9;&#9;c3.8,1.8,7.8,3.1,11.9,4c-6.1-5.5-11.8-11.6-16.9-18.1c-0.2-0.3-0.2-0.7,0.1-1c3.5-3.3,8.3-3.8,13-4.3c2.8-0.2,5.6-0.7,8.3-1.5&#10;&#9;&#9;c-3.6-0.8-6.9-2.7-9.4-5.4c-0.2-0.3-0.3-0.6-0.1-0.9c0.2-0.3,0.5-0.4,0.9-0.3c7.8,2.2,16-0.7,23.9-3.5l1.9-0.7&#10;&#9;&#9;c7.5-2.7,18.5-5.6,26.8-0.2c0.5,0.3,0.9,0.6,1.2,0.8c1.3,0.9,1.3,0.9,3,0.4l1-0.3c0.7-0.2,1.4-0.4,2.1-0.6c2-0.8,4.1-1,6.1-0.8l0,0&#10;&#9;&#9;c13.1,1.9,17.9,20.4,17,32.4c-1.3,16.8-17.9,28.3-32.5,29.3C286.1,140.9,285.1,140.9,284.2,140.9z M231.5,114.3&#10;&#9;&#9;c8.2,8.1,17.8,14.6,28.4,19.1c10.2,4.5,19,6.4,27,5.8c18-1.2,30.1-15.4,31.1-27.8c0.9-11.4-3.5-29-15.7-30.7l0,0&#10;&#9;&#9;c-1.9-0.2-3.7,0.1-5.5,0.8c-0.7,0.2-1.4,0.4-2.1,0.6l-1,0.3c-2.2,0.6-2.5,0.5-4.2-0.7c-0.3-0.2-0.7-0.5-1.2-0.8&#10;&#9;&#9;c-7.7-5-18.2-2.2-25.5,0.4l-1.9,0.7c-7.2,2.6-14.7,5.2-22.1,4.1c2.6,2.1,5.8,3.3,9.1,3.4c0.3,0,0.6,0.3,0.7,0.6&#10;&#9;&#9;c0.1,0.3-0.1,0.7-0.4,0.8c-3.4,2-7.4,2.3-11.2,2.7c-4.4,0.4-8.5,0.8-11.6,3.4c5.5,6.9,11.7,13.3,18.3,19.1c0.3,0.2,0.3,0.6,0.2,0.9&#10;&#9;&#9;c-0.1,0.3-0.5,0.5-0.8,0.4C239.1,116.9,235.2,115.8,231.5,114.3z"/>
	<path class="st2_calling-81" d="M267.7,162.5l-1.1,26.4c0,0,10.6,14.9,26.9,8s17-20.3,17-20.3l-5.2-50.3c0,0-13.7-4.6-14.5-32.6&#10;&#9;&#9;c0,0-17.3,12.4-43.1,13.4c0,0-2.8,30.9,1.4,43.7S267.7,162.5,267.7,162.5z"/>
	<path class="st1_calling-81" d="M285.1,199.5c-11.7,0-19-10-19.1-10.1c-0.1-0.1-0.1-0.3-0.1-0.5l1.1-25.6c-3.2,0-14.7-0.8-18.5-12.2&#10;&#9;&#9;c-4.2-12.8-1.6-42.8-1.4-44c0-0.4,0.4-0.7,0.7-0.7c15.1-0.6,29.9-5.1,42.7-13.3c0.3-0.2,0.8-0.2,1.1,0.2c0.1,0.1,0.1,0.3,0.1,0.4&#10;&#9;&#9;c0.4,14.1,4.2,22,7.3,26.2c3.3,4.5,6.6,5.7,6.7,5.7c0.3,0.1,0.5,0.3,0.5,0.6l5.2,50.3c0,0.3-0.9,14.1-17.5,21.1&#10;&#9;&#9;C291.1,198.9,288.1,199.5,285.1,199.5z M267.4,188.7c1.4,1.8,11.2,13.8,25.9,7.6c15.7-6.6,16.5-19.5,16.5-19.7l-5.2-49.7&#10;&#9;&#9;c-2.5-1.1-13.4-7.3-14.5-31.7c-12.6,7.7-26.9,12.1-41.7,12.8c-0.4,4.6-2.3,31.3,1.4,42.7c4,12.1,17.2,11.2,17.8,11.1&#10;&#9;&#9;c0.2,0,0.4,0.1,0.6,0.2c0.2,0.1,0.2,0.4,0.2,0.6L267.4,188.7z"/>
	<path class="st2_calling-81" d="M298.2,139.6c3.5,0.9,7.3,0.4,10.4-1.5c4.5-2.7,6.7-7.6,6.8-12.7c0.1-1.9-0.2-3.7-0.9-5.5&#10;&#9;&#9;c-0.7-1.7-2.2-3.1-4-3.7c-2.2-0.6-4.4,0.2-6.5,1.1c-3.1,1.2-3.3,2.9-5.2,5.3c0.2-0.2,0.4-0.8,0.6-1"/>
	<path class="st1_calling-81" d="M301.6,140.8c-1.2,0-2.4-0.2-3.6-0.4c-0.4-0.1-0.7-0.5-0.6-0.9c0.1-0.4,0.5-0.7,0.9-0.6c0.1,0,0.1,0,0.2,0&#10;&#9;&#9;c3.3,0.8,6.9,0.3,9.8-1.4c4-2.4,6.3-6.8,6.4-12.1c0.1-1.8-0.2-3.5-0.9-5.1c-0.6-1.5-1.9-2.7-3.5-3.2c-1.9-0.5-3.8,0.2-6,1&#10;&#9;&#9;c-1.5,0.6-2.8,1.7-3.5,3.1c-0.4,0.6-0.8,1.2-1.3,1.8l-0.1,0.2c-0.3,0.3-0.8,0.2-1.1-0.2c-0.2-0.2-0.2-0.6-0.1-0.8l0.1-0.1l0.1-0.3&#10;&#9;&#9;c0.1-0.3,0.3-0.5,0.5-0.7c0.1-0.1,0.2-0.1,0.3-0.2l0.4-0.5c0.9-1.7,2.4-3,4.2-3.7c1.9-0.8,4.5-1.8,7-1.1c2,0.6,3.7,2.1,4.5,4.1&#10;&#9;&#9;c0.8,1.8,1.1,3.8,1,5.8c-0.1,5.9-2.7,10.7-7.1,13.4C306.8,140.1,304.2,140.8,301.6,140.8z"/>
	<path class="st1_calling-81" d="M267.1,176.4c6.1,0.2,11.9-2.7,15.5-7.6c6.3-8.4,4.7-14.4,4.7-14.4s-8.2,8.5-19.7,8.1L267.1,176.4z"/>
	<path class="st1_calling-81" d="M267.9,177.2c-0.3,0-0.5,0-0.8,0c-0.4,0-0.7-0.4-0.7-0.8l0.6-13.9c0-0.4,0.3-0.7,0.7-0.7c0,0,0,0,0,0&#10;&#9;&#9;c11,0.3,19-7.8,19.1-7.9c0.3-0.3,0.8-0.3,1.1,0c0.1,0.1,0.2,0.2,0.2,0.3c0.1,0.3,1.6,6.4-4.8,15C279.8,174.2,274,177.1,267.9,177.2&#10;&#9;&#9;z M268.5,163.3l-0.5,12.4c5.6-0.1,10.8-2.8,14.1-7.3c4.2-5.7,4.8-10.2,4.7-12.3C284.2,158.3,277.4,163.3,268.5,163.3L268.5,163.3z"/>
	<path class="st2_calling-81" d="M269.9,120.6c0,0-7.2,14.5-4.8,16.5s8.2-0.3,8.2-0.3"/>
	<path class="st1_calling-81" d="M268,138.8c-1.2,0.1-2.4-0.3-3.4-1c-2.7-2.2,2.9-13.9,4.6-17.5c0.2-0.4,0.7-0.5,1-0.3c0.3,0.2,0.5,0.6,0.3,1&#10;&#9;&#9;c-3.4,6.7-6.2,14.6-5,15.6c1.7,1.4,5.9,0.2,7.4-0.4c0.4-0.2,0.8,0,1,0.4c0.2,0.4,0,0.8-0.4,1C271.7,138.3,269.9,138.7,268,138.8z"/>
	
		<ellipse transform="matrix(0.9773 -0.2118 0.2118 0.9773 -18.6876 62.1026)" class="st1_calling-81" cx="280.5" cy="118.3" rx="2.2" ry="3.1"/>
	
		<ellipse transform="matrix(8.559088e-02 -0.9963 0.9963 8.559088e-02 116.7402 369.4142)" class="st1_calling-81" cx="259.6" cy="121.1" rx="3.1" ry="2.2"/>
	<path class="st1_calling-81" d="M269,157c-1.8,0.1-3.5-0.5-4.9-1.7c-4.5-4-4-11.8-4-12.1c0-0.4,0.3-0.7,0.7-0.7c20.1-2.4,20.4-2.2,20.7-1.9&#10;&#9;&#9;c0.2,0.1,0.3,0.4,0.3,0.6l0,0c0,3.1-0.7,6.2-2.1,8.9c-1.7,3.4-5,5.9-8.7,6.6C270.2,156.9,269.6,157,269,157z M261.6,144&#10;&#9;&#9;c0,1.9,0.3,7.3,3.5,10.2c1.6,1.2,3.6,1.6,5.5,1.2c3.3-0.7,6.1-2.8,7.7-5.9c1.2-2.3,1.8-4.9,1.9-7.4&#10;&#9;&#9;C277.5,142.2,268,143.3,261.6,144L261.6,144z M280.9,141.2L280.9,141.2z M280.9,141.2L280.9,141.2z"/>
	<path class="st1_calling-81" d="M278.9,149.9c-3.6,6.8-11.1,7.7-14.3,4.9c1-2.6,2.7-5.3,5.5-6.1C273,148.1,276.2,148.5,278.9,149.9z"/>
	<path class="st1_calling-81" d="M269,157c-1.8,0.1-3.5-0.5-4.9-1.6c-0.2-0.2-0.3-0.6-0.2-0.9c1.4-3.6,3.4-5.8,6-6.5c3.2-0.7,6.5-0.3,9.4,1.1&#10;&#9;&#9;c0.2,0.1,0.3,0.3,0.4,0.4c0.1,0.2,0.1,0.4,0,0.6c-1.7,3.4-5,5.9-8.7,6.6C270.2,156.9,269.6,157,269,157z M265.5,154.5&#10;&#9;&#9;c1.5,0.9,3.3,1.2,5,0.8c3-0.6,5.7-2.5,7.2-5.2c-2.4-1-5-1.3-7.5-0.7C268.3,150,266.7,151.7,265.5,154.5L265.5,154.5z"/>
	<path class="st1_calling-81" d="M238.6,187c0.2,1.6-11.3,59.1-11.3,59.1"/>
	<path class="st1_calling-81" d="M227.2,246.8h-0.1c-0.4-0.1-0.7-0.5-0.6-0.9c0,0,0,0,0,0c4.6-22.7,11.3-57.1,11.3-58.9c0-0.4,0.2-0.8,0.7-0.8&#10;&#9;&#9;c0,0,0,0,0,0c0.4,0,0.8,0.3,0.8,0.7c0,0,0,0,0,0c0.2,1.6-9.4,49.7-11.4,59.3C227.9,246.5,227.6,246.8,227.2,246.8z"/>
	<path class="st1_calling-81" d="M303.3,112.3l25.7,2.6c2.8,0.3,4.8,2.8,4.6,5.6l-5.8,57.5c-0.3,2.8-2.8,4.8-5.6,4.6l-25.7-2.6&#10;&#9;&#9;c-2.8-0.3-4.8-2.8-4.6-5.6l5.8-57.5C298,114,300.5,112,303.3,112.3z"/>
	<path class="st1_calling-81" d="M322.8,183.3c-0.2,0-0.4,0-0.6,0l-25.7-2.6c-3.2-0.3-5.6-3.2-5.2-6.4l5.8-57.5c0.1-1.6,0.9-3,2.1-4&#10;&#9;&#9;c1.2-1,2.7-1.5,4.3-1.3l25.7,2.6c3.2,0.3,5.6,3.2,5.3,6.4c0,0,0,0,0,0l-5.8,57.5C328.3,181,325.8,183.3,322.8,183.3L322.8,183.3z&#10;&#9;&#9; M302.8,113c-1,0-2,0.4-2.7,1c-0.9,0.7-1.5,1.8-1.6,2.9l-5.8,57.5c-0.2,2.4,1.5,4.5,3.9,4.8l25.7,2.6l0,0c1.2,0.1,2.3-0.3,3.2-1&#10;&#9;&#9;c0.9-0.7,1.5-1.8,1.6-2.9l5.8-57.5c0.1-1.2-0.3-2.3-1-3.2c-0.7-0.9-1.8-1.5-2.9-1.6l-25.7-2.6L302.8,113z"/>
	<path class="st2_calling-81" d="M391.5,224.4c0,0,10.6,22.1,12.6,30.9c6.3,27-17.9,62.6-47.2,44.7c-9.6-5.9-16.1-15.9-20.3-26.3&#10;&#9;&#9;c-9.1-22.2-13.6-46.8-15.3-70.6c-0.8-10.8,1.2-28.9-12-33.4c-4.3-1.5-9.2,3.2-10.2,1.2c-1.7-3.3,4.2-11.1,13.5-6.9&#10;&#9;&#9;c0,0-6.5-6.7-13.1-4.8s-3.8-4.8,0.4-6.2c3.8-1.4,12.7-0.2,15.8,6c0,0-2.9-9.8-8.1-10.8s-6.9-2.4-6.6-4c0.5-2.7,5.3-2.1,8.1-1.5&#10;&#9;&#9;s10.3,4.7,12.2,10.1c0,0-2.5-8.6-8.8-12.6c-4-2.5-7.2-2.2-6.4-3.4s5.4-4.6,11.2-0.4s13.6,17.8,13.6,17.8s0-9.4,0.8-9.1&#10;&#9;&#9;c4.5,1.1,6.8,12,7.4,15.5c1.5,8.4,4.1,14.2,8,21.9c7.2,14.5,15.8,34.9,22.3,49.7"/>
	<path class="st1_calling-81" d="M372.8,305.5c-5.8-0.1-11.4-1.9-16.2-5c-8.6-5.2-15.5-14.2-20.6-26.6c-8.4-20.3-13.5-44.2-15.4-70.9&#10;&#9;&#9;c-0.1-1.7-0.2-3.6-0.2-5.6c-0.3-10.5-0.6-23.5-11.2-27.1c-2-0.7-4.4,0.2-6.2,1s-3.6,1.4-4.4-0.1c-0.9-1.7-0.1-4.3,1.8-6.3&#10;&#9;&#9;c2.3-2.3,5.6-3.4,8.8-2.8c-2.4-1.6-5.8-3.1-9.3-2.1s-4.5-0.3-4.8-1.2c-0.7-2.1,1.8-5.5,4.8-6.5s9.2-0.7,13.5,2.6&#10;&#9;&#9;c-1.3-2.6-3.2-5.4-5.7-5.9c-3.3-0.7-7.7-2-7.2-4.9c0.7-3.7,7-2.5,9-2.1c3,0.9,5.8,2.4,8.1,4.4c-1.4-2.2-3.2-4.1-5.3-5.5&#10;&#9;&#9;c-1.4-0.9-3-1.5-4.6-2c-1.2-0.4-2-0.6-2.2-1.3c-0.1-0.4-0.1-0.8,0.2-1.2c1.2-1.4,2.8-2.4,4.6-2.7c2.8-0.4,5.6,0.3,7.7,2.1&#10;&#9;&#9;c4.4,3.3,9.8,11.6,12.3,15.7c0.1-6.3,0.8-6.8,1-7c0.2-0.2,0.5-0.2,0.8-0.2c5,1.2,7.3,12.7,7.9,16.2c1.4,8.3,4.1,14,7.9,21.7&#10;&#9;&#9;c5.8,11.7,12.4,27,18.3,40.6c1.4,3.2,2.7,6.3,4,9.2c0.1,0.4-0.1,0.8-0.5,1c-0.4,0.1-0.8,0-0.9-0.4c-1.3-2.9-2.6-6-4-9.2&#10;&#9;&#9;c-5.8-13.5-12.5-28.8-18.2-40.5c-3.9-7.9-6.6-13.7-8.1-22.2c-1-6-3.3-13.3-6.3-14.7c-0.3,2.7-0.5,5.5-0.4,8.2&#10;&#9;&#9;c0,0.4-0.4,0.8-0.8,0.8c-0.3,0-0.5-0.1-0.6-0.4c-0.1-0.1-7.7-13.4-13.3-17.6c-1.8-1.5-4.2-2.2-6.5-1.9c-1.3,0.2-2.5,0.9-3.5,1.9&#10;&#9;&#9;c0.3,0.1,0.7,0.2,1.1,0.4c1.7,0.5,3.4,1.2,4.9,2.1c6.5,4.1,9.1,12.6,9.2,13c0.1,0.4-0.1,0.8-0.5,0.9c0,0,0,0,0,0&#10;&#9;&#9;c-0.4,0.1-0.8-0.1-1-0.5c0,0,0,0,0,0c-1.8-5.1-9-9.1-11.6-9.6c-4.4-0.8-6.9-0.5-7.2,0.9c-0.2,1.1,1.9,2.2,6,3.1&#10;&#9;&#9;c5.5,1.1,8.5,10.9,8.7,11.4c0.1,0.4-0.1,0.8-0.5,0.9c-0.4,0.2-0.8,0-1-0.4c-2.9-5.8-11.3-6.9-14.9-5.6c-2.4,0.9-4.2,3.5-3.8,4.6&#10;&#9;&#9;c0.2,0.6,1.3,0.6,2.9,0.2c7-2,13.6,4.7,13.9,5c0.3,0.3,0.3,0.7,0.1,1c-0.2,0.3-0.6,0.4-0.9,0.3c-6.3-2.9-10,0.3-11,1.3&#10;&#9;&#9;c-1.5,1.5-2.1,3.4-1.5,4.5c0.3,0.2,1.6-0.3,2.5-0.6c2-0.8,4.7-1.9,7.3-1c11.6,4,12,17.6,12.3,28.5c0.1,2,0.1,3.9,0.2,5.6&#10;&#9;&#9;c1.9,26.5,7,50.2,15.3,70.4c5,12.1,11.7,20.8,20,25.9c10.5,6.4,21.3,6.3,30.5-0.4c12.3-8.9,19.1-28,15.5-43.4&#10;&#9;&#9;c-2-8.5-12.5-30.5-12.6-30.7c-0.2-0.4,0-0.8,0.4-1c0.4-0.2,0.8,0,1,0.4c0,0,0,0,0,0c0.4,0.9,10.6,22.3,12.7,31&#10;&#9;&#9;c3.8,16.3-3.1,35.6-16.1,45C384.1,303.5,378.5,305.4,372.8,305.5z"/>
	<circle class="st2_calling-81" cx="315.4" cy="123.5" r="2.9"/>
	<path class="st1_calling-81" d="M315.4,127.1c-2,0-3.6-1.6-3.6-3.6s1.6-3.6,3.6-3.6s3.6,1.6,3.6,3.6C319.1,125.5,317.4,127.1,315.4,127.1&#10;&#9;&#9;L315.4,127.1z M315.4,121.4c-1.2,0-2.1,0.9-2.1,2.1s0.9,2.1,2.1,2.1c1.2,0,2.1-0.9,2.1-2.1c0,0,0,0,0,0&#10;&#9;&#9;C317.5,122.3,316.6,121.4,315.4,121.4C315.4,121.4,315.4,121.4,315.4,121.4z"/>
	<path class="st1_calling-81" d="M382.3,263.4c-0.3,0-0.6-0.2-0.7-0.5l-14.1-33.2c-0.2-0.4,0-0.8,0.4-1c0.4-0.2,0.8,0,1,0.4l14.1,33.2&#10;&#9;&#9;c0.2,0.4,0,0.8-0.4,1c0,0,0,0,0,0C382.5,263.4,382.4,263.4,382.3,263.4z"/>
	<path class="st2_calling-81" d="M191.1,233.6l-7.5,37.2l-25.8-30.4c0,0-4.4-7.4-7.3-8.4c-3.4-1.3-17.3-2.1-21.9-5.9s-7.2-4.6-7.6-1.7&#10;&#9;&#9;s12.2,10.5,12.2,10.5s-10.1,3-12.2,2.1s-7.3-11.8-9.4-11.8c-1.1,0-3.4,2.3-1.2,7.1c-1.8-4.6-4.4-9.8-6.6-9.8s-2.1,3.9-0.7,9&#10;&#9;&#9;c0,0-5.6-9-7.7-3.5c-2,5.1,12.7,23.2,16,24s25.7-5.9,25.7-5.9s27.1,77.4,66.5,87.6c9.8,2.5,23.6-87.8,23.6-87.8L191.1,233.6z"/>
	<path class="st1_calling-81" d="M204,334.7c-0.2,0-0.4,0-0.6-0.1c-16.5-4.2-32.9-20.4-48.5-47.9c-7.1-12.6-13.2-25.8-18.3-39.4&#10;&#9;&#9;c-4.3,1.3-22.2,6.5-25.4,5.7c-2.9-0.7-11.2-10.6-14.8-17.6c-1.8-3.4-2.3-5.8-1.7-7.4c0.6-1.4,1.4-2.2,2.5-2.3&#10;&#9;&#9;c1.5-0.1,3.2,1.2,4.4,2.7c-0.4-2.7-0.3-4.6,0.5-5.6c0.4-0.5,1.1-0.9,1.8-0.8l0,0c1.6,0,3.3,1.8,5.2,5.4c0.1-0.5,0.3-0.9,0.6-1.4&#10;&#9;&#9;c0.4-0.8,1.2-1.3,2.1-1.4c1.5,0,3.2,2.5,5.8,6.6c1.3,2.1,3.2,5,3.9,5.3c1.1,0.4,6.1-0.6,10.1-1.7c-4-2.5-11.5-7.6-11.1-10.4&#10;&#9;&#9;c0-1,0.6-1.9,1.5-2.3c1.5-0.6,3.7,0.5,7.3,3.5c3,2.4,10.3,3.6,15.6,4.5c2.1,0.3,4.1,0.7,6.1,1.3c3,1.1,7.2,8,7.6,8.8l24.7,29&#10;&#9;&#9;l7.2-35.6c0-0.2,0.2-0.4,0.4-0.5c0.2-0.1,0.4-0.1,0.6-0.1l36.1,12.4c0.3,0.1,0.6,0.5,0.5,0.8c-0.5,3.3-12.6,81.5-22.4,88&#10;&#9;&#9;C205.1,334.4,204.6,334.6,204,334.7z M137.1,245.5c0.3,0,0.6,0.2,0.7,0.5c0.3,0.8,27.4,77.2,66,87.1c0.4,0.1,0.7,0,1-0.2&#10;&#9;&#9;c7.3-4.9,17.3-58.2,21.6-86.3l-34.7-12l-7.3,36.4c-0.1,0.3-0.3,0.5-0.6,0.6c-0.3,0.1-0.6,0-0.8-0.2l-25.8-30.3&#10;&#9;&#9;c-1.3-2.1-4.8-7.4-7-8.2c-1.9-0.5-3.9-0.9-5.8-1.2c-5.8-1-13-2.2-16.3-4.9c-4-3.2-5.3-3.4-5.8-3.2c-0.3,0.1-0.5,0.7-0.5,1.1&#10;&#9;&#9;c-0.2,1.5,6,6.2,11.9,9.8c0.3,0.2,0.4,0.5,0.4,0.8c0,0.3-0.3,0.5-0.6,0.6c-1.7,0.5-10.5,3-12.7,2.1c-1.1-0.5-2.5-2.5-4.6-5.9&#10;&#9;&#9;c-1.4-2.1-3.7-5.7-4.5-5.9c-0.3,0.1-0.6,0.4-0.8,0.7c-0.3,0.5-1,2,0,4.6l0.3,0.8c0.2,0.4,0,0.8-0.4,1c0,0,0,0,0,0&#10;&#9;&#9;c-0.4,0.2-0.8,0-1-0.4c-0.1-0.3-0.2-0.6-0.3-0.9c-2.5-6.2-4.6-8.4-5.6-8.4l0,0c-0.2,0-0.4,0.1-0.5,0.2c-0.3,0.3-1,1.9,0.6,7.8&#10;&#9;&#9;c0.1,0.4-0.1,0.8-0.4,0.9c-0.4,0.2-0.8,0.1-1-0.3c-1.3-2.1-3.8-5.1-5.2-4.9c-0.5,0-0.9,0.5-1.2,1.3c-0.2,0.6-0.4,2.3,1.7,6.1&#10;&#9;&#9;c3.8,7.2,11.8,16.4,13.8,16.9c2.3,0.6,16.4-3.2,25.3-5.9L137.1,245.5z"/>
	<line class="st3_calling-81" x1="110.4" y1="232.4" x2="115.3" y2="239.3"/>
	<path class="st1_calling-81" d="M115.3,240c-0.2,0-0.5-0.1-0.6-0.3l-4.9-6.9c-0.2-0.3-0.2-0.8,0.2-1.1c0,0,0,0,0,0c0.3-0.2,0.8-0.2,1.1,0.2&#10;&#9;&#9;l4.8,6.9c0.2,0.3,0.2,0.8-0.2,1.1c0,0,0,0,0,0C115.6,240,115.4,240,115.3,240z"/>
	<path class="st2_calling-81" d="M103.1,231.6c1.7,2.6,3.6,5.2,5.6,7.6"/>
	<path class="st1_calling-81" d="M108.6,240c-0.2,0-0.4-0.1-0.6-0.2c-2-2.5-3.9-5-5.6-7.7c-0.3-0.3-0.2-0.8,0.1-1.1c0.3-0.3,0.8-0.2,1.1,0.1&#10;&#9;&#9;c0,0,0.1,0.1,0.1,0.1c1.7,2.6,3.5,5.1,5.5,7.5c0.3,0.3,0.3,0.8,0,1.1C109,239.9,108.8,240,108.6,240z"/>
</g>
<g id="desk_calling-81">
	<polygon class="st2_calling-81" points="103.1,330.4 396.9,330.4 444,422.7 56,422.7 &#9;"/>
	<path class="st4_calling-81" d="M444,423.4H56c-0.3,0-0.5-0.1-0.7-0.4c-0.1-0.2-0.1-0.5,0-0.8l47.1-92.3c0.1-0.3,0.4-0.4,0.7-0.4h293.8&#10;&#9;&#9;c0.3,0,0.6,0.2,0.7,0.4l47.1,92.3c0.1,0.2,0.1,0.5,0,0.8C444.6,423.3,444.3,423.4,444,423.4z M57.2,421.9h385.6l-46.4-90.8H103.6&#10;&#9;&#9;L57.2,421.9z"/>
</g>
<g id="laptop_calling-81">
	<polygon class="st2_calling-81" points="130.3,371.6 130.7,376.3 236.5,391.8 235.4,386.9 &#9;"/>
	<path class="st1_calling-81" d="M236.5,392.5h-0.1l-105.8-15.5c-0.4-0.1-0.6-0.3-0.7-0.7l-0.4-4.7c0-0.2,0.1-0.5,0.2-0.6&#10;&#9;&#9;c0.2-0.2,0.4-0.2,0.6-0.2l105.2,15.2c0.3,0,0.6,0.3,0.6,0.6l1.1,4.9c0.1,0.4-0.2,0.8-0.6,0.9C236.6,392.5,236.5,392.5,236.5,392.5z&#10;&#9;&#9; M131.4,375.6l104.1,15.2l-0.7-3.3l-103.7-15L131.4,375.6z"/>
	<path class="st2_calling-81" d="M130.3,371.6c0,0,24.1-20.6,24.9-20.5s109,13.1,109,13.1l-28.7,22.5L130.3,371.6z"/>
	<path class="st1_calling-81" d="M235.4,387.6h-0.1l-105.2-15.2c-0.3,0-0.5-0.3-0.6-0.5c-0.1-0.3,0-0.6,0.2-0.8c24.4-20.9,25.1-20.8,25.6-20.6&#10;&#9;&#9;c1.6,0.3,107.8,13,108.9,13.1c0.3,0,0.6,0.3,0.6,0.5c0.1,0.3,0,0.6-0.3,0.8l-28.7,22.5C235.8,387.6,235.6,387.6,235.4,387.6z&#10;&#9;&#9; M132,371.1L235.2,386l27-21.2c-21-2.5-101.7-12.2-107-12.9C153.5,353,140.7,363.7,132,371.1z"/>
	<polygon class="st2_calling-81" points="236.5,391.8 264.6,369 264.2,364.3 235.4,386.9 &#9;"/>
	<path class="st1_calling-81" d="M236.5,392.5c-0.4,0-0.7-0.2-0.8-0.6l-1.1-4.9c-0.1-0.3,0-0.6,0.3-0.8l28.7-22.5c0.2-0.2,0.5-0.2,0.8-0.1&#10;&#9;&#9;c0.3,0.1,0.4,0.4,0.5,0.6l0.4,4.7c0,0.3-0.1,0.5-0.3,0.7L237,392.4C236.9,392.5,236.7,392.6,236.5,392.5z M236.3,387.1l0.7,3.2&#10;&#9;&#9;l26.8-21.7l-0.3-2.9L236.3,387.1z"/>
	<polygon class="st2_calling-81" points="130.3,371.6 109.9,303.5 221.5,322.5 235.4,386.9 &#9;"/>
	<path class="st1_calling-81" d="M235.4,387.6h-0.1l-105.2-15.2c-0.3,0-0.5-0.3-0.6-0.5l-20.3-68.1c-0.1-0.3,0-0.5,0.2-0.7&#10;&#9;&#9;c0.2-0.2,0.4-0.3,0.7-0.2l111.5,19c0.3,0.1,0.6,0.3,0.6,0.6l14,64.3c0.1,0.2,0,0.5-0.2,0.7C235.9,387.5,235.6,387.6,235.4,387.6z&#10;&#9;&#9; M130.9,370.9l103.6,15l-13.6-62.8L111,304.5L130.9,370.9z"/>
</g>
<g id="glass_of_coffee_calling-81">
	<ellipse class="st2_calling-81" cx="328.9" cy="369.9" rx="41.2" ry="12.4"/>
	<path class="st4_calling-81" d="M328.9,383.1c-20.6,0-42-4.9-42-13.2s21.3-13.2,42-13.2s42,4.9,42,13.2S349.5,383.1,328.9,383.1z M328.9,358.3&#10;&#9;&#9;c-24.2,0-40.4,6-40.4,11.6s16.2,11.6,40.4,11.6s40.4-6,40.4-11.6S353.1,358.3,328.9,358.3L328.9,358.3z"/>
	<path class="st2_calling-81" d="M297.9,334.5l-1,0.2c-3,0.4-5.7,2-7.6,4.3c-2.3,3.2-2.1,7.7-0.2,11.1c4.4,7.9,15,10.1,23.2,10.8&#10;&#9;&#9;c1.2,0.2,2.3,0.1,3.5-0.3c1.4-0.3,2.2-1.7,1.9-3.1c-0.2-0.8-0.8-1.5-1.5-1.8c-0.9-0.4-1.8-0.7-2.7-0.8c-5.1-0.8-10.5-1.5-15.1-3.8&#10;&#9;&#9;c-2.7-1.4-6.5-4.5-4.5-7.9c0.7-1.1,1.7-1.9,2.9-2.5c4.7-2.2,9.1-0.5,13.8,0.8c0.3,0.1,0.7,0.2,1,0.2c0.9-0.3,1.5-1.2,1.3-2.1&#10;&#9;&#9;c-0.1-2-2.2-3.4-4.1-4.1C305.2,334.4,301.5,334,297.9,334.5z"/>
	<path class="st1_calling-81" d="M313.6,361.8c-0.5,0-1,0-1.5-0.1c-12.5-1.2-20.3-4.8-23.8-11.2c-2.2-4-2.1-8.8,0.3-12c2.1-2.9,5.6-4.1,8.1-4.6&#10;&#9;&#9;c0.3-0.1,0.7-0.1,1-0.2c3.8-0.5,7.6-0.1,11.1,1.3c1.6,0.6,4.4,2,4.5,4.7c0.2,1.3-0.7,2.6-2,2.9c-0.5,0-0.9,0-1.4-0.2l-1.2-0.4&#10;&#9;&#9;c-4.1-1.2-8-2.4-12-0.5c-1,0.4-1.9,1.2-2.5,2.1c-0.5,0.7-0.6,1.6-0.3,2.4c0.5,1.9,2.8,3.6,4.5,4.5c4,2,8.6,2.7,13,3.4l1.9,0.3&#10;&#9;&#9;c1,0.1,2.1,0.4,3,0.9c1.1,0.5,1.9,1.6,2,2.8c0,1.5-1,2.9-2.4,3.4C315.3,361.7,314.5,361.8,313.6,361.8z M298,335.3&#10;&#9;&#9;c-0.3,0-0.6,0.1-1,0.2c-2.2,0.4-5.3,1.5-7.1,4c-2,2.7-2.1,6.9-0.2,10.3c3.3,5.9,10.7,9.3,22.6,10.4c1,0.2,2.1,0.1,3.1-0.2&#10;&#9;&#9;c0.8-0.3,1.4-1,1.4-1.9c-0.1-0.7-0.6-1.3-1.2-1.6c-0.8-0.4-1.6-0.6-2.5-0.7l-1.9-0.3c-4.6-0.7-9.3-1.5-13.5-3.6&#10;&#9;&#9;c-2.1-1.1-4.6-3-5.3-5.4c-0.4-1.2-0.2-2.5,0.5-3.6c0.8-1.2,1.9-2.2,3.2-2.8c4.5-2.2,8.9-0.9,13.1,0.4l1.2,0.4&#10;&#9;&#9;c0.2,0.1,0.5,0.1,0.7,0.1c0.4-0.1,0.7-0.7,0.7-1.3c-0.1-1.9-2.5-3-3.6-3.4C305.1,335.1,301.5,334.7,298,335.3z"/>
	<path class="st2_calling-81" d="M301.7,326.1c0,0,7.7,38.5,8.3,40.8s18.9,11.8,33.4,2.5l12.7-39.3L301.7,326.1z"/>
	<path class="st1_calling-81" d="M329.2,374.1c-4.4,0-8.7-0.9-12.7-2.4c-3.2-1.2-6.8-3.2-7.2-4.7c-0.6-2.3-8-39.3-8.4-40.8c0-0.2,0-0.5,0.2-0.7&#10;&#9;&#9;c0.2-0.2,0.4-0.3,0.6-0.2l54.4,4c0.2,0,0.4,0.1,0.6,0.3c0.1,0.2,0.2,0.4,0.1,0.7l-12.7,39.3c-0.1,0.2-0.2,0.3-0.3,0.4&#10;&#9;&#9;C339.5,372.8,334.4,374.2,329.2,374.1z M302.7,326.9c1.2,6,7.6,37.7,8.1,39.8c0.2,0.5,3,2.7,8.1,4.3s14.9,3.5,23.9-2.1l12.3-38.1&#10;&#9;&#9;L302.7,326.9z"/>
	
		<ellipse transform="matrix(4.100371e-02 -0.9992 0.9992 4.100371e-02 -11.4025 642.4846)" class="st1_calling-81" cx="329" cy="327.2" rx="11.8" ry="27.3"/>
	<path class="st1_calling-81" d="M331.1,339.8c-0.9,0-1.8,0-2.6,0c-15.7-0.6-27.8-6.7-27.5-13.7c0.1-3.5,3.3-6.6,8.8-8.7c5.3-2,12.3-3,19.7-2.7&#10;&#9;&#9;c15.7,0.6,27.8,6.7,27.5,13.7c-0.1,3.5-3.3,6.6-8.8,8.7C342.7,339,336.9,339.9,331.1,339.8z M326.8,316.1&#10;&#9;&#9;c-5.6-0.1-11.2,0.8-16.5,2.7c-4.9,1.9-7.7,4.5-7.8,7.3c-0.2,6,11.7,11.5,26,12.1c7.2,0.3,14-0.6,19.1-2.6c4.9-1.9,7.7-4.5,7.8-7.3&#10;&#9;&#9;c0.2-6-11.7-11.5-26-12.1C328.6,316.1,327.7,316.1,326.8,316.1z"/>
</g>
<g id="bubble_calling-81">
	<path class="st2_calling-81" d="M222.7,156.5c0,0-9.9-0.8-15.7-6.8c3.4-4.5,5.2-9.9,5.3-15.5c0-20.2-25.2-36.5-56.3-36.5s-56.3,16.3-56.3,36.5&#10;&#9;&#9;s25.2,36.5,56.3,36.5c17.3,0,32.8-5.1,43.1-13C207,158.6,214.9,158.2,222.7,156.5z"/>
	<path class="st4_calling-81" d="M156,171.5c-31.5,0-57-16.7-57-37.3S124.5,97,156,97s57.1,16.7,57.1,37.3c-0.1,5.5-1.8,10.9-5.1,15.4&#10;&#9;&#9;c5.6,5.4,14.6,6.1,14.7,6.1c0.4,0,0.7,0.3,0.7,0.7c0,0.4-0.2,0.7-0.6,0.8c-7.7,1.6-15.7,2-23.5,1.2&#10;&#9;&#9;C188.5,166.8,172.7,171.5,156,171.5z M156,98.5c-30.6,0-55.5,16-55.5,35.7S125.4,170,156,170c16.5,0,32-4.7,42.6-12.9&#10;&#9;&#9;c0.2-0.1,0.3-0.2,0.5-0.2c6.4,0.6,12.8,0.5,19.2-0.4c-3.5-0.8-8.4-2.6-11.9-6.3c-0.3-0.3-0.3-0.7-0.1-1c3.3-4.3,5.1-9.6,5.1-15&#10;&#9;&#9;C211.5,114.6,186.6,98.5,156,98.5z"/>
</g>
</svg>