<svg id="_0207_camera" xmlns="http://www.w3.org/2000/svg" xmlns:xlink="http://www.w3.org/1999/xlink" viewBox="0 0 500 500" data-imageid="camera-13" imageName="Camera" class="illustrations_image" style="width: 158px;"><defs><style>.cls-1_camera-13{fill:url(#linear-gradient);}.cls-1_camera-13,.cls-2_camera-13,.cls-3_camera-13,.cls-4_camera-13,.cls-5_camera-13,.cls-6_camera-13,.cls-7_camera-13,.cls-8_camera-13,.cls-9_camera-13,.cls-10_camera-13,.cls-11_camera-13,.cls-12_camera-13,.cls-13_camera-13,.cls-14_camera-13,.cls-15_camera-13,.cls-16_camera-13,.cls-17_camera-13,.cls-18_camera-13{stroke-width:0px;}.cls-2_camera-13{fill:url(#linear-gradient-11-camera-13);}.cls-3_camera-13{fill:url(#linear-gradient-12-camera-13);}.cls-4_camera-13{fill:url(#linear-gradient-13-camera-13);}.cls-5_camera-13{fill:url(#linear-gradient-10-camera-13);}.cls-6_camera-13{fill:url(#linear-gradient-15-camera-13);}.cls-7_camera-13{fill:url(#linear-gradient-14-camera-13);}.cls-8_camera-13{fill:url(#linear-gradient-4-camera-13);}.cls-9_camera-13{fill:url(#linear-gradient-2-camera-13);}.cls-10_camera-13{fill:url(#linear-gradient-3-camera-13);}.cls-11_camera-13{fill:url(#linear-gradient-8-camera-13);}.cls-12_camera-13{fill:url(#linear-gradient-9-camera-13);}.cls-13_camera-13{fill:url(#linear-gradient-7-camera-13);}.cls-14_camera-13{fill:url(#linear-gradient-5-camera-13);}.cls-15_camera-13{fill:url(#linear-gradient-6-camera-13);}.cls-16_camera-13{isolation:isolate;opacity:.24;}.cls-16_camera-13,.cls-18_camera-13{fill:#68e1fd;}.cls-17_camera-13{fill:#ffaa71;}</style><linearGradient id="linear-gradient-camera-13" x1="754.39" y1="1726.79" x2="785" y2="1726.79" gradientTransform="translate(-558.26 1851.22) scale(1 -1)" gradientUnits="userSpaceOnUse"><stop offset="0" stop-color="#231f20" stop-opacity="0"/><stop offset="1" stop-color="#231f20"/></linearGradient><linearGradient id="linear-gradient-2-camera-13" x1="796.66" y1="1736.18" x2="797.98" y2="1713.19" xlink:href="#linear-gradient-camera-13"/><linearGradient id="linear-gradient-3-camera-13" x1="825.86" y1="1700.23" x2="913.24" y2="1700.23" gradientTransform="translate(-1415.56 -664.43) rotate(88.19) scale(1 -1)" xlink:href="#linear-gradient-camera-13"/><linearGradient id="linear-gradient-4-camera-13" x1="893.43" y1="1742.15" x2="889.62" y2="1635.4" gradientTransform="translate(-1404.3 -663.14) rotate(87.43) scale(1 -1)" gradientUnits="userSpaceOnUse"><stop offset="0" stop-color="#fff" stop-opacity="0"/><stop offset=".95" stop-color="#fff"/></linearGradient><linearGradient id="linear-gradient-5-camera-13" x1="710.95" y1="1655.41" x2="919.58" y2="1655.41" gradientTransform="translate(-1428.86 -554.43) rotate(87.77) scale(1 -1)" xlink:href="#linear-gradient-camera-13"/><linearGradient id="linear-gradient-6-camera-13" x1="705.95" y1="1670.96" x2="783.46" y2="1670.96" gradientTransform="translate(-1494.97 -281.77) rotate(80.78) scale(1 -1)" xlink:href="#linear-gradient-4-camera-13"/><linearGradient id="linear-gradient-7-camera-13" x1="717.38" y1="1671" x2="772.09" y2="1671" gradientTransform="translate(-471 1856.62) scale(1 -1)" xlink:href="#linear-gradient-camera-13"/><linearGradient id="linear-gradient-8-camera-13" x1="716.87" y1="1715.12" x2="729.97" y2="1715.12" gradientTransform="translate(-471 1856.62) scale(1 -1)" xlink:href="#linear-gradient-camera-13"/><linearGradient id="linear-gradient-9-camera-13" x1="797.29" y1="1725.5" x2="798.49" y2="1715.49" xlink:href="#linear-gradient-camera-13"/><linearGradient id="linear-gradient-10-camera-13" x1="896.32" y1="1674.47" x2="943.34" y2="1721.81" xlink:href="#linear-gradient-camera-13"/><linearGradient id="linear-gradient-11-camera-13" x1="968.7" y1="1791.67" x2="932.48" y2="1696.36" gradientTransform="translate(-558.26 1851.22) scale(1 -1)" xlink:href="#linear-gradient-4-camera-13"/><linearGradient id="linear-gradient-12-camera-13" x1="706.53" y1="1465.6" x2="726.54" y2="1620.96" xlink:href="#linear-gradient-camera-13"/><linearGradient id="linear-gradient-13-camera-13" x1="185.24" y1="246.81" x2="175.36" y2="361.12" gradientTransform="matrix(1,0,0,1,0,0)" xlink:href="#linear-gradient-camera-13"/><linearGradient id="linear-gradient-14-camera-13" x1="665.54" y1="1671.55" x2="1167.83" y2="1606.74" xlink:href="#linear-gradient-camera-13"/><linearGradient id="linear-gradient-15-camera-13" x1="760.25" y1="1751.52" x2="749.45" y2="1654.3" xlink:href="#linear-gradient-camera-13"/></defs><path id="background_camera-13" class="cls-16_camera-13 targetColor" d="M33.81,372.34c-13.64-29.69-17.21-65-4.64-95.17,11.3-27.12,34.9-49.46,38.46-78.62,1.95-16-2.5-32.1-2.13-48.21.64-27.83,16.2-54.16,38.21-71.12,22.01-16.96,50.01-25.16,77.81-26.52,11.03-.55,22.17-.08,33.01-2.18,14.19-2.76,27.13-9.79,40.76-14.63,37.19-13.22,83.99-7.12,108.06,24.16,18.5,24.05,20.88,58.35,41.92,80.22,12.21,12.68,29.15,19.46,45.57,25.8,10.98,4.26,22.5,8.82,29.85,17.98,5.29,6.58,7.89,14.95,9.06,23.31,3.61,25.68-6.16,52.87-25.26,70.38-14.5,13.26-33.18,20.74-49.81,31.17s-32.31,25.86-34.11,45.4c-1.98,21.64,13.58,43.11,7.78,64.06-3.58,12.95-15.01,22.65-27.64,27.29-12.63,4.64-26.44,4.8-39.84,4.12-41.25-2.09-82.89-12.01-123.38-3.88-31.05,6.23-69.07,23.64-99.21,4.66-26.64-16.81-51.57-50.16-64.47-78.21Z" style="fill: rgb(236, 156, 82);"/><g id="camera_camera-13"><path class="cls-18_camera-13 targetColor" d="M225.65,121.02c-.8-.52-1.73-.79-2.69-.77-7.38-.53-14.8-.56-22.17-.6-.58-.04-1.16.04-1.71.23-.41.22-.78.51-1.08.85-1.03,1-2.11,2.29-1.83,3.7.33,1.09,1.12,1.99,2.17,2.44,3.21,1.77,7.04,1.9,10.69,2l12.22.33c2.98.09,4.91-.09,5.36-3.41.19-1.56.38-3.68-.96-4.78Z" style="fill: rgb(236, 156, 82);"/><path class="cls-1_camera-13" d="M225.65,121.02c-.8-.52-1.73-.79-2.69-.77-7.38-.53-14.8-.56-22.17-.6-.58-.04-1.16.04-1.71.23-.41.22-.78.51-1.08.85-1.03,1-2.11,2.29-1.83,3.7.33,1.09,1.12,1.99,2.17,2.44,3.21,1.77,7.04,1.9,10.69,2l12.22.33c2.98.09,4.91-.09,5.36-3.41.19-1.56.38-3.68-.96-4.78Z"/><path class="cls-18_camera-13 targetColor" d="M232.94,115.72c.01-.16.07-.32.16-.46.2-.19.47-.29.75-.27,3.41-.19,6.82-.19,10.23,0,.27-.02.54.07.75.25.13.19.2.42.19.65.22,3.48.3,6.96.26,10.45,0,.2-9.21.26-10.05.26-1.1,0-2.45.32-2.76-1-.17-1.39-.17-2.8,0-4.19.05-1.9.21-3.8.48-5.68Z" style="fill: rgb(236, 156, 82);"/><path class="cls-9_camera-13" d="M232.94,115.72c.01-.16.07-.32.16-.46.2-.19.47-.29.75-.27,3.41-.19,6.82-.19,10.23,0,.27-.02.54.07.75.25.13.19.2.42.19.65.22,3.48.3,6.96.26,10.45,0,.2-9.21.26-10.05.26-1.1,0-2.45.32-2.76-1-.17-1.39-.17-2.8,0-4.19.05-1.9.21-3.8.48-5.68Z"/><rect class="cls-18_camera-13 targetColor" x="198.85" y="93.98" width="124.86" height="198.86" rx="9.69" ry="9.69" transform="translate(57.5 446.68) rotate(-87.69)" style="fill: rgb(236, 156, 82);"/><rect class="cls-10_camera-13" x="299.01" y="107.66" width="24.58" height="86.64" transform="translate(150.56 457.35) rotate(-88.19)"/><rect class="cls-18_camera-13 targetColor" x="281.88" y="134.65" width="18.91" height="30.18" transform="translate(128.92 434.21) rotate(-87.48)" style="fill: rgb(236, 156, 82);"/><rect class="cls-8_camera-13" x="322.88" y="132.46" width="19.7" height="38.44" transform="translate(166.62 477.44) rotate(-87.49)"/><rect class="cls-14_camera-13" x="227.87" y="92.55" width="58.29" height="206.51" transform="translate(51.36 445.01) rotate(-87.77)"/><circle class="cls-18_camera-13 targetColor" cx="273.7" cy="185.66" r="38.76" transform="translate(46.59 426.09) rotate(-80.78)" style="fill: rgb(236, 156, 82);"/><circle class="cls-15_camera-13" cx="273.7" cy="185.66" r="38.76" transform="translate(46.59 426.09) rotate(-80.78)"/><circle class="cls-13_camera-13" cx="273.74" cy="185.62" r="27.36"/><circle class="cls-11_camera-13" cx="252.42" cy="141.5" r="6.55"/><path class="cls-18_camera-13 targetColor" d="M247.18,124.92c.51,0,1.02.12,1.49.32.82.48,1.37,1.33,1.46,2.29.09.95.03,1.91-.18,2.85,0,.21-.1.41-.25.56-.14.07-.29.1-.44.09l-9.76-.05c-2.76,0-6.69.72-9.33-.11-2.08-.66-1.8-2.95-1.53-4.8.34-2.29,1.18-1.94,3.19-1.94,1.62,0,3.25.05,4.87.12,3.47.14,6.98.68,10.47.68Z" style="fill: rgb(236, 156, 82);"/><path class="cls-12_camera-13" d="M247.18,124.92c.51,0,1.02.12,1.49.32.82.48,1.37,1.33,1.46,2.29.09.95.03,1.91-.18,2.85,0,.21-.1.41-.25.56-.14.07-.29.1-.44.09l-9.76-.05c-2.76,0-6.69.72-9.33-.11-2.08-.66-1.8-2.95-1.53-4.8.34-2.29,1.18-1.94,3.19-1.94,1.62,0,3.25.05,4.87.12,3.47.14,6.98.68,10.47.68Z"/></g><g id="flash_camera-13"><path class="cls-5_camera-13" d="M317.66,155.8c7.77-1.63,15.84-.95,23.23,1.94,1.36.47,2.63,1.18,3.74,2.1,1.2,1.22,2.15,2.67,2.79,4.26,4.9,10.52,7.1,22.17,11.94,32.7.8-1.74,1.29-3.6,1.43-5.51,1.72-13.74,2.27-27.6,1.64-41.43-.05-1.43-.23-3.08-1.4-3.9-.67-.39-1.43-.61-2.2-.62-12.96-1.2-25.91,2.47-36.32,10.28"/><path class="cls-18_camera-13 targetColor" d="M321.04,98.97s36.67,12.39,64.81-25.26c0,0-3.33,55.75,55.76,21.92,0,0-39.56,38.13.48,65.3,0,0-66.72-31.94-66.24,35.26,0,0-9.06-58.62-57.99-40.51,0,0,50.36-17.16,3.18-56.71Z" style="fill: rgb(236, 156, 82);"/><path class="cls-2_camera-13" d="M324.37,95.79s36.67,12.39,64.81-25.26c0,0-3.33,55.76,55.76,21.92,0,0-39.56,38.13.48,65.29,0,0-66.72-31.93-66.24,35.27,0,0-9.06-58.62-57.99-40.51,0,0,50.36-17.15,3.18-56.71Z"/></g><g id="hand_camera-13"><path class="cls-18_camera-13 targetColor" d="M109.31,354.09c-1.32,4.6.09,9.5.09,14.29,0,12.48-9.54,23.38-9.89,35.86.07,1.92-.01,3.84-.25,5.75-.53,2.09-1.35,4.1-2.43,5.97-3.56,6.97-6.37,14.3-8.37,21.87-.38,1.45-.65,3.24.46,4.26.79.72,12.48,12.02,13.54,12.27,32.41,7.62,73.06,1.9,86.7-13.87-5.56-26.69,7.83-54.81,1.44-81.32-.12-.77-.44-1.49-.93-2.1-.72-.61-1.62-.98-2.56-1.07-14.75-2.86-29.8-3.88-44.58-6.54-9.92-1.83-28.88-10.53-33.22,4.61Z" style="fill: rgb(236, 156, 82);"/><path class="cls-3_camera-13" d="M136.03,368.03c11.09,5.12,23.72,5.8,35.82,4.62,4.26-.41,8.6-1.08,12.23-3.3,3.63-2.22,6.4-6.34,5.85-10.57-.06-.71-.32-1.39-.75-1.95-.62-.6-1.39-1.01-2.23-1.2l-9.04-2.91c-2.95-.95-5.91-1.9-8.95-2.56-4.02-.79-8.08-1.31-12.16-1.58-12.31-1.04-24.62-1.97-36.95-2.65-1.42-.08-2.99-.1-4.06.85-4.41,3.9,3.48,8.53,5.59,10.73,4.18,4.4,9.15,7.96,14.65,10.51Z"/><path class="cls-17_camera-13" d="M195.64,288.66c-10.78,21.7-12.44,46.61-14.72,70.78-.34,3.66-.85,7.67-3.63,10.13-2.42,2.16-5.91,2.51-9.15,2.5-9.83-.03-19.52-2.36-28.28-6.82-2.43-1.24-4.94-2.83-5.97-5.36-.79-2.04-.46-4.32-.12-6.48,4.24-26.76,8.48-53.52,12.73-80.29,1.07-6.72,2.56-14.17,8.1-18.13,4.3-3.06,9.95-3.2,15.23-3.2h.12c4.14,0,20.23.92,31.19,1.54,5.86.33,10.26.58,10.58.56,4.36,7.11-12.98,28.53-16.08,34.77Z"/><path class="cls-4_camera-13" d="M201.14,253.33c-.9,1.72-2.07,3.3-3.46,4.68-1.77,1.66-3.71,3.13-5.79,4.38-4.78,3.09-9.69,5.93-14.73,8.53-1.67,1-3.52,1.65-5.45,1.91-1.94.14-4.07-.63-4.98-2.33,1.59-3.6,3.21-7.33,3.34-11.28.1-2.7-.29-5.27-.24-7.43h.12c4.14,0,20.23.92,31.19,1.54Z"/><path class="cls-7_camera-13" d="M208.1,152.12c-6.82-2.33-13.11-5.97-18.54-10.71-5.37,6.15-11.75,11.34-18.86,15.35,2.43,5.43,9.18,6.99,14.38,9.88,8.53,4.74,13.53,13.97,16.79,23.15,3.26,9.18,5.29,18.9,10.02,27.42-4.61,1.19-9.5.5-13.6-1.92,1.13.49.28,2.33-.85,2.75s-2.65.45-3.32,1.5-.13,2.26-.34,3.41c-.31,1.65-2.09,2.69-3.76,2.72-1.68-.1-3.31-.57-4.78-1.39-2.36,2.94-2.84,6.95-2.98,10.73-.14,3.78-.06,7.67-1.59,11.14-1.53,3.46-5.3,6.28-8.95,5.35s-5.45-4.84-6.44-8.41c-4.06-14.69-1.25-30.27-.93-45.52.32-15.01-1.79-29.99-1.71-45.01,0-2.62.12-5.33,1.28-7.67s3.15-4,5.12-5.59c3.73-2.98,7.56-5.83,11.5-8.53,2.56-1.71,5.24-3.47,8.31-3.82,6.48-.76,11.89,4.69,15.78,9.93,2.64,3.53,9.05,7.85,10.7,11.48,2.53,5.58-3.44,5.05-7.21,3.77Z"/><path class="cls-17_camera-13" d="M173.52,100.24c1.5-1.75,3.26-3.25,5.24-4.43,2.39-1.26,5.12-1.58,7.83-1.8,20.27-1.71,41.68.94,58.62,12.2,1.53,1.02,3.23,2.77,2.44,4.44-.39.67-.99,1.2-1.71,1.51-8.84,4.98-19.99,3.29-29.44-.43-2.2-.85-11.98,0-14.33-.25-5.39-.59-10.36,2.63-14.92,5.55-9.65,6.17-12.18,9.8-22.62,14.5-3.56,1.59-8.13,2.97-10.87-.7-1.94-2.68-2.13-6.25-.49-9.12,2.1-3.55,6.04-6.57,8.86-9.54l11.4-11.93Z"/><path class="cls-6_camera-13" d="M173.52,100.24c1.5-1.75,3.26-3.25,5.24-4.43,2.39-1.26,5.12-1.58,7.83-1.8,20.27-1.71,41.68.94,58.62,12.2,1.53,1.02,3.23,2.77,2.44,4.44-.39.67-.99,1.2-1.71,1.51-8.84,4.98-19.99,3.29-29.44-.43-2.2-.85-11.98,0-14.33-.25-5.39-.59-10.36,2.63-14.92,5.55-9.65,6.17-12.18,9.8-22.62,14.5-3.56,1.59-8.13,2.97-10.87-.7-1.94-2.68-2.13-6.25-.49-9.12,2.1-3.55,6.04-6.57,8.86-9.54l11.4-11.93Z"/><path class="cls-17_camera-13" d="M118.41,256.27c-7.48-28.65-18.5-59.1-8.37-86.92,7.97-21.87,27.44-37.15,46-51.21,4.33-3.28,8.9-6.68,14.28-7.53,4.71-.74,9.48.56,14.03,2.02,9.11,2.92,18.17,6.62,25.48,12.79,7.31,6.17,15.71,15.41,15.58,24.98-13.99,10.8-27.19-18.24-41.33-15.68-8.28,8.91-16.92,17.46-25.91,25.67,11.25-1.03,22.56-1.17,33.83-.44,9.93,17.52,17.99,36.03,24.05,55.23-6.46,3-13.99-1.94-18.02-7.83s-6.43-13.02-11.76-17.75l10.8,31.39c.49,1.42.95,3.09.14,4.35-.99,1.53-3.21,1.53-5.01,1.18-8.01-1.6-15.01-6.42-19.36-13.34-8.4,7.5-6.35,20.8-5.01,31.98,4.57,37.96-4.35,88.69-21.22,122.8-10.48-4.77-22.87-11.27-22.62-19.83.22-7.18,3.75-13.78,4.6-20.9,2.69-22.62-4.49-49.13-10.19-70.95Z"/></g></svg>