<svg id="_0208_camera_1" xmlns="http://www.w3.org/2000/svg" viewBox="0 0 500 500" data-imageid="camera-1-48" imageName="Camera 1" class="illustrations_image" style="width: 158px;"><defs><style>.cls-1_camera-1-48{fill:#fff;}.cls-2_camera-1-48{opacity:.39;}.cls-2_camera-1-48,.cls-3_camera-1-48,.cls-4_camera-1-48,.cls-5_camera-1-48,.cls-6_camera-1-48{fill:none;}.cls-7_camera-1-48{fill:#f4a28c;}.cls-3_camera-1-48{opacity:.18;}.cls-8_camera-1-48{fill:#e6e6e6;}.cls-4_camera-1-48{opacity:.08;}.cls-5_camera-1-48{opacity:.3;}.cls-9_camera-1-48{fill:#24285b;}.cls-10_camera-1-48{fill:#000001;}.cls-11_camera-1-48{fill:#ffd200;}.cls-6_camera-1-48{opacity:.1;}.cls-12_camera-1-48{fill:#68e1fd;}</style></defs><g id="bg_camera-1-48" class="cls-5_camera-1-48"><path class="cls-8_camera-1-48" d="m100.3,94.83C55.16,119.49,23.25,178.84,19.21,249.29c-3.4,59.37,15.65,145.19,96.14,160.74,156.64,30.27,320.54,45.98,353.89-53.21,33.36-99.19,11.88-269.37-84.78-305.98-59.17-22.42-196.01-4.15-284.17,44Z"/></g><g id="camera_camera-1-48"><path class="cls-7_camera-1-48" d="m81.42,278.19s7.06-108.82,35.12-149.55c12.58-18.26,57.29-13.03,84.87-7.75,14.02,2.69,17.35,21.31,5.09,28.62-8.48,5.05-21.08,8.98-39.82,9.25-6.88.1-12.8,4.91-14.27,11.63l-12.55,57.25-58.44,50.55Z"/><g class="cls-3_camera-1-48"><path class="cls-10_camera-1-48" d="m81.42,278.19s7.06-108.82,35.12-149.55c12.58-18.26,57.29-13.03,84.87-7.75,14.02,2.69,17.35,21.31,5.09,28.62-8.48,5.05-21.08,8.98-39.82,9.25-6.88.1-12.8,4.91-14.27,11.63l-12.55,57.25-58.44,50.55Z"/></g><rect class="cls-12_camera-1-48 targetColor" x="135.03" y="168.79" width="332.07" height="222.9" transform="translate(8.8 -9.16) rotate(1.77)" style="fill: rgb(236, 156, 82);"/><g class="cls-4_camera-1-48"><rect class="cls-10_camera-1-48" x="133.12" y="292.53" width="332.07" height="99.13" transform="translate(10.71 -9.07) rotate(1.77)"/></g><path class="cls-7_camera-1-48" d="m119.06,237.73l24.66-13.43c21.45-11.68,46.73-14.92,70.13-7.91,25.2,7.56,51.16,26.97,54.21,74.39l-41.45,55.94s-47.04-30.02-59,9.02-30.02,81.51-30.02,81.51l-108.06.24,20.58-99.26c5.58-42.6,31.21-79.97,68.95-100.51Z"/><g class="cls-6_camera-1-48"><path class="cls-10_camera-1-48" d="m119.06,237.73l24.66-13.43c21.45-11.68,46.73-14.92,70.13-7.91,25.2,7.56,51.16,26.97,54.21,74.39l-41.45,55.94s-47.04-30.02-59,9.02-30.02,81.51-30.02,81.51l-108.06.24,20.58-99.26c5.58-42.6,31.21-79.97,68.95-100.51Z"/></g><path class="cls-7_camera-1-48" d="m272.37,405.79l-52.43-29.13c-18.55-10.3-29.79-30.1-29.14-51.31l1.3-41.92c.46-14.96,20.25-20.22,27.89-7.35,3.2,5.4,5.78,13.19,7.06,24.36,5.43,47.47,45.33,105.36,45.33,105.36Z"/><g class="cls-4_camera-1-48"><path class="cls-10_camera-1-48" d="m272.37,405.79l-52.43-29.13c-18.55-10.3-29.79-30.1-29.14-51.31l1.3-41.92c.46-14.96,20.25-20.22,27.89-7.35,3.2,5.4,5.78,13.19,7.06,24.36,5.43,47.47,45.33,105.36,45.33,105.36Z"/></g><g class="cls-2_camera-1-48"><rect class="cls-1_camera-1-48" x="402.58" y="197.08" width="46.55" height="18.85" transform="translate(6.58 -13.05) rotate(1.77)"/></g><path class="cls-7_camera-1-48" d="m435.82,311.81s-19.15-69.28-31.28-75.5c-25.15-12.89-27.89,8.19-23.14,41.34,4.76,33.15-24.36,71.56-47.03,71.38-22.31-.18-79.73,4.99-86.82-77.81-.32-3.78-.81-7.55-1.66-11.26-2.06-9-6.72-23.43-15.66-25.52-19.03-4.44-21.67,17.72-19.31,41.35,2.36,23.63,12.87,80.19,32.84,104.26,30.13,36.31,102.43,67.22,102.43,67.22l113.13,3.5s-8.38-62.25-23.53-138.97Z"/><circle class="cls-12_camera-1-48 targetColor" cx="316.82" cy="281.67" r="73.65" style="fill: rgb(236, 156, 82);"/><g class="cls-2_camera-1-48"><circle class="cls-1_camera-1-48" cx="316.82" cy="281.67" r="73.65"/></g><circle class="cls-9_camera-1-48" cx="316.82" cy="281.67" r="58.56"/><g class="cls-4_camera-1-48"><circle class="cls-1_camera-1-48" cx="326.81" cy="272.69" r="30.81"/></g><g class="cls-4_camera-1-48"><circle class="cls-1_camera-1-48" cx="339.07" cy="267" r="12.08"/></g><path class="cls-12_camera-1-48 targetColor" d="m271.55,177.67l12.34-39.5c5.2-16.65,20.85-27.79,38.29-27.25l23.58.73c19.9.61,36.12,16.18,37.55,36.04l2.42,33.51-114.18-3.53Z" style="fill: rgb(236, 156, 82);"/><rect class="cls-9_camera-1-48" x="305.08" y="141.49" width="56.31" height="18.38" rx="5.57" ry="5.57" transform="translate(4.81 -10.22) rotate(1.77)"/><rect class="cls-11_camera-1-48" x="155.17" y="146.02" width="54.03" height="19.04" transform="translate(4.89 -5.55) rotate(1.77)"/><rect class="cls-11_camera-1-48" x="221.07" y="157.29" width="35.62" height="9.52" transform="translate(5.12 -7.3) rotate(1.77)"/><g class="cls-2_camera-1-48"><rect class="cls-1_camera-1-48" x="221.07" y="157.29" width="35.62" height="9.52" transform="translate(5.12 -7.3) rotate(1.77)"/></g><path class="cls-9_camera-1-48" d="m431.98,157.34h8.27c4.5,0,8.16,3.65,8.16,8.16v7.41h-24.58v-7.41c0-4.5,3.65-8.16,8.16-8.16Z" transform="translate(5.31 -13.39) rotate(1.77)"/></g></svg>