<svg id="_0268_party_1" xmlns="http://www.w3.org/2000/svg" xmlns:xlink="http://www.w3.org/1999/xlink" viewBox="0 0 500 500" data-imageid="celebrations-87" imageName="Celebrations" class="illustrations_image" style="width: 158px;"><defs><style>.cls-1_celebrations-87{fill:url(#linear-gradient);}.cls-1_celebrations-87,.cls-2_celebrations-87,.cls-3_celebrations-87,.cls-4_celebrations-87,.cls-5_celebrations-87,.cls-6_celebrations-87,.cls-7_celebrations-87,.cls-8_celebrations-87,.cls-9_celebrations-87,.cls-10_celebrations-87,.cls-11_celebrations-87,.cls-12_celebrations-87,.cls-13_celebrations-87,.cls-14_celebrations-87,.cls-15_celebrations-87,.cls-16_celebrations-87,.cls-17_celebrations-87,.cls-18_celebrations-87,.cls-19_celebrations-87,.cls-20_celebrations-87,.cls-21_celebrations-87,.cls-22_celebrations-87,.cls-23_celebrations-87,.cls-24_celebrations-87,.cls-25_celebrations-87,.cls-26_celebrations-87,.cls-27_celebrations-87,.cls-28_celebrations-87,.cls-29_celebrations-87,.cls-30_celebrations-87,.cls-31_celebrations-87{stroke-width:0px;}.cls-2_celebrations-87{fill:url(#linear-gradient-11-celebrations-87);}.cls-3_celebrations-87{fill:url(#linear-gradient-12-celebrations-87);}.cls-4_celebrations-87{fill:url(#linear-gradient-13-celebrations-87);}.cls-5_celebrations-87{fill:url(#linear-gradient-10-celebrations-87);}.cls-6_celebrations-87{fill:url(#linear-gradient-17-celebrations-87);}.cls-7_celebrations-87{fill:url(#linear-gradient-16-celebrations-87);}.cls-8_celebrations-87{fill:url(#linear-gradient-19-celebrations-87);}.cls-9_celebrations-87{fill:url(#linear-gradient-15-celebrations-87);}.cls-10_celebrations-87{fill:url(#linear-gradient-23-celebrations-87);}.cls-11_celebrations-87{fill:url(#linear-gradient-21-celebrations-87);}.cls-12_celebrations-87{fill:url(#linear-gradient-18-celebrations-87);}.cls-13_celebrations-87{fill:url(#linear-gradient-14-celebrations-87);}.cls-14_celebrations-87{fill:url(#linear-gradient-22-celebrations-87);}.cls-15_celebrations-87{fill:url(#linear-gradient-20-celebrations-87);}.cls-32_celebrations-87,.cls-24_celebrations-87{opacity:.24;}.cls-16_celebrations-87{fill:url(#linear-gradient-4-celebrations-87);}.cls-17_celebrations-87{fill:url(#linear-gradient-2-celebrations-87);}.cls-18_celebrations-87{fill:url(#linear-gradient-3-celebrations-87);}.cls-19_celebrations-87{fill:url(#linear-gradient-8-celebrations-87);}.cls-20_celebrations-87{fill:url(#linear-gradient-9-celebrations-87);}.cls-21_celebrations-87{fill:url(#linear-gradient-7-celebrations-87);}.cls-22_celebrations-87{fill:url(#linear-gradient-5-celebrations-87);}.cls-23_celebrations-87{fill:url(#linear-gradient-6-celebrations-87);}.cls-24_celebrations-87{isolation:isolate;}.cls-24_celebrations-87,.cls-31_celebrations-87{fill:#68e1fd;}.cls-25_celebrations-87{fill:#231f20;}.cls-26_celebrations-87{fill:#c14834;}.cls-27_celebrations-87{fill:#fff;}.cls-28_celebrations-87{fill:#ffaa71;}.cls-29_celebrations-87{fill:#ffb4a3;}.cls-30_celebrations-87{fill:#f4f4f6;}</style><linearGradient id="linear-gradient-celebrations-87" x1="21.58" y1="2848.9" x2="22.63" y2="2827.52" gradientTransform="translate(407.35 3131.89) scale(1 -1)" gradientUnits="userSpaceOnUse"><stop offset="0" stop-color="#231f20" stop-opacity="0"/><stop offset="1" stop-color="#231f20"/></linearGradient><linearGradient id="linear-gradient-2-celebrations-87" x1="20.55" y1="2797.54" x2="28.99" y2="2681.93" xlink:href="#linear-gradient-celebrations-87"/><linearGradient id="linear-gradient-3-celebrations-87" x1="12.72" y1="2850.44" x2="48.61" y2="2861" xlink:href="#linear-gradient-celebrations-87"/><linearGradient id="linear-gradient-4-celebrations-87" x1="11.34" y1="2933.8" x2="21.64" y2="2922.98" xlink:href="#linear-gradient-celebrations-87"/><linearGradient id="linear-gradient-5-celebrations-87" x1="16.24" y1="2913.53" x2="25.74" y2="2935.44" xlink:href="#linear-gradient-celebrations-87"/><linearGradient id="linear-gradient-6-celebrations-87" x1="-90" y1="2795.29" x2="-87.36" y2="2703.97" xlink:href="#linear-gradient-celebrations-87"/><linearGradient id="linear-gradient-7-celebrations-87" x1="-64.86" y1="2825.85" x2="-98.64" y2="2841.16" xlink:href="#linear-gradient-celebrations-87"/><linearGradient id="linear-gradient-8-celebrations-87" x1="-105.44" y1="2843.56" x2="-78.12" y2="2843.56" xlink:href="#linear-gradient-celebrations-87"/><linearGradient id="linear-gradient-9-celebrations-87" x1="-123.54" y1="2824.61" x2="-97.11" y2="2824.61" xlink:href="#linear-gradient-celebrations-87"/><linearGradient id="linear-gradient-10-celebrations-87" x1="-99.9" y1="2900.43" x2="-183.3" y2="2860.83" xlink:href="#linear-gradient-celebrations-87"/><linearGradient id="linear-gradient-11-celebrations-87" x1="-110.4" y1="2924.74" x2="-107.39" y2="2927.81" xlink:href="#linear-gradient-celebrations-87"/><linearGradient id="linear-gradient-12-celebrations-87" x1="-212.59" y1="2781.94" x2="-210.22" y2="2718.99" xlink:href="#linear-gradient-celebrations-87"/><linearGradient id="linear-gradient-13-celebrations-87" x1="-248.57" y1="2819.94" x2="-204.73" y2="2819.94" xlink:href="#linear-gradient-celebrations-87"/><linearGradient id="linear-gradient-14-celebrations-87" x1="-225.75" y1="2864.04" x2="-147.35" y2="2896.9" xlink:href="#linear-gradient-celebrations-87"/><linearGradient id="linear-gradient-15-celebrations-87" x1="-219.87" y1="2908.68" x2="-252.9" y2="2861.9" xlink:href="#linear-gradient-celebrations-87"/><linearGradient id="linear-gradient-16-celebrations-87" x1="-231.79" y1="2815.12" x2="-184.82" y2="2821.71" xlink:href="#linear-gradient-celebrations-87"/><linearGradient id="linear-gradient-17-celebrations-87" x1="-203.31" y1="2924.85" x2="-206.91" y2="2925.76" xlink:href="#linear-gradient-celebrations-87"/><linearGradient id="linear-gradient-18-celebrations-87" x1="-297.94" y1="2815.66" x2="-305.86" y2="2698.95" xlink:href="#linear-gradient-celebrations-87"/><linearGradient id="linear-gradient-19-celebrations-87" x1="-278.41" y1="2929.73" x2="-297.02" y2="2929.73" xlink:href="#linear-gradient-celebrations-87"/><linearGradient id="linear-gradient-20-celebrations-87" x1="-314.95" y1="2931.28" x2="-372.55" y2="2925.94" xlink:href="#linear-gradient-celebrations-87"/><linearGradient id="linear-gradient-21-celebrations-87" x1="-297.04" y1="2917.28" x2="-287.49" y2="2940.39" xlink:href="#linear-gradient-celebrations-87"/><linearGradient id="linear-gradient-22-celebrations-87" x1="-308.41" y1="2905.37" x2="-267.76" y2="2857.33" xlink:href="#linear-gradient-celebrations-87"/><linearGradient id="linear-gradient-23-celebrations-87" x1="-304.64" y1="2868.36" x2="-281.7" y2="2868.36" xlink:href="#linear-gradient-celebrations-87"/></defs><path id="background_celebrations-87" class="cls-24_celebrations-87 targetColor" d="M487.38,343.8c-4.52,19.37-17.6,36.89-35.55,45.5-42.26,20.27-96.34-11.3-138.16,9.81-13.64,6.91-24.47,18.92-38.7,24.51-10.96,4.31-23.06,4.45-34.84,4.52-36.78.25-75.37.08-107.65-17.52-15.05-8.2-27.9-19.78-40.34-31.6-7.24-6.95-14.54-14.09-21.48-21.48-3.35-3.52-6.61-7.11-9.79-10.77-15.83-18.28-29.38-38.22-37.57-60.85-13.23-36.64-9.11-82.01,19.33-108.69,10.29-9.68,23-16.34,35.57-22.83,39.03-20.11,79.14-39.91,122.5-46.8,37.99-6.07,80.57-3.99,118.06,4.52,29.53,6.75,59.23,2.23,88.65,9.31,25.48,6.16,49.83,21.76,60.89,45.55,11.7,25.17,7,54.47,9.79,82.09,3.16,31.81,16.54,63.59,9.29,94.73Z" style="fill: rgb(236, 156, 82);"/><g class="cls-32_celebrations-87"><path class="cls-31_celebrations-87 targetColor" d="M183.41,132.09c-.22.1-.41.26-.55.46-.15.4-.1.85.14,1.2.23.55.57,1.04.99,1.47.43.42,1.02.62,1.62.55.38-.09.74-.26,1.06-.5l4.64-2.93c.12-.06.22-.16.27-.28.03-.1.03-.21,0-.31-.72-2.16-.66-3.28-3.01-2.25-1.79.77-3.48,1.65-5.15,2.59Z" style="fill: rgb(236, 156, 82);"/><path class="cls-31_celebrations-87 targetColor" d="M222.51,132.87l-3.62-2.35c-.4-.33-.9-.51-1.42-.51-.47.13-.89.41-1.19.8l-3.82,3.98c-.33.27-.53.66-.55,1.09.07.32.26.6.52.81,1.97,1.88,4.15,3.54,6.49,4.95,2.34-2.17,3.73-5.18,3.86-8.38" style="fill: rgb(236, 156, 82);"/><path class="cls-31_celebrations-87 targetColor" d="M204.92,123.4l-2.46,1.98c-.17.1-.29.26-.33.45.01.17.08.32.2.44.4.48.82.94,1.28,1.37.09.09.2.16.32.2.15.01.3-.03.42-.13.81-.52,1.31-1.41,1.34-2.38,0-.97-.48-1.88-1.28-2.43" style="fill: rgb(236, 156, 82);"/><path class="cls-31_celebrations-87 targetColor" d="M215.89,124.35c-.43-.2-.92-.23-1.37-.08-.46.16-.74.62-.68,1.1.08.24.23.46.43.62.43.36.97.57,1.53.58.1.01.19-.01.27-.06.09-.09.13-.22.13-.34.02-.58-.1-1.16-.35-1.68" style="fill: rgb(236, 156, 82);"/><path class="cls-31_celebrations-87 targetColor" d="M225.23,117.49c-.1-.06-.22-.1-.33-.12-.16.02-.31.09-.43.19-.41.29-.85.66-.86,1.16.01.22.07.43.17.62.23.53.49,1.04.79,1.53.03.06.08.12.14.15.08.02.16.02.24,0,2.38-.81,2.44-2.29.28-3.53Z" style="fill: rgb(236, 156, 82);"/><path class="cls-31_celebrations-87 targetColor" d="M232.43,127.11c-.66-.11-1.33-.11-1.98,0-.48.04-.93.24-1.27.58-.34.35-.34.91,0,1.27.28.15.59.21.9.15l2.04-.14c.17-.56.17-1.16,0-1.73" style="fill: rgb(236, 156, 82);"/><path class="cls-31_celebrations-87 targetColor" d="M228.08,137.89s.04.05.07.06h.09l.71-.41c.1-.05.19-.12.26-.21.14-.21,0-.49-.07-.71-.39-.77-.88-1.48-1.45-2.13-.06-.09-.15-.15-.24-.18-.08-.02-.16-.02-.24,0-.38.11-.74.26-1.09.43.23,1.08,1.33,2.23,1.96,3.16Z" style="fill: rgb(236, 156, 82);"/><path class="cls-31_celebrations-87 targetColor" d="M194.96,119.49l-.49,2.52h1.24s.1.02.15,0c.03-.03.05-.08.05-.13l.33-3.03c-.53.13-1.04.31-1.53.53" style="fill: rgb(236, 156, 82);"/><path class="cls-31_celebrations-87 targetColor" d="M196.87,139.37c.05.04.08.11.09.17,0,.08-.04.16-.11.21-.73.69-1.72,1.02-2.71.9-.45-.02-.87-.22-1.18-.53-.78-.9-1.25-3.47.19-4.05s2.98,2.42,3.73,3.3Z" style="fill: rgb(236, 156, 82);"/><path class="cls-31_celebrations-87 targetColor" d="M206.31,135.67l-1.5,2.05.86.51c.08.06.19.1.29.09.12-.03.21-.11.27-.22l.63-.9c.14-.17.24-.36.29-.57.07-.57-.55-.9-1.08-1.17" style="fill: rgb(236, 156, 82);"/><path class="cls-31_celebrations-87 targetColor" d="M179.56,120.41c.24.98.6,1.92,1.07,2.8.61-.23,1.26-.35,1.92-.34-.23-.77-.49-1.53-.78-2.28-.06-.14-.14-.31-.29-.36-.11-.04-.23-.04-.33,0l-1.65.53" style="fill: rgb(236, 156, 82);"/><path class="cls-31_celebrations-87 targetColor" d="M208.12,113.75s2.86-1.61,1.23-2.57c-.47-.27-1.15.32-1.4.73-.35.58-.28,1.33.17,1.84Z" style="fill: rgb(236, 156, 82);"/></g><g class="cls-32_celebrations-87"><path class="cls-31_celebrations-87 targetColor" d="M183.41,132.09c-.22.1-.41.26-.55.46-.15.4-.1.85.14,1.2.23.55.57,1.04.99,1.47.43.42,1.02.62,1.62.55.38-.09.74-.26,1.06-.5l4.64-2.93c.12-.06.22-.16.27-.28.03-.1.03-.21,0-.31-.72-2.16-.66-3.28-3.01-2.25-1.79.77-3.48,1.65-5.15,2.59Z" style="fill: rgb(236, 156, 82);"/><path class="cls-31_celebrations-87 targetColor" d="M222.51,132.87l-3.62-2.35c-.4-.33-.9-.51-1.42-.51-.47.13-.89.41-1.19.8l-3.82,3.98c-.33.27-.53.66-.55,1.09.07.32.26.6.52.81,1.97,1.88,4.15,3.54,6.49,4.95,2.34-2.17,3.73-5.18,3.86-8.38" style="fill: rgb(236, 156, 82);"/><path class="cls-31_celebrations-87 targetColor" d="M204.92,123.4l-2.46,1.98c-.17.1-.29.26-.33.45.01.17.08.32.2.44.4.48.82.94,1.28,1.37.09.09.2.16.32.2.15.01.3-.03.42-.13.81-.52,1.31-1.41,1.34-2.38,0-.97-.48-1.88-1.28-2.43" style="fill: rgb(236, 156, 82);"/><path class="cls-31_celebrations-87 targetColor" d="M215.89,124.35c-.43-.2-.92-.23-1.37-.08-.46.16-.74.62-.68,1.1.08.24.23.46.43.62.43.36.97.57,1.53.58.1.01.19-.01.27-.06.09-.09.13-.22.13-.34.02-.58-.1-1.16-.35-1.68" style="fill: rgb(236, 156, 82);"/><path class="cls-31_celebrations-87 targetColor" d="M225.23,117.49c-.1-.06-.22-.1-.33-.12-.16.02-.31.09-.43.19-.41.29-.85.66-.86,1.16.01.22.07.43.17.62.23.53.49,1.04.79,1.53.03.06.08.12.14.15.08.02.16.02.24,0,2.38-.81,2.44-2.29.28-3.53Z" style="fill: rgb(236, 156, 82);"/><path class="cls-31_celebrations-87 targetColor" d="M232.43,127.11c-.66-.11-1.33-.11-1.98,0-.48.04-.93.24-1.27.58-.34.35-.34.91,0,1.27.28.15.59.21.9.15l2.04-.14c.17-.56.17-1.16,0-1.73" style="fill: rgb(236, 156, 82);"/><path class="cls-31_celebrations-87 targetColor" d="M228.08,137.89s.04.05.07.06h.09l.71-.41c.1-.05.19-.12.26-.21.14-.21,0-.49-.07-.71-.39-.77-.88-1.48-1.45-2.13-.06-.09-.15-.15-.24-.18-.08-.02-.16-.02-.24,0-.38.11-.74.26-1.09.43.23,1.08,1.33,2.23,1.96,3.16Z" style="fill: rgb(236, 156, 82);"/><path class="cls-31_celebrations-87 targetColor" d="M194.96,119.49l-.49,2.52h1.24s.1.02.15,0c.03-.03.05-.08.05-.13l.33-3.03c-.53.13-1.04.31-1.53.53" style="fill: rgb(236, 156, 82);"/><path class="cls-31_celebrations-87 targetColor" d="M196.87,139.37c.05.04.08.11.09.17,0,.08-.04.16-.11.21-.73.69-1.72,1.02-2.71.9-.45-.02-.87-.22-1.18-.53-.78-.9-1.25-3.47.19-4.05s2.98,2.42,3.73,3.3Z" style="fill: rgb(236, 156, 82);"/><path class="cls-31_celebrations-87 targetColor" d="M206.31,135.67l-1.5,2.05.86.51c.08.06.19.1.29.09.12-.03.21-.11.27-.22l.63-.9c.14-.17.24-.36.29-.57.07-.57-.55-.9-1.08-1.17" style="fill: rgb(236, 156, 82);"/><path class="cls-31_celebrations-87 targetColor" d="M179.56,120.41c.24.98.6,1.92,1.07,2.8.61-.23,1.26-.35,1.92-.34-.23-.77-.49-1.53-.78-2.28-.06-.14-.14-.31-.29-.36-.11-.04-.23-.04-.33,0l-1.65.53" style="fill: rgb(236, 156, 82);"/><path class="cls-31_celebrations-87 targetColor" d="M208.12,113.75s2.86-1.61,1.23-2.57c-.47-.27-1.15.32-1.4.73-.35.58-.28,1.33.17,1.84Z" style="fill: rgb(236, 156, 82);"/></g><g class="cls-32_celebrations-87"><path class="cls-31_celebrations-87 targetColor" d="M357.61,153.72c-.22.11-.41.27-.55.47-.15.4-.1.85.14,1.2.24.54.57,1.04.99,1.46.43.42,1.02.63,1.62.56.38-.1.74-.27,1.06-.5l4.64-2.94c.12-.06.22-.16.27-.28.03-.1.03-.2,0-.3-.72-2.16-.66-3.29-3.01-2.26-1.79.77-3.51,1.63-5.15,2.59Z" style="fill: rgb(236, 156, 82);"/><path class="cls-31_celebrations-87 targetColor" d="M396.71,154.58l-3.62-2.34c-.4-.33-.9-.51-1.42-.51-.48.12-.9.4-1.19.79l-3.82,3.99c-.33.26-.54.66-.55,1.09.07.32.26.61.52.81,1.97,1.88,4.14,3.54,6.48,4.94,2.34-2.17,3.73-5.18,3.86-8.38" style="fill: rgb(236, 156, 82);"/><path class="cls-31_celebrations-87 targetColor" d="M379.15,145.05l-2.46,1.98c-.17.1-.28.26-.33.45.01.17.09.32.21.43.39.49.81.95,1.27,1.37.16.22.47.27.69.11.01,0,.03-.02.04-.03,1.34-.83,1.74-2.59.91-3.93-.22-.35-.5-.64-.85-.87" style="fill: rgb(236, 156, 82);"/><path class="cls-31_celebrations-87 targetColor" d="M390.09,146c-.43-.2-.92-.23-1.37-.09-.46.16-.74.62-.68,1.1.07.25.22.46.43.62.43.37.97.59,1.54.61.09,0,.19-.01.27-.06.09-.09.13-.22.13-.34.02-.58-.1-1.17-.35-1.69" style="fill: rgb(236, 156, 82);"/><path class="cls-31_celebrations-87 targetColor" d="M399.43,139.12c-.1-.07-.21-.11-.33-.12-.16.02-.3.08-.43.18-.41.3-.85.66-.86,1.17.01.21.07.42.17.62.23.52.49,1.03.79,1.52.03.07.08.12.14.15.08.03.16.03.24,0,2.38-.82,2.44-2.27.28-3.52Z" style="fill: rgb(236, 156, 82);"/><path class="cls-31_celebrations-87 targetColor" d="M406.63,148.76c-.66-.11-1.33-.11-1.98,0-.48.04-.92.24-1.27.58-.35.35-.35.92,0,1.28.28.15.59.2.9.15l2.04-.15c.17-.56.17-1.16,0-1.73" style="fill: rgb(236, 156, 82);"/><path class="cls-31_celebrations-87 targetColor" d="M402.26,159.53s.04.05.07.06c.03.01.06.01.09,0l.71-.41c.1-.05.19-.12.26-.21.14-.2,0-.48-.07-.71-.39-.77-.88-1.49-1.45-2.14-.06-.08-.15-.15-.24-.18-.08-.02-.16-.02-.24,0-.37.11-.74.25-1.09.42.24,1.08,1.35,2.24,1.95,3.17Z" style="fill: rgb(236, 156, 82);"/><path class="cls-31_celebrations-87 targetColor" d="M369.2,141.13l-.49,2.49h1.24s.1.02.15,0c.03-.04.05-.09.05-.14l.33-3.02c-.53.12-1.04.3-1.53.53" style="fill: rgb(236, 156, 82);"/><path class="cls-31_celebrations-87 targetColor" d="M371.07,161.01s.08.11.1.17c-.01.08-.05.16-.12.22-.73.69-1.72,1.02-2.71.9-.45-.02-.87-.22-1.18-.53-.79-.9-1.26-3.48.18-4.05,1.44-.57,2.99,2.42,3.74,3.29Z" style="fill: rgb(236, 156, 82);"/><path class="cls-31_celebrations-87 targetColor" d="M380.5,157.29l-1.5,2.06.9.51c.08.06.18.09.28.09.12-.03.22-.12.27-.23l.63-.9c.14-.17.24-.37.29-.58.07-.56-.55-.9-1.07-1.16" style="fill: rgb(236, 156, 82);"/><path class="cls-31_celebrations-87 targetColor" d="M353.75,142.06c.24.98.6,1.92,1.07,2.8.62-.23,1.27-.35,1.93-.35-.24-.77-.5-1.53-.79-2.27-.06-.15-.14-.32-.29-.36-.11-.04-.22-.04-.33,0l-1.66.53" style="fill: rgb(236, 156, 82);"/><path class="cls-31_celebrations-87 targetColor" d="M382.31,135.4c0-.05,2.86-1.62,1.23-2.57-.47-.28-1.15.31-1.4.73-.35.58-.28,1.33.17,1.84Z" style="fill: rgb(236, 156, 82);"/></g><g class="cls-32_celebrations-87"><path class="cls-31_celebrations-87 targetColor" d="M304.29,152.68c-.53.2-.81.79-.61,1.32.05.13.12.24.21.34.23.55.56,1.04.98,1.47.43.42,1.02.62,1.62.55.38-.09.75-.26,1.07-.5l4.63-2.94c.12-.05.22-.15.27-.27.03-.1.03-.21,0-.31-.72-2.16-.65-3.29-3-2.25-1.76.77-3.48,1.64-5.16,2.59Z" style="fill: rgb(236, 156, 82);"/><path class="cls-31_celebrations-87 targetColor" d="M343.4,153.48l-3.62-2.35c-.4-.33-.9-.51-1.42-.51-.48.12-.9.4-1.2.8l-3.81,3.98c-.34.26-.54.66-.56,1.09.08.32.26.61.52.81,1.97,1.88,4.14,3.54,6.48,4.94,2.34-2.17,3.73-5.18,3.86-8.37" style="fill: rgb(236, 156, 82);"/><path class="cls-31_celebrations-87 targetColor" d="M325.78,143.99l-2.46,1.98c-.17.1-.28.26-.33.45.01.17.09.33.21.44.39.48.82.94,1.27,1.37.09.09.2.16.33.2.15,0,.29-.04.41-.13,1.34-.83,1.74-2.59.91-3.93-.22-.35-.5-.64-.85-.87" style="fill: rgb(236, 156, 82);"/><path class="cls-31_celebrations-87 targetColor" d="M336.77,144.94c-.43-.2-.92-.23-1.37-.08-.46.16-.74.62-.67,1.1.07.25.22.46.42.62.43.36.97.57,1.53.58.1,0,.2-.02.28-.06.08-.09.13-.22.12-.34.02-.58-.1-1.16-.35-1.68" style="fill: rgb(236, 156, 82);"/><path class="cls-31_celebrations-87 targetColor" d="M346.11,138.07c-.1-.07-.21-.11-.33-.12-.16.02-.31.08-.43.19-.41.29-.86.66-.9,1.16.01.22.07.42.17.62.23.52.49,1.03.79,1.52.03.07.08.12.14.16.08.03.16.03.24,0,2.42-.82,2.48-2.28.32-3.53Z" style="fill: rgb(236, 156, 82);"/><path class="cls-31_celebrations-87 targetColor" d="M353.31,147.7c-.66-.11-1.33-.11-1.98,0-.48.04-.93.24-1.27.58-.34.35-.34.91,0,1.27.27.16.59.21.9.15l2.04-.14c.18-.57.18-1.17,0-1.74" style="fill: rgb(236, 156, 82);"/><path class="cls-31_celebrations-87 targetColor" d="M348.94,158.47s.04.05.07.06c.03.01.06.01.09,0l.72-.41c.1-.05.18-.12.25-.2.11-.23.08-.51-.07-.71-.39-.77-.88-1.49-1.45-2.13-.06-.09-.14-.15-.24-.18-.08-.02-.16-.02-.24,0-.37.11-.74.25-1.09.43.24,1.06,1.35,2.23,1.95,3.15Z" style="fill: rgb(236, 156, 82);"/><path class="cls-31_celebrations-87 targetColor" d="M315.82,140.1l-.49,2.49h1.24c.05.03.11.03.16,0,.03-.04.04-.09.05-.14l.33-3.02c-.53.13-1.04.31-1.53.53" style="fill: rgb(236, 156, 82);"/><path class="cls-31_celebrations-87 targetColor" d="M317.76,160s.08.11.09.17c0,.08-.05.16-.12.21-.73.69-1.72,1.02-2.71.9-.45-.02-.87-.22-1.18-.53-.78-.9-1.26-3.47.18-4.05s2.99,2.4,3.74,3.3Z" style="fill: rgb(236, 156, 82);"/><path class="cls-31_celebrations-87 targetColor" d="M327.19,156.26l-1.5,2.05.9.51c.08.06.18.1.28.09.12-.04.22-.11.28-.22l.62-.9c.14-.17.24-.36.29-.58.07-.56-.55-.9-1.07-1.16" style="fill: rgb(236, 156, 82);"/><path class="cls-31_celebrations-87 targetColor" d="M300.45,141.01c.23.98.59,1.92,1.06,2.8.61-.24,1.27-.35,1.93-.34-.24-.77-.5-1.53-.79-2.28-.05-.14-.14-.32-.29-.36-.11-.04-.22-.04-.33,0l-1.66.53" style="fill: rgb(236, 156, 82);"/><path class="cls-31_celebrations-87 targetColor" d="M329,134.34c0-.05,2.87-1.62,1.24-2.57-.47-.27-1.16.31-1.41.73-.35.58-.28,1.33.17,1.84Z" style="fill: rgb(236, 156, 82);"/></g><path class="cls-27_celebrations-87" d="M367.47,168.73c-.22.1-.41.26-.54.46-.15.4-.1.85.14,1.2.23.54.56,1.04.98,1.46.43.42,1.02.63,1.62.56.38-.1.75-.27,1.07-.5l4.64-2.94c.12-.06.21-.16.26-.28.03-.1.03-.2,0-.3-.73-2.16-.66-3.29-3.01-2.26-1.78.77-3.48,1.66-5.15,2.6Z"/><path class="cls-27_celebrations-87" d="M406.57,169.53l-3.62-2.34c-.4-.33-.9-.51-1.42-.51-.48.12-.9.4-1.2.79l-3.81,3.99c-.33.26-.54.66-.56,1.09.08.32.26.61.52.81,1.97,1.88,4.14,3.54,6.48,4.94,2.34-2.17,3.73-5.18,3.86-8.38"/><path class="cls-27_celebrations-87" d="M388.98,160.05l-2.46,1.98c-.16.1-.28.26-.32.45,0,.17.08.33.2.44.39.48.81.94,1.27,1.37.09.1.2.17.33.2.15.01.29-.03.41-.12,1.34-.84,1.74-2.6.9-3.94-.21-.34-.5-.63-.83-.85"/><path class="cls-27_celebrations-87" d="M399.95,161c-.43-.2-.92-.23-1.37-.08-.46.16-.74.62-.67,1.1.07.24.22.46.42.62.43.36.97.57,1.53.59.1,0,.2-.02.28-.06.09-.09.13-.22.12-.34.02-.58-.09-1.16-.34-1.69"/><path class="cls-27_celebrations-87" d="M409.29,154.12c-.1-.07-.21-.11-.33-.12-.16.01-.31.08-.43.18-.41.3-.86.66-.86,1.17,0,.21.06.42.16.62.23.52.5,1.03.79,1.52.03.07.08.12.14.15.08.03.16.03.24,0,2.39-.82,2.44-2.27.28-3.52Z"/><path class="cls-27_celebrations-87" d="M416.49,163.76c-.66-.11-1.33-.11-1.98,0-.48.04-.92.24-1.27.58-.35.35-.35.92,0,1.28.28.15.59.2.9.15l2.04-.14c.17-.57.17-1.17,0-1.74"/><path class="cls-27_celebrations-87" d="M412.12,174.53s.04.05.07.06c.03.01.06.01.09,0l.72-.41c.28-.11.42-.44.31-.72-.03-.07-.07-.13-.12-.19-.39-.77-.88-1.49-1.45-2.14-.06-.08-.15-.15-.24-.18-.08,0-.17.01-.24.05-.37.11-.74.25-1.09.42.24,1.02,1.35,2.15,1.95,3.11Z"/><path class="cls-27_celebrations-87" d="M379.02,156.13l-.48,2.49h1.23c.05.02.11.02.16,0,.03-.04.04-.09.05-.14l.33-3.02c-.53.12-1.04.3-1.53.53"/><path class="cls-27_celebrations-87" d="M380.95,176c.04.05.08.11.09.18,0,.08-.05.16-.12.21-.73.69-1.72,1.02-2.71.9-.45-.02-.87-.22-1.18-.53-.78-.9-1.25-3.48.18-4.05s2.97,2.42,3.74,3.29Z"/><path class="cls-27_celebrations-87" d="M390.36,172.3l-1.49,2.06.86.51c.08.06.18.09.28.09.12-.04.22-.12.28-.23l.62-.86c.14-.17.24-.37.29-.58.07-.56-.54-.9-1.07-1.16"/><path class="cls-27_celebrations-87" d="M363.62,157.05c.24.98.59,1.92,1.06,2.8.62-.23,1.27-.35,1.93-.35-.24-.77-.49-1.53-.79-2.27-.02-.23-.22-.4-.45-.38-.06,0-.11.02-.16.05l-1.66.53"/><path class="cls-27_celebrations-87" d="M392.17,150.4c0-.05,2.87-1.62,1.24-2.57-.47-.28-1.15.31-1.4.73-.36.58-.29,1.33.16,1.84Z"/><path class="cls-27_celebrations-87" d="M253.89,139.07c-.22.1-.41.26-.55.46-.15.4-.1.85.14,1.21.23.54.56,1.04.98,1.46.43.42,1.02.62,1.62.55.38-.09.75-.26,1.07-.49l4.64-2.94c.12-.06.21-.16.26-.28.03-.1.03-.2,0-.3-.73-2.17-.66-3.29-3.01-2.26-1.76.77-3.47,1.64-5.14,2.59Z"/><path class="cls-27_celebrations-87" d="M314.56,168.08l-3.62-2.35c-.4-.33-.9-.51-1.42-.51-.48.13-.9.41-1.2.8l-3.81,3.98c-.34.26-.54.66-.56,1.09.08.32.26.61.52.81,1.97,1.88,4.14,3.54,6.48,4.94,2.34-2.17,3.73-5.18,3.86-8.38"/><path class="cls-27_celebrations-87" d="M294.02,141.01l-2.46,1.98c-.16.1-.28.26-.32.45,0,.17.08.33.2.44.39.49.81.95,1.27,1.37.09.09.2.16.33.2.15.01.29-.03.41-.13.82-.52,1.32-1.41,1.34-2.38,0-.96-.47-1.87-1.27-2.42"/><path class="cls-27_celebrations-87" d="M310.04,133.68c-.43-.2-.92-.23-1.37-.08-.46.16-.74.62-.67,1.1.07.25.22.46.43.62.42.37.96.57,1.52.59.1,0,.2-.01.28-.06.09-.09.13-.22.13-.34.02-.58-.1-1.16-.35-1.69"/><path class="cls-27_celebrations-87" d="M319.38,126.8c-.1-.07-.21-.11-.33-.12-.16.02-.31.08-.43.18-.41.3-.9.66-.9,1.17.01.21.07.42.16.62.23.52.5,1.03.8,1.52.03.07.08.12.14.15.07.03.15.03.23,0,2.43-.82,2.5-2.27.33-3.52Z"/><path class="cls-27_celebrations-87" d="M356.24,135.43c-.66-.11-1.33-.11-1.98,0-.48.04-.93.24-1.27.58-.34.35-.34.91,0,1.27.27.16.59.22.9.16l2.04-.15c.17-.56.17-1.16,0-1.73"/><path class="cls-27_celebrations-87" d="M333.67,144.37s.04.05.07.06c.03,0,.06,0,.09,0l.72-.41c.1-.05.18-.12.25-.21.11-.23.08-.51-.07-.71-.39-.77-.88-1.49-1.45-2.13-.06-.09-.14-.15-.24-.18-.08-.02-.16-.02-.24,0-.37.11-.74.25-1.09.43.24,1.08,1.35,2.23,1.95,3.16Z"/><path class="cls-27_celebrations-87" d="M289.11,128.81l-.48,2.49h1.24s.1.02.15,0c.02-.04.02-.09,0-.14l.33-3.02c-.53.12-1.05.3-1.54.53"/><path class="cls-27_celebrations-87" d="M293.07,169.81c.05.04.09.1.09.17,0,.08-.05.16-.12.21-.72.69-1.72,1.02-2.71.9-.45-.02-.87-.22-1.18-.53-.78-.9-1.25-3.47.18-4.05s2.99,2.42,3.74,3.3Z"/><path class="cls-27_celebrations-87" d="M258.94,156.05l-1.5,2.05.9.51c.14.13.36.12.49-.02.03-.03.05-.07.07-.11l.63-.9c.14-.16.24-.36.29-.57.07-.56-.55-.9-1.07-1.16"/><path class="cls-27_celebrations-87" d="M273.72,129.74c.24.98.6,1.92,1.07,2.8.61-.23,1.26-.35,1.92-.35-.23-.77-.49-1.53-.79-2.27-.05-.15-.13-.32-.28-.36-.11-.04-.23-.04-.33,0l-1.65.53"/><path class="cls-27_celebrations-87" d="M302.26,123.08c0-.05,2.86-1.62,1.23-2.57-.47-.28-1.15.31-1.4.73-.36.58-.29,1.33.17,1.84Z"/><path class="cls-27_celebrations-87" d="M119.28,148.85c-.22.1-.41.26-.55.46-.14.4-.09.85.14,1.2.23.55.56,1.04.98,1.47.43.42,1.02.62,1.62.55.38-.09.75-.26,1.07-.49l4.63-2.94c.12-.06.22-.16.27-.28.03-.1.03-.2,0-.3-.72-2.17-.66-3.29-3.01-2.26-1.79.77-3.48,1.65-5.15,2.59Z"/><path class="cls-27_celebrations-87" d="M179.95,177.85l-3.62-2.34c-.62-.66-1.65-.7-2.31-.09-.12.11-.22.24-.3.38l-3.82,3.98c-.33.27-.53.66-.55,1.09.07.32.26.6.52.81,1.97,1.88,4.15,3.54,6.49,4.94,2.34-2.17,3.73-5.18,3.86-8.37"/><path class="cls-27_celebrations-87" d="M159.42,150.75l-2.46,2.02c-.17.1-.28.26-.33.45.01.17.09.33.21.44.39.48.81.94,1.27,1.37.09.1.2.17.33.21.15,0,.29-.04.41-.13,1.34-.83,1.74-2.59.91-3.93-.22-.35-.5-.64-.85-.87"/><path class="cls-27_celebrations-87" d="M175.44,143.46c-.43-.2-.92-.23-1.37-.09-.46.16-.74.62-.67,1.1.07.25.22.47.43.62.42.36.96.57,1.52.58.1.02.2,0,.28-.06.09-.09.13-.21.12-.33.02-.58-.09-1.16-.34-1.69"/><path class="cls-27_celebrations-87" d="M184.78,136.58c-.1-.07-.21-.11-.33-.12-.16.01-.31.08-.43.18-.41.29-.9.66-.9,1.16,0,.22.06.43.16.62.23.52.5,1.03.79,1.52.03.07.08.12.14.15.08.03.16.03.24,0,2.43-.82,2.49-2.27.33-3.52Z"/><path class="cls-27_celebrations-87" d="M221.64,145.2c-.66-.11-1.33-.11-1.98,0-.48.04-.93.24-1.27.58-.34.35-.34.91,0,1.27.27.16.59.21.9.15l2.04-.14c.17-.56.17-1.16,0-1.73"/><path class="cls-27_celebrations-87" d="M199.07,154.15s.04.05.07.06c.03.01.06.01.09,0l.71-.41c.1-.05.19-.11.26-.2.14-.21,0-.49-.07-.71-.39-.77-.88-1.49-1.45-2.14-.06-.08-.15-.14-.24-.17-.08-.02-.16-.02-.24,0-.37.11-.74.25-1.09.42.21,1.07,1.35,2.23,1.95,3.16Z"/><path class="cls-27_celebrations-87" d="M154.51,138.59l-.48,2.49h1.23c.05.02.11.02.16,0,.01-.04.01-.09,0-.14l.33-3.02c-.53.12-1.04.3-1.53.53"/><path class="cls-27_celebrations-87" d="M158.43,179.58c.04.05.07.11.09.17,0,.09-.05.16-.12.22-.73.69-1.72,1.02-2.71.9-.45-.02-.87-.22-1.18-.53-.78-.9-1.26-3.48.18-4.05s3.02,2.42,3.74,3.29Z"/><path class="cls-27_celebrations-87" d="M124.33,165.83l-1.5,2.05.86.51c.08.06.19.1.29.09.12-.03.21-.11.27-.22l.63-.9c.14-.16.24-.36.28-.57.07-.57-.54-.9-1.07-1.17"/><path class="cls-27_celebrations-87" d="M139.11,139.5c.23.98.59,1.92,1.06,2.81.62-.23,1.27-.35,1.93-.35-.24-.77-.49-1.53-.79-2.27-.03-.16-.14-.29-.29-.36-.11-.03-.22-.03-.33,0l-1.66.54"/><path class="cls-27_celebrations-87" d="M167.66,132.87c0-.05,2.87-1.62,1.24-2.57-.47-.28-1.15.31-1.4.73-.36.58-.29,1.33.16,1.84Z"/><g class="cls-32_celebrations-87"><path class="cls-31_celebrations-87 targetColor" d="M117.89,144.22c-.17.02-.33.09-.47.2-.18.24-.23.55-.14.84.05.41.17.81.36,1.18.2.37.56.63.98.71.28.01.56-.03.82-.12l3.71-1.05c.09-.01.18-.06.24-.14.02-.07.02-.14,0-.21-.05-1.6.22-2.35-1.57-2.13-1.32.17-2.62.41-3.92.71Z" style="fill: rgb(236, 156, 82);"/><path class="cls-31_celebrations-87 targetColor" d="M152.91,175.97l-1.95-2.31c-.2-.3-.5-.52-.85-.62-.35-.01-.69.09-.97.29l-3.37,1.92c-.25.14-.53.33-.59.62-.02.23.05.46.19.65.94,1.67,2.07,3.22,3.37,4.63,2.01-.99,3.54-2.74,4.27-4.86" style="fill: rgb(236, 156, 82);"/><path class="cls-31_celebrations-87 targetColor" d="M144.54,153.58l-2.05.84c-.2.02-.35.21-.33.41,0,.06.03.12.06.17.17.4.36.8.58,1.18.04.08.1.15.18.2.1.04.2.04.3,0,1.06-.29,1.69-1.39,1.4-2.46-.08-.28-.21-.53-.4-.75" style="fill: rgb(236, 156, 82);"/><path class="cls-31_celebrations-87 targetColor" d="M156.8,151.86c-.25-.22-.57-.34-.9-.33-.34.02-.62.27-.68.61,0,.18.06.36.16.51.21.33.53.58.9.7.06.02.13.02.2,0,.08,0,.12-.12.14-.2.14-.39.17-.81.11-1.21" style="fill: rgb(236, 156, 82);"/><path class="cls-31_celebrations-87 targetColor" d="M164.48,149.15c-.05-.06-.12-.11-.2-.14-.11-.04-.22-.04-.33,0-.33.12-.71.27-.81.61-.03.15-.03.3,0,.45.05.4.12.8.23,1.18,0,.05.03.09.06.13.05.02.11.02.16,0,1.75,0,2.07-.95.89-2.23Z" style="fill: rgb(236, 156, 82);"/><path class="cls-31_celebrations-87 targetColor" d="M187.56,162.37c-.42-.21-.87-.35-1.33-.42-.33-.07-.67-.02-.97.14-.3.17-.41.56-.24.86.16.16.37.27.6.3l1.4.31c.23-.35.35-.75.35-1.17" style="fill: rgb(236, 156, 82);"/><path class="cls-31_celebrations-87 targetColor" d="M170.57,163.86s0,.04,0,.05h.07l.56-.13c.08-.01.15-.04.22-.08.12-.14.15-.33.09-.5-.11-.6-.29-1.18-.54-1.73-.02-.07-.07-.13-.13-.17-.06-.01-.12-.01-.17,0-.27,0-.54.02-.81.06.11.86.35,1.7.71,2.49Z" style="fill: rgb(236, 156, 82);"/><path class="cls-31_celebrations-87 targetColor" d="M143.68,144.4l-.82,1.58.82.27s.08.01.12,0c.03-.02.05-.05.05-.08l.83-1.97c-.38-.02-.76,0-1.14.05" style="fill: rgb(236, 156, 82);"/><path class="cls-31_celebrations-87 targetColor" d="M138.09,172.8s.01.09,0,.14c0,.06-.07.09-.13.12-.62.33-1.36.36-2.01.09-.3-.1-.55-.32-.7-.6-.34-.75-.14-2.6.9-2.71s1.59,2.23,1.93,2.97Z" style="fill: rgb(236, 156, 82);"/><path class="cls-31_celebrations-87 targetColor" d="M117.88,156.66l-1.43,1.09.48.52c.04.06.1.1.17.12.09,0,.17-.03.24-.09l.6-.46c.13-.08.23-.19.31-.33.16-.36-.18-.74-.49-1" style="fill: rgb(236, 156, 82);"/><path class="cls-31_celebrations-87 targetColor" d="M133.1,141.91c-.03.71.02,1.41.15,2.11.46-.04.92.02,1.37.15,0-.57,0-1.13-.07-1.69,0-.11-.04-.23-.12-.31-.08-.03-.16-.03-.24,0h-1.22" style="fill: rgb(236, 156, 82);"/><path class="cls-31_celebrations-87 targetColor" d="M153.7,143.19s2.26-.51,1.36-1.48c-.26-.28-.84,0-1.09.22-.36.32-.46.83-.26,1.27Z" style="fill: rgb(236, 156, 82);"/></g><g id="character_4_celebrations-87"><path class="cls-25_celebrations-87" d="M415.24,305.05c1.79.35,3.55.89,5.23,1.6,4.36,1.66,8.72,3.43,13.3,4.29,4.58.86,9.49.78,13.73-1.16,3.43-1.58,6.24-4.26,7.97-7.62.1-.15.14-.33.1-.51-.09-.15-.23-.27-.4-.32l-10.3-4.27c-2.51-1.12-5.11-2.03-7.77-2.71-3.42-.65-6.9-.92-10.38-.81-3.63-.11-7.27.15-10.85.76-3.61.63-6.96,2.28-9.65,4.76-.83.77-1.45,1.73-1.81,2.8-.8,2.82,1,3.06,3.2,3.03,2.51-.03,5.1-.3,7.64.14Z"/><path class="cls-1_celebrations-87" d="M415.24,305.05c1.79.35,3.55.89,5.23,1.6,4.36,1.66,8.72,3.43,13.3,4.29,4.58.86,9.49.78,13.73-1.16,3.43-1.58,6.24-4.26,7.97-7.62.1-.15.14-.33.1-.51-.09-.15-.23-.27-.4-.32l-10.3-4.27c-2.51-1.12-5.11-2.03-7.77-2.71-3.42-.65-6.9-.92-10.38-.81-3.63-.11-7.27.15-10.85.76-3.61.63-6.96,2.28-9.65,4.76-.83.77-1.45,1.73-1.81,2.8-.8,2.82,1,3.06,3.2,3.03,2.51-.03,5.1-.3,7.64.14Z"/><path class="cls-17_celebrations-87" d="M427.72,355.7c-8.97,0-18.44,1.21-25.62,6.59-.38.23-.69.56-.9.95-.62,1.42,1.31,2.55,2.82,2.86,7.35,1.49,14.92,1.57,22.42,1.66,4.6.05,34.25.65,32.21-8.38-1.43-6.43-26.39-3.68-30.93-3.68Z"/><path class="cls-29_celebrations-87" d="M409.49,313.54c1.53,3.1,4.02,5.72,6.42,8.32l21.79,23.95c.17.22.4.39.66.5.43.07.86-.09,1.14-.43,1.36-1.42.53-3.75-.41-5.49-2.9-5.4-6.17-10.59-9.78-15.55s-7.85-9.43-11.42-14.41c-.25-.35-.52-.73-.56-1.16-.05-.4.1-.8.24-1.17,1-2.65,2-5.3,2.99-7.95-3.27-1.6-7.14-1.93-10.65-.93-.5.14-1.01.33-1.34.73-.38.46-.43,1.1-.47,1.69-.14,2.43-.29,4.88,0,7.3.2,1.66.69,3.18,1.39,4.59Z"/><path class="cls-29_celebrations-87" d="M422.26,317.15c-1.01,3.74-1.74,7.54-2.17,11.39-.24,3.78-.19,7.57.15,11.34l.68,10.65c.24,3.84.82,8.25,4.07,10.29.48.36,1.09.51,1.68.41,1.17-.33,1.27-1.94,1.05-3.14-.43-2.38-1.13-4.7-1.45-7.1-.66-5.03.4-10.1,1.45-15.07l6.27-29.55c.96-4.52-4.45-8.48-7.51-4.22-2.74,3.83-3.13,10.55-4.22,15Z"/><path class="cls-25_celebrations-87" d="M398.62,289.09c-.9,1.73-1.57,3.57-1.97,5.47-.45,2.64.22,5.35,1.86,7.47,1.68,2.1,4.32,3.2,7,2.91,1.81-.24,3.4-1.14,5.07-1.81,3.64-1.44,7.61-1.8,11.44-1.03,3.16.63,6.11,2.02,9.18,3,3.44,1.12,7.03,1.74,10.65,1.86,3.99.13,8.14-.4,11.58-2.36,3.44-1.96,6.19-5.55,6.33-9.53.09-2.6-.9-5.1-1.81-7.53l-10.56-26.85c-.83-2.47-2.03-4.8-3.54-6.92-2.71-3.42-6.97-5.31-11.26-6.02-3.39-.56-8.28-1.08-11.61,0-2.63.83-3.62,4.01-4.82,6.25-4.02,7.44-7.83,14.97-11.54,22.61-2.04,4.12-4.04,8.27-6.01,12.46Z"/><path class="cls-18_celebrations-87" d="M398.62,289.09c-.9,1.73-1.57,3.57-1.97,5.47-.45,2.64.22,5.35,1.86,7.47,1.68,2.1,4.32,3.2,7,2.91,1.81-.24,3.4-1.14,5.07-1.81,3.64-1.44,7.61-1.8,11.44-1.03,3.16.63,6.11,2.02,9.18,3,3.44,1.12,7.03,1.74,10.65,1.86,3.99.13,8.14-.4,11.58-2.36,3.44-1.96,6.19-5.55,6.33-9.53.09-2.6-.9-5.1-1.81-7.53l-10.56-26.85c-.83-2.47-2.03-4.8-3.54-6.92-2.71-3.42-6.97-5.31-11.26-6.02-3.39-.56-8.28-1.08-11.61,0-2.63.83-3.62,4.01-4.82,6.25-4.02,7.44-7.83,14.97-11.54,22.61-2.04,4.12-4.04,8.27-6.01,12.46Z"/><path class="cls-25_celebrations-87" d="M412.85,198.47c.32-1.93,1.58-3.58,3.37-4.4.49-.14.94-.41,1.3-.77.18-.28.32-.59.43-.9.66-1.51,2.31-2.32,3.89-2.76,3.49-1,7.71-.63,10.1,2.1,1.12,1.36,1.8,3.03,1.94,4.79.2,1.74,0,3.53.43,5.23.69,2.79,2.94,4.98,3.68,7.75.36,1.36.34,2.79.7,4.14.41,1.1.75,2.23,1.01,3.37.1,1.45-.16,2.89-.76,4.22-.31,1-.86,1.91-1.6,2.65-1.57,1.38-4.07,1.1-5.88.05-1.81-1.06-3.16-2.71-4.68-4.18-1.52-1.47-3.41-2.71-5.5-2.71-1.16,0-2.34.47-3.44.08-1.2-.56-1.97-1.77-1.97-3.1.02-1.3.21-2.59.56-3.84.34-1.26.26-2.6-.24-3.82-1.32-2.53-3.84-4.69-3.34-7.89Z"/><path class="cls-16_celebrations-87" d="M412.85,198.47c.32-1.93,1.58-3.58,3.37-4.4.49-.14.94-.41,1.3-.77.18-.28.32-.59.43-.9.66-1.51,2.31-2.32,3.89-2.76,3.49-1,7.71-.63,10.1,2.1,1.12,1.36,1.8,3.03,1.94,4.79.2,1.74,0,3.53.43,5.23.69,2.79,2.94,4.98,3.68,7.75.36,1.36.34,2.79.7,4.14.41,1.1.75,2.23,1.01,3.37.1,1.45-.16,2.89-.76,4.22-.31,1-.86,1.91-1.6,2.65-1.57,1.38-4.07,1.1-5.88.05-1.81-1.06-3.16-2.71-4.68-4.18-1.52-1.47-3.41-2.71-5.5-2.71-1.16,0-2.34.47-3.44.08-1.2-.56-1.97-1.77-1.97-3.1.02-1.3.21-2.59.56-3.84.34-1.26.26-2.6-.24-3.82-1.32-2.53-3.84-4.69-3.34-7.89Z"/><path class="cls-30_celebrations-87" d="M453.5,218.52c.49.29.93.65,1.3,1.07,1.25,1.58.5,3.89-.31,5.74-.25,1.23-1.46,2.03-2.69,1.78-.14-.03-.27-.07-.4-.12-4.03-.64-8.05-1.38-12.06-2.23l2.3,14.85c.38,1.81.47,3.68.28,5.52-.29,1.81,2.09,5.57.46,6.44-1.3.7-6.18-1.21-7.65-1.22-4.66,0-11.44,2.03-16.1,2.02-.73.08-1.46-.1-2.07-.51-1.16-1-.52-4.58-.43-6.1.1-2.16.81-4.26-.5-5.99-2.4-3.19-3.99-6.92-4.62-10.85-.08-.49-.21-1.07-.67-1.25-.3-.05-.6-.07-.9-.05-.64-.18-1.12-.73-1.2-1.39-.31-1.95.5-3.9,2.08-5.07,1.57-1.13,3.34-1.96,5.21-2.44,6.33-2.07,12.9-5.3,19.62-5.43,6.51-.11,12.9,1.72,18.36,5.25Z"/><path class="cls-29_celebrations-87" d="M423.53,216.93c.05.66.34,1.28.83,1.73.69.51,5.86.83,5.91-4.37-.08-1.88-.34-3.74-.76-5.57-.33-.65-1.33,1.14-2.04.99-1.26-.26-5.34.31-4.79,1.58.79,1.92.59,4.14.85,5.64Z"/><path class="cls-22_celebrations-87" d="M423.77,214.21c.19.37.47.68.81.9.33.17.7.23,1.07.2,1.4-.17,2.62-1.03,3.25-2.3.6-1.27.81-2.69.62-4.08,0,.34-1.58,1.09-1.81,1.22-.71.34-1.46.61-2.18.9-.74.26-1.45.61-2.1,1.05-.7.52-.04,1.46.34,2.1Z"/><path class="cls-29_celebrations-87" d="M418.77,207.78c.92,2.45,2.98,4.3,5.52,4.94.73.16,1.48.14,2.2-.05.73-.25,1.38-.67,1.92-1.22,1.68-1.85,2.71-4.2,2.93-6.68.3-1.73.21-3.5-.25-5.18-.48-1.7-1.63-3.13-3.19-3.96-1.65-.63-3.43-.81-5.17-.54-.59.02-1.17.12-1.73.29-1.81.66-2.71,3.24-2.94,4.98-.41,2.5-.16,5.07.71,7.44Z"/><path class="cls-29_celebrations-87" d="M452.42,221.01c0,2.53,1.4,5.25,3.83,6.01,1.9.55,3.94-.15,5.1-1.75.8-1.4,1.2-2.99,1.16-4.6.17-3.08.24-6.16.22-9.24-.05-4.35-.31-8.77-1.72-12.88-1.41-4.12-4.11-7.94-8-9.95-.24-.15-.52-.23-.81-.22-.9.14-.77,1.55-.33,2.39l2.14,4.1c-1.17.15-2.71.85-2.34,1.96.24.76,1.21.9,1.94,1.28,2.14,1.01,2.47,3.89,2.28,6.25-.33,3.08-.9,6.13-1.73,9.12-.63,2.52-1.8,4.96-1.75,7.55Z"/><path class="cls-30_celebrations-87" d="M400.48,226.88c-1.29.77-2.46,1.73-3.46,2.86-1.01,1.13-1.57,2.6-1.57,4.12,0,1.56.91,2.97,2.32,3.62,1.81.71,3.74-.21,5.43-1.1l7.62-4.09c1.12-.48,2.1-1.24,2.84-2.22,1.17-1.88.31-4.37-.9-6.21-.37-.62-.87-1.15-1.47-1.56-1.53-.9-3.71.81-5.13,1.47-1.96.91-3.85,1.95-5.67,3.1Z"/><path class="cls-29_celebrations-87" d="M400,230.69c5-.94,10.06-1.51,15.14-1.71,4.21-.3,8.45.05,12.56,1.05.68.16,1.33.44,1.92.82.33.18.53.53.54.9-.06.43-.51.66-.9.79-1.81.57-3.76.18-5.64.37-.2,0-.43.07-.52.24-.16.34.34.62.47.98s-.42.9-.9.85c-.48-.12-.94-.32-1.36-.6-1.32-.64-2.89-.27-4.31.14-3.33.97-6.63,2.07-9.89,3.28-1.37.62-2.85.97-4.35,1.03-1.32-.11-2.61-.51-3.75-1.18-1.04-.47-1.93-1.22-2.58-2.16-1.57-2.7,1.28-4.38,3.56-4.81Z"/><path class="cls-25_celebrations-87" d="M419.32,354.91c-.07.58,0,1.18.21,1.73.22.55.75.93,1.35.96.65,2,1.73,3.83,3.16,5.37.59.7,1.34,1.24,2.18,1.59.86.34,1.84.19,2.57-.39.9-.85.85-2.32.59-3.55-.78-3.1-1.92-6.09-3.38-8.93.4,1.51.56,3.07.48,4.63.05.61-.19,1.2-.64,1.6-.75.5-1.73-.15-2.32-.82-1.34-1.49-2.36-3.24-2.98-5.15-.19-.5-.25-1.03-.18-1.56-.46,1.47-.8,2.98-1.02,4.5Z"/><path class="cls-25_celebrations-87" d="M437.12,337.22c-.21.76-.1,1.56.31,2.23.47,1.16.77,2.38.9,3.62.14.66-.02,1.34-.44,1.86-.17.12-.32.27-.45.43-.1.26-.1.54,0,.8l.9,4.4c.03.52.28,1,.69,1.32.72.42,1.58-.29,2.02-1,.8-1.3,1.19-2.8,1.13-4.32-.25-2.16-.95-4.25-2.06-6.12.19.4.9.27,1.05-.14.13-.44,0-.91-.34-1.22-.37-.35-3.22-2.87-3.7-1.85Z"/><path class="cls-25_celebrations-87" d="M421.74,197.83c1.55.9,3.46.9,5.26.9s3.74.07,5.17,1.17c-.27-2.59-1.47-5.31-3.82-6.42-1.73-.71-3.66-.77-5.43-.16-1.4.3-2.67,1.05-3.62,2.13-.56.72-.54.9.24,1.19.76.33,1.49.73,2.18,1.19Z"/><path class="cls-31_celebrations-87 targetColor" d="M424.76,192.88c3.21.14,6.13,1.9,7.74,4.68-.03-2.57-1.52-4.9-3.84-6-2.3-1.05-4.87-1.37-7.35-.9-1.76.14-3.44.83-4.8,1.95-2.25,2.12-2.17,6.05-.14,8.39.41,0,.54-.54.55-.96,0-2.42-.14-3.66,1.91-5.22,1.7-1.3,3.8-1.99,5.94-1.94Z" style="fill: rgb(236, 156, 82);"/></g><g id="character_3_celebrations-87"><path class="cls-23_celebrations-87" d="M308.93,357.48c-10.19.64-21.38-.21-29.58,5.88-1.22.9-2.42,2.13-2.45,3.62-.05,2.94,3.85,3.96,6.79,4.05,23.75.72,47.88,1.4,70.89-4.52,1.91-.49,4.08-1.28,4.69-3.15.54-1.65-.41-3.4-1.47-4.77-12.8-16.47-32.22-2.15-48.87-1.11Z"/><path class="cls-26_celebrations-87" d="M317.47,327.07c-.07.17-.1.36-.07.54.09.23.25.42.45.55.68.56,1.43,1.01,2.24,1.35.83.32,1.76.25,2.52-.2.49-.37.89-.85,1.17-1.39l5.61-9.09c-.38-1-1.69-1.18-2.76-1.19-1.24.07-2.46.35-3.62.81-.81.22-1.63-.28-2.28.24-.84.68-1.34,3.14-1.72,4.14-.56,1.41-1.08,2.82-1.55,4.24Z"/><path class="cls-25_celebrations-87" d="M301.91,283.41c4.62,3.33,10.21,4.96,15.69,6.52l11.63,3.34c-4.96,8.7-8.62,18.08-10.85,27.83l8.48,1.07c.5.11,1.03.07,1.51-.13.35-.23.63-.54.82-.9l15.66-23.89c1.48-2.25,3.03-4.8,2.57-7.47-.52-3.02-3.4-4.98-6.03-6.57l-18.46-11.2c-4.52-2.71-9.1-5.49-14.24-6.61-3.8-.83-13.07-.96-14.52,3.81-1.54,5.05,4.13,11.61,7.74,14.2Z"/><path class="cls-21_celebrations-87" d="M301.91,283.41c4.62,3.33,10.21,4.96,15.69,6.52l11.63,3.34c-4.96,8.7-8.62,18.08-10.85,27.83l8.48,1.07c.5.11,1.03.07,1.51-.13.35-.23.63-.54.82-.9l15.66-23.89c1.48-2.25,3.03-4.8,2.57-7.47-.52-3.02-3.4-4.98-6.03-6.57l-18.46-11.2c-4.52-2.71-9.1-5.49-14.24-6.61-3.8-.83-13.07-.96-14.52,3.81-1.54,5.05,4.13,11.61,7.74,14.2Z"/><path class="cls-25_celebrations-87" d="M283.99,279.2c-.21,24.32-.31,49.28,8.14,72.1.16.57.48,1.09.9,1.5.49.37,1.11.52,1.72.43,1.7-.3,3.11-1.46,3.72-3.08.59-1.59.9-3.26.9-4.96.77-13.67,1.41-27.38.56-41.04-.16-1.67-.16-3.34,0-5.01.38-2.8,1.74-5.36,3.02-7.89,3.37-6.62,6.4-13.57,7.24-20.95.32-1.78.11-3.62-.61-5.28-1.02-1.71-2.71-2.92-4.66-3.32-1.93-.38-3.9-.49-5.86-.33-4.99.18-8.85,0-12.78,3.41-3.51,2.94-2.26,10.29-2.3,14.41Z"/><path class="cls-19_celebrations-87" d="M301.91,283.41c4.62,3.33,10.21,4.96,15.69,6.52l11.63,3.34"/><path class="cls-20_celebrations-87" d="M283.99,279.2c-.21,24.32-.31,49.28,8.14,72.1.16.57.48,1.09.9,1.5.49.37,1.11.52,1.72.43,1.7-.3,3.11-1.46,3.72-3.08.59-1.59.9-3.26.9-4.96.77-13.67,1.41-27.38.56-41.04-.16-1.67-.16-3.34,0-5.01.38-2.8,1.74-5.36,3.02-7.89,3.37-6.62,6.4-13.57,7.24-20.95.32-1.78.11-3.62-.61-5.28-1.02-1.71-2.71-2.92-4.66-3.32-1.93-.38-3.9-.49-5.86-.33-4.99.18-8.85,0-12.78,3.41-3.51,2.94-2.26,10.29-2.3,14.41Z"/><path class="cls-31_celebrations-87 targetColor" d="M312.79,212.02c8.7-1,20.81-4.73,24.65-8.23.58-.64,1.28-1.16,2.05-1.53,1.99-.73,3.94.9,5.85,1.81,2.45,1.16,5.29,1.12,7.71-.1,1.6,2.47.08,5.81-1.96,7.93-6.02,6.33-15.5,7.49-23.28,11.42-3.07,1.55-5.9,3.55-8.39,5.93-.59.56-2.04,2.61-3.07,1.74-.61-.51.07-3.21.17-3.89.84-5.69-9.65-14.4-3.73-15.07Z" style="fill: rgb(236, 156, 82);"/><path class="cls-31_celebrations-87 targetColor" d="M295.02,233.19c-.23.04-.47.04-.71,0-2.64-.22-5.2-3.68-7.62-4.75-.23-.11-.45-.2-.71-.33-5.74-2.79-12.23-9.43-16.73-13.64.77-.84,1.72-1.48,2.79-1.88.48-.25.96-.48,1.4-.73,1.71-1.03,3.01-2.63,3.66-4.52,4.32,2.79,11.11,3.62,16.64,5.09,1.2.29,2.38.66,3.52,1.12,1.23.51-.9,3.49.19,4.33,4.24,3.28,1.74,14.7-2.44,15.31Z" style="fill: rgb(236, 156, 82);"/><path class="cls-26_celebrations-87" d="M351.1,211.15c.99-1.53,1.48-3.33,1.39-5.16.1-7.07-3.08-13.75-6.47-19.96-1.75-3.22-3.62-6.42-4.62-9.95-1.07-3.62-1.22-7.63-3.03-10.99-.9-1.69-2.84-3.31-4.58-2.5-1.49.71-1.75,2.71-1.67,4.35.07,1.64.17,3.55-1.05,4.66-.24.22-.52.41-.6.71-.16.6.52,1.03,1.06,1.32,3.27,1.7,5.19,5.28,5.97,8.88.78,3.6.58,7.34.71,11.02.02,3.7.68,7.37,1.94,10.85,1.38,3.41,6.83,12.24,10.95,6.76Z"/><path class="cls-30_celebrations-87" d="M321.25,327.35c-.59-.44-1.24-.81-1.92-1.1-.71-.28-1.52-.04-1.94.6-.14.37-.18.76-.12,1.15.01.25.06.49.13.72.26.54.7.97,1.25,1.21.64.31,1.29.58,1.96.81.58.33,1.32.18,1.74-.34.39-.35,1.62-1.47,1.33-2.11-.13-.28-.81-.28-1.08-.36-.47-.14-.92-.33-1.35-.57Z"/><path class="cls-25_celebrations-87" d="M326.58,335.49c-.8-1.15-1.41-2.41-2.23-3.55-.76-1.19-1.87-2.11-3.18-2.62-.95-.33-2-.32-2.92-.71-.33-.18-.69-.31-1.06-.36-.74,0-1.28.67-1.68,1.29-.81,1.26-1.66,2.71-1.32,4.16.23.77.64,1.47,1.2,2.04,1.33,1.5,3.09,2.86,5.1,2.83-.1.9.9,1.58,1.75,2l3,1.44c.52.29,1.09.49,1.67.6.91.11,1.83-.23,2.45-.9,2.32-2.53-1.48-4.36-2.79-6.21Z"/><path class="cls-26_celebrations-87" d="M293.33,357.06c-.01.16.03.32.13.45.1.1.22.18.36.21,1.16.39,2.39.58,3.62.54.36.02.72-.06,1.04-.22.49-.34.82-.87.9-1.47.35-1.79.42-3.62.22-5.43.08-.85-.26-1.69-.9-2.24-.54-.25-1.15-.27-1.71-.06-1.25.33-3.17,1.22-3.72,2.5-.66,1.47-.05,4.15.06,5.72Z"/><path class="cls-30_celebrations-87" d="M293.35,356.3c-.18,0-.34.08-.48.19-.08.1-.14.22-.15.34-.28,1.2-.04,2.47.68,3.47.07.11.16.19.28.24.08.02.17.02.25,0,1.98-.22,3.95-.52,5.9-.9.61-.06,1.19-.33,1.64-.75.43-.59.5-1.37.18-2.03-.8-1.81-1.72-1.55-3.43-1.28l-4.87.71Z"/><path class="cls-25_celebrations-87" d="M300.97,357.89c-1.3-.45-2.7-.57-4.06-.33l-3.87.35c-.43.01-.84.1-1.24.26-.46.26-.85.62-1.17,1.04-1.49,1.7-3.18,3.2-5.04,4.48-.53.31-.99.71-1.38,1.18-.39.48-.46,1.15-.18,1.7.47.55,1.19.84,1.91.76,4.24.1,8.39-1.25,11.76-3.84.2-.21.48-.33.77-.35.24.06.46.17.65.33.78.48,1.76.48,2.53,0,1.96-1.28,1.31-4.68-.68-5.57Z"/><path class="cls-31_celebrations-87 targetColor" d="M323.97,240c-1.81,9.95-2.89,20.39-8.83,29.14-.67,1.09-1.6,1.99-2.71,2.61-1.09.43-2.25.65-3.43.67-4.67.34-9.56.65-14.08-.14-.65-.12-1.27-.25-1.89-.43-1.34-.33-2.64-.81-3.88-1.43-.82-.41-1.58-.91-2.28-1.49-.5-.41-.93-.9-1.29-1.44-.74-1.43-1.1-3.03-1.04-4.64-.42-11.61.43-23.2,1.44-34.75.14-1.32.25-2.61.36-3.91.12-1.65.38-3.29.79-4.89.52-2.34,1.92-4.4,3.92-5.74.85-.51,1.76-.9,2.71-1.16,1.61-.42,3.26-.68,4.92-.79,3.37-.28,6.75-.43,10.15-.4,8.89,0,15.33,7.48,16.37,14.65.67,4.68-.4,9.43-1.22,14.12Z" style="fill: rgb(236, 156, 82);"/><path class="cls-5_celebrations-87" d="M295.32,272.96c-.76-.36-1.55-.72-2.31-1.09-2.05-.99-4.11-1.97-6.16-2.92-.5-.41-.93-.9-1.29-1.44-.74-1.43-1.1-3.03-1.04-4.64-.42-11.61.43-23.2,1.44-34.75-5.74-2.79-12.23-9.43-16.73-13.64.77-.84,1.72-1.48,2.79-1.88,1.81.44,3.62,1.57,5.26,2.31,3.29,1.43,6.64,2.71,9.84,4.41.85.44,1.72.9,2.56,1.43,1.51.76,2.78,1.92,3.69,3.35.58,1.29.89,2.69.9,4.11.08,1.66.08,3.35.05,5,0,1.33-.11,2.71-.25,4-.59,6.11-2.08,12.07-2.5,18.16-.43,5.85.25,12.01,3.37,16.93.08.23.24.44.38.67Z"/><path class="cls-26_celebrations-87" d="M303.81,218.57c1.48.69,3.23.43,4.44-.67,1.08-1.09,1.28-2.71,1.3-4.28.03-1.44-.05-2.88-.24-4.31-.05-.58-.2-1.15-.44-1.68-.82-1.56-2.9-1.93-4.68-1.81-2.88.16-6.22,1.81-4.96,5.04,1.07,2.76,1.49,6.36,4.57,7.71Z"/><path class="cls-26_celebrations-87" d="M312.31,206.79c-.4,1.26-1.27,2.31-2.42,2.96-.84.33-1.74.46-2.64.37-1.65-.08-3.29-.39-4.86-.9-1.34-.38-2.58-1.06-3.62-1.99-.91-.95-1.64-2.05-2.18-3.25-1.66-3.36-3.04-7.24-1.9-10.78.95-2.87,3.37-5.01,6.33-5.62,9.62-1.88,14.15,12.06,11.28,19.21Z"/><path class="cls-25_celebrations-87" d="M298.17,184.12c-1.93.56-3.5,1.98-4.26,3.84-.44,1.09-.65,2.34-1.48,3.18-.47.41-.98.77-1.52,1.09-1.78,1.34-2.59,3.6-2.07,5.76.18.51.3,1.03.35,1.56-.07.68-.21,1.34-.43,1.98-.34,2.29,1.24,4.42,3.53,4.76.19.03.39.04.58.05.6-.14,1.24-.08,1.81.15.46.32.66.98,1.18,1.17.82.3,1.46-.72,1.74-1.55.6-1.46.87-3.04.78-4.62-.22-1.08-.52-2.14-.9-3.18-.37-1.25-.51-2.55-.42-3.84,0-.54.16-1.08.45-1.54.73-1.01,2.32-1,3.2-1.88.64-.64.97-1.81,1.87-1.81.54-.05,1.01.35,1.5.62.93.47,2.04.43,2.93-.12.8.68,1.66,1.29,2.58,1.81.44.24.17-3.04.05-3.32-.56-1.18-1.67-2.01-2.96-2.23-2.61-.85-5.64-2.65-8.5-1.89Z"/><path class="cls-26_celebrations-87" d="M268.2,211.69c-1.11-2.19-1.54-4.66-1.22-7.09.47-6.47,3.08-12.56,5.86-18.43,1.07-2.27,2.2-4.67,1.95-7.16-.13-.55-.1-1.12.08-1.66.2-.31.45-.58.73-.81,1.08-1.04,1.55-2.53,2.34-3.8.68-1.18,1.77-2.08,3.07-2.52,1.33-.42,2.78.01,3.66,1.09.44.67.68,1.46.7,2.26.16,2.88-1.11,5.64-2.71,8.05-.48.66-.89,1.35-1.25,2.08-.28.69-.49,1.4-.63,2.13-1.08,4.71-2.15,9.45-2.26,14.28-.06,2.58.15,5.16,0,7.73-.06,1.6-.34,3.17-.83,4.69-.52,1.55-.9,2.77-2.64,2.82-2.77.08-5.38-1.33-6.85-3.68Z"/><path class="cls-26_celebrations-87" d="M297.07,204.78c-.58.11-1.09.46-1.41.95-.32.51-.29,1.16.07,1.64.3.3.68.5,1.09.58.66.16,1.35.18,2.02.07.37-.04.71-.2.98-.45.35-.44.4-1.06.12-1.55-.52-1.06-1.74-1.58-2.87-1.24Z"/><path class="cls-2_celebrations-87" d="M296.36,205.8c-.32.28-.4.74-.2,1.11.31.45.84.71,1.39.68.47,0,1.12-.06,1.36-.54.14-.31-.06-.45-.32-.59-.36-.16-.7-.37-1.01-.61-.33-.33-.86-.36-1.22-.05Z"/></g><g id="character_2_celebrations-87"><path class="cls-3_celebrations-87" d="M175.86,363.85c-12.83-1.07-26.23-3.08-38.2,1.68-.24,3.38,4.25,4.73,7.63,4.92l54.18,3.06c16.74.9,33.76,1.86,50.1-1.94,1.81-.43,4.13-1.75,3.5-3.52-.3-.63-.81-1.14-1.44-1.46-10.48-6.44-22.23-3.9-33.58-2.88-14.04,1.26-28.15,1.31-42.2.14Z"/><path class="cls-25_celebrations-87" d="M163.26,360.32c2.62-1.31,5.63-1.06,8.5-.79.43,0,.86.14,1.19.41.3.34.49.76.57,1.2.42,1.51.79,3.02,1.11,4.52.22.66.2,1.39-.06,2.04-.23.32-.54.56-.9.71-2.02,1-4.3,1.06-6.51,1.09l-11.6.2c-1.13.1-2.28-.06-3.34-.47-1.16-.54-1.91-1.69-1.94-2.97,0-1.61,1.37-2.71,2.67-3.25,1.85-.67,3.8-1.02,5.77-1.05,1.73-.06,3.01-.88,4.54-1.65Z"/><path class="cls-28_celebrations-87" d="M172.1,360.3c-.1.55-.36,1.05-.76,1.45-.69.45-1.52.65-2.34.54-.43.03-.86-.05-1.25-.24-.29-.19-.53-.47-.67-.79-.54-1.37-.68-2.86-.43-4.31,0-.17.05-.33.14-.46.09-.09.21-.15.34-.17,1.06-.31,3.48-.65,4.43.14s.76,2.8.52,3.84Z"/><path class="cls-25_celebrations-87" d="M234.46,351.85c.87.56,1.7,1.19,2.48,1.87.32.24.58.55.76.9.13.34.18.71.14,1.07-.2,1.59-.89,3.09-1.99,4.26-1.02,1.22-2.22,2.3-3.17,3.62s-1.63,2.71-2.88,3.62c-.97.61-2.05,1.04-3.18,1.25-2.15.53-4.52,1.01-6.54.14-.17-.06-.32-.16-.44-.3-.11-.19-.16-.4-.15-.62-.02-1.54.64-3,1.81-4,1.46-1.22,3.56-1.6,4.76-3.08.64-.9,1.01-1.96,1.07-3.07,0-.81.18-1.61.55-2.32.5-.58,1.12-1.04,1.81-1.37.83-.56,1.57-1.26,2.17-2.06.84-.89,1.94-.47,2.8.09Z"/><path class="cls-28_celebrations-87" d="M230.31,355.28c-.58.21-1.2.29-1.81.24-.23,0-.45-.03-.67-.08-.56-.26-.99-.73-1.18-1.32-.32-.68-.56-1.39-.72-2.13-.52-2.29,2.59-4.58,4.61-3.18,2.03,1.4,2.42,5.33-.23,6.46Z"/><path class="cls-25_celebrations-87" d="M175.71,308.06c-1.07,1.54-1.91,3.23-2.51,5.01-.48,2.05-.66,4.16-.53,6.26l.37,33.76c.13,1.2-.1,2.41-.67,3.48-1.26,1.81-5.54,2.71-6.9.95-1.37-1.76-5.16-27.37-6.33-41.91-.35-4.3-.69-8.68.22-12.88,1.18-5.48,20.81-37.81,24.52-37.29,3.72.52,16.49,1.93,18.32,5.5,2.38,4.66-6.06,9.33-8.91,12.77-6.38,7.72-12.25,15.86-17.58,24.34Z"/><path class="cls-4_celebrations-87" d="M175.71,308.06c-1.07,1.54-1.91,3.23-2.51,5.01-.48,2.05-.66,4.16-.53,6.26l.37,33.76c.13,1.2-.1,2.41-.67,3.48-1.26,1.81-5.54,2.71-6.9.95-1.37-1.76-5.16-27.37-6.33-41.91-.35-4.3-.69-8.68.22-12.88,1.18-5.48,20.81-37.81,24.52-37.29,3.72.52,16.49,1.93,18.32,5.5,2.38,4.66-6.06,9.33-8.91,12.77-6.38,7.72-12.25,15.86-17.58,24.34Z"/><path class="cls-28_celebrations-87" d="M166.87,222.42c.99.39,1.84,1.09,2.42,1.99.45,1.14.49,2.39.13,3.55-.08.81-.42,1.57-.97,2.17-.77.55-1.72.78-2.66.63-3.56-.21-6.98-1.47-9.83-3.62-3.62-2.76-6.11-6.78-9.5-9.85-1.02-.9-2.23-2.03-2.04-3.39.25-.76.57-1.5.95-2.2.25-1.15.13-2.35-.33-3.44l-.96-3.04c1.81.62,2.36,3.1,4.03,4.1.51.36,1.19.38,1.72.05.57-.46.62-1.51,1.33-1.67,1.02.98.1,2.8.73,4.06.24.49.71.85.9,1.37.12.58.12,1.17,0,1.75-.13,2.53,4.1,3.62,5.93,4.32,2.74,1.07,5.53,1.94,8.14,3.22Z"/><path class="cls-31_celebrations-87 targetColor" d="M216.95,234.78c-4.03,9.14-1.04,19.71-1.81,29.72.01.1.01.21,0,.31-.11,1.33-.31,2.66-.59,3.96-.57,2.56-1.66,5.29-4.03,6.44-.98.47-2.07.66-3.15.53-1.81-.14-5.63-3.68-7.28-4.52-4.87-2.51-7.65-2.9-13.05-3.89-1.68-.31-3.51-.44-4.87-1.51-1.91-1.49-2.16-4.36-1.48-6.72s2.05-4.41,2.89-6.69c.38-1.03.65-2.1.81-3.18.14-.69.23-1.38.28-2.08.12-1.92.08-3.85-.11-5.76-.12-1.4-.28-2.81-.43-4.22-.22-2.01-.34-4.03-.33-6.05-.01-.22-.01-.45,0-.67.02-1.28.29-2.55.81-3.72,1.69-3.32,5.93-4.27,9.62-4.41s6.67-.28,10.1-1.49c3.15-1.16,6.62-1.08,9.71.23,2.81,1.18,5.17,3.85,5.2,6.89.06,2.42-1.34,4.59-2.3,6.84Z" style="fill: rgb(236, 156, 82);"/><path class="cls-28_celebrations-87" d="M188.22,212.53c.52,1.75,1.21,3.69,2.85,4.52,1.26.62,2.98.51,3.79,1.65.33.44.47,3.99.9,4.33.37.24.81.36,1.25.35,2.14.15,4.29-2.96,6.39-3.4.53-.06,1.03-.3,1.39-.69.22-.36.34-.77.34-1.19l1.07-10.85c.24-2.34.43-4.88-.77-6.9-.95-1.43-2.3-2.55-3.88-3.22-1.26-.66-2.64-1.07-4.05-1.23-3.72-.31-7.53,2.21-7.75,6.02.05,1.65-.5,3.25-1.56,4.52-1.65,2.07-.71,3.69.03,6.1Z"/><path class="cls-25_celebrations-87" d="M191.94,194.24c.92-1.36,2.61-1.97,4.19-1.52.3.11.62.25.9.1.14-.1.27-.22.37-.36.64-.48,1.48-.61,2.23-.33,2.83.5,5.43,1.87,7.44,3.92,2,2.12,2.69,5.16,1.81,7.93-.62,1.64-1.9,3.07-2,4.81,0,.71.13,1.44.11,2.15.04.73-.3,1.44-.9,1.85-.83.34-1.79.04-2.28-.71-.45-.75-.72-1.59-.78-2.46-.05-.19-.03-.39.05-.57.13-.15.31-.25.5-.3,1.27-.59,1.83-2.1,1.24-3.37-.04-.08-.08-.17-.13-.25-.37-.54-1.15-.9-1.68-.54s-.46.9-.7,1.36-1.03.71-1.19.22c-.04-.14-.04-.3,0-.44.23-.75.36-1.52.38-2.31.01-.8-.4-1.54-1.08-1.95-.51-.19-1.06-.28-1.61-.26-2.29-.2-4.34-1.5-5.49-3.49-.07-.14-1.81,1.81-2.24,0-.18-1.22.13-2.46.85-3.46Z"/><path class="cls-13_celebrations-87" d="M215.17,264.5c.01.1.01.21,0,.31-.11,1.33-.31,2.66-.59,3.96-.57,2.56-1.66,5.29-4.03,6.44-.98.47-2.07.66-3.15.53-.54-.36-.86-.98-.84-1.63-.06-1.55.98-3.52,1.29-5.04.48-2.3.76-4.65.81-7,.08-2.68-.08-5.35-.5-8-.02-.26-.09-.51-.23-.73-.36-.53-1.15-.53-1.81-.47-6.89.53-13.8-.45-20.27-2.87-.53-.16-1.03-.45-1.44-.82-.29-.26-.44-.63-.43-1.01.06-.45.32-.84.71-1.07.09-.08.2-.14.31-.19.55-.16,1.12-.24,1.69-.23l12.74-.09c1.41.11,2.82-.13,4.11-.7.79-.52,1.55-1.09,2.25-1.72,2.11-1.66,4.83-2.33,7.45-2.92.11-.08.25-.08.36,0,.08.06.12.16.11.25,1.14,7.61,1.63,15.3,1.44,22.99Z"/><path class="cls-31_celebrations-87 targetColor" d="M187.65,232.91c-.25.29-.45.62-.57.99-.9,1.92-2.08,5.68-2.31,4.84-.14-.56-.34-1.1-.62-1.6-1.04-1.89-2.71-2-3.99-2.17-3.09-.47-6.14-1.13-9.15-1.99-.8-.2-1.57-.53-2.28-.96-.32-.23-.59-.52-.81-.84-.39-.77-.57-1.62-.53-2.48-.02-1.54.08-3.09.31-4.61.03-.37.17-.72.4-1.01.34-.26.75-.41,1.18-.42,5.43-.62,9.17-.9,25-.37,5.32.2-3.85,8.01-6.63,10.63Z" style="fill: rgb(236, 156, 82);"/><path class="cls-9_celebrations-87" d="M187.93,239.98c0,.95-.17,2.11-1.04,2.5-.82.26-1.7-.08-2.14-.81-.07-.09-.13-.2-.16-.31-.12-1.4-.28-2.81-.43-4.22-1.04-1.89-2.71-2-3.99-2.17-3.09-.47-6.14-1.13-9.15-1.99-.8-.2-1.57-.53-2.28-.96-.01-.12-.01-.25,0-.37.05-1.32.85-1.76,2.05-1.91,3.49-.39,7.48.33,11,.45.7-.02,1.4.05,2.08.23.11.01.23.04.33.08,1.42.65,2.48,1.89,2.89,3.4.3.81.51,1.65.62,2.51.13,1.19.2,2.38.2,3.57Z"/><path class="cls-31_celebrations-87 targetColor" d="M219.23,231.82c0,1.29-.06,2.59-.19,3.87-.4,3.76-2.08,7.27-4.75,9.95-2.69,2.66-6.35,4.1-10.13,3.99-.36,0-.72-.07-1.06-.19-.54-.28-.98-.73-1.26-1.28-1.2-2.07-1.35-4.58-1.47-6.97-.07-.61-.03-1.22.12-1.81.44-.97,1.14-1.79,2.03-2.37,1.8-1.47,3.45-3.12,4.94-4.9,1.24-1.71,2.67-3.28,4.24-4.69,1.37-1.07,4.21-2.45,5.92-1.37,1.71,1.08,1.64,4.08,1.61,5.77Z" style="fill: rgb(236, 156, 82);"/><path class="cls-28_celebrations-87" d="M178.33,240.03c-1.34.04-2.68-.06-4-.3-1.12-.26-2.2-.65-3.22-1.17-1.23-.6-2.41-1.3-3.52-2.1-.36.37-.11,1,.25,1.36s.84.64,1.01,1.12c.05.11.05.23,0,.33-.09.17-.34.18-.55.15l-7.75-.81c.17.63.65,1.12,1.27,1.31.61.18,1.19.45,1.71.82.84.76.82,2.04,1.11,3.14.49,1.62,1.67,2.95,3.23,3.62,1.56.66,3.31.76,4.94.28.73-.21,1.44-.52,2.18-.7,1.82-.31,3.69-.24,5.48.21,6.11,1.11,12.27,2.35,18.49,2.26,1.42,0,2.96-.16,4.02-1.1,2.07-1.81,2.51-7.51-.82-8.2-2.17-.44-4.64-.14-6.85-.15l-8-.05-8.98-.03Z"/><path class="cls-25_celebrations-87" d="M204.44,309.86c-.28,1.07-.35,2.18-.19,3.27.36,1.69,1.73,2.95,2.99,4.12,9.36,8.66,17.25,18.79,23.36,29.99.46.68.7,1.47.7,2.29-.22.94-.75,1.77-1.5,2.36l-2.37,2.32c-.43.56-1.1.89-1.81.9-.38-.1-.73-.3-1.01-.58-10.51-8.78-20.24-18.44-29.09-28.88-2.26-2.67-4.52-5.47-5.6-8.79-.76-2.72-1.11-5.54-1.06-8.36l-.33-11.42c-.19-6.56-.36-13.21,1.15-19.6.43-1.81.99-3.56,1.55-5.34.2-.61.42-2.58.9-2.94.44-.24.94-.35,1.44-.33,5.78-.18,17.36,3.79,16.62,11.2-.93,9.91-3.81,20-5.74,29.78Z"/><path class="cls-7_celebrations-87" d="M204.44,309.86c-.28,1.07-.35,2.18-.19,3.27.36,1.69,1.73,2.95,2.99,4.12,9.36,8.66,17.25,18.79,23.36,29.99.46.68.7,1.47.7,2.29-.22.94-.75,1.77-1.5,2.36l-2.37,2.32c-.43.56-1.1.89-1.81.9-.38-.1-.73-.3-1.01-.58-10.51-8.78-20.24-18.44-29.09-28.88-2.26-2.67-4.52-5.47-5.6-8.79-.76-2.72-1.11-5.54-1.06-8.36l-.33-11.42c-.19-6.56-.36-13.21,1.15-19.6.43-1.81.99-3.56,1.55-5.34.2-.61.42-2.58.9-2.94.44-.24.94-.35,1.44-.33,5.78-.18,17.36,3.79,16.62,11.2-.93,9.91-3.81,20-5.74,29.78Z"/><path class="cls-30_celebrations-87" d="M204.24,218.03c.68-.49,1.56-.61,2.34-.33.63.48.86,1.32.57,2.05-.31.7-.74,1.34-1.28,1.89-2.16,2.58-3.76,5.86-6.8,7.3-.06,0-.63-3.31-.7-3.62-.2-.96-1.43-2.43-1.15-3.34s2.04-1.45,2.78-1.81l4.23-2.15Z"/><path class="cls-30_celebrations-87" d="M193.34,222.31c-.71,1.81-1.36,3.55-1.94,5.36,1.59-1.17,2.8-2.99,4.69-3.54.07-.01.14-.05.2-.1.02-.07.02-.14,0-.21-.01-.54-.15-1.06-.39-1.54-.27-.42-.48-.87-.63-1.35-.06-.34.15-.71-.23-.68s-.71.6-.9.77c-.36.36-.64.8-.8,1.28Z"/><path class="cls-30_celebrations-87" d="M202.57,235.44c-.5-.07-1,.03-1.42.31-.42.3-.55.86-.31,1.31-1.06.22-1.91,1.01-2.2,2.05-.12.32-.07.68.13.96.1.09.22.16.34.21.78.35,1.62.52,2.42.81.82.24,1.54.76,2.02,1.47.49,1.02.44,2.21-.14,3.18-.57.96-1.22,1.86-1.94,2.71-.32.43-.62,1-.36,1.47.18.26.46.45.77.52.99.31,2.07.2,2.99-.3.1-.07.22-.11.33-.14.18,0,.35.06.5.14.99.3,2.05-.12,2.56-1.01.48-.88.73-1.87.71-2.87.12-1.56.08-3.13-.12-4.68-.07-.66-.24-1.31-.52-1.92-.55-1.11-1.65-1.5-2.39-2.4-.83-1.05-2.06-1.72-3.39-1.85Z"/><path class="cls-30_celebrations-87" d="M170.19,221.61c-.59-.07-1.16.23-1.45.74-.09-.48-.82-.57-1.19-.25-.33.37-.52.84-.54,1.33-.46,2.48-.59,5.01-.39,7.52.02.68.3,1.32.77,1.81.52.43,1.53.28,1.66-.39.23.41.59.73,1.02.9.11.05.24.07.36.05.12-.03.23-.09.32-.19.66-.7,1.01-1.62.99-2.58-.03-.95-.14-1.9-.33-2.83-.2-1.37-.26-2.75-.15-4.13.07-.9.14-1.83-1.06-1.98Z"/><path class="cls-6_celebrations-87" d="M203.03,206.85c.16-.05.28-.19.31-.35,0-.21-.19-.39-.16-.59s.21-.29.38-.36c.11-.05.23-.06.35-.05.2.05.38.18.47.37.16.21.26.46.29.71,0,.49-.23.95-.62,1.26-.2.21-.46.35-.73.43-.28.07-.57,0-.79-.19-.09-.09-.16-.2-.2-.33-.06-.16-.09-.33-.07-.5.08-.52.42-.29.77-.41Z"/><path class="cls-31_celebrations-87 targetColor" d="M215.26,180.07c.66,1.71.69,3.6.09,5.33-.51,1.74-1.34,3.37-1.91,5.09-1.26,3.8-1.28,8.02-3.24,11.52-.09.21-.26.38-.47.47-.19.04-.39.02-.56-.06-3.87-1.37-9.26-4.41-11.09-8.32-.99-2.13,1.49-3.21,2.99-4.32,2.19-1.64,4.41-3.23,6.67-4.78.62-.42,7.56-4.84,7.53-4.92Z" style="fill: rgb(236, 156, 82);"/></g><g id="character_1_celebrations-87"><path class="cls-12_celebrations-87" d="M137.31,351.93c-6.69,2.84-15.38,1.81-22.5,2.33-9.88.71-19.58,3.01-29.47,3.4-.67.07-1.34.04-2-.11-3.35-3.52-6.61-7.11-9.79-10.77,4.28-2.13,9.34-2.03,14.15-1.81,15.22.65,30.54,1.85,45.58.79,5.4-.32,11.95,2.82,4.03,6.17Z"/><path class="cls-29_celebrations-87" d="M96.79,327.92c-.8,2.54-1.81,5.11-1.61,7.77.21,1.14.26,2.3.15,3.46-.35,1.16-.99,2.2-1.87,3.02-1.81,1.94-3.78,3.72-5.89,5.34-.47.42-1.04.71-1.66.83-.64.11-1.25-.28-1.42-.9,0-.41.11-.81.34-1.14,1.16-1.97,2.09-4.06,2.79-6.24.81-3.22,1.23-6.53,1.25-9.85.41-9.05.81-18.09.52-27.14-.18-5.62-.62-11.23-.22-16.84,0-.5.12-.99.36-1.42,1.33-1.98,6.71-2.35,8.58-1s1.81,4.08,1.81,6.14c0,8.14.09,16.33-.61,24.42-.35,4.6-1.2,9.14-2.52,13.56Z"/><path class="cls-25_celebrations-87" d="M95.63,341.5c-.17,2.7-.55,5.38-1.15,8.02-.99-.74-1.5-1.95-1.34-3.18-2.12.6-3.02,3.13-4.85,4.36-1.45.78-3.09,1.15-4.73,1.07-.41.05-.83,0-1.22-.13-.78-.43-1.15-1.34-.9-2.19.25-.83.7-1.59,1.3-2.21.3-.46.74-.81,1.25-1.01.4-.07.82-.07,1.22,0,2.22.07,4.37-.8,5.93-2.4,1.34-1.26,2.02-2.98,3.23-4.28.64-.69.62-1.09,1.17,0,.19.63.23,1.29.1,1.94Z"/><path class="cls-29_celebrations-87" d="M123.53,283.24c5.11-3.27,11.05-5.01,17.12-5,1,.12,2.01-.09,2.89-.59.42-.38.79-.81,1.11-1.28,1.91-2.23,5.31-2.18,8.23-1.94,1.81.14,3.89.5,4.66,2.12-1.81,1.81-4.45,2.54-6.88,3.4-6.81,2.42-12.99,6.34-18.09,11.47-1.42,1.44-2.71,2.97-4.29,4.29-1.55,1.33-3.28,2.43-5.15,3.27-1.93,1.09-4.36.69-5.84-.96-4.49-3.54-7.45-8.67-8.25-14.33-.17-.8-.1-1.64.21-2.4.41-.65.98-1.18,1.66-1.54,2.09-1.36,6.11-4.21,8.79-3.14,1.05.43,4.08,6.47,3.84,6.62Z"/><path class="cls-25_celebrations-87" d="M158.16,278.74c.73.26,1.5.36,2.27.32.79-.06,1.47-.59,1.72-1.34.09-.77-.18-1.55-.74-2.09-1.74-2.08-4.34-3.25-7.06-3.18-.82.1-1.65.09-2.46-.05-.2-.04-.39-.14-.54-.27-.34-.43-.37-1.02-.09-1.49.28-.45.5-.94.64-1.46.03-.1.03-.21,0-.31-.09-.17-.25-.29-.44-.31-.5-.06-1,.11-1.36.47-.35.35-.68.72-.98,1.11-.77.9-1.81,1.47-2.61,2.27-.91.75-1.35,1.93-1.17,3.09.04.16.12.3.24.42.24.14.52.18.79.1,2.35-.33,4.84-.8,7.16-.1.91.26,1.69.86,2.18,1.66.58.81,1.51.9,2.44,1.14Z"/><path class="cls-25_celebrations-87" d="M135.51,205.23c-.54,1.16-1.27,2.22-2.14,3.15-.22.25-.47.51-.7.76-1.38,1.47-3.18,2.93-5.17,2.62-2.87-.45-4.52-4.33-7.43-4.08-.99.08-1.81.64-2.79.81-1.5.1-2.99-.39-4.13-1.37-1.12-.98-2.38-1.8-3.74-2.42-1.59-.41-3.24-.53-4.87-.36-2.13.05-4.25,0-5.76-1.64-2.05-2.22-2.23-7.31-2.62-10.15-.3-1.67-.3-3.38,0-5.06.98-3.4,3.91-5.88,7.43-6.28,3.49-.31,6.92,1.03,9.28,3.62.95,1.19,1.99,2.3,3.12,3.32,1.97,1.49,4.52,1.81,6.95,2.36s4.98,1.72,5.88,4c.22.87.53,1.72.9,2.53.79,1.26,2.42,1.71,3.88,1.94.54.03,1.07.21,1.52.51.33.27.58.63.71,1.04.52,1.55.41,3.24-.32,4.7Z"/><path class="cls-8_celebrations-87" d="M133.36,208.39c-.22.25-.47.51-.7.76-1.38,1.47-3.18,2.93-5.17,2.62-2.87-.45-4.52-4.33-7.43-4.08-.99.08-1.81.64-2.79.81-1.5.1-2.99-.39-4.13-1.37-1.12-.98-2.38-1.8-3.74-2.42-1.59-.41-3.24-.53-4.87-.36-.39-.49-.72-1.03-.99-1.6-1.27-2.84-.53-6.61,2.03-8.41,1.52-1.07,3.99-2.31,5.88-1.63,2.14.7,4.1,1.86,5.74,3.4,1.57,1.75,1.97,4.39,3.74,5.91,1.61,1.37,3.91,1.49,5.96,2.03,1.42.35,2.77.94,4,1.74,1.02.58,1.86,1.44,2.42,2.48.03.05.05.08.05.14Z"/><path class="cls-30_celebrations-87" d="M98.02,208.08c-1.62,1.78-3.61,3.19-5.83,4.13-1.68.89-3.76.26-4.65-1.42,0-.01-.01-.02-.02-.04-.23-.32-.45-.62-.64-.9-1.5-2.43-2.72-5.02-3.62-7.73-.76-2.05-1.49-4.08-2.25-6.11-.19-.4-.28-.85-.25-1.29.1-.53.37-1.01.76-1.37.15-.16.31-.32.48-.45,1.09-1.09,2.39-1.94,3.83-2.5,1.09-.45,2.47-.68,3.4.11.53.59.9,1.31,1.07,2.08,1.52,4.59,4.47,7.88,8.14,10.75,2.48,1.8,1.47,2.8-.42,4.75Z"/><path class="cls-15_celebrations-87" d="M86.88,209.83c-1.5-2.43-2.72-5.02-3.62-7.73-.76-2.05-1.49-4.08-2.25-6.11-.19-.4-.28-.85-.25-1.29.1-.53.37-1.01.76-1.37.15-.16.31-.32.48-.45.71.15,1.4.38,2.05.68.65.19,1.18.67,1.43,1.29.1.43.1.87,0,1.29-.39,3.15,1.72,5.17,2.71,7.93.58,1.63.58,5.59-1.31,5.76Z"/><path class="cls-25_celebrations-87" d="M88.9,191.55c-.11.28-.29.53-.51.73l-.9.96-.17.16c-.32.32-.67.6-1.07.82-.39.17-.8.3-1.21.39-.97.25-1.95.4-2.95.45-.36,0-.71,0-1.07-.05-.11-.01-.21-.06-.28-.14-.03-.07-.03-.15,0-.23.07-.35.26-.67.53-.9.14-.14.28-.25.44-.4.45-.33.82-.76,1.27-1.09.94-.72,1.97-1.3,3.08-1.74.35-.15.72-.26,1.09-.33.23-.04.47-.04.7,0,.67.09,1.14.7,1.05,1.37,0,0,0,0,0,0Z"/><path class="cls-30_celebrations-87" d="M127.43,222.65c-.31,2.11-.79,4.18-1.43,6.21-.11.39-1.27,2.61-1.6,2.61-4.03-.33-7.88-3.32-11.11-5.74-.81-.6-1.89-1.29-2.71-.85-.08,0-.14.06-.23.12-.29.24-.52.55-.67.9-.62,1.24-1.24,2.51-1.86,3.74-.86,1.51-1.47,3.16-1.81,4.87-.15,1.74-.08,3.48.23,5.2.15,1.5.22,3.01.2,4.52.08.67-.14,1.33-.62,1.81-.29.19-.62.32-.96.37-.45.08-.9.14-1.35.22-3.62.53-7.28.61-10.92.23-2.71-.28-5.43-.9-7.39-2.71-.68-.62-1.18-1.42-1.44-2.31-.11-.76-.11-1.52,0-2.28.17-1.81.33-3.57.51-5.37.37-4.02.71-8.14-.39-12.03-.62-2.2-1.69-4.28-2.03-6.53-.08-.52-.06-1.06.05-1.57.24-.58.62-1.1,1.12-1.48,1.44-1.21,3.24-2.03,4.39-3.52.9-1.12,1.36-2.59,2.51-3.43s2.81-.76,4.28-.62c3,.32,6.02.73,9.05,1.27.43.09.9.14,1.36.2,1.91.15,3.78.62,5.54,1.37,1.33.78,2.54,1.74,3.62,2.84,2,1.85,4.08,3.62,6.24,5.26,2.16,1.65,4.33,3.26,6.61,4.75.39.2.71.52.9.9.07.35.04.71-.09,1.04Z"/><path class="cls-11_celebrations-87" d="M119.87,215.93c-1.43.51-3.07-.14-4.47-.76-1.12-.48-2.2-1.04-3.24-1.66-1.55-1.01-2.8-2.39-4.44-3.26-1.15-.62-3.32-.71-4.16-1.81s-.17-1.64.9-1.97c1.91.15,3.78.62,5.54,1.37,1.33.78,2.54,1.74,3.62,2.84,2.01,1.84,4.11,3.59,6.25,5.25Z"/><path class="cls-25_celebrations-87" d="M123.68,230.03c0,.34-.12.73.21.84s.62-.16.84-.42.33-.4.5-.6c.2-.24.36-.51.47-.81.08-.32.09-.65.05-.98,0-.25-.05-.5-.13-.74-.08-.24-.26-.44-.49-.55-1.76-.74-1.48,2.42-1.45,3.25Z"/><path class="cls-29_celebrations-87" d="M107.08,207.04c.03.19,0,.38-.05.55-.13.19-.31.34-.52.42-1.51.54-2.97,1.23-4.36,2.04-1.28.9-2.29,2.32-3.81,2.77-.4-.59-.54-1.33-.38-2.03.16-.69.36-1.37.62-2.04.51-1.88.71-3.83.58-5.77-.09-.9-.01-1.8.24-2.67.27-.88,1.05-1.51,1.97-1.57,1,0,1.71.9,2.44,1.57.9.82,2.47,1.05,2.85,2.09.48,1.26.3,3.21.43,4.63Z"/><path class="cls-29_celebrations-87" d="M109.75,201.12c-.39,1.26-1.2,2.36-2.31,3.08-1.25.61-2.71.61-3.96,0-1.58-.76-2.86-2.04-3.62-3.62-.75-1.58-1.18-3.3-1.24-5.05-.08-1.03,0-2.06.24-3.07.7-2.43,2.68-4.27,5.15-4.79.87-.15,1.75-.19,2.62-.13.5.01.99.1,1.47.24.56.23,1.07.57,1.5,1,.54.47.98,1.04,1.29,1.68.5,1.5.62,3.11.36,4.67-.27,2.04-.78,4.05-1.51,5.98Z"/><path class="cls-29_celebrations-87" d="M142.99,213.62c-.75-2.71.78-5.59.4-8.38-.08-.59-.14-1.38.43-1.57.35-.07.71.05.95.32.8.74,1.19,1.82,1.05,2.9.81-.24,1.61-.47,2.42-.68.25-.09.53-.1.79-.05.45.14.63.67.76,1.13.62,2.29,1.22,4.84.1,6.93-.5.83-1.14,1.58-1.88,2.21-2.81,2.63-5.78,5.08-8.9,7.35-2.19,1.69-4.58,3.09-7.13,4.16-2.57,1.08-5.4,1.37-8.14.85-.77-.18,1.18-4.86,1.45-5.27,1.18-1.87,2.99-2.48,4.91-3.45l12.79-6.45Z"/><path class="cls-29_celebrations-87" d="M87.45,193.24l-.17.16c-.32.32-.67.6-1.07.82-.39.17-.8.3-1.21.39-.97.25-1.95.4-2.95.45-.3-.42-.57-.86-.81-1.32-.71-1.18-1.27-2.39-1.61-3.04-.72-1.66-1.22-3.41-1.51-5.2-.87-3.73-1.5-7.5-1.89-11.31,0-1.01-.2-2.01-.59-2.95-.22-.36-.41-.74-.56-1.13-.14-.41-.18-.84-.12-1.27.16-1.55.98-2.95,2.25-3.84.37-.24.71-.5,1.04-.8.4-.44.62-1.15,1.21-1.35.5-.13,1.04.06,1.35.48.31.42.52.9.62,1.41.25.9.51,1.76.76,2.67.54-.93,1.45-1.59,2.51-1.81-1.29,2.44-2.61,5.09-2.44,7.87.2,1.56.62,3.09,1.27,4.52.62,1.57,1.18,3.15,1.76,4.75.83,2.4,1.47,4.87,1.92,7.37.15,1.03.23,2.07.25,3.11Z"/><path class="cls-31_celebrations-87 targetColor" d="M125.64,271.53c.02.79-.31,1.55-.9,2.08-1.49,1.68-2.95,3.37-4.41,5.06-.9,1.13-1.91,2.17-3.01,3.09-.37.33-.76.64-1.18.9-1.73.94-3.6,1.57-5.55,1.88-9.84,2.08-19.94,2.62-29.95,1.63,1.21-3.67,2.04-7.45,2.48-11.29.14-3.8-.04-7.61-.53-11.39-.48-5.26-.72-10.54-.71-15.83,0-2.37.14-4.96,1.75-6.67,5.43,3.23,12.76,1.04,18.22,4.16.29.16.6.36.9.53.59.39,1.26.64,1.96.71,1.64,0,1.66-1.49,3.49-1.01,1.4.39,2.79,1.94,3.62,3.09,1.21,1.87,2.22,3.86,3.01,5.93,2.55,5.75,5.96,11.09,10.1,15.83.35.36.59.8.71,1.28Z" style="fill: rgb(236, 156, 82);"/><path class="cls-25_celebrations-87" d="M106.12,191.07c.99.81,2.19,1.32,3.46,1.5,1.26.24,2.54.33,3.78.66.24.06.58.09.68-.14.04-.1.04-.22,0-.33-.11-.34-.26-.67-.45-.98-.78-1.49-1.8-2.83-3.03-3.98-1.23-1.15-2.84-1.83-4.52-1.92-.9,0-3.77.43-3.23,1.95.22.62,1.13.82,1.59,1.26.66.61,1.09,1.37,1.73,1.96Z"/><path class="cls-14_celebrations-87" d="M110.53,224.9c-.08,0-.14.06-.23.12-.29.24-.52.55-.67.9-.62,1.24-1.24,2.51-1.86,3.74-.86,1.51-1.47,3.16-1.81,4.87-.15,1.74-.08,3.48.23,5.2.15,1.5.22,3.01.2,4.52.08.67-.14,1.33-.62,1.81-.29.19-.62.32-.96.37-.45.08-.9.14-1.35.22-.65-.2-1.27-.46-1.86-.79-.31-.14-.56-.36-.75-.64-.16-.44-.18-.92-.06-1.37.37-2.59-.73-5.17-.84-7.8-.17-3.96,1.88-7.67,3.88-11.11.36-.72.85-1.38,1.44-1.94,1.18-.99,3.76-1.18,4.8.2.33.5.49,1.09.46,1.69Z"/><path class="cls-10_celebrations-87" d="M125.64,271.53c.02.79-.31,1.55-.9,2.08-1.49,1.68-2.95,3.37-4.41,5.06-.9,1.13-1.91,2.17-3.01,3.09.04-1.01.14-2.01.31-3,.43-4.89-3.09-9.28-3.76-14.15-.2-1.29-.17-2.61-.37-3.91-.76-4.72-4.32-8.44-7.9-11.61-.65-.59-2.89-2.28-2.84-3.37.59.39,1.26.64,1.96.71,1.64,0,1.66-1.49,3.49-1.01,1.4.39,2.79,1.94,3.62,3.09,1.21,1.87,2.22,3.86,3.01,5.93,2.55,5.75,5.96,11.09,10.1,15.83.34.35.59.79.71,1.27Z"/></g></svg>