<svg id="_0178_coding_2" xmlns="http://www.w3.org/2000/svg" xmlns:xlink="http://www.w3.org/1999/xlink" viewBox="0 0 500 500" data-imageid="coding-3-75" imageName="Coding 3" class="illustrations_image" style="width: 158px;"><defs><style>.cls-1_coding-3-75{fill:url(#linear-gradient);}.cls-1_coding-3-75,.cls-2_coding-3-75,.cls-3_coding-3-75,.cls-4_coding-3-75,.cls-5_coding-3-75,.cls-6_coding-3-75,.cls-7_coding-3-75,.cls-8_coding-3-75,.cls-9_coding-3-75,.cls-10_coding-3-75,.cls-11_coding-3-75,.cls-12_coding-3-75,.cls-13_coding-3-75,.cls-14_coding-3-75,.cls-15_coding-3-75,.cls-16_coding-3-75,.cls-17_coding-3-75,.cls-18_coding-3-75,.cls-19_coding-3-75,.cls-20_coding-3-75,.cls-21_coding-3-75,.cls-22_coding-3-75,.cls-23_coding-3-75,.cls-24_coding-3-75,.cls-25_coding-3-75,.cls-26_coding-3-75,.cls-27_coding-3-75,.cls-28_coding-3-75,.cls-29_coding-3-75,.cls-30_coding-3-75,.cls-31_coding-3-75,.cls-32_coding-3-75,.cls-33_coding-3-75,.cls-34_coding-3-75,.cls-35_coding-3-75,.cls-36_coding-3-75,.cls-37_coding-3-75,.cls-38_coding-3-75,.cls-39_coding-3-75,.cls-40_coding-3-75,.cls-41_coding-3-75,.cls-42_coding-3-75,.cls-43_coding-3-75,.cls-44_coding-3-75,.cls-45_coding-3-75,.cls-46_coding-3-75,.cls-47_coding-3-75{stroke-width:0px;}.cls-2_coding-3-75,.cls-34_coding-3-75,.cls-43_coding-3-75{isolation:isolate;}.cls-2_coding-3-75,.cls-34_coding-3-75,.cls-43_coding-3-75,.cls-47_coding-3-75{fill:#68e1fd;}.cls-2_coding-3-75,.cls-48_coding-3-75{opacity:.52;}.cls-3_coding-3-75{fill:url(#linear-gradient-38-coding-3-75);}.cls-4_coding-3-75{fill:url(#linear-gradient-33-coding-3-75);}.cls-5_coding-3-75{fill:url(#linear-gradient-29-coding-3-75);}.cls-6_coding-3-75{fill:url(#linear-gradient-32-coding-3-75);}.cls-7_coding-3-75{fill:url(#linear-gradient-30-coding-3-75);}.cls-8_coding-3-75{fill:url(#linear-gradient-31-coding-3-75);}.cls-9_coding-3-75{fill:url(#linear-gradient-36-coding-3-75);}.cls-10_coding-3-75{fill:url(#linear-gradient-39-coding-3-75);}.cls-11_coding-3-75{fill:url(#linear-gradient-34-coding-3-75);}.cls-12_coding-3-75{fill:url(#linear-gradient-37-coding-3-75);}.cls-13_coding-3-75{fill:url(#linear-gradient-35-coding-3-75);}.cls-14_coding-3-75{fill:url(#linear-gradient-28-coding-3-75);}.cls-15_coding-3-75{fill:url(#linear-gradient-25-coding-3-75);}.cls-16_coding-3-75{fill:url(#linear-gradient-11-coding-3-75);}.cls-17_coding-3-75{fill:url(#linear-gradient-12-coding-3-75);}.cls-18_coding-3-75{fill:url(#linear-gradient-13-coding-3-75);}.cls-19_coding-3-75{fill:url(#linear-gradient-10-coding-3-75);}.cls-20_coding-3-75{fill:url(#linear-gradient-17-coding-3-75);}.cls-21_coding-3-75{fill:url(#linear-gradient-16-coding-3-75);}.cls-22_coding-3-75{fill:url(#linear-gradient-19-coding-3-75);}.cls-23_coding-3-75{fill:url(#linear-gradient-15-coding-3-75);}.cls-24_coding-3-75{fill:url(#linear-gradient-23-coding-3-75);}.cls-25_coding-3-75{fill:url(#linear-gradient-21-coding-3-75);}.cls-26_coding-3-75{fill:url(#linear-gradient-18-coding-3-75);}.cls-27_coding-3-75{fill:url(#linear-gradient-14-coding-3-75);}.cls-28_coding-3-75{fill:url(#linear-gradient-22-coding-3-75);}.cls-29_coding-3-75{fill:url(#linear-gradient-20-coding-3-75);}.cls-30_coding-3-75{fill:url(#linear-gradient-27-coding-3-75);}.cls-31_coding-3-75{fill:url(#linear-gradient-24-coding-3-75);}.cls-32_coding-3-75{fill:url(#linear-gradient-26-coding-3-75);}.cls-33_coding-3-75{fill:url(#linear-gradient-40-coding-3-75);}.cls-34_coding-3-75{opacity:.42;}.cls-35_coding-3-75{fill:url(#linear-gradient-4-coding-3-75);}.cls-36_coding-3-75{fill:url(#linear-gradient-2-coding-3-75);}.cls-37_coding-3-75{fill:url(#linear-gradient-3-coding-3-75);}.cls-38_coding-3-75{fill:url(#linear-gradient-8-coding-3-75);}.cls-39_coding-3-75{fill:url(#linear-gradient-9-coding-3-75);}.cls-40_coding-3-75{fill:url(#linear-gradient-7-coding-3-75);}.cls-41_coding-3-75{fill:url(#linear-gradient-5-coding-3-75);}.cls-42_coding-3-75{fill:url(#linear-gradient-6-coding-3-75);}.cls-43_coding-3-75{opacity:.24;}.cls-44_coding-3-75{fill:#231f20;}.cls-45_coding-3-75{fill:#fff;}.cls-46_coding-3-75{fill:#ffb4a3;}</style><linearGradient id="linear-gradient-coding-3-75" x1="280.54" y1="2670.58" x2="273.84" y2="2818.69" gradientTransform="translate(-113.88 2869.74) scale(1 -1)" gradientUnits="userSpaceOnUse"><stop offset="0" stop-color="#fff" stop-opacity="0"/><stop offset=".95" stop-color="#fff"/></linearGradient><linearGradient id="linear-gradient-2-coding-3-75" x1="490.09" y1="2709.24" x2="582.7" y2="2695.3" gradientTransform="translate(-113.89 2869.74) scale(1 -1)" xlink:href="#linear-gradient-coding-3-75"/><linearGradient id="linear-gradient-3-coding-3-75" x1="426.58" y1="2836.82" x2="428.25" y2="2700.15" gradientTransform="translate(-113.89 2869.74) scale(1 -1)" xlink:href="#linear-gradient-coding-3-75"/><linearGradient id="linear-gradient-4-coding-3-75" x1="386.57" y1="2571.64" x2="377.64" y2="2766.34" xlink:href="#linear-gradient-coding-3-75"/><linearGradient id="linear-gradient-5-coding-3-75" x1="338.74" y1="-676.37" x2="336.93" y2="-580.03" gradientTransform="translate(-113.88 790.93)" gradientUnits="userSpaceOnUse"><stop offset="0" stop-color="#fff" stop-opacity="0"/><stop offset=".99" stop-color="#fff"/></linearGradient><linearGradient id="linear-gradient-6-coding-3-75" x1="332.44" y1="-676.48" x2="330.64" y2="-580.15" xlink:href="#linear-gradient-5-coding-3-75"/><linearGradient id="linear-gradient-7-coding-3-75" x1="381.95" y1="-675.56" x2="380.14" y2="-579.22" xlink:href="#linear-gradient-5-coding-3-75"/><linearGradient id="linear-gradient-8-coding-3-75" x1="436.97" y1="-674.52" x2="435.18" y2="-578.2" xlink:href="#linear-gradient-5-coding-3-75"/><linearGradient id="linear-gradient-9-coding-3-75" x1="346.68" y1="-676.21" x2="344.87" y2="-579.88" xlink:href="#linear-gradient-5-coding-3-75"/><linearGradient id="linear-gradient-10-coding-3-75" x1="358.23" y1="-676.01" x2="356.41" y2="-579.67" xlink:href="#linear-gradient-5-coding-3-75"/><linearGradient id="linear-gradient-11-coding-3-75" x1="390.45" y1="-675.4" x2="388.65" y2="-579.06" xlink:href="#linear-gradient-5-coding-3-75"/><linearGradient id="linear-gradient-12-coding-3-75" x1="354.53" y1="-676.07" x2="352.72" y2="-579.74" xlink:href="#linear-gradient-5-coding-3-75"/><linearGradient id="linear-gradient-13-coding-3-75" x1="395.68" y1="-675.3" x2="393.88" y2="-578.97" xlink:href="#linear-gradient-5-coding-3-75"/><linearGradient id="linear-gradient-14-coding-3-75" x1="338.74" y1="-651.47" x2="336.93" y2="-555.13" xlink:href="#linear-gradient-5-coding-3-75"/><linearGradient id="linear-gradient-15-coding-3-75" x1="332.45" y1="-651.59" x2="330.64" y2="-555.25" xlink:href="#linear-gradient-5-coding-3-75"/><linearGradient id="linear-gradient-16-coding-3-75" x1="381.95" y1="-650.66" x2="380.14" y2="-554.32" xlink:href="#linear-gradient-5-coding-3-75"/><linearGradient id="linear-gradient-17-coding-3-75" x1="436.97" y1="-649.63" x2="435.18" y2="-553.29" xlink:href="#linear-gradient-5-coding-3-75"/><linearGradient id="linear-gradient-18-coding-3-75" x1="346.68" y1="-651.33" x2="344.87" y2="-554.99" xlink:href="#linear-gradient-5-coding-3-75"/><linearGradient id="linear-gradient-19-coding-3-75" x1="358.23" y1="-651.11" x2="356.41" y2="-554.77" xlink:href="#linear-gradient-5-coding-3-75"/><linearGradient id="linear-gradient-20-coding-3-75" x1="390.45" y1="-650.51" x2="388.65" y2="-554.17" xlink:href="#linear-gradient-5-coding-3-75"/><linearGradient id="linear-gradient-21-coding-3-75" x1="354.53" y1="-651.17" x2="352.72" y2="-554.84" xlink:href="#linear-gradient-5-coding-3-75"/><linearGradient id="linear-gradient-22-coding-3-75" x1="395.68" y1="-650.41" x2="393.88" y2="-554.07" xlink:href="#linear-gradient-5-coding-3-75"/><linearGradient id="linear-gradient-23-coding-3-75" x1="338.74" y1="-626.58" x2="336.93" y2="-530.24" xlink:href="#linear-gradient-5-coding-3-75"/><linearGradient id="linear-gradient-24-coding-3-75" x1="332.45" y1="-626.7" x2="330.64" y2="-530.36" xlink:href="#linear-gradient-5-coding-3-75"/><linearGradient id="linear-gradient-25-coding-3-75" x1="381.95" y1="-625.77" x2="380.14" y2="-529.44" xlink:href="#linear-gradient-5-coding-3-75"/><linearGradient id="linear-gradient-26-coding-3-75" x1="436.97" y1="-624.74" x2="435.18" y2="-528.4" xlink:href="#linear-gradient-5-coding-3-75"/><linearGradient id="linear-gradient-27-coding-3-75" x1="346.68" y1="-626.43" x2="344.87" y2="-530.09" xlink:href="#linear-gradient-5-coding-3-75"/><linearGradient id="linear-gradient-28-coding-3-75" x1="358.23" y1="-626.21" x2="356.41" y2="-529.87" xlink:href="#linear-gradient-5-coding-3-75"/><linearGradient id="linear-gradient-29-coding-3-75" x1="390.45" y1="-625.61" x2="388.65" y2="-529.27" xlink:href="#linear-gradient-5-coding-3-75"/><linearGradient id="linear-gradient-30-coding-3-75" x1="354.53" y1="-626.28" x2="352.72" y2="-529.94" xlink:href="#linear-gradient-5-coding-3-75"/><linearGradient id="linear-gradient-31-coding-3-75" x1="395.68" y1="-625.51" x2="393.88" y2="-529.17" xlink:href="#linear-gradient-5-coding-3-75"/><linearGradient id="linear-gradient-32-coding-3-75" x1="281.73" y1="2512.78" x2="282.01" y2="2442.77" gradientTransform="translate(-113.88 2869.74) scale(1 -1)" gradientUnits="userSpaceOnUse"><stop offset="0" stop-color="#231f20" stop-opacity="0"/><stop offset="1" stop-color="#231f20"/></linearGradient><linearGradient id="linear-gradient-33-coding-3-75" x1="297.66" y1="2502.44" x2="306.58" y2="2468.13" xlink:href="#linear-gradient-32-coding-3-75"/><linearGradient id="linear-gradient-34-coding-3-75" x1="275.26" y1="2504.31" x2="260.2" y2="2467.78" xlink:href="#linear-gradient-32-coding-3-75"/><linearGradient id="linear-gradient-35-coding-3-75" x1="287.51" y1="2486.33" x2="269.93" y2="2435.28" xlink:href="#linear-gradient-32-coding-3-75"/><linearGradient id="linear-gradient-36-coding-3-75" x1="356.77" y1="2553.2" x2="408.19" y2="2553.2" xlink:href="#linear-gradient-32-coding-3-75"/><linearGradient id="linear-gradient-37-coding-3-75" x1="273.65" y1="2584.45" x2="328.21" y2="2584.45" gradientTransform="translate(-31 2871.49) scale(1 -1)" xlink:href="#linear-gradient-32-coding-3-75"/><linearGradient id="linear-gradient-38-coding-3-75" x1="383.72" y1="2594.17" x2="382.68" y2="2538.73" xlink:href="#linear-gradient-32-coding-3-75"/><linearGradient id="linear-gradient-39-coding-3-75" x1="382.51" y1="2502.08" x2="385.44" y2="2527.18" xlink:href="#linear-gradient-32-coding-3-75"/><linearGradient id="linear-gradient-40-coding-3-75" x1="381.52" y1="2542.17" x2="382.36" y2="2508.28" gradientTransform="translate(-113.88 2869.75) scale(1 -1)" xlink:href="#linear-gradient-32-coding-3-75"/></defs><g id="background_coding-3-75"><path class="cls-43_coding-3-75 targetColor" d="M438.15,305.58c-11.48,16.46-27.57,29.12-40.31,44.69-18.69,22.82-30.79,52.45-56.1,67.67-11.97,7.19-25.83,10.4-39.4,13.52-21.82,5.02-44.43,10.04-66.43,5.8-16.86-3.24-32.16-11.74-47.14-20.13l-11.86-6.66c-2.61-1.48-5.26-2.94-7.9-4.42l-7.7-4.32c-22.61-12.74-45.08-26.03-64.14-43.6-21.23-19.49-38.11-45.15-41.62-73.8-4.07-33.11,11.51-67.88,38.91-86.91,15.03-10.46,32.96-16.28,47.72-27.13,23.31-17.12,36.13-44.49,52.14-68.54,29.66-44.59,86.69-65.92,134.72-34.23,18.67,12.3,32.79,30.58,43.16,50.4,8.77,16.71,15.21,34.83,26.87,49.66,13.31,16.94,32.69,28.68,44.34,46.81,17.45,27.14,13.23,64.68-5.26,91.17Z" style="fill: rgb(236, 156, 82);"/><path class="cls-34_coding-3-75 targetColor" d="M191.81,407.03c-1.4,1.53.89,3.66,2.85,4.4,12.78,4.89,26.35,7.4,40.03,7.42l-2.33,3.97c21.45,5.96,44.1,6.07,65.61.34l-3.31-5.13,19.22-.95c3.05-.14,13.76,1.11,15.78-1.6,5.83-7.81-17.9-8.11-20.44-8.22-25.31-1.06-50.64-1.47-75.98-1.23-6.91.06-13.82.17-20.73.33-3.27.11-18.67-1.5-20.7.67Z" style="fill: rgb(236, 156, 82);"/></g><g id="screen_coding-3-75"><rect class="cls-2_coding-3-75 targetColor" x="101.4" y="90.17" width="126.98" height="140" rx="11.54" ry="11.54" style="fill: rgb(236, 156, 82);"/><rect class="cls-1_coding-3-75" x="101.4" y="90.17" width="126.98" height="140" rx="11.54" ry="11.54"/><rect class="cls-2_coding-3-75 targetColor" x="301.68" y="116.63" width="141.11" height="86.54" rx="10.99" ry="10.99" style="fill: rgb(236, 156, 82);"/><rect class="cls-36_coding-3-75" x="301.68" y="116.63" width="141.11" height="86.54" rx="10.99" ry="10.99"/><rect class="cls-2_coding-3-75 targetColor" x="269.34" y="85.58" width="88.65" height="54.37" rx="6.9" ry="6.9" style="fill: rgb(236, 156, 82);"/><rect class="cls-37_coding-3-75" x="269.34" y="85.58" width="88.65" height="54.37" rx="6.9" ry="6.9"/><rect class="cls-47_coding-3-75 targetColor" x="187.04" y="160.72" width="164.26" height="121.26" rx="11.94" ry="11.94" style="fill: rgb(236, 156, 82);"/><rect class="cls-35_coding-3-75" x="187.04" y="160.72" width="164.26" height="121.26" rx="11.94" ry="11.94"/><rect class="cls-41_coding-3-75" x="207.23" y="179.71" width="32.76" height="2.41"/><rect class="cls-42_coding-3-75" x="207.23" y="184.36" width="20" height="2.25"/><rect class="cls-40_coding-3-75" x="235.29" y="184.36" width="62.92" height="2.27"/><rect class="cls-38_coding-3-75" x="304.1" y="184.36" width="35.41" height="2.27"/><rect class="cls-39_coding-3-75" x="217.64" y="189.03" width="27.49" height="2.38"/><rect class="cls-19_coding-3-75" x="226.46" y="193.67" width="32.76" height="2.41"/><rect class="cls-16_coding-3-75" x="261.36" y="193.67" width="27.46" height="2.67"/><rect class="cls-17_coding-3-75" x="226.41" y="198.32" width="25.29" height="2.25"/><rect class="cls-18_coding-3-75" x="254.13" y="198.32" width="52.2" height="2.5"/><rect class="cls-27_coding-3-75" x="207.23" y="204.61" width="32.76" height="2.41"/><rect class="cls-23_coding-3-75" x="207.23" y="209.26" width="20" height="2.25"/><rect class="cls-21_coding-3-75" x="235.29" y="209.26" width="62.92" height="2.27"/><rect class="cls-20_coding-3-75" x="304.1" y="209.26" width="35.41" height="2.27"/><rect class="cls-26_coding-3-75" x="217.64" y="213.91" width="27.49" height="2.38"/><rect class="cls-22_coding-3-75" x="226.46" y="218.57" width="32.76" height="2.41"/><rect class="cls-29_coding-3-75" x="261.36" y="218.57" width="27.46" height="2.67"/><rect class="cls-25_coding-3-75" x="226.41" y="223.22" width="25.29" height="2.25"/><rect class="cls-28_coding-3-75" x="254.13" y="223.22" width="52.2" height="2.5"/><rect class="cls-24_coding-3-75" x="207.23" y="229.51" width="32.76" height="2.41"/><rect class="cls-31_coding-3-75" x="207.23" y="234.16" width="20" height="2.25"/><rect class="cls-15_coding-3-75" x="235.29" y="234.16" width="62.92" height="2.27"/><rect class="cls-32_coding-3-75" x="304.1" y="234.16" width="35.41" height="2.27"/><rect class="cls-30_coding-3-75" x="217.64" y="238.81" width="27.49" height="2.38"/><rect class="cls-14_coding-3-75" x="226.46" y="243.46" width="32.76" height="2.41"/><rect class="cls-5_coding-3-75" x="261.36" y="243.46" width="27.46" height="2.67"/><rect class="cls-7_coding-3-75" x="226.41" y="248.12" width="25.29" height="2.25"/><rect class="cls-8_coding-3-75" x="254.13" y="248.12" width="52.2" height="2.5"/><g class="cls-48_coding-3-75"><rect class="cls-47_coding-3-75 targetColor" x="280.59" y="93.02" width="16.3" height="1.2" style="fill: rgb(236, 156, 82);"/><rect class="cls-47_coding-3-75 targetColor" x="280.59" y="95.34" width="9.95" height="1.12" style="fill: rgb(236, 156, 82);"/><rect class="cls-47_coding-3-75 targetColor" x="294.55" y="95.34" width="31.3" height="1.13" style="fill: rgb(236, 156, 82);"/><rect class="cls-47_coding-3-75 targetColor" x="328.77" y="95.34" width="17.62" height="1.13" style="fill: rgb(236, 156, 82);"/><rect class="cls-47_coding-3-75 targetColor" x="285.77" y="97.65" width="13.67" height="1.18" style="fill: rgb(236, 156, 82);"/><rect class="cls-47_coding-3-75 targetColor" x="290.16" y="99.97" width="16.3" height="1.2" style="fill: rgb(236, 156, 82);"/><rect class="cls-47_coding-3-75 targetColor" x="307.51" y="99.97" width="13.65" height="1.33" style="fill: rgb(236, 156, 82);"/><rect class="cls-47_coding-3-75 targetColor" x="290.13" y="102.28" width="12.58" height="1.12" style="fill: rgb(236, 156, 82);"/><rect class="cls-47_coding-3-75 targetColor" x="303.93" y="102.28" width="25.97" height="1.25" style="fill: rgb(236, 156, 82);"/><rect class="cls-47_coding-3-75 targetColor" x="280.59" y="105.41" width="16.3" height="1.2" style="fill: rgb(236, 156, 82);"/><rect class="cls-47_coding-3-75 targetColor" x="280.59" y="107.72" width="9.95" height="1.12" style="fill: rgb(236, 156, 82);"/><rect class="cls-47_coding-3-75 targetColor" x="294.55" y="107.72" width="31.3" height="1.13" style="fill: rgb(236, 156, 82);"/><rect class="cls-47_coding-3-75 targetColor" x="328.77" y="107.72" width="17.62" height="1.13" style="fill: rgb(236, 156, 82);"/><rect class="cls-47_coding-3-75 targetColor" x="285.77" y="110.03" width="13.67" height="1.18" style="fill: rgb(236, 156, 82);"/><rect class="cls-47_coding-3-75 targetColor" x="290.16" y="112.35" width="16.3" height="1.2" style="fill: rgb(236, 156, 82);"/><rect class="cls-47_coding-3-75 targetColor" x="307.51" y="112.35" width="13.65" height="1.33" style="fill: rgb(236, 156, 82);"/><rect class="cls-47_coding-3-75 targetColor" x="290.13" y="114.66" width="12.58" height="1.12" style="fill: rgb(236, 156, 82);"/><rect class="cls-47_coding-3-75 targetColor" x="303.93" y="114.66" width="25.97" height="1.25" style="fill: rgb(236, 156, 82);"/><rect class="cls-47_coding-3-75 targetColor" x="280.59" y="117.79" width="16.3" height="1.2" style="fill: rgb(236, 156, 82);"/><rect class="cls-47_coding-3-75 targetColor" x="280.59" y="120.11" width="9.95" height="1.12" style="fill: rgb(236, 156, 82);"/><rect class="cls-47_coding-3-75 targetColor" x="294.55" y="120.11" width="31.3" height="1.13" style="fill: rgb(236, 156, 82);"/><rect class="cls-47_coding-3-75 targetColor" x="328.77" y="120.11" width="17.62" height="1.13" style="fill: rgb(236, 156, 82);"/><rect class="cls-47_coding-3-75 targetColor" x="285.77" y="122.42" width="13.67" height="1.18" style="fill: rgb(236, 156, 82);"/><rect class="cls-47_coding-3-75 targetColor" x="290.16" y="124.73" width="16.3" height="1.2" style="fill: rgb(236, 156, 82);"/><rect class="cls-47_coding-3-75 targetColor" x="307.51" y="124.73" width="13.65" height="1.33" style="fill: rgb(236, 156, 82);"/><rect class="cls-47_coding-3-75 targetColor" x="290.13" y="127.05" width="12.58" height="1.12" style="fill: rgb(236, 156, 82);"/><rect class="cls-47_coding-3-75 targetColor" x="303.93" y="127.05" width="25.97" height="1.25" style="fill: rgb(236, 156, 82);"/></g><rect class="cls-45_coding-3-75" x="339.52" y="215.06" width="81.02" height="60.08" rx="10.48" ry="10.48"/><rect class="cls-45_coding-3-75" x="104.85" y="245.95" width="93.16" height="34.17" rx="10.15" ry="10.15"/><path class="cls-47_coding-3-75 targetColor" d="M121.22,129.43l23.7-12.21v3.54l-19.97,9.96v.11l19.97,10v3.54l-23.7-12.21v-2.73Z" style="fill: rgb(236, 156, 82);"/><path class="cls-47_coding-3-75 targetColor" d="M148.21,146.46l14.26-37.08h3.47l-14.26,37.08h-3.47Z" style="fill: rgb(236, 156, 82);"/><path class="cls-47_coding-3-75 targetColor" d="M192.9,132.34l-23.71,12.16v-3.62l20.12-10v-.16l-20.12-10v-3.49l23.71,12.16v2.96Z" style="fill: rgb(236, 156, 82);"/><g class="cls-48_coding-3-75"><rect class="cls-47_coding-3-75 targetColor" x="348.51" y="230.61" width="21.68" height="1.59" style="fill: rgb(236, 156, 82);"/><rect class="cls-47_coding-3-75 targetColor" x="348.51" y="233.68" width="13.24" height="1.49" style="fill: rgb(236, 156, 82);"/><rect class="cls-47_coding-3-75 targetColor" x="367.08" y="233.68" width="41.64" height="1.5" style="fill: rgb(236, 156, 82);"/><rect class="cls-47_coding-3-75 targetColor" x="355.4" y="236.77" width="18.2" height="1.58" style="fill: rgb(236, 156, 82);"/><rect class="cls-47_coding-3-75 targetColor" x="361.24" y="239.84" width="21.68" height="1.59" style="fill: rgb(236, 156, 82);"/><rect class="cls-47_coding-3-75 targetColor" x="384.32" y="239.84" width="18.17" height="1.77" style="fill: rgb(236, 156, 82);"/><rect class="cls-47_coding-3-75 targetColor" x="361.2" y="242.92" width="16.74" height="1.49" style="fill: rgb(236, 156, 82);"/><rect class="cls-47_coding-3-75 targetColor" x="379.55" y="242.92" width="34.54" height="1.65" style="fill: rgb(236, 156, 82);"/><rect class="cls-47_coding-3-75 targetColor" x="348.51" y="247.09" width="21.68" height="1.59" style="fill: rgb(236, 156, 82);"/><rect class="cls-47_coding-3-75 targetColor" x="348.51" y="250.16" width="13.24" height="1.49" style="fill: rgb(236, 156, 82);"/><rect class="cls-47_coding-3-75 targetColor" x="367.08" y="250.16" width="41.64" height="1.5" style="fill: rgb(236, 156, 82);"/><rect class="cls-47_coding-3-75 targetColor" x="355.4" y="253.24" width="18.2" height="1.58" style="fill: rgb(236, 156, 82);"/><rect class="cls-47_coding-3-75 targetColor" x="361.24" y="256.32" width="21.68" height="1.59" style="fill: rgb(236, 156, 82);"/><rect class="cls-47_coding-3-75 targetColor" x="384.32" y="256.32" width="18.17" height="1.77" style="fill: rgb(236, 156, 82);"/><rect class="cls-47_coding-3-75 targetColor" x="361.2" y="259.4" width="16.74" height="1.49" style="fill: rgb(236, 156, 82);"/><rect class="cls-47_coding-3-75 targetColor" x="379.55" y="259.4" width="34.54" height="1.65" style="fill: rgb(236, 156, 82);"/></g><g class="cls-48_coding-3-75"><rect class="cls-47_coding-3-75 targetColor" x="119.22" y="253.48" width="21.68" height="1.59" style="fill: rgb(236, 156, 82);"/><rect class="cls-47_coding-3-75 targetColor" x="119.22" y="256.56" width="13.24" height="1.49" style="fill: rgb(236, 156, 82);"/><rect class="cls-47_coding-3-75 targetColor" x="137.79" y="256.56" width="41.64" height="1.5" style="fill: rgb(236, 156, 82);"/><rect class="cls-47_coding-3-75 targetColor" x="126.11" y="259.64" width="18.2" height="1.58" style="fill: rgb(236, 156, 82);"/><rect class="cls-47_coding-3-75 targetColor" x="131.95" y="262.72" width="21.68" height="1.59" style="fill: rgb(236, 156, 82);"/><rect class="cls-47_coding-3-75 targetColor" x="155.04" y="262.72" width="18.17" height="1.77" style="fill: rgb(236, 156, 82);"/><rect class="cls-47_coding-3-75 targetColor" x="131.92" y="265.79" width="16.74" height="1.49" style="fill: rgb(236, 156, 82);"/><rect class="cls-47_coding-3-75 targetColor" x="150.26" y="265.79" width="34.54" height="1.65" style="fill: rgb(236, 156, 82);"/><rect class="cls-47_coding-3-75 targetColor" x="119.22" y="269.96" width="21.68" height="1.59" style="fill: rgb(236, 156, 82);"/><rect class="cls-47_coding-3-75 targetColor" x="119.22" y="273.04" width="13.24" height="1.49" style="fill: rgb(236, 156, 82);"/><rect class="cls-47_coding-3-75 targetColor" x="137.79" y="273.04" width="41.64" height="1.5" style="fill: rgb(236, 156, 82);"/></g></g><g id="plant_coding-3-75"><path class="cls-47_coding-3-75 targetColor" d="M161.8,363.44c-3.15-6.22-7-12.67-6.26-19.61.45-4.19,2.57-8,4.64-11.68l9.34-16.55c2.85,3.71,7.55,5.96,9.43,10.24,3.02,6.87-2.85,14.48-2.54,21.98.21,5.77,4.04,11.03,3.8,16.8-.15,4.19-6.79,17.93-12.16,17.41-2.84-.28-4.47-15.08-6.26-18.6Z" style="fill: rgb(236, 156, 82);"/><path class="cls-6_coding-3-75" d="M161.8,363.44c-3.15-6.22-7-12.67-6.26-19.61.45-4.19,2.57-8,4.64-11.68l9.34-16.55c2.85,3.71,7.55,5.96,9.43,10.24,3.02,6.87-2.85,14.48-2.54,21.98.21,5.77,4.04,11.03,3.8,16.8-.15,4.19-6.79,17.93-12.16,17.41-2.84-.28-4.47-15.08-6.26-18.6Z"/><path class="cls-47_coding-3-75 targetColor" d="M193.95,360.78c2.12,0,4.75.43,5.36,2.47.49,1.79-1.07,3.43-2.57,4.54-5.2,3.8-11.71,6.72-14.26,12.65-4.23,9.83-16.21,3.53-10.01-4.98,2.57-3.52,4.75-8.24,7.95-11.18,3.67-3.39,8.8-3.55,13.53-3.49Z" style="fill: rgb(236, 156, 82);"/><path class="cls-4_coding-3-75" d="M193.95,360.78c2.12,0,4.75.43,5.36,2.47.49,1.79-1.07,3.43-2.57,4.54-5.2,3.8-11.71,6.72-14.26,12.65-4.23,9.83-16.21,3.53-10.01-4.98,2.57-3.52,4.75-8.24,7.95-11.18,3.67-3.39,8.8-3.55,13.53-3.49Z"/><path class="cls-47_coding-3-75 targetColor" d="M162.89,365.33c-2.39-2.72-5.93-4.06-9.32-5.32-1.61-.59-3.67-1.07-4.75.22-.73,1.03-.73,2.42,0,3.45.75.99,1.66,1.84,2.69,2.52,2.08,1.53,3.79,3.51,4.99,5.79,1.21,2.46,1.53,5.27,2.61,7.8s3.32,4.92,6.06,4.8c2.19-.22,4.04-1.74,4.68-3.85,1.06-3.28-.35-4.75-2.11-7.07-1.95-2.58-2.66-5.88-4.84-8.34Z" style="fill: rgb(236, 156, 82);"/><path class="cls-11_coding-3-75" d="M162.89,365.33c-2.39-2.72-5.93-4.06-9.32-5.32-1.61-.59-3.67-1.07-4.75.22-.73,1.03-.73,2.42,0,3.45.75.99,1.66,1.84,2.69,2.52,2.08,1.53,3.79,3.51,4.99,5.79,1.21,2.46,1.53,5.27,2.61,7.8s3.32,4.92,6.06,4.8c2.19-.22,4.04-1.74,4.68-3.85,1.06-3.28-.35-4.75-2.11-7.07-1.95-2.58-2.66-5.88-4.84-8.34Z"/><path class="cls-47_coding-3-75 targetColor" d="M183.53,380.52l-3.2,29.98h-3.39c-2.61-1.48-5.26-2.94-7.9-4.42l-7.7-4.32-2.73-21.24h24.93Z" style="fill: rgb(236, 156, 82);"/><path class="cls-13_coding-3-75" d="M183.53,380.52l-3.2,29.98h-3.39c-2.61-1.48-5.26-2.94-7.9-4.42l-7.7-4.32-2.73-21.24h24.93Z"/></g><g id="character_coding-3-75"><path class="cls-46_coding-3-75" d="M287.09,218.14c.68-.2,1.42-.07,2,.35.4.45.63,1.03.66,1.63.24,1.21.29,2.45.14,3.68-.16,1.22-.76,2.34-1.68,3.15-.72.53-1.53.92-2.4,1.16-.65.29-1.39.32-2.05.08-.59-.4-.97-1.05-1.03-1.76-.75-3.68.4-7.56,4.36-8.28Z"/><path class="cls-46_coding-3-75" d="M252.47,216.87c-.38-.09-.77-.09-1.15,0-.84.4-1.38,1.25-1.37,2.18-.06.89,0,1.79.17,2.67.16,1.47.77,2.86,1.73,3.98,1,1.11,2.63,1.4,3.95.68,4.04-2.8.24-8.74-3.33-9.52Z"/><path class="cls-44_coding-3-75" d="M299.85,336.68c-.51,10.14-1.13,20.3-1.84,30.48-.21,5.15-.88,10.26-2,15.29-.75,2.99-1.81,5.89-3.16,8.66-.58,1.19-1.41,2.48-2.71,2.61-1.64.17-2.79-1.59-3.38-3.14-2.94-7.61-2.94-15.94-3.13-24.08-.11-4.21-.28-8.42-.5-12.64-.28-5.09-.83-10.59-4.27-14.36-1.05-1.14-2.32-2.07-3.35-3.24-4.19-4.75-2.94-12.77,1.58-17.25,3.51-3.47,13.69-8.05,18.61-5.18,5.84,3.4,4.41,17.34,4.14,22.83Z"/><path class="cls-44_coding-3-75" d="M270.41,319.27c1.47,2.33,2.16,5.07,1.97,7.82-.24,8.26-5.14,15.58-7.61,23.48-3.69,11.93-1.64,24.72-1.26,37.25.17,1.72-.04,3.47-.63,5.1-.64,1.66-2.23,2.75-4,2.74-1.25-.23-2.38-.91-3.19-1.9-6.05-6.47-5.85-16.33-6.85-25.11-1.12-9.78-4.16-19.24-6.74-28.73-1.17-4.29-2.26-8.68-1.99-13.11.28-4.43,2.14-8.99,5.8-11.5,6.65-4.55,19.75-2.81,24.49,3.98Z"/><rect class="cls-2_coding-3-75 targetColor" x="157.1" y="295.22" width="214.6" height="10.29" style="fill: rgb(236, 156, 82);"/><path class="cls-46_coding-3-75" d="M308.7,288.56c.68,1.9,1.31,3.9.89,5.86-.15.68-.43,1.32-.81,1.9-1.9,2.95-6.41,3.4-9.51,1.64-3.1-1.77-4.85-5.15-5.71-8.56-.34-1.14-.45-2.33-.33-3.52.28-2.06,1.64-3.8,3.07-5.32,1.9-1.98,5.39-4.56,7.95-2.19,2.3,2.13,3.42,7.35,4.44,10.19Z"/><path class="cls-46_coding-3-75" d="M230.93,287.98c-.42.79-.61,1.67-.56,2.56.12.57.34,1.11.67,1.6.8,1.44,1.87,2.7,3.15,3.74,1.29,1.03,2.92,1.54,4.57,1.42,2.43-.27,4.36-2.2,5.66-4.28,1.34-1.98,2.05-4.32,2.03-6.71-.15-2.55-1.43-4.9-3.5-6.41-1.84-1.33-5.66-2.54-7.73-1.02-2.07,1.52-3.24,6.66-4.28,9.11Z"/><path class="cls-46_coding-3-75" d="M278.06,243.45c.19.86.24,1.75.15,2.62-.35,2.43-2.78,4.14-5.21,4.44s-4.87-.51-7.14-1.42c-.7-.24-1.34-.6-1.9-1.08-.56-.58-.94-1.31-1.09-2.1-.27-1.37-.36-2.77-.25-4.16l.15-4.91c-.05-.96.14-1.92.55-2.79.95-1.63,3.13-1.9,5.02-2.03,2.48-.1,6.22,0,7.85,2.26,1.64,2.26,1.45,6.52,1.86,9.16Z"/><path class="cls-44_coding-3-75" d="M285.71,203.4c.74,2.07,1,4.28.76,6.47-.21,5.05-.74,10.07-1.58,15.05-.63,3.74-1.62,7.75-4.57,10.11-.85.57-1.64,1.2-2.39,1.9-.51.55-.87,1.24-1.35,1.84-2.41,3.01-7.26,3.01-10.56,1.01-3.31-2.01-5.43-5.45-7.37-8.8-2.14-3.69-4.26-7.55-4.64-11.8-.31-3.37.48-6.91-.81-10.04-.95-2.3-2.92-4.15-3.36-6.59-.17-1.65.03-3.31.59-4.87.77-2.77,1.95-5.96,4.75-6.71,2.04-.55,4.16.49,6.28.56,2.7.1,5.45-1.42,8.02-.56,3.3,1.1,4.75,4.91,8.04,6.14s6.66,2.8,8.19,6.29Z"/><path class="cls-45_coding-3-75" d="M296.62,252.13c-9.64-8-23.55-7.8-35.96-6.1-5.13.69-10.35,1.62-14.85,4.16-7.55,4.28-12.02,12.55-14.37,20.92-1.25,4.44-1.9,9.51.59,13.41,2.61,4.03,7.83,5.42,12.6,5.95.73.02,1.45.22,2.07.6.66.61,1.07,1.44,1.16,2.33,1.33,6.94-1.37,14.74,2.2,20.83,3.45,5.89,11.16,7.44,17.96,7.96,8.8.68,18.33.43,25.47-4.75,1.18-.8,2.19-1.83,2.96-3.03,1.18-2.02,1.25-4.47,1.27-6.8.08-5.08-1.78-15.29.69-19.77,2.07-3.73,7.98-3.75,10.05-8.01,3.93-8.1-5.94-22.81-11.85-27.7Z"/><path class="cls-9_coding-3-75" d="M261.73,316.83l.07,10.81c.05.42-.03.84-.23,1.21-.32.39-.77.64-1.27.69-2.93.68-5.99.29-9,.3s-6.25.54-8.41,2.64c3.28,2.42,7.51,3.09,11.57,3.57,6.01.72,12.03,1.19,18.07,1.43,3.91.29,7.84.08,11.71-.61,3.39-.68,6.58-2.16,9.28-4.33-2.65-2.85-7.05-2.8-10.93-2.8-3.77,0-7.55-.22-11.3-.65-.86.01-1.68-.33-2.27-.95-.32-.56-.44-1.21-.36-1.85.07-2.4.37-4.79.9-7.13.11-.77.42-1.5.9-2.12.85-.72,1.91-1.15,3.02-1.2,4.4-.73,8.72-1.91,12.88-3.52,1.72-.57,3.31-1.45,4.71-2.6,3.75-3.4,3.58-9.27,2.72-14.26-6.89,4-14.68,6.22-22.65,6.45-5.45.15-17.27-2.19-21.1,3.06-1.9,2.65.12,5.11,2.23,6.94.91.78,9.45,4.8,9.45,4.91Z"/><rect class="cls-47_coding-3-75 targetColor" x="242.65" y="267.7" width="54.56" height="38.67" rx="15.96" ry="15.96" style="fill: rgb(236, 156, 82);"/><rect class="cls-12_coding-3-75" x="242.65" y="267.7" width="54.56" height="38.67" rx="15.96" ry="15.96"/><rect class="cls-47_coding-3-75 targetColor" x="242.65" y="271.26" width="54.56" height="38.67" rx="15.96" ry="15.96" style="fill: rgb(236, 156, 82);"/><path class="cls-3_coding-3-75" d="M278.33,292.61c-1.63.72-3.35,1.24-5.12,1.52-4.75.87-10.31.68-13.73-2.77-.54-.52-.97-1.14-1.28-1.83-.95-2.31.29-5.1,2.34-6.56s4.64-1.85,7.14-1.98c3.06-.15,8.88-.68,11.55,1.39,3.19,2.47,2.7,8.53-.9,10.22Z"/><rect class="cls-45_coding-3-75" x="265.3" y="286.67" width="7.45" height="61.46" rx="3.72" ry="3.72"/><path class="cls-47_coding-3-75 targetColor" d="M291.93,390.96c1.9,1.57,2.38,4.29,3.21,6.66,1.16,3.23,3.31,6.17,3.59,9.59.12,1.01-.04,2.04-.48,2.97-.87,1.45-2.44,2.34-4.13,2.32-1.66-.03-3.29-.53-4.69-1.43-2.48-1.48-4.52-3.58-5.93-6.1-.72-1.23-1.18-2.6-1.35-4.01-.39-4.29,4.06-14.57,9.77-10Z" style="fill: rgb(236, 156, 82);"/><path class="cls-44_coding-3-75" d="M295.47,409.11c.27.51.27,1.12,0,1.63-.22.24-.51.39-.83.45-1.31.25-2.67,0-3.8-.69-1.12-.69-2.15-1.52-3.06-2.46-1.41-1.24-2.66-2.65-3.72-4.2-1.06-1.58-1.49-3.49-1.21-5.37,1.01-5.15,5.55-.53,7.23,1.37,2.39,2.71,4.22,5.87,5.39,9.29Z"/><path class="cls-47_coding-3-75 targetColor" d="M254.7,391.07c-1.9,1.57-2.38,4.29-3.21,6.66-1.16,3.23-3.31,6.18-3.59,9.59-.12,1.02.04,2.05.48,2.98.87,1.45,2.44,2.33,4.13,2.31,1.66-.03,3.29-.52,4.69-1.43,2.48-1.47,4.53-3.58,5.93-6.1.72-1.23,1.18-2.6,1.35-4.01.38-4.29-4.07-14.61-9.77-10Z" style="fill: rgb(236, 156, 82);"/><path class="cls-44_coding-3-75" d="M250.67,409.48c-.27.51-.27,1.12,0,1.63.22.24.52.39.84.45,1.31.24,2.66,0,3.8-.69,1.12-.69,2.14-1.52,3.05-2.46,1.42-1.24,2.67-2.66,3.73-4.21,1.06-1.57,1.49-3.49,1.21-5.36-1.02-5.16-5.55-.54-7.24,1.37-2.39,2.72-4.22,5.87-5.39,9.29Z"/><path class="cls-47_coding-3-75 targetColor" d="M275.08,368.33c-1.53.73-3.22,1.05-4.92.95-1.87.11-3.75-.03-5.59-.41-.62-.12-1.2-.39-1.69-.79-.41-.38-.74-.84-.95-1.35-1.55-3.42-3.3-10.52-.89-13.4,2.75-3.31,13.65-3.89,17.12-.42,3.36,3.25.92,13.06-3.07,15.41Z" style="fill: rgb(236, 156, 82);"/><path class="cls-10_coding-3-75" d="M275.08,368.33c-1.53.73-3.22,1.05-4.92.95-1.87.11-3.75-.03-5.59-.41-.62-.12-1.2-.39-1.69-.79-.41-.38-.74-.84-.95-1.35-1.55-3.42-3.3-10.52-.89-13.4,2.75-3.31,13.65-3.89,17.12-.42,3.36,3.25.92,13.06-3.07,15.41Z"/><rect class="cls-45_coding-3-75" x="267.51" y="368.47" width="4.96" height="32.02"/><path class="cls-45_coding-3-75" d="M289.62,403.16c1.1.9,2.18,2.03,3.59,2.21,1.03.11,2.05-.32,3.1-.32,1.38.1,2.67.68,3.66,1.64.93.74,1.63,1.73,2.02,2.85.77,2.62-1.57,5.5-4.3,5.76s-5.35-1.6-6.55-4.05c-.26-.67-.6-1.31-1.01-1.9-.39-.42-.85-.78-1.36-1.06-4.04-2.5-8.49-4.27-13.15-5.2-.81-.16-1.8-.24-2.31.4-.25.36-.38.79-.39,1.24-.21,1.89-.3,3.8-.26,5.71-.03.37.04.73.2,1.06.25.34.55.64.89.88,1.13,1.2,1.33,3,.49,4.42-.86,1.36-2.18,2.37-3.72,2.85-1.83.68-4.13.79-5.49-.61-.98-1.1-1.25-2.66-.71-4.03.55-1.34,1.56-2.44,2.85-3.1.45-.17.84-.47,1.12-.86.16-.36.22-.75.17-1.14l-.13-4.24c.08-.66-.16-1.31-.65-1.76-.38-.2-.82-.26-1.24-.18-6.99.54-13.68,3.05-19.3,7.24,1.03.8.85,2.53-.08,3.44-1.02.84-2.32,1.24-3.63,1.12-1.44.01-2.85-.4-4.06-1.19-1.23-.8-1.95-2.19-1.9-3.65.2-1.49,1.16-2.76,2.54-3.35,1.36-.57,2.86-.73,4.31-.47.75.16,1.51.22,2.27.18.85-.18,1.67-.52,2.4-1,6.59-3.72,13.89-5.99,21.42-6.66,6.31-.56,14.08-.43,19.19,3.76Z"/><rect class="cls-47_coding-3-75 targetColor" x="228.37" y="331.97" width="79.37" height="24.62" rx="11.93" ry="11.93" style="fill: rgb(236, 156, 82);"/><rect class="cls-33_coding-3-75" x="228.37" y="331.97" width="79.37" height="24.62" rx="11.93" ry="11.93"/></g></svg>