<svg id="_0249_completed_task" xmlns="http://www.w3.org/2000/svg" xmlns:xlink="http://www.w3.org/1999/xlink" viewBox="0 0 500 500" data-imageid="completed-task-13" imageName="Completed Task" class="illustrations_image" style="width: 158px;"><defs><style>.cls-1_completed-task-13{fill:url(#linear-gradient);}.cls-1_completed-task-13,.cls-2_completed-task-13,.cls-3_completed-task-13,.cls-4_completed-task-13,.cls-5_completed-task-13,.cls-6_completed-task-13,.cls-7_completed-task-13,.cls-8_completed-task-13,.cls-9_completed-task-13,.cls-10_completed-task-13,.cls-11_completed-task-13,.cls-12_completed-task-13,.cls-13_completed-task-13,.cls-14_completed-task-13,.cls-15_completed-task-13,.cls-16_completed-task-13,.cls-17_completed-task-13,.cls-18_completed-task-13,.cls-19_completed-task-13,.cls-20_completed-task-13,.cls-21_completed-task-13,.cls-22_completed-task-13,.cls-23_completed-task-13,.cls-24_completed-task-13,.cls-25_completed-task-13,.cls-26_completed-task-13,.cls-27_completed-task-13,.cls-28_completed-task-13{stroke-width:0px;}.cls-2_completed-task-13{fill:url(#linear-gradient-11-completed-task-13);}.cls-3_completed-task-13{fill:url(#linear-gradient-12-completed-task-13);}.cls-4_completed-task-13{fill:url(#linear-gradient-13-completed-task-13);}.cls-5_completed-task-13{fill:url(#linear-gradient-10-completed-task-13);}.cls-6_completed-task-13{fill:url(#linear-gradient-17-completed-task-13);}.cls-7_completed-task-13{fill:url(#linear-gradient-16-completed-task-13);}.cls-8_completed-task-13{fill:url(#linear-gradient-19-completed-task-13);}.cls-9_completed-task-13{fill:url(#linear-gradient-15-completed-task-13);}.cls-10_completed-task-13{fill:url(#linear-gradient-18-completed-task-13);}.cls-11_completed-task-13{fill:url(#linear-gradient-14-completed-task-13);}.cls-12_completed-task-13{fill:url(#linear-gradient-20-completed-task-13);}.cls-13_completed-task-13{fill:url(#linear-gradient-4-completed-task-13);}.cls-14_completed-task-13{fill:url(#linear-gradient-2-completed-task-13);}.cls-15_completed-task-13{fill:url(#linear-gradient-3-completed-task-13);}.cls-16_completed-task-13{fill:url(#linear-gradient-8-completed-task-13);}.cls-17_completed-task-13{fill:url(#linear-gradient-9-completed-task-13);}.cls-18_completed-task-13{fill:url(#linear-gradient-7-completed-task-13);}.cls-19_completed-task-13{fill:url(#linear-gradient-5-completed-task-13);}.cls-20_completed-task-13{fill:url(#linear-gradient-6-completed-task-13);}.cls-21_completed-task-13{isolation:isolate;opacity:.24;}.cls-21_completed-task-13,.cls-28_completed-task-13{fill:#68e1fd;}.cls-22_completed-task-13{fill:#f2fbff;}.cls-23_completed-task-13{fill:#231f20;}.cls-24_completed-task-13{fill:#d2e8ec;}.cls-25_completed-task-13{fill:#c14834;}.cls-26_completed-task-13{fill:#b58b81;}.cls-27_completed-task-13{fill:#fff;}</style><linearGradient id="linear-gradient-completed-task-13" x1="155.76" y1="2478.02" x2="188.22" y2="2240.02" gradientTransform="translate(-33.73 2815.16) scale(1 -1)" gradientUnits="userSpaceOnUse"><stop offset="0" stop-color="#010101" stop-opacity="0"/><stop offset=".95" stop-color="#010101"/></linearGradient><linearGradient id="linear-gradient-2-completed-task-13" x1="399.6" y1="2691.05" x2="399.98" y2="2589.91" gradientTransform="translate(-31 2855.73) scale(1 -1)" xlink:href="#linear-gradient-completed-task-13"/><linearGradient id="linear-gradient-3-completed-task-13" x1="387.82" y1="2626.15" x2="390.77" y2="2512.04" xlink:href="#linear-gradient-completed-task-13"/><linearGradient id="linear-gradient-4-completed-task-13" x1="398.99" y1="2626.44" x2="401.94" y2="2512.34" xlink:href="#linear-gradient-completed-task-13"/><linearGradient id="linear-gradient-5-completed-task-13" x1="409.5" y1="2626.71" x2="412.45" y2="2512.61" xlink:href="#linear-gradient-completed-task-13"/><linearGradient id="linear-gradient-6-completed-task-13" x1="421.48" y1="2627.02" x2="424.43" y2="2512.92" xlink:href="#linear-gradient-completed-task-13"/><linearGradient id="linear-gradient-7-completed-task-13" x1="236.72" y1="2622.23" x2="239.67" y2="2508.12" xlink:href="#linear-gradient-completed-task-13"/><linearGradient id="linear-gradient-8-completed-task-13" x1="247.42" y1="2622.51" x2="250.37" y2="2508.4" xlink:href="#linear-gradient-completed-task-13"/><linearGradient id="linear-gradient-9-completed-task-13" x1="259.4" y1="2622.81" x2="262.35" y2="2508.71" xlink:href="#linear-gradient-completed-task-13"/><linearGradient id="linear-gradient-10-completed-task-13" x1="203.59" y1="2656.28" x2="207.01" y2="2496.31" xlink:href="#linear-gradient-completed-task-13"/><linearGradient id="linear-gradient-11-completed-task-13" x1="250.86" y1="2660.23" x2="248.65" y2="2553.26" xlink:href="#linear-gradient-completed-task-13"/><linearGradient id="linear-gradient-12-completed-task-13" x1="173.25" y1="2464.07" x2="136.37" y2="2603.73" xlink:href="#linear-gradient-completed-task-13"/><linearGradient id="linear-gradient-13-completed-task-13" x1="129.93" y1="2498.16" x2="226.06" y2="2505.52" xlink:href="#linear-gradient-completed-task-13"/><linearGradient id="linear-gradient-14-completed-task-13" x1="148.77" y1="2548.9" x2="149.15" y2="2571.21" xlink:href="#linear-gradient-completed-task-13"/><linearGradient id="linear-gradient-15-completed-task-13" x1="166.59" y1="2598.09" x2="201.13" y2="2598.22" xlink:href="#linear-gradient-completed-task-13"/><linearGradient id="linear-gradient-16-completed-task-13" x1="130.31" y1="2637.01" x2="104.76" y2="2638.48" gradientTransform="translate(-31 2855.73) scale(1 -1)" xlink:href="#linear-gradient-completed-task-13"/><linearGradient id="linear-gradient-17-completed-task-13" x1="131.02" y1="2559.5" x2="131.02" y2="2594.37" xlink:href="#linear-gradient-completed-task-13"/><linearGradient id="linear-gradient-18-completed-task-13" x1="167.4" y1="2625.03" x2="176.83" y2="2570.91" gradientTransform="translate(-31 2855.73) scale(1 -1)" xlink:href="#linear-gradient-completed-task-13"/><linearGradient id="linear-gradient-19-completed-task-13" x1="141.69" y1="2460" x2="140.58" y2="2385.48" xlink:href="#linear-gradient-completed-task-13"/><linearGradient id="linear-gradient-20-completed-task-13" x1="166.02" y1="2470.64" x2="164.92" y2="2396.13" xlink:href="#linear-gradient-completed-task-13"/></defs><g id="background_completed-task-13"><path class="cls-21_completed-task-13 targetColor" d="M485.75,334.9c-6.45,18-19.21,32.2-35.48,43-25.82,17.08-60.46,25.49-92.73,26.49-52.66,1.62-105.63-10.22-157.71-2.83-31.48,4.47-61.95,15.9-93.78,16.06-29.08.13-61.37-13.25-71.22-37.79-.95-2.35-1.68-4.78-2.19-7.26-2.12-10.44-.1-21.27-.35-31.96-.65-30.16-18.95-57.57-23.71-87.44C.34,201.5,35.76,149.61,84.5,123.68c51.02-27.06,113.23-25.79,169.18-38.96,56.55-13.37,130.93-29.34,185.56-3.48,11.01,5.22,21.38,12.56,26.99,22.8,4.52,8.22,5.61,17.66,6.66,26.86,5.17,45.98,10.34,91.95,15.5,137.91,2.53,22.1,4.93,45.01-2.64,66.1Z" style="fill: rgb(236, 156, 82);"/><path class="cls-21_completed-task-13 targetColor" d="M450.27,377.9c-25.82,17.08-60.46,25.49-92.73,26.49-52.66,1.62-105.63-10.22-157.71-2.83-31.48,4.47-61.95,15.9-93.78,16.06-29.08.13-61.37-13.25-71.22-37.79,25.85-23.81,91.28-27.61,120.41-21.51,13.29,2.78,26.21,7.1,39.56,9.62,16.84,3.17,34.12,3.43,51.24,2.54,25.04-1.29,49.92-4.96,74.49-9.99,36.89-7.54,76.88-17.79,110.67-1.15,6.45,3.17,12.58,7.41,16.53,13.42,1.05,1.61,1.91,3.33,2.56,5.13Z" style="fill: rgb(236, 156, 82);"/><path class="cls-1_completed-task-13" d="M84.8,377.67c-5.44,2.61-11.41,7.83-9.44,13.58,1.43,4.18,6.32,5.85,10.59,6.91,12.47,3.1,25.48,5.72,38.07,3.15,8.32-1.69,16-5.56,23.97-8.5,8.83-3.26,18.04-5.38,27.41-6.3,2.68-.26,5.97-.87,6.75-3.48.95-3.07-2.53-5.57-5.51-6.73-14.7-5.73-30.78-5.3-46.21-6.81-15.67-1.49-31.44,1.34-45.63,8.18Z"/></g><g id="progress_bar_completed-task-13"><path class="cls-28_completed-task-13 targetColor" d="M380.13,186.91c-.01,5.08-4.13,9.2-9.19,9.2h-230.51c-5.06,0-9.16-4.12-9.17-9.2,0-5.08,4.11-9.19,9.17-9.2h230.51c5.06-.01,9.18,4.09,9.19,9.17,0,0,0,.02,0,.03Z" style="fill: rgb(236, 156, 82);"/><ellipse class="cls-28_completed-task-13 targetColor" cx="216.48" cy="186.8" rx="11.45" ry="11.5" style="fill: rgb(236, 156, 82);"/><ellipse class="cls-28_completed-task-13 targetColor" cx="368.68" cy="186.8" rx="11.45" ry="11.5" style="fill: rgb(236, 156, 82);"/><ellipse class="cls-14_completed-task-13" cx="368.68" cy="186.8" rx="11.45" ry="11.5"/><path class="cls-28_completed-task-13 targetColor" d="M324.26,87.03h83.5c4.14,0,7.49,3.37,7.49,7.52v54.95c0,4.15-3.35,7.52-7.49,7.52h-83.5c-4.14,0-7.49-3.37-7.49-7.52v-54.95c0-4.15,3.35-7.52,7.49-7.52Z" style="fill: rgb(236, 156, 82);"/><polygon class="cls-28_completed-task-13 targetColor" points="354.94 153.57 366.77 169.66 374.03 153.19 354.94 153.57" style="fill: rgb(236, 156, 82);"/><path class="cls-27_completed-task-13" d="M366.6,130.04c-9.3,0-16.85-7.57-16.85-16.91,0-9.34,7.54-16.91,16.85-16.91,9.3,0,16.85,7.57,16.85,16.91h0c0,9.33-7.55,16.9-16.85,16.91ZM366.6,98.09c-8.27,0-14.98,6.75-14.97,15.06,0,8.31,6.73,15.03,15,15.02,8.27,0,14.97-6.74,14.97-15.04,0-8.31-6.72-15.04-15-15.04Z"/><polygon class="cls-27_completed-task-13" points="364.35 119.77 358.41 114.7 360.11 112.7 364.09 116.11 374.26 104.53 376.22 106.26 364.35 119.77"/><path class="cls-27_completed-task-13" d="M342.32,147.1c-.72.29-1.48.43-2.25.4-2.2.13-4.09-1.55-4.22-3.75-.01-.2,0-.4,0-.6-.13-2.35,1.66-4.37,4-4.5.15,0,.3,0,.45,0,.7-.03,1.39.1,2.03.38l-.27.87c-.54-.25-1.14-.37-1.73-.36-1.99,0-3.33,1.29-3.33,3.54,0,2.1,1.21,3.48,3.29,3.48.62,0,1.23-.12,1.79-.36l.23.89Z"/><path class="cls-27_completed-task-13" d="M350.72,143c0,2.95-1.79,4.52-3.96,4.52s-3.84-1.74-3.84-4.35,1.69-4.5,3.97-4.5,3.83,1.79,3.83,4.33ZM344.1,143.14c0,1.84.99,3.48,2.72,3.48s2.74-1.62,2.74-3.56c0-1.74-.87-3.48-2.72-3.48s-2.74,1.68-2.74,3.56Z"/><path class="cls-27_completed-task-13" d="M359.34,143.61c-.06-1.19-.14-2.61-.12-3.7h-.04c-.29,1-.64,2.07-1.08,3.25l-1.51,4.16h-.87l-1.39-4.08c-.4-1.21-.75-2.31-.98-3.33h0c0,1.07-.1,2.51-.16,3.79l-.23,3.68h-1.05l.6-8.57h1.4l1.46,4.14c.36,1.05.64,2,.87,2.89h.04c.22-.87.51-1.81.87-2.89l1.53-4.14h1.4l.53,8.57h-1.08l-.19-3.77Z"/><path class="cls-27_completed-task-13" d="M362.33,138.91c.7-.12,1.41-.17,2.12-.17.86-.06,1.71.19,2.39.7.5.46.77,1.11.75,1.79.04.68-.2,1.34-.66,1.84-.71.65-1.64.99-2.6.94-.29,0-.58-.02-.87-.08v3.48h-1.1l-.03-8.51ZM363.43,143.04c.3.07.6.09.91.09,1.33,0,2.14-.65,2.14-1.84s-.8-1.68-2.01-1.68c-.35,0-.7.02-1.04.1v3.33Z"/><path class="cls-27_completed-task-13" d="M369.05,138.8h1.1v7.64h3.65v.93h-4.75v-8.57Z"/><path class="cls-27_completed-task-13" d="M379.45,143.35h-3.31v3.09h3.7v.93h-4.8v-8.57h4.57v.93h-3.47v2.71h3.32v.91Z"/><path class="cls-27_completed-task-13" d="M383.07,139.74h-2.6v-.94h6.32v.94h-2.6v7.63h-1.12v-7.63Z"/><path class="cls-27_completed-task-13" d="M392.16,143.35h-3.32v3.09h3.7v.93h-4.8v-8.57h4.61v.93h-3.51v2.71h3.32v.91Z"/><path class="cls-27_completed-task-13" d="M393.96,138.92c.78-.12,1.56-.18,2.35-.17,1.25-.1,2.49.28,3.47,1.06.82.8,1.26,1.93,1.2,3.08.06,1.23-.38,2.44-1.22,3.33-1.05.89-2.41,1.33-3.78,1.23-.67,0-1.34-.03-2-.1v-8.43ZM395.07,146.5c.37.05.74.07,1.12.06,2.36,0,3.63-1.32,3.63-3.64,0-2.02-1.13-3.31-3.47-3.31-.43,0-.87.03-1.29.12v6.76Z"/><path class="cls-28_completed-task-13 targetColor" d="M352.16,211.13c.54.08,1.08.11,1.63.1h1.73c.56.02,1.12,0,1.68-.05-.07.73-.1,1.46-.1,2.19v7.14c-.01.69.03,1.37.11,2.05h-2.97c.08-.68.12-1.37.11-2.05v-6.96h-.55c-.55,0-1.11.03-1.66.1v-2.52Z" style="fill: rgb(236, 156, 82);"/><path class="cls-28_completed-task-13 targetColor" d="M362.69,221.54c-.44-.43-.77-.94-.99-1.51-.36-1-.54-2.06-.54-3.12-.02-1.31.28-2.61.87-3.78.83-1.38,2.35-2.21,3.95-2.15,1.22-.03,2.41.42,3.3,1.26.43.43.77.95.99,1.51.36,1.01.54,2.07.53,3.14.02,1.31-.28,2.61-.87,3.79-.84,1.38-2.36,2.2-3.97,2.13-1.22.04-2.4-.42-3.28-1.27ZM363.96,216.8c0,2.44.69,3.69,2.04,3.69s2.01-1.23,2.01-3.65-.71-3.55-2.03-3.55-1.98,1.29-1.98,3.52h-.04Z" style="fill: rgb(236, 156, 82);"/><path class="cls-28_completed-task-13 targetColor" d="M373.2,221.54c-.43-.43-.77-.95-.99-1.51-.36-1-.53-2.06-.53-3.12-.03-1.31.27-2.61.87-3.78.83-1.39,2.34-2.21,3.95-2.15,1.22-.04,2.41.42,3.29,1.26.43.43.77.95,1,1.51.36,1.01.54,2.07.53,3.14.03,1.31-.27,2.61-.87,3.79-.84,1.38-2.35,2.19-3.96,2.13-1.22.04-2.41-.42-3.29-1.27ZM374.46,216.8c0,2.44.69,3.69,2.04,3.69s2.01-1.23,2.01-3.65-.7-3.55-2.02-3.55-2.03,1.29-2.03,3.52h0Z" style="fill: rgb(236, 156, 82);"/><path class="cls-28_completed-task-13 targetColor" d="M383.02,216.62c-.58-.66-.87-1.52-.82-2.39-.05-.89.27-1.76.87-2.42.57-.53,1.33-.8,2.11-.77.78-.03,1.54.24,2.11.77.58.66.87,1.52.82,2.4.05.89-.26,1.77-.87,2.43-.57.53-1.32.8-2.09.77-.78.03-1.55-.25-2.12-.79ZM392.56,210.89l.72.55-8.85,11.53-.71-.55,8.84-11.53ZM384.1,214.21c0,1.14.36,1.74,1.05,1.74s1.03-.58,1.03-1.74-.36-1.74-1.03-1.74-1.05.59-1.05,1.71v.03ZM389.75,222.04c-1.1-1.41-1.1-3.4,0-4.81.58-.53,1.34-.81,2.12-.77,1.85,0,2.92,1.17,2.92,3.18.05.89-.26,1.77-.87,2.43-1.21,1.05-3.01,1.05-4.22,0l.05-.02ZM390.83,219.6c0,1.17.35,1.74,1.04,1.74s1.05-.58,1.05-1.74-.36-1.68-1.03-1.68-1.06.54-1.06,1.64v.03Z" style="fill: rgb(236, 156, 82);"/><path class="cls-28_completed-task-13 targetColor" d="M201.9,219.1c.03.32.16.63.38.87.42.4.98.61,1.56.58,1.07,0,1.73-.53,1.73-1.37.03-.51-.26-.98-.73-1.17-.41-.13-.84-.19-1.27-.18-.56,0-1.12.03-1.67.09v-2.35c.48.06.96.09,1.44.09,1.29,0,1.93-.44,1.93-1.31,0-.73-.52-1.16-1.41-1.16-.8-.12-1.54.43-1.65,1.23,0,0,0,.01,0,.02l-2.96-.44c.15-.65.46-1.25.91-1.74.99-.97,2.35-1.47,3.74-1.37,1.26-.07,2.5.34,3.47,1.16.51.51.79,1.22.76,1.94,0,1.44-.77,2.34-2.33,2.71.64.06,1.24.31,1.73.72.56.52.87,1.25.87,2.02.02.65-.18,1.29-.55,1.82-.33.44-.77.79-1.27,1.02-.9.36-1.86.55-2.83.53-1.1.03-2.2-.23-3.16-.76-.63-.42-1.12-1.03-1.4-1.74-.1-.23-.18-.47-.23-.72l2.94-.5Z" style="fill: rgb(236, 156, 82);"/><path class="cls-28_completed-task-13 targetColor" d="M211.02,221.54c-.43-.43-.77-.94-1-1.51-.36-1-.53-2.06-.53-3.12-.03-1.31.27-2.61.87-3.78.83-1.39,2.34-2.21,3.95-2.15,1.22-.04,2.41.42,3.29,1.26.43.43.77.95,1,1.51.36,1.01.54,2.07.53,3.14.03,1.31-.27,2.61-.87,3.79-1.49,2.22-4.48,2.8-6.69,1.31-.2-.13-.38-.28-.56-.44h0ZM212.28,216.8c0,2.44.69,3.69,2.04,3.69s2.01-1.23,2.01-3.65-.7-3.55-2.02-3.55-2.05,1.29-2.05,3.52h.02Z" style="fill: rgb(236, 156, 82);"/><path class="cls-28_completed-task-13 targetColor" d="M220.83,216.62c-.58-.66-.87-1.52-.82-2.39-.05-.89.27-1.76.87-2.42,1.22-1.03,3-1.03,4.21,0,.58.66.87,1.52.82,2.4.05.89-.26,1.77-.87,2.43-1.21,1.04-3,1.04-4.21,0v-.02ZM230.37,210.89l.72.55-8.85,11.53-.71-.55,8.84-11.53ZM221.91,214.21c0,1.14.36,1.74,1.05,1.74s1.03-.58,1.03-1.74-.36-1.74-1.03-1.74-1.05.59-1.05,1.71v.03ZM227.56,222.04c-1.09-1.42-1.09-3.4,0-4.81.58-.53,1.34-.81,2.12-.77,1.85,0,2.92,1.17,2.92,3.18.05.89-.26,1.77-.87,2.43-1.21,1.05-3.01,1.05-4.22,0l.04-.02ZM228.64,219.6c0,1.17.35,1.74,1.04,1.74s1.05-.58,1.05-1.74-.36-1.68-1.03-1.68-1.06.54-1.06,1.64v.03Z" style="fill: rgb(236, 156, 82);"/><path class="cls-15_completed-task-13" d="M352.16,211.13c.54.08,1.08.11,1.63.1h1.73c.56.02,1.12,0,1.68-.05-.07.73-.1,1.46-.1,2.19v7.14c-.01.69.03,1.37.11,2.05h-2.97c.08-.68.12-1.37.11-2.05v-6.96h-.55c-.55,0-1.11.03-1.66.1v-2.52Z"/><path class="cls-13_completed-task-13" d="M362.69,221.54c-.44-.43-.77-.94-.99-1.51-.36-1-.54-2.06-.54-3.12-.02-1.31.28-2.61.87-3.78.83-1.38,2.35-2.21,3.95-2.15,1.22-.03,2.41.42,3.3,1.26.43.43.77.95.99,1.51.36,1.01.54,2.07.53,3.14.02,1.31-.28,2.61-.87,3.79-.84,1.38-2.36,2.2-3.97,2.13-1.22.04-2.4-.42-3.28-1.27ZM363.96,216.8c0,2.44.69,3.69,2.04,3.69s2.01-1.23,2.01-3.65-.71-3.55-2.03-3.55-1.98,1.29-1.98,3.52h-.04Z"/><path class="cls-19_completed-task-13" d="M373.2,221.54c-.43-.43-.77-.95-.99-1.51-.36-1-.53-2.06-.53-3.12-.03-1.31.27-2.61.87-3.78.83-1.39,2.34-2.21,3.95-2.15,1.22-.04,2.41.42,3.29,1.26.43.43.77.95,1,1.51.36,1.01.54,2.07.53,3.14.03,1.31-.27,2.61-.87,3.79-.84,1.38-2.35,2.19-3.96,2.13-1.22.04-2.41-.42-3.29-1.27ZM374.46,216.8c0,2.44.69,3.69,2.04,3.69s2.01-1.23,2.01-3.65-.7-3.55-2.02-3.55-2.03,1.29-2.03,3.52h0Z"/><path class="cls-20_completed-task-13" d="M383.02,216.62c-.58-.66-.87-1.52-.82-2.39-.05-.89.27-1.76.87-2.42.57-.53,1.33-.8,2.11-.77.78-.03,1.54.24,2.11.77.58.66.87,1.52.82,2.4.05.89-.26,1.77-.87,2.43-.57.53-1.32.8-2.09.77-.78.03-1.55-.25-2.12-.79ZM392.56,210.89l.72.55-8.85,11.53-.71-.55,8.84-11.53ZM384.1,214.21c0,1.14.36,1.74,1.05,1.74s1.03-.58,1.03-1.74-.36-1.74-1.03-1.74-1.05.59-1.05,1.71v.03ZM389.75,222.04c-1.1-1.41-1.1-3.4,0-4.81.58-.53,1.34-.81,2.12-.77,1.85,0,2.92,1.17,2.92,3.18.05.89-.26,1.77-.87,2.43-1.21,1.05-3.01,1.05-4.22,0l.05-.02ZM390.83,219.6c0,1.17.35,1.74,1.04,1.74s1.05-.58,1.05-1.74-.36-1.68-1.03-1.68-1.06.54-1.06,1.64v.03Z"/><path class="cls-18_completed-task-13" d="M201.9,219.1c.03.32.16.63.38.87.42.4.98.61,1.56.58,1.07,0,1.73-.53,1.73-1.37.03-.51-.26-.98-.73-1.17-.41-.13-.84-.19-1.27-.18-.56,0-1.12.03-1.67.09v-2.35c.48.06.96.09,1.44.09,1.29,0,1.93-.44,1.93-1.31,0-.73-.52-1.16-1.41-1.16-.8-.12-1.54.43-1.65,1.23,0,0,0,.01,0,.02l-2.96-.44c.15-.65.46-1.25.91-1.74.99-.97,2.35-1.47,3.74-1.37,1.26-.07,2.5.34,3.47,1.16.51.51.79,1.22.76,1.94,0,1.44-.77,2.34-2.33,2.71.64.06,1.24.31,1.73.72.56.52.87,1.25.87,2.02.02.65-.18,1.29-.55,1.82-.33.44-.77.79-1.27,1.02-.9.36-1.86.55-2.83.53-1.1.03-2.2-.23-3.16-.76-.63-.42-1.12-1.03-1.4-1.74-.1-.23-.18-.47-.23-.72l2.94-.5Z"/><path class="cls-16_completed-task-13" d="M211.02,221.54c-.43-.43-.77-.94-1-1.51-.36-1-.53-2.06-.53-3.12-.03-1.31.27-2.61.87-3.78.83-1.39,2.34-2.21,3.95-2.15,1.22-.04,2.41.42,3.29,1.26.43.43.77.95,1,1.51.36,1.01.54,2.07.53,3.14.03,1.31-.27,2.61-.87,3.79-1.49,2.22-4.48,2.8-6.69,1.31-.2-.13-.38-.28-.56-.44h0ZM212.28,216.8c0,2.44.69,3.69,2.04,3.69s2.01-1.23,2.01-3.65-.7-3.55-2.02-3.55-2.05,1.29-2.05,3.52h.02Z"/><path class="cls-17_completed-task-13" d="M220.83,216.62c-.58-.66-.87-1.52-.82-2.39-.05-.89.27-1.76.87-2.42,1.22-1.03,3-1.03,4.21,0,.58.66.87,1.52.82,2.4.05.89-.26,1.77-.87,2.43-1.21,1.04-3,1.04-4.21,0v-.02ZM230.37,210.89l.72.55-8.85,11.53-.71-.55,8.84-11.53ZM221.91,214.21c0,1.14.36,1.74,1.05,1.74s1.03-.58,1.03-1.74-.36-1.74-1.03-1.74-1.05.59-1.05,1.71v.03ZM227.56,222.04c-1.09-1.42-1.09-3.4,0-4.81.58-.53,1.34-.81,2.12-.77,1.85,0,2.92,1.17,2.92,3.18.05.89-.26,1.77-.87,2.43-1.21,1.05-3.01,1.05-4.22,0l.04-.02ZM228.64,219.6c0,1.17.35,1.74,1.04,1.74s1.05-.58,1.05-1.74-.36-1.68-1.03-1.68-1.06.54-1.06,1.64v.03Z"/><path class="cls-5_completed-task-13" d="M209.77,196.11h-69.37c-5.06,0-9.16-4.12-9.17-9.2,0-5.08,4.11-9.19,9.17-9.2h69.08c-5,3.85-5.95,11.05-2.11,16.07.68.89,1.49,1.67,2.39,2.33h0Z"/><path class="cls-2_completed-task-13" d="M227.92,186.8c.02,6.35-5.08,11.52-11.41,11.54,0,0-.02,0-.03,0-2.41,0-4.76-.76-6.71-2.19-5.12-3.7-6.29-10.86-2.6-16,.65-.91,1.43-1.72,2.32-2.4,2-1.57,4.46-2.42,7-2.41,6.31,0,11.42,5.13,11.44,11.46Z"/></g><g id="character_completed-task-13"><path class="cls-25_completed-task-13" d="M132.38,367.56l.29,6.35c-.94,2.55-3.04,4.49-5.64,5.22-2.47.65-5.09.1-7.1-1.47l.45-10.63"/><path class="cls-25_completed-task-13" d="M107.76,373.36l.29,6.35c-.94,2.55-3.04,4.49-5.64,5.22-2.46.65-5.09.11-7.1-1.46l.44-10.64"/><path class="cls-23_completed-task-13" d="M137.81,262.82l-4.62,106.17c-1.62,1.19-3.55,1.87-5.56,1.93-3.88.23-4.58.5-7.37-2.05l-12.23-110.68,30.02-3.39-.24,8.01Z"/><path class="cls-3_completed-task-13" d="M137.81,262.82l-4.62,106.17c-1.62,1.19-3.55,1.87-5.56,1.93-3.88.23-4.58.5-7.37-2.05l-12.23-110.68,30.02-3.39-.24,8.01Z"/><path class="cls-23_completed-task-13" d="M120.76,272.93l-12.14,102.69s-1.73,1.8-6.49,1.86c-5.41.07-5.9-.67-7.11-3.41l-2.34-117.78,27.79,4.75.29,11.89Z"/><path class="cls-4_completed-task-13" d="M120.76,272.93l-12.14,102.69s-1.73,1.8-6.49,1.86c-5.41.07-5.9-.67-7.11-3.41l-2.34-117.78,27.79,4.75.29,11.89Z"/><path class="cls-11_completed-task-13" d="M124.58,262.67c-3.8,1.28-7.7,2.2-11.67,2.74-5.2.54-10.76-2.01-14.91-2.22-5.51-.29-5.65-.46-5.65-4.06,0-1.81,45.73-6.15,45.73-6.15,0,0-.21,3.32-.2,6.38,0,2.31-.98,2.18-5.14,2.41s-4.93-1.03-8.16.91Z"/><path class="cls-28_completed-task-13 targetColor" d="M106.54,181.62s-7.67,1.99-13.14,6c-3.38,2.47-1.04,71.52-1.04,71.52.33-.05,15.03,5.93,29.24,3.48,12.14-2.09,16.47-7.79,16.47-7.79,0,0,1.09-66.25-1.26-68.98-1.06-1.22-12.56-5.48-12.56-5.48,0,0-5.04,7.54-17.71,1.25Z" style="fill: rgb(236, 156, 82);"/><path class="cls-22_completed-task-13" d="M107.49,214.78h18.57c2.72,0,4.92,2.21,4.92,4.93v28.33c0,2.73-2.2,4.93-4.92,4.93h-18.57c-2.72,0-4.92-2.21-4.92-4.93v-28.33c0-2.73,2.2-4.93,4.92-4.93Z"/><path class="cls-24_completed-task-13" d="M104.23,250.43v-33.07c0-1.41,1.14-2.55,2.54-2.55h-1.66c-1.4,0-2.54,1.14-2.54,2.55v33.07c0,1.41,1.14,2.55,2.54,2.55h1.66c-1.4,0-2.54-1.14-2.54-2.55Z"/><path class="cls-23_completed-task-13" d="M130.75,151.35c-.11-2.01-.56-4-1.32-5.87h0s4.34-2.23,3.47,5.78c-.87,8.01.1,8.7-3.15,13.05l-.7-1.74c.83-4.11,2.04-6.11,1.7-11.23Z"/><path class="cls-25_completed-task-13" d="M109.08,166.28l-2.51,15.34s5.62,8.26,12.72,7.03c7.1-1.23,5.34-4.57,5.34-4.57l-.92-12.96s-6.45,1.11-14.64-4.85Z"/><path class="cls-26_completed-task-13" d="M108.16,171.66l.87-5.39c8.22,5.99,12.47,3.44,12.47,3.44l1.99,6.96c-1.12,1.17-2.62,1.89-4.22,2.03-3.92.3-7.9-2.79-11.1-7.04Z"/><path class="cls-22_completed-task-13" d="M106.83,179.77l-7.43,3.48s11.73,12.44,15.3,12.18c0,0,3.37-6.29,6.55-7.28l-14.42-8.38Z"/><path class="cls-28_completed-task-13 targetColor" d="M135.96,185.4s6.32.7,9.89,24.45c3.31,21.99,6.83,30.51.08,33.94-9.34,4.71-13.23,3.4-13.23,3.4,0,0-3.2-6.55-1.36-11.02,0,0,2.33-.87,6.85-2.95l-.14-16.8s-10.76-34.41-2.09-31.03Z" style="fill: rgb(236, 156, 82);"/><path class="cls-22_completed-task-13" d="M124.09,181.91c-.62,2.23-1.58,4.35-2.84,6.28.69.27,5.25,3.48,5.32,5.61,0,0,4.52-10.27,2.65-11.89-1.56-.8-3.17-1.52-4.81-2.14l-.32,2.13Z"/><path class="cls-28_completed-task-13 targetColor" d="M96.42,185.8s-11.51,3.73-12.82,22.18c-1.18,16.77-4.18,29.02-1.73,34,3.17,6.49,25.37,7.57,25.37,7.57.54-3.23.4-6.54-.4-9.72l-12.14-4.86s1.92-46.29,1.73-49.17Z" style="fill: rgb(236, 156, 82);"/><path class="cls-9_completed-task-13" d="M138.02,198.13l2.35,33.18c.21,2.91-4.95,4.67-4.95,4.67,0,0,1.01-16.2.87-16.97-.15-.77,1.32-18.51,1.73-20.89Z"/><path class="cls-25_completed-task-13" d="M102.61,155.1c.61,8.52,9.3,23.56,17.78,22.95,8.48-.61,10.93-18.21,10.36-26.7-.57-8.48-5.37-13.33-13.87-12.73-8.47.6-14.86,7.98-14.27,16.48Z"/><path class="cls-23_completed-task-13" d="M109.72,139.11s2.6-4.52,10.54-3.64c7.93.88,9.81,6.52,11.91,5.65s5.93,2.46,3.32,6.26c-2.61,3.79-6.85,4.82-12.06,2.31-5.21-2.51-11.71-2.78-13.01-1.24-1.3,1.54,1.73,17.21,1.73,17.21,0,0,0,.72-1.44.1s-.53-10.09-3.47-10.6c-2.94-.51-3.2,6.03-.87,8.01,1.8,1.53,2.17,6.77,2.17,6.77,0,0-9.32-6.26-8.67-17.13.65-10.88,4.73-14.78,9.85-13.7Z"/><path class="cls-25_completed-task-13" d="M130.43,238.48c-1.09-1.1-2.57-1.72-4.12-1.74-2.48.04-4.57.91-8.15,1.17-3.58.25-1.19,3.58-1.02,5.85.16,2.27-.36,5.08.41,5.75s13.6-.97,14.93-2.51c.62-.71.2-7.22-2.05-8.51Z"/><path class="cls-22_completed-task-13" d="M133.91,236.79s.49,9.35,1.43,10.01l-4.6,1.04c-1.85-3.02-2.27-6.71-1.15-10.07l4.33-.98Z"/><circle class="cls-24_completed-task-13" cx="131.85" cy="239.35" r=".88"/><path class="cls-26_completed-task-13" d="M122.58,248.21c-.21-1.62.55-3.18.78-5.95.23-2.78-1.56-3.48-4.18-3.77-.71-.08-1.27-.17-1.73-.24-2.44.59-.49,3.56-.36,5.64.14,2.08-.33,4.98.38,5.63.29.27,2.53.15,5.13-.19.04-.37.03-.75-.03-1.11Z"/><path class="cls-22_completed-task-13" d="M133.91,236.79s.49,9.35,1.43,10.01l-4.6,1.04c-1.85-3.02-2.27-6.71-1.15-10.07l4.33-.98Z"/><circle class="cls-24_completed-task-13" cx="131.85" cy="239.35" r=".88"/><polygon class="cls-7_completed-task-13" points="96.42 201.4 92.89 233.82 97.03 235.75 96.42 201.4"/><path class="cls-6_completed-task-13" d="M102.53,249.12l-10.47-1.74.29,11.71s1.15-10.38,5.12-8.7c3.96,1.68,5.06-1.27,5.06-1.27Z"/><polygon class="cls-10_completed-task-13" points="140.46 232.56 133.69 236.58 138.3 234.96 140.46 232.56"/><path class="cls-25_completed-task-13" d="M124.19,169.26s-.23-.21-2.02-.09c-2.11.11-4.22-.04-6.29-.44-1.37-.35-2.03-.14-1.9,1.74.13,1.88,1.6,3.48,5.2,3.67,4.03.22,5.72-1.31,6.07-3.12.18-1.39-.57-1.79-1.07-1.76Z"/><path class="cls-25_completed-task-13" d="M108.67,240.12c1.51-.32,3-.74,4.46-1.25,1.92-.72,2.51-.3,5.33,0,2.82.3,4.73,1.02,4.49,3.85s-1.06,4.42-.87,6.09-.3,3.07-2.76,3.13-10.69-2.46-10.69-2.46"/><path class="cls-22_completed-task-13" d="M105.99,239.35h4.27s1.84,6.19-.55,10.44l-4.76-.17s1.64-5.98,1.04-10.27Z"/><ellipse class="cls-24_completed-task-13" cx="108.15" cy="241.39" rx=".94" ry=".99"/><polygon class="cls-22_completed-task-13" points="135.83 204.87 128.7 206.25 128.35 204.05 135.5 202.66 135.83 204.87"/><path class="cls-28_completed-task-13 targetColor" d="M112.13,382.89c2.54,1.24,4.8,3,6.62,5.17,1.06,1.26,2,2.86,1.64,4.46-.31,1.19-1.17,2.16-2.32,2.61-1.12.43-2.34.56-3.53.38-2.09-.33-4.14-.94-6.07-1.81-3.76-1.5-7.55-3.07-10.81-5.47-1.54-1.14-3.05-2.65-3.18-4.58,0-.74.27-1.64,1-1.74.31-.03.63,0,.92.12,2.15.63,4.39.89,6.62.76.84-.01,1.65-.25,2.37-.68.68-.43,1.14-1.33,1.99-1.41,1.27-.19,3.6,1.63,4.74,2.18Z" style="fill: rgb(236, 156, 82);"/><path class="cls-28_completed-task-13 targetColor" d="M119.2,376.58c0-.44.05-1,.48-1.1.2-.03.41.01.59.12,1.62.82,2.9,2.28,4.64,2.83,2.66.87,5.64-.87,6.94-3.37.09-.23.25-.41.46-.53.24-.07.49-.04.7.08,2.9,1.02,5.73,2.25,8.45,3.69,1.51.87,3.1,2.12,3.11,3.86-.09,1.3-.87,2.44-2.05,2.99-1.16.52-2.42.78-3.69.77-4.51.18-9.01-.49-13.28-1.98-1.83-.64-4.61-1.43-6.07-2.8-1.05-1.05-.23-3.13-.28-4.56Z" style="fill: rgb(236, 156, 82);"/><path class="cls-8_completed-task-13" d="M112.13,382.89c2.54,1.24,4.8,3,6.62,5.17,1.06,1.26,2,2.86,1.64,4.46-.31,1.19-1.17,2.16-2.32,2.61-1.12.43-2.34.56-3.53.38-2.09-.33-4.14-.94-6.07-1.81-3.76-1.5-7.55-3.07-10.81-5.47-1.54-1.14-3.05-2.65-3.18-4.58,0-.74.27-1.64,1-1.74.31-.03.63,0,.92.12,2.15.63,4.39.89,6.62.76.84-.01,1.65-.25,2.37-.68.68-.43,1.14-1.33,1.99-1.41,1.27-.19,3.6,1.63,4.74,2.18Z"/><path class="cls-12_completed-task-13" d="M119.2,376.58c0-.44.05-1,.48-1.1.2-.03.41.01.59.12,1.62.82,2.9,2.28,4.64,2.83,2.66.87,5.64-.87,6.94-3.37.09-.23.25-.41.46-.53.24-.07.49-.04.7.08,2.9,1.02,5.73,2.25,8.45,3.69,1.51.87,3.1,2.12,3.11,3.86-.09,1.3-.87,2.44-2.05,2.99-1.16.52-2.42.78-3.69.77-4.51.18-9.01-.49-13.28-1.98-1.83-.64-4.61-1.43-6.07-2.8-1.05-1.05-.23-3.13-.28-4.56Z"/></g></svg>