<svg version="1.1" id="Layer_1" xmlns="http://www.w3.org/2000/svg" xmlns:xlink="http://www.w3.org/1999/xlink" x="0px" y="0px" viewBox="0 0 500 500" style="width: 158px;" xml:space="preserve" data-imageid="credit-card-10" imageName="Credit Card" class="illustrations_image">
<style type="text/css">
	.st0_credit-card-10{fill:#FFFFFF;}
	.st1_credit-card-10{fill:#231F20;}
	.st2_credit-card-10{fill:#68E1FD;}
	.st3_credit-card-10{fill:#D1D3D4;}
</style>
<g id="Hand_credit-card-10">
	<path class="st0_credit-card-10" d="M282.3,326.6c4,0.3,7.2-3.9,9.7-7.7c-3.3,5,1,12.2,4.7,15.5c3.2,2.7,6.9,4.8,10.8,6.2&#10;&#9;&#9;c6.2,2.5,12.8,3.7,19.4,3.6c6.7-0.2,13.1-2.4,18.5-6.4c6.2-4.8,10.1-12.2,11.4-19.9c1.1-7.8,0.3-15.7-2.5-23.1&#10;&#9;&#9;c-0.7-2.4-1.9-4.6-3.5-6.5c-2.3-2.3-5.2-4-8.3-4.8c-4.2-1.3-8.7-2-13.1-2c-6.2,0-10.6-0.4-16.2-3c-4.3-2.1-8.8-3.7-13.5-4.9&#10;&#9;&#9;c-8.7-2.1-19.5-2-23.2,7.7C272.8,290.9,268.8,325.6,282.3,326.6z"/>
	<path class="st1_credit-card-10" d="M325.4,344.9c-6.2-0.1-12.4-1.3-18.1-3.6c-4-1.4-7.8-3.5-11-6.3c-2.9-2.6-6.3-7.6-6.1-12.3&#10;&#9;&#9;c-2.3,2.8-4.8,4.8-7.9,4.6l0,0c-2.7-0.2-5.1-1.8-6.5-4.1c-6.2-9.7-3-34,0-42c4.2-11.1,16.8-9.9,24-8.2c4.7,1.2,9.2,2.8,13.6,4.9&#10;&#9;&#9;c5.4,2.5,9.6,2.9,15.9,2.9h0.1c4.5,0,8.9,0.7,13.2,2.1c4,1.3,6.7,2.9,8.6,5c1.6,2,2.8,4.3,3.6,6.7c2.8,7.5,3.7,15.5,2.5,23.4&#10;&#9;&#9;c-1.2,8-5.4,15.2-11.6,20.4c-5.5,4.1-12.1,6.3-18.9,6.5C326.4,344.8,325.9,344.9,325.4,344.9z M292.6,319.2&#10;&#9;&#9;c-3,4.5,0.9,11.3,4.5,14.7c3.1,2.7,6.7,4.7,10.6,6c6.1,2.4,12.6,3.6,19.1,3.5c6.5-0.1,12.9-2.3,18.1-6.2&#10;&#9;&#9;c5.7-4.5,9.8-11.6,11.1-19.5c1.1-7.7,0.3-15.5-2.5-22.8c-0.7-2.3-1.9-4.4-3.4-6.3c-1.8-2-4.3-3.5-8-4.6c-4.1-1.3-8.5-2-12.8-2H329&#10;&#9;&#9;c-6.2,0-10.7-0.5-16.1-3c-4.3-2-8.8-3.6-13.4-4.8c-6.7-1.6-18.5-2.8-22.4,7.3c-2.9,7.6-6.1,31.6-0.2,40.8c1.1,2,3.1,3.3,5.4,3.5&#10;&#9;&#9;l0,0c3.6,0.2,6.5-3.4,9.1-7.4l0,0c0.2-0.3,0.7-0.3,1-0.1C292.7,318.6,292.7,318.9,292.6,319.2L292.6,319.2z"/>
	<path class="st0_credit-card-10" d="M279.8,399h94.8c10.7-31.5,29.8-88.5,29.5-92c-0.4-4.8-35.4-72.6-50.5-83.3s-43.1,8.5-43.1,8.5l3.7,27.7&#10;&#9;&#9;l22.9-1.8l4.6,41.4c0,0-21.9,0.3-33,7.7s-26.9,31.4-28.8,47.2s0,34.7,0,34.7L279.8,399z"/>
	<path class="st1_credit-card-10" d="M374.5,399.6h-94.8c-0.4,0-0.7-0.3-0.7-0.7v0v-10.1c0-0.1-1.8-19,0-34.8c1.9-16.2,17.8-40.1,29.1-47.7&#10;&#9;&#9;c10.1-6.7,28.6-7.6,32.6-7.8l-4.4-40l-22.2,1.8c-0.4,0-0.7-0.2-0.7-0.6l-3.7-27.7c0-0.3,0.1-0.5,0.3-0.6c5-3.3,10.4-6.1,16-8.3&#10;&#9;&#9;c11.9-4.6,21.5-4.7,27.9-0.1c15,10.6,50.4,78.6,50.8,83.8c0.3,3.4-15.9,52-29.6,92.2C375,399.4,374.8,399.6,374.5,399.6z&#10;&#9;&#9; M280.5,399L280.5,399z M280.5,398.3H374c18.8-55.6,29.5-88.8,29.3-91.2c-0.4-5.1-35.4-72.3-50.2-82.8c-13.7-9.7-38.8,6.1-42,8.3&#10;&#9;&#9;l3.5,26.6l22.2-1.8c0.4,0,0.7,0.2,0.7,0.6l4.6,41.4c0,0.4-0.2,0.7-0.6,0.7c0,0,0,0-0.1,0c-0.2,0-21.8,0.4-32.6,7.6&#10;&#9;&#9;s-26.7,31.2-28.5,46.7s0,34.3,0,34.5L280.5,398.3z"/>
</g>
<g id="Card_2_credit-card-10">
	<path class="st1_credit-card-10" d="M364.8,165l-14.1,143.4c-0.5,4.7-4.7,8.2-9.4,7.7c0,0,0,0,0,0l-31.2-3.1l-206.4-20.3c-4.7-0.5-8.2-4.7-7.7-9.4&#10;&#9;&#9;c0,0,0,0,0,0l14.1-143.5c0.5-4.7,4.7-8.2,9.4-7.7c0,0,0,0,0,0l113.9,11.2l123.7,12.2C361.8,156,365.3,160.3,364.8,165z"/>
	<path class="st1_credit-card-10" d="M342.1,316.8c-0.3,0-0.6,0-0.9,0l-237.6-23.4c-5.1-0.5-8.8-5-8.3-10.1l14.1-143.4c0.5-5.1,5-8.8,10.1-8.3&#10;&#9;&#9;c0,0,0,0,0,0L357.1,155c5,0.5,8.7,5,8.3,10l0,0l-14.1,143.5C350.8,313.2,346.9,316.8,342.1,316.8z M118.6,132.8&#10;&#9;&#9;c-4.1,0-7.5,3.1-7.9,7.2L96.6,283.4c-0.4,4.4,2.8,8.3,7.2,8.7l237.6,23.4c4.4,0.4,8.3-2.8,8.7-7.2l14.1-143.4&#10;&#9;&#9;c0.4-4.4-2.8-8.3-7.2-8.7l-237.6-23.4C119.2,132.8,118.9,132.7,118.6,132.8z M364.8,165L364.8,165z"/>
</g>
<g id="Card_1_credit-card-10">
	<path class="st2_credit-card-10 targetColor" d="M389.6,163l-30.9,140.7c-1,4.6-5.6,7.6-10.3,6.6l-30.6-6.7l-202.6-44.4c-4.6-1-7.6-5.6-6.6-10.2l30.9-140.8&#10;&#9;&#9;c1-4.6,5.6-7.6,10.2-6.6c0,0,0,0,0,0l111.8,24.5L383,152.7C387.6,153.7,390.6,158.3,389.6,163C389.6,162.9,389.6,163,389.6,163z" style="fill: rgb(236, 156, 82);"/>
	<path class="st1_credit-card-10" d="M350.3,311.5c-0.7,0-1.4-0.1-2.1-0.2l-233.2-51.2c-5.2-1.1-8.4-6.2-7.3-11.4l30.9-140.8&#10;&#9;&#9;c1.1-5.1,6.2-8.4,11.3-7.3c0,0,0,0,0,0l233.2,51.2c5.1,1.1,8.4,6.2,7.3,11.4l0,0L359.6,304C358.7,308.4,354.8,311.5,350.3,311.5&#10;&#9;&#9;L350.3,311.5z M148,102.3c-3.6,0-6.7,2.5-7.4,6l-30.9,140.8c-0.9,4.1,1.7,8.2,5.8,9.1c0,0,0,0,0,0l233.2,51.2&#10;&#9;&#9;c4.1,0.9,8.2-1.7,9.1-5.8l30.9-140.8l0,0c0.9-4.1-1.7-8.2-5.8-9.1l-233.2-51.2C149.1,102.3,148.6,102.3,148,102.3z M389.6,163&#10;&#9;&#9;L389.6,163z"/>
	<path class="st0_credit-card-10" d="M163.9,165.7l24.6,5.4c2.6,0.6,4.3,3.2,3.7,5.8l-4.3,19.7c-0.6,2.6-3.2,4.3-5.8,3.7l-24.6-5.4&#10;&#9;&#9;c-2.6-0.6-4.3-3.2-3.7-5.8l4.3-19.7C158.7,166.8,161.3,165.1,163.9,165.7z"/>
	<path class="st1_credit-card-10" d="M164.4,166c0.5,0,1,0.1,1.5,0.2l20.8,4.6c3.7,0.8,6,4.4,5.2,8.1l-3.5,15.9c-0.8,3.7-4.4,6-8.1,5.2c0,0,0,0,0,0&#10;&#9;&#9;l-20.8-4.6c-3.7-0.8-6-4.4-5.2-8.1l3.5-15.9C158.4,168.2,161.2,166,164.4,166 M164.4,165L164.4,165c-3.7,0-6.9,2.6-7.7,6.2&#10;&#9;&#9;l-3.5,15.8c-0.9,4.2,1.7,8.4,5.9,9.3c0,0,0,0,0.1,0l20.8,4.6c0.6,0.1,1.1,0.2,1.7,0.2c3.7,0,6.9-2.6,7.7-6.2l3.5-15.9&#10;&#9;&#9;c0.9-4.2-1.8-8.4-6-9.3c0,0,0,0,0,0l-20.8-4.6c-0.6-0.1-1.1-0.2-1.7-0.2L164.4,165z"/>
	
		<rect x="152.5" y="181.1" transform="matrix(0.2144 -0.9767 0.9767 0.2144 -45.9897 306.3798)" class="st3_credit-card-10" width="29.9" height="1.4"/>
	
		<rect x="163.7" y="183.5" transform="matrix(0.2144 -0.9767 0.9767 0.2144 -39.588 319.2343)" class="st3_credit-card-10" width="29.9" height="1.4"/>
	
		<rect x="174.1" y="157.6" transform="matrix(0.2144 -0.9767 0.9767 0.2144 -33.6846 308.2791)" class="st3_credit-card-10" width="1.4" height="34.9"/>
	
		<rect x="170.6" y="173.5" transform="matrix(0.2144 -0.9767 0.9767 0.2144 -51.9528 317.3616)" class="st3_credit-card-10" width="1.4" height="34.9"/>
	
		<rect x="161.3" y="172" transform="matrix(0.2144 -0.9767 0.9767 0.2144 -46.1045 297.7545)" class="st3_credit-card-10" width="1.4" height="11.1"/>
	
		<rect x="160.1" y="177.8" transform="matrix(0.2144 -0.9767 0.9767 0.2144 -52.8047 301.0845)" class="st3_credit-card-10" width="1.4" height="11.1"/>
	
		<rect x="184.3" y="176.7" transform="matrix(0.2144 -0.9767 0.9767 0.2144 -32.9624 324.1687)" class="st3_credit-card-10" width="1.4" height="11.8"/>
	
		<rect x="183" y="182.5" transform="matrix(0.2144 -0.9767 0.9767 0.2144 -39.6681 327.4874)" class="st3_credit-card-10" width="1.4" height="11.8"/>
	<path class="st0_credit-card-10" d="M153.6,206.1l26.3,5.8c1.9,0.4,3.1,2.3,2.6,4.1l-0.9,4c-0.4,1.9-2.3,3.1-4.1,2.6l-26.3-5.8&#10;&#9;&#9;c-1.9-0.4-3.1-2.3-2.6-4.1l0.9-4C149.9,206.9,151.8,205.7,153.6,206.1z"/>
	<path class="st0_credit-card-10" d="M198.2,215.9l26.3,5.8c1.9,0.4,3.1,2.3,2.6,4.1l-0.9,4c-0.4,1.9-2.3,3.1-4.1,2.6l-26.3-5.8&#10;&#9;&#9;c-1.9-0.4-3.1-2.3-2.6-4.1l0.9-4C194.4,216.7,196.3,215.5,198.2,215.9z"/>
	<path class="st0_credit-card-10" d="M242.7,225.7l26.3,5.8c1.9,0.4,3.1,2.3,2.6,4.1l-0.9,4c-0.4,1.9-2.3,3.1-4.1,2.6l-26.3-5.8&#10;&#9;&#9;c-1.9-0.4-3.1-2.3-2.6-4.1l0.9-4C238.9,226.4,240.8,225.3,242.7,225.7z"/>
	<path class="st0_credit-card-10" d="M287.2,235.4l26.3,5.8c1.9,0.4,3.1,2.3,2.6,4.1l-0.9,4c-0.4,1.9-2.3,3.1-4.1,2.6l-26.3-5.8&#10;&#9;&#9;c-1.9-0.4-3.1-2.3-2.6-4.1l0.9-4C283.4,236.2,285.3,235,287.2,235.4z"/>
	<path class="st1_credit-card-10" d="M210,251.8h-0.2l-66.5-14.6c-0.5-0.1-0.8-0.6-0.7-1.1c0.1-0.5,0.6-0.8,1.1-0.7l66.5,14.6&#10;&#9;&#9;c0.5,0.1,0.8,0.6,0.7,1.1C210.8,251.5,210.4,251.8,210,251.8z"/>
	<path class="st1_credit-card-10" d="M237.9,258h-0.2l-10.3-2.3c-0.5-0.1-0.8-0.6-0.7-1.1c0.1-0.5,0.6-0.8,1.1-0.7l10.3,2.3&#10;&#9;&#9;c0.5,0.2,0.7,0.8,0.5,1.3C238.5,257.7,238.3,258,237.9,258L237.9,258z"/>
	<path class="st1_credit-card-10" d="M259.3,262.6c-0.1,0-0.1,0-0.2,0l-10.3-2.2c-0.5-0.1-0.8-0.6-0.7-1.1c0.1-0.5,0.6-0.8,1.1-0.7l10.3,2.2&#10;&#9;&#9;c0.5,0.2,0.7,0.8,0.5,1.3C259.9,262.4,259.6,262.6,259.3,262.6L259.3,262.6z"/>
	<path class="st1_credit-card-10" d="M238.8,264.8c-0.2,0-0.5-0.1-0.7-0.3c-0.4-0.4-0.4-1,0-1.4l9.7-10.2c0.5-0.3,1.1-0.1,1.4,0.3&#10;&#9;&#9;c0.2,0.3,0.2,0.7,0,1l-9.7,10.2C239.3,264.7,239.1,264.8,238.8,264.8z"/>
</g>
<g id="Thumb_credit-card-10">
	<path class="st0_credit-card-10" d="M280.9,348.5c0,0,18.4-59.5,17.3-71.7s-7.7-47.9,3.3-57.9s19.2-10.7,26.2,5.2s9.2,94,9.2,94"/>
	<path class="st1_credit-card-10" d="M280.9,349.2c-0.1,0-0.1,0-0.2,0c-0.4-0.1-0.6-0.5-0.4-0.8c0,0,0,0,0,0c0.2-0.6,18.3-59.6,17.2-71.5&#10;&#9;&#9;c-0.2-1.8-0.5-4.2-0.8-7c-2-16-5.3-42.8,4.4-51.4c6.5-5.8,11.5-8.1,15.9-7.1s8,5,11.4,12.5c7,15.8,9.2,91.1,9.3,94.3&#10;&#9;&#9;c0,0.4-0.3,0.7-0.6,0.7c0,0,0,0,0,0c-0.4,0-0.7-0.3-0.7-0.6c0,0,0,0,0,0c0-0.8-2.3-78.2-9.2-93.8c-3.1-7.1-6.5-10.9-10.4-11.8&#10;&#9;&#9;s-8.6,1.3-14.7,6.8c-9.1,8.2-5.7,35.6-3.9,50.3c0.3,2.8,0.6,5.2,0.8,7.1c1.1,12.2-16.5,69.5-17.3,72&#10;&#9;&#9;C281.5,349,281.2,349.2,280.9,349.2z"/>
</g>
</svg>