<svg xmlns="http://www.w3.org/2000/svg" xmlns:xlink="http://www.w3.org/1999/xlink" viewBox="0 0 500 500" data-imageid="credit-card-26" imageName="Credit Card" class="illustrations_image" style="width: 158px;"><defs><style>.cls-1_credit-card-26{clip-path:url(#clippath);}.cls-2_credit-card-26{fill:none;}.cls-2_credit-card-26,.cls-3_credit-card-26,.cls-4_credit-card-26,.cls-5_credit-card-26,.cls-6_credit-card-26,.cls-7_credit-card-26,.cls-8_credit-card-26,.cls-9_credit-card-26,.cls-10_credit-card-26,.cls-11_credit-card-26,.cls-12_credit-card-26,.cls-13_credit-card-26,.cls-14_credit-card-26,.cls-15_credit-card-26,.cls-16_credit-card-26,.cls-17_credit-card-26,.cls-18_credit-card-26,.cls-19_credit-card-26,.cls-20_credit-card-26,.cls-21_credit-card-26,.cls-22_credit-card-26{stroke-width:0px;}.cls-3_credit-card-26{fill:url(#linear-gradient);}.cls-23_credit-card-26{font-family:Roboto-Bold, Roboto;font-size:11.28px;font-weight:700;}.cls-23_credit-card-26,.cls-11_credit-card-26{isolation:isolate;}.cls-23_credit-card-26,.cls-11_credit-card-26,.cls-22_credit-card-26{fill:#68e1fd;}.cls-4_credit-card-26{fill:url(#linear-gradient-11-credit-card-26);}.cls-5_credit-card-26{fill:url(#linear-gradient-12-credit-card-26);}.cls-6_credit-card-26{fill:url(#linear-gradient-13-credit-card-26);}.cls-7_credit-card-26{fill:url(#linear-gradient-10-credit-card-26);}.cls-8_credit-card-26{fill:url(#linear-gradient-16-credit-card-26);}.cls-9_credit-card-26{fill:url(#linear-gradient-15-credit-card-26);}.cls-10_credit-card-26{fill:url(#linear-gradient-14-credit-card-26);}.cls-11_credit-card-26{opacity:.42;}.cls-12_credit-card-26{fill:url(#linear-gradient-4-credit-card-26);}.cls-13_credit-card-26{fill:url(#linear-gradient-2-credit-card-26);}.cls-14_credit-card-26{fill:url(#linear-gradient-3-credit-card-26);}.cls-15_credit-card-26{fill:url(#linear-gradient-8-credit-card-26);}.cls-16_credit-card-26{fill:url(#linear-gradient-9-credit-card-26);}.cls-17_credit-card-26{fill:url(#linear-gradient-7-credit-card-26);}.cls-18_credit-card-26{fill:url(#linear-gradient-5-credit-card-26);}.cls-19_credit-card-26{fill:url(#linear-gradient-6-credit-card-26);}.cls-20_credit-card-26{fill:#fde2d1;}.cls-21_credit-card-26{fill:#ffb4a3;}.cls-24_credit-card-26{letter-spacing:-.03em;}.cls-25_credit-card-26{letter-spacing:-.03em;}</style><linearGradient id="linear-gradient-credit-card-26" x1="-973.37" y1="3202.3" x2="-942.65" y2="2982.02" gradientTransform="translate(1234.49 3366.27) scale(1 -1)" gradientUnits="userSpaceOnUse"><stop offset="0" stop-color="#231f20" stop-opacity="0"/><stop offset="1" stop-color="#231f20"/></linearGradient><linearGradient id="linear-gradient-2-credit-card-26" x1="-1003.74" y1="3372.03" x2="-1175.31" y2="2860.54" gradientTransform="translate(1289 3367.76) scale(1 -1)" xlink:href="#linear-gradient-credit-card-26"/><linearGradient id="linear-gradient-3-credit-card-26" x1="230.69" y1="74.55" x2="238.51" y2="147.85" gradientTransform="matrix(1,0,0,1,0,0)" xlink:href="#linear-gradient-credit-card-26"/><linearGradient id="linear-gradient-4-credit-card-26" x1="243.3" y1="73.2" x2="251.12" y2="146.5" gradientTransform="matrix(1,0,0,1,0,0)" xlink:href="#linear-gradient-credit-card-26"/><linearGradient id="linear-gradient-5-credit-card-26" x1="236.88" y1="73.89" x2="244.7" y2="147.19" gradientTransform="matrix(1,0,0,1,0,0)" xlink:href="#linear-gradient-credit-card-26"/><linearGradient id="linear-gradient-6-credit-card-26" x1="224.59" y1="75.2" x2="232.41" y2="148.5" gradientTransform="matrix(1,0,0,1,0,0)" xlink:href="#linear-gradient-credit-card-26"/><linearGradient id="linear-gradient-7-credit-card-26" x1="249.19" y1="72.57" x2="257" y2="145.88" gradientTransform="matrix(1,0,0,1,0,0)" xlink:href="#linear-gradient-credit-card-26"/><linearGradient id="linear-gradient-8-credit-card-26" x1="-1182.11" y1="3144.14" x2="-890.86" y2="3228.86" xlink:href="#linear-gradient-credit-card-26"/><linearGradient id="linear-gradient-9-credit-card-26" x1="-1235.48" y1="3126.05" x2="-973.9" y2="3207.58" xlink:href="#linear-gradient-credit-card-26"/><linearGradient id="linear-gradient-10-credit-card-26" x1="146.05" y1="83.57" x2="153.87" y2="156.88" gradientTransform="matrix(1,0,0,1,0,0)" xlink:href="#linear-gradient-credit-card-26"/><linearGradient id="linear-gradient-11-credit-card-26" x1="157.6" y1="82.34" x2="165.42" y2="155.65" gradientTransform="matrix(1,0,0,1,0,0)" xlink:href="#linear-gradient-credit-card-26"/><linearGradient id="linear-gradient-12-credit-card-26" x1="152.14" y1="82.93" x2="159.95" y2="156.23" gradientTransform="translate(40.07 -38.54) rotate(16.09)" xlink:href="#linear-gradient-credit-card-26"/><linearGradient id="linear-gradient-13-credit-card-26" x1="139.95" y1="84.23" x2="147.77" y2="157.53" gradientTransform="translate(40.56 -35.09) rotate(16.09)" xlink:href="#linear-gradient-credit-card-26"/><linearGradient id="linear-gradient-14-credit-card-26" x1="164.32" y1="81.63" x2="172.14" y2="154.93" gradientTransform="translate(39.58 -41.98) rotate(16.09)" xlink:href="#linear-gradient-credit-card-26"/><linearGradient id="linear-gradient-15-credit-card-26" x1="-882.2" y1="2992.87" x2="-932.52" y2="2909.47" xlink:href="#linear-gradient-credit-card-26"/><clipPath id="clippath_credit-card-26"><path class="cls-2_credit-card-26" d="M-397.46,77.4c17.23-12.07,35.89-22.39,56.07-26.7,29.55-6.27,60.77.9,87.31,16.24,31.91,18.41,57.12,47.46,85.82,71.23,33.35,27.6,71.8,48.19,101.94,79.76,30.15,31.57,51.29,79.16,37.52,121.86-12.18,37.79-47.5,60.77-81.82,76.34-77.53,35.18-163.2,48.53-247.76,38.6-74.03-8.85-153.12-60.59-152.29-150.43.83-90.48,42.99-177.72,113.21-226.9Z"/></clipPath><linearGradient id="linear-gradient-16-credit-card-26" x1="-1522.34" y1="2966.05" x2="-1127.62" y2="2859.2" gradientTransform="translate(1273.04 3332.81) scale(1 -1)" xlink:href="#linear-gradient-credit-card-26"/></defs><g id="_0392_credit_card_credit-card-26"><g id="background_credit-card-26"><path class="cls-11_credit-card-26 targetColor" d="M434.26,376.88c-8.91,27.78-24.75,54.19-46.79,72.87-3.02,2.54-6.15,4.94-9.39,7.21-5.47,3.81-11.26,7.12-17.32,9.9-4.15,1.9-8.42,3.56-12.77,4.95-6.14,1.98-12.43,3.49-18.79,4.53-1.17.21-2.36.39-3.54.55l-1.25.17c-25.59,3.43-52.48.42-78.14-4.23-31.85-5.76-63.64-13.97-92.09-29.39-58.51-31.7-98.83-94.64-103.19-161.04-.95-14.34-.29-28.91,3.48-42.79,6.13-22.74,19.73-41.43,35.72-58.85,1.01-1.11,2.05-2.23,3.08-3.32,15.01-15.91,31.8-30.88,46.48-47.07,1.41-1.56,2.8-3.12,4.16-4.69.21-.23.41-.47.62-.71l.56-.66.51-.59s.06-.09.1-.12c.78-.95,1.55-1.85,2.29-2.78,1.9-2.3,3.71-4.66,5.42-7.06.2-.28.4-.55.59-.84.59-.83,1.16-1.66,1.72-2.5.93-1.37,1.84-2.76,2.71-4.17.79-1.27,1.56-2.56,2.3-3.88.47-.82.95-1.65,1.36-2.49.89-1.65,1.73-3.32,2.51-5.01,1.02-2.13,1.95-4.31,2.86-6.52.48-1.26.95-2.49,1.51-3.71h0c1.42-3.29,3.01-6.5,4.76-9.63.03-.08.07-.16.12-.24C217.97-4.7,361.19-31.36,425.83,114.2c7.77,17.48,10.61,36.69,12.85,55.68,3.48,29.41,5.8,58.92,6.93,88.55,1.54,39.86.81,80.49-11.36,118.46Z" style="fill: rgb(236, 156, 82);"/></g><g id="card_and_hand_credit-card-26"><path class="cls-21_credit-card-26" d="M294.29,208.43c4.66,4.52,7.93,10.24,11.16,15.86l23.95,41.89c4.42,7.73,8.89,15.59,10.97,24.24,1.83,7.62,1.71,15.59,1.6,23.43l-.72,46.65c-.12,7.8-.4,16.11-4.81,22.55-6.66,9.66-20.14,11.61-31.81,10.47-22.99-2.21-45.7-13.67-58.27-33.04-12.57-19.37-13.27-46.75,1-64.91,5.52-7.02,13.16-12.87,15.67-21.44,2.71-9.22-1.63-19.54-9-25.71-5.18-4.33-11.59-6.89-17.14-10.7s-10.59-9.59-10.47-16.34c.25-25.29,54.7-25.75,67.88-12.97Z"/><path class="cls-3_credit-card-26" d="M293.87,256.53c-.58,11.6,1.18,23.19,5.18,34.1-4.22-.65-7.27-4.18-10.39-7.1s-7.52-5.53-11.43-3.88c2.14,3.75,3.03,8.08,2.56,12.38-1.35-5.2-7.23-9.35-12.2-7.32-3.13,1.29-5.02,4.46-7.62,6.59-2.6,2.13-7.34,2.74-8.8-.32,11.34-8.51,15.55-23.45,17.8-37.46,1.63-10.09,2.5-43.15,18.18-41.61,17.51,1.73,7.26,34.1,6.7,44.63Z"/><rect class="cls-22_credit-card-26 targetColor" x="164.64" y="74.76" width="129.2" height="199.1" rx="11.31" ry="11.31" style="fill: rgb(236, 156, 82);"/><rect class="cls-22_credit-card-26 targetColor" x="160.76" y="74.76" width="129.2" height="199.1" rx="11.31" ry="11.31" style="fill: rgb(236, 156, 82);"/><rect class="cls-13_credit-card-26" x="160.76" y="74.76" width="129.2" height="199.1" rx="11.31" ry="11.31"/><rect class="cls-22_credit-card-26 targetColor" x="222.35" y="87.47" width="35.48" height="40.25" rx="6.27" ry="6.27" style="fill: rgb(236, 156, 82);"/><path class="cls-14_credit-card-26" d="M236.88,127.57h-3.76v-11.55c-1.54-.26-2.88-1.2-3.65-2.55l-.18-.37v-.42c0-.95-.27-9.28,0-11.5s2.8-3.76,4.48-4.46v-9.2h3.81v11.99l-1.37.39c-1.51.44-3,1.33-3.15,1.77-.16,1.35-.1,6.66,0,10.27.52.36,1.17.5,1.8.39l2.06-.19-.04,15.42Z"/><path class="cls-12_credit-card-26" d="M243.89,127.57h3.76v-11.55c1.53-.26,2.87-1.2,3.64-2.55l.19-.37v-.42c0-.95.27-9.28,0-11.5s-2.86-3.76-4.48-4.46v-9.2h-3.76v11.99l1.37.39c1.51.44,3,1.33,3.14,1.77.17,1.35.1,6.66,0,10.27-.53.36-1.18.5-1.81.39l-2.05-.19v15.42Z"/><rect class="cls-18_credit-card-26" x="240.09" y="87.56" width=".79" height="40.15"/><rect class="cls-19_credit-card-26" x="227.65" y="87.56" width=".79" height="40.15"/><rect class="cls-17_credit-card-26" x="252.53" y="87.56" width=".79" height="40.15"/><text class="cls-23_credit-card-26 targetColor" transform="translate(244.19 141.64) rotate(90)" style="fill: rgb(236, 156, 82);"><tspan x="0" y="0">CREDI</tspan><tspan class="cls-25_credit-card-26" x="31.55" y="0">T</tspan><tspan x="38.2" y="0" xml:space="preserve"> CARD</tspan></text><rect class="cls-22_credit-card-26 targetColor" x="99.42" y="90.13" width="129.2" height="199.1" rx="11.31" ry="11.31" transform="translate(-46.14 52.89) rotate(-16.09)" style="fill: rgb(236, 156, 82);"/><rect class="cls-22_credit-card-26 targetColor" x="95.69" y="91.2" width="129.2" height="199.1" rx="11.31" ry="11.31" transform="translate(-46.59 51.9) rotate(-16.09)" style="fill: rgb(236, 156, 82);"/><path class="cls-15_credit-card-26" d="M239.1,271.6l-102.4,29.52c-6,1.71-12.26-1.74-14.01-7.73l-48.92-169.55c-1.71-6.01,1.77-12.26,7.78-13.98l46.91-13.53,55.44-16.01c6-1.73,12.27,1.73,14.02,7.73l48.91,169.55c1.73,6-1.73,12.27-7.73,14.01Z"/><path class="cls-16_credit-card-26" d="M181.38,288.01l-46.91,13.53c-5.36.44-10.29-2.96-11.78-8.13l-48.92-169.58c-1.71-6.01,1.77-12.26,7.78-13.98l46.91-13.53c5.36-.43,10.29,2.96,11.79,8.13l48.89,169.55c1.73,6-1.74,12.27-7.74,14h-.02Z"/><rect class="cls-22_credit-card-26 targetColor" x="138.23" y="102.44" width="35.48" height="40.25" rx="6.27" ry="6.27" transform="translate(-27.86 48.03) rotate(-16.09)" style="fill: rgb(236, 156, 82);"/><path class="cls-7_credit-card-26" d="M158.41,142.64l-3.61,1.05-3.21-11.1c-1.54.17-3.08-.36-4.2-1.44l-.29-.31-.12-.4c-.29-.89-2.86-8.85-3.18-11.05s1.66-4.39,3.08-5.52l-2.5-8.84,3.61-1.04,3.32,11.51-1.22.72c-1.33.84-2.51,2.12-2.53,2.58.22,1.34,1.75,6.43,2.86,9.87.61.2,1.27.15,1.85-.13l1.9-.74,4.24,14.84Z"/><path class="cls-4_credit-card-26" d="M165.16,140.69l3.61-1.05-3.2-11.05c1.4-.67,2.43-1.94,2.79-3.46l.08-.41-.1-.41c-.24-.95-2.32-8.99-3.2-11.04s-3.74-2.86-5.55-3.03l-2.54-8.84-3.62,1.04,3.34,11.46h1.43c1.57,0,3.25.46,3.51.84.53,1.25,1.9,6.38,2.86,9.87-.41.49-.99.8-1.63.87l-2.02.39,4.25,14.81Z"/><rect class="cls-5_credit-card-26" x="155.96" y="102.42" width=".79" height="40.15" transform="translate(-27.82 48.13) rotate(-16.09)"/><rect class="cls-6_credit-card-26" x="144.01" y="105.86" width=".79" height="40.15" transform="translate(-29.25 44.95) rotate(-16.09)"/><rect class="cls-10_credit-card-26" x="167.91" y="98.96" width=".79" height="40.15" transform="translate(-26.4 51.31) rotate(-16.09)"/><text class="cls-23_credit-card-26 targetColor" transform="translate(169.3 154.1) rotate(73.74)" style="fill: rgb(236, 156, 82);"><tspan x="0" y="0">CREDI</tspan><tspan class="cls-24_credit-card-26" x="31.55" y="0">T</tspan><tspan x="38.2" y="0" xml:space="preserve"> CARD</tspan></text><path class="cls-21_credit-card-26" d="M208.32,294.26s-25.15-46.06-18-50.82c7.15-4.76,27-5.04,33.32,6.62,6.32,11.65,4.76,20.38,7.94,23.8s13.5,11.43,13.5,11.43l24.89,16.95s5.71,68.83-14.03,64.59c-19.75-4.24-47.62-72.56-47.62-72.56Z"/><path class="cls-21_credit-card-26" d="M387.47,449.75c-3.02,2.54-6.15,4.94-9.39,7.21-5.47,3.81-11.26,7.12-17.32,9.9-4.15,1.9-8.42,3.56-12.77,4.95-6.14,1.98-12.43,3.49-18.79,4.53-1.17.21-2.36.39-3.54.55l-1.25.17c-1.31-5.5-2.28-12.26-3.74-16.64-.08-.21-.15-.42-.22-.64-.44-1.29-.88-2.56-1.33-3.81s-.88-2.46-1.34-3.69c-.51-1.39-1.03-2.78-1.56-4.16-.5-1.3-1-2.61-1.53-3.9-.43-1.11-.88-2.21-1.34-3.31-.61-1.48-1.24-2.95-1.9-4.43-.56-1.29-1.12-2.56-1.69-3.81s-1.14-2.52-1.73-3.81-1.14-2.47-1.73-3.68c-.42-.86-.83-1.71-1.26-2.56l-.19-.39c-.35-.73-.72-1.47-1.09-2.19l-.57-1.12c-.39-.76-.77-1.51-1.17-2.27-.48-.95-.95-1.9-1.48-2.81-5.4-10.11-10.47-17-12.86-23.61-.09-.22-.15-.43-.23-.65-2.51-7.62-1.29-14.93,7.39-26.49,13.82-18.43,29.3-35.85,45.17-52.54-2.79,2.93-.69,16.6,1.54,27.91,1.29,6.51,2.62,12.24,3.07,14.68,2.09,11.46,5.2,22.71,9.28,33.62,5.77,15.15,26.54,41.75,33.59,62.99Z"/><path class="cls-9_credit-card-26" d="M349.44,468.17l-1.44,3.64c-6.14,1.98-12.43,3.49-18.79,4.53-1.17.21-2.36.39-3.54.55-.08-.38-.16-.7-.24-.95-1.45-5.2-3.03-10.36-4.76-15.49-.08-.21-.15-.42-.22-.64l-1.33-3.81c-.44-1.23-.89-2.46-1.34-3.69-.51-1.39-1.03-2.78-1.56-4.16-.5-1.3-1.01-2.61-1.53-3.9-.44-1.11-.89-2.21-1.34-3.31-.61-1.48-1.24-2.95-1.9-4.43l-1.69-3.81c-.56-1.26-1.14-2.51-1.73-3.81s-1.14-2.47-1.73-3.68c-.41-.86-.83-1.71-1.26-2.56l-.19-.39c-.35-.73-.72-1.47-1.09-2.19l-.57-1.12c-.38-.76-.77-1.51-1.17-2.27-.48-.95-.95-1.9-1.48-2.81-5.4-10.11-10.47-17-12.86-23.61-.09-.22-.15-.43-.23-.65,4.76,0,18.71.4,25.71,3.89.16.08.31.17.46.28,8.99,6.26,35.85,74.4,35.85,74.4Z"/><path class="cls-20_credit-card-26" d="M205.99,267.51c2.31-1.27,4.22-3.6,4.23-6.23-.11-1.59-.57-3.14-1.33-4.54-1.65-3.59-3.66-7.44-7.29-8.98-2.74-1.16-5.86-.76-8.8-.34-1.06.15-2.29.42-2.74,1.39-.2.51-.25,1.07-.16,1.61.47,6.01,2.14,11.87,4.91,17.23,1.95,3.76,8.22,1.49,11.19-.14Z"/></g></g><g id="_0391_hiking_2_credit-card-26"><g id="background-2_credit-card-26"><g class="cls-1_credit-card-26"><path class="cls-22_credit-card-26 targetColor" d="M-156.6,318.57c-15.12,8.06-28.16,20.46-41.97,30.24-7.25,5.12-81.48,53.73-79.8,58.35l1.31,3.58c-6.03,16.63-3.99,35.13,5.54,50.04l225.65,4.48c12.2.24,24.89.39,35.99-4.71,4.68-2.17,9.21-5.55,10.83-10.45.97-2.92.81-6.07.65-9.13-1.65-30.44,2.94-69.84-5.37-99.08-4.11-14.49-10.38-10.67-24.47-11.58-14.09-.9-27.15-3.88-39.07-10.15-1.18-.62-2.35-1.26-3.5-1.95-23.66-14-52.11-13.34-77.47-3.43-2.84,1.12-5.6,2.4-8.29,3.83" style="fill: rgb(236, 156, 82);"/><path class="cls-8_credit-card-26" d="M.91,450.05c-1.61,4.9-6.13,8.29-10.83,10.45-11.09,5.11-23.78,4.97-35.99,4.72l-225.6-4.48c-7.44-11.63-10.4-25.56-8.34-39.2.55-3.7,1.48-7.32,2.78-10.83-.43-1.2-.9-2.38-1.31-3.58-1.68-4.61,72.53-53.22,79.8-58.36,13.81-9.77,26.86-22.2,41.98-30.24,2.69-1.43,5.45-2.7,8.28-3.82,5.34-2.1,10.84-3.77,16.45-5.01,20.74-4.53,42.38-2.61,61.02,8.43,1.16.69,2.32,1.33,3.5,1.96,11.92,6.27,24.95,9.23,39.07,10.14,14.12.9,20.35-2.92,24.47,11.59,8.28,29.19,3.71,68.64,5.37,99.07.14,3.09.3,6.24-.67,9.15Z"/></g></g></g></svg>