<svg version="1.1" id="Layer_1" xmlns="http://www.w3.org/2000/svg" xmlns:xlink="http://www.w3.org/1999/xlink" x="0px" y="0px" viewBox="0 0 500 500" style="width: 178px;" xml:space="preserve" data-imageid="css-24" imageName="CSS" class="illustrations_image">
<style type="text/css">
	.st0_css-24{fill:#FFFFFF;}
	.st1_css-24{fill:#231F20;}
	.st2_css-24{fill:#68E1FD;}
	.st3_css-24{fill:#D1D3D4;}
</style>
<g id="Monitor_css-24">
	<path class="st0_css-24" d="M103.2,126.2h293.6c5.4,0,9.8,4.4,9.8,9.8v181c0,5.4-4.4,9.8-9.8,9.8H103.2c-5.4,0-9.8-4.4-9.8-9.8V136&#10;&#9;&#9;C93.4,130.6,97.8,126.2,103.2,126.2z"/>
	<path class="st1_css-24" d="M396.8,327.5H103.2c-5.8,0-10.5-4.7-10.5-10.5V136c0-5.8,4.7-10.5,10.5-10.5h293.6c5.8,0,10.5,4.7,10.5,10.5&#10;&#9;&#9;v181C407.3,322.8,402.6,327.5,396.8,327.5z M103.2,126.9c-5,0-9.1,4.1-9.1,9.1v181c0,5,4.1,9.1,9.1,9.1h293.6c5,0,9.1-4.1,9.1-9.1&#10;&#9;&#9;V136c0-5-4.1-9.1-9.1-9.1L103.2,126.9z"/>
	<path class="st1_css-24" d="M406.6,295.8H93.4c-0.4,0-0.7-0.3-0.7-0.7c0-0.4,0.3-0.7,0.7-0.7h313.2c0.4,0,0.7,0.3,0.7,0.7&#10;&#9;&#9;S407,295.8,406.6,295.8C406.6,295.8,406.6,295.8,406.6,295.8z"/>
	<polygon class="st0_css-24" points="290,365.6 210,365.6 224.7,326.8 275.3,326.8 &#9;"/>
	<path class="st1_css-24" d="M290,366.3h-80c-0.4,0-0.7-0.3-0.7-0.7c0-0.1,0-0.2,0-0.2l14.8-38.8c0.1-0.3,0.4-0.5,0.6-0.5h50.5&#10;&#9;&#9;c0.3,0,0.5,0.2,0.6,0.5l14.8,38.8c0.1,0.4-0.1,0.8-0.4,0.9C290.2,366.3,290.1,366.3,290,366.3L290,366.3z M211,364.9h78l-14.2-37.4&#10;&#9;&#9;h-49.6L211,364.9z"/>
	<path class="st0_css-24" d="M200.6,363.3h98.8c2.6,0,4.7,2.1,4.7,4.7v1.1c0,2.6-2.1,4.7-4.7,4.7h-98.8c-2.6,0-4.7-2.1-4.7-4.7V368&#10;&#9;&#9;C195.9,365.4,198,363.3,200.6,363.3z"/>
	<path class="st1_css-24" d="M299.4,374.5h-98.8c-3,0-5.4-2.4-5.4-5.4V368c0-3,2.4-5.4,5.4-5.4h98.8c3,0,5.4,2.4,5.4,5.4v1.1&#10;&#9;&#9;C304.8,372,302.4,374.5,299.4,374.5z M200.6,364c-2.2,0-4,1.8-4,4v1.1c0,2.2,1.8,4,4,4h98.8c2.2,0,4-1.8,4-4V368c0-2.2-1.8-4-4-4&#10;&#9;&#9;H200.6z"/>
	<polygon class="st1_css-24" points="217.4,344.5 277,332.9 274.7,326.8 224.2,326.8 &#9;"/>
	<path class="st1_css-24" d="M217.4,345.2c-0.4,0-0.7-0.3-0.7-0.7c0-0.1,0-0.2,0-0.2l6.7-17.7c0.1-0.3,0.4-0.5,0.6-0.5h50.5&#10;&#9;&#9;c0.3,0,0.5,0.2,0.6,0.5l2.3,6.1c0.1,0.4,0,0.8-0.4,0.9c0,0-0.1,0-0.1,0l-59.6,11.6L217.4,345.2z M224.6,327.5l-6.1,16.1l57.6-11.2&#10;&#9;&#9;l-1.9-4.9H224.6z"/>
</g>
<g id="monitor_screen_css-24">
	<rect x="104.6" y="135.7" class="st2_css-24 targetColor" width="290.9" height="147.1" style="fill: rgb(236, 156, 82);"/>
	<rect x="104.6" y="135.7" class="st1_css-24" width="290.9" height="147.1"/>
	<rect x="104.6" y="135.7" class="st2_css-24 targetColor" width="147.1" height="147.1" style="fill: rgb(236, 156, 82);"/>
	<path class="st2_css-24 targetColor" d="M280.7,157.1h-17.7c-0.4,0-0.7-0.3-0.7-0.7c0-0.4,0.3-0.7,0.7-0.7h17.7c0.4,0,0.7,0.3,0.7,0.7&#10;&#9;&#9;S281.1,157.1,280.7,157.1C280.7,157.1,280.7,157.1,280.7,157.1z" style="fill: rgb(236, 156, 82);"/>
	<path class="st0_css-24" d="M325.2,157.1H290c-0.4,0-0.7-0.3-0.7-0.7c0-0.4,0.3-0.7,0.7-0.7h35.2c0.4,0,0.7,0.3,0.7,0.7&#10;&#9;&#9;C325.9,156.8,325.6,157.1,325.2,157.1L325.2,157.1z"/>
	<path class="st0_css-24" d="M335.9,170.8h-35.2c-0.4,0-0.7-0.3-0.7-0.7s0.3-0.7,0.7-0.7c0,0,0,0,0,0h35.2c0.4,0,0.7,0.3,0.7,0.7&#10;&#9;&#9;S336.2,170.8,335.9,170.8C335.9,170.8,335.9,170.8,335.9,170.8z"/>
	<path class="st2_css-24 targetColor" d="M284.9,170.8h-17.6c-0.4,0-0.7-0.3-0.7-0.7c0-0.4,0.3-0.7,0.7-0.7h17.6c0.4,0,0.7,0.3,0.7,0.7&#10;&#9;&#9;S285.3,170.8,284.9,170.8C284.9,170.8,284.9,170.8,284.9,170.8z" style="fill: rgb(236, 156, 82);"/>
	<path class="st2_css-24 targetColor" d="M285.5,184.4h-14.2c-0.4,0-0.7-0.3-0.7-0.7c0-0.4,0.3-0.7,0.7-0.7h14.2c0.4,0,0.7,0.3,0.7,0.7&#10;&#9;&#9;S285.9,184.4,285.5,184.4C285.5,184.4,285.5,184.4,285.5,184.4L285.5,184.4z" style="fill: rgb(236, 156, 82);"/>
	<path class="st0_css-24" d="M342.1,184.4h-44.1c-0.4,0-0.7-0.3-0.7-0.7c0-0.4,0.3-0.7,0.7-0.7h44.1c0.4,0,0.7,0.3,0.7,0.7&#10;&#9;&#9;C342.8,184.1,342.5,184.4,342.1,184.4z"/>
	<path class="st2_css-24 targetColor" d="M293.2,198.1h-17.7c-0.4,0-0.7-0.3-0.7-0.7c0-0.4,0.3-0.7,0.7-0.7h17.7c0.4,0,0.7,0.3,0.7,0.7&#10;&#9;&#9;S293.6,198.1,293.2,198.1C293.2,198.1,293.2,198.1,293.2,198.1z" style="fill: rgb(236, 156, 82);"/>
	<path class="st0_css-24" d="M351.3,198.1h-52.4c-0.4,0-0.7-0.3-0.7-0.7c0-0.4,0.3-0.7,0.7-0.7h52.4c0.4,0,0.7,0.3,0.7,0.7&#10;&#9;&#9;C352,197.8,351.6,198.1,351.3,198.1z"/>
	<path class="st2_css-24 targetColor" d="M288.5,211.7h-17.6c-0.4,0-0.7-0.3-0.7-0.7c0-0.4,0.3-0.7,0.7-0.7h17.6c0.4,0,0.7,0.3,0.7,0.7&#10;&#9;&#9;S288.9,211.7,288.5,211.7C288.5,211.7,288.5,211.7,288.5,211.7z" style="fill: rgb(236, 156, 82);"/>
	<path class="st0_css-24" d="M323.7,211.7h-28.4c-0.4,0-0.7-0.3-0.7-0.7c0-0.4,0.3-0.7,0.7-0.7h28.4c0.4,0,0.7,0.3,0.7,0.7&#10;&#9;&#9;S324.1,211.7,323.7,211.7C323.7,211.7,323.7,211.7,323.7,211.7z"/>
	<path class="st2_css-24 targetColor" d="M363,211.7h-28.5c-0.4,0-0.7-0.3-0.7-0.7s0.3-0.7,0.7-0.7c0,0,0,0,0,0H363c0.4,0,0.7,0.3,0.7,0.7&#10;&#9;&#9;C363.7,211.4,363.4,211.7,363,211.7z" style="fill: rgb(236, 156, 82);"/>
	<path class="st2_css-24 targetColor" d="M276.9,225.4h-6.1c-0.4,0-0.7-0.3-0.7-0.7c0-0.4,0.3-0.7,0.7-0.7h6.1c0.4,0,0.7,0.3,0.7,0.7&#10;&#9;&#9;C277.6,225,277.3,225.3,276.9,225.4z" style="fill: rgb(236, 156, 82);"/>
	<path class="st0_css-24" d="M323.7,225.4h-36.4c-0.4,0-0.7-0.3-0.7-0.7c0-0.4,0.3-0.7,0.7-0.7h36.4c0.4,0,0.7,0.3,0.7,0.7&#10;&#9;&#9;C324.4,225,324,225.3,323.7,225.4L323.7,225.4z"/>
	<path class="st2_css-24 targetColor" d="M338,225.4h-10.1c-0.4,0-0.7-0.3-0.7-0.7s0.3-0.7,0.7-0.7c0,0,0,0,0,0H338c0.4,0,0.7,0.3,0.7,0.7&#10;&#9;&#9;C338.7,225,338.4,225.3,338,225.4z" style="fill: rgb(236, 156, 82);"/>
	<path class="st2_css-24 targetColor" d="M280.4,239h-9.5c-0.4,0-0.7-0.3-0.7-0.7c0-0.4,0.3-0.7,0.7-0.7h9.5c0.4,0,0.7,0.3,0.7,0.7S280.8,239,280.4,239&#10;&#9;&#9;C280.4,239,280.4,239,280.4,239z" style="fill: rgb(236, 156, 82);"/>
	<path class="st0_css-24" d="M332.6,239h-43.2c-0.4,0-0.7-0.3-0.7-0.7s0.3-0.7,0.7-0.7c0,0,0,0,0,0h43.2c0.4,0,0.7,0.3,0.7,0.7&#10;&#9;&#9;S333,239,332.6,239C332.6,239,332.6,239,332.6,239z"/>
	<path class="st2_css-24 targetColor" d="M354.5,239h-17.7c-0.4,0-0.7-0.3-0.7-0.7s0.3-0.7,0.7-0.7c0,0,0,0,0,0h17.7c0.4,0,0.7,0.3,0.7,0.7&#10;&#9;&#9;S354.9,239,354.5,239C354.5,239,354.5,239,354.5,239z" style="fill: rgb(236, 156, 82);"/>
	<path class="st2_css-24 targetColor" d="M276,252.6h-9.4c-0.4,0-0.7-0.3-0.7-0.7c0-0.4,0.3-0.7,0.7-0.7h9.4c0.4,0,0.7,0.3,0.7,0.7&#10;&#9;&#9;C276.7,252.3,276.4,252.6,276,252.6z" style="fill: rgb(236, 156, 82);"/>
	<path class="st0_css-24" d="M327.9,252.6H287c-0.4,0-0.7-0.3-0.7-0.7c0-0.4,0.3-0.7,0.7-0.7h40.9c0.4,0,0.7,0.3,0.7,0.7&#10;&#9;&#9;C328.6,252.3,328.3,252.6,327.9,252.6L327.9,252.6z"/>
	<path class="st2_css-24 targetColor" d="M284.3,266.3h-17.6c-0.4,0-0.7-0.3-0.7-0.7c0-0.4,0.3-0.7,0.7-0.7h17.6c0.4,0,0.7,0.3,0.7,0.7&#10;&#9;&#9;C285,266,284.7,266.3,284.3,266.3z" style="fill: rgb(236, 156, 82);"/>
	<path class="st2_css-24 targetColor" d="M382.3,198.1h-23.9c-0.4,0-0.7-0.3-0.7-0.7s0.3-0.7,0.7-0.7c0,0,0,0,0,0h23.9c0.4,0,0.7,0.3,0.7,0.7&#10;&#9;&#9;C383,197.8,382.6,198.1,382.3,198.1z" style="fill: rgb(236, 156, 82);"/>
	<path class="st2_css-24 targetColor" d="M346.6,157.2c-8,0-12.1,0-12.3-0.1c-0.4-0.1-0.6-0.5-0.5-0.9c0.1-0.3,0.4-0.5,0.8-0.5c1.3,0.1,29.2,0,39.8,0&#10;&#9;&#9;l0,0c0.4,0,0.7,0.3,0.7,0.7c0,0.4-0.3,0.7-0.7,0.7C362.6,157.2,353.3,157.2,346.6,157.2z" style="fill: rgb(236, 156, 82);"/>
	<path class="st2_css-24 targetColor" d="M350.4,252.6h-17.9c-0.4,0-0.7-0.3-0.7-0.7c0-0.4,0.3-0.7,0.7-0.7h17.9c0.4,0,0.7,0.3,0.7,0.7&#10;&#9;&#9;C351.1,252.3,350.8,252.6,350.4,252.6z" style="fill: rgb(236, 156, 82);"/>
	<path class="st0_css-24" d="M309.5,266.3h-13.1c-0.4,0-0.7-0.3-0.7-0.7c0-0.4,0.3-0.7,0.7-0.7h13.1c0.4,0,0.7,0.3,0.7,0.7&#10;&#9;&#9;C310.1,266,309.8,266.3,309.5,266.3z"/>
	<path class="st2_css-24 targetColor" d="M345.7,266.3h-31.2c-0.4,0-0.7-0.3-0.7-0.7c0-0.4,0.3-0.7,0.7-0.7h31.2c0.4,0,0.7,0.3,0.7,0.7&#10;&#9;&#9;C346.4,266,346.1,266.3,345.7,266.3z" style="fill: rgb(236, 156, 82);"/>
	<path class="st1_css-24" d="M292.9,151.2H104.6c-0.4,0-0.7-0.3-0.7-0.7c0-0.4,0.3-0.7,0.7-0.7c0,0,0,0,0,0h188.4c0.4,0,0.7,0.3,0.7,0.7&#10;&#9;&#9;C293.6,150.9,293.3,151.2,292.9,151.2z"/>
	<circle class="st0_css-24" cx="116.7" cy="143.1" r="3.1"/>
	<circle class="st0_css-24" cx="128.8" cy="143.1" r="3.1"/>
	<circle class="st0_css-24" cx="140.9" cy="143.1" r="3.1"/>
	<rect x="117.5" y="159.5" class="st0_css-24" width="120.8" height="49.7"/>
	<path class="st2_css-24 targetColor" d="M117.5,210c-0.2,0-0.4-0.1-0.5-0.2c-0.3-0.3-0.3-0.7,0-1c0,0,0,0,0,0l44.1-39.6c0.3-0.2,0.7-0.2,0.9,0&#10;&#9;&#9;l37.1,34.2c0.2,0.3,0.2,0.7-0.1,1c-0.2,0.2-0.6,0.2-0.8,0l-36.6-33.8L118,209.8C117.9,209.9,117.7,210,117.5,210z" style="fill: rgb(236, 156, 82);"/>
	<path class="st2_css-24 targetColor" d="M191.9,198.3c-0.2,0-0.4-0.1-0.5-0.2c-0.3-0.3-0.3-0.7,0-1c0,0,0,0,0,0l23.8-22c0.3-0.3,0.7-0.3,1,0l22.6,22.1&#10;&#9;&#9;c0.3,0.3,0.3,0.7,0,1s-0.7,0.3-1,0l-22.2-21.6l-23.2,21.6C192.3,198.2,192.1,198.3,191.9,198.3z" style="fill: rgb(236, 156, 82);"/>
	<path class="st2_css-24 targetColor" d="M194.2,180.9c-2.9,0-5.2-2.7-5.2-6s2.4-6,5.2-6s5.2,2.7,5.2,6S197.1,180.9,194.2,180.9z M194.2,170.3&#10;&#9;&#9;c-2.1,0-3.9,2-3.9,4.6s1.7,4.6,3.9,4.6s3.9-2,3.9-4.6S196.3,170.3,194.2,170.3L194.2,170.3z" style="fill: rgb(236, 156, 82);"/>
	<path class="st0_css-24" d="M237.4,219.6H117.5c-0.4,0-0.7-0.3-0.7-0.7c0-0.4,0.3-0.7,0.7-0.7h119.9c0.4,0,0.7,0.3,0.7,0.7&#10;&#9;&#9;C238.1,219.2,237.8,219.6,237.4,219.6C237.4,219.6,237.4,219.6,237.4,219.6z"/>
	<path class="st0_css-24" d="M237.4,229.4H117.5c-0.4,0-0.7-0.3-0.7-0.7c0-0.4,0.3-0.7,0.7-0.7c0,0,0,0,0,0h119.9c0.4,0,0.7,0.3,0.7,0.7&#10;&#9;&#9;C238.1,229,237.8,229.4,237.4,229.4C237.4,229.4,237.4,229.4,237.4,229.4z"/>
	<path class="st0_css-24" d="M220.8,239.1H117.5c-0.4,0-0.7-0.3-0.7-0.7c0-0.4,0.3-0.7,0.7-0.7c0,0,0,0,0,0h103.2c0.4,0,0.7,0.3,0.7,0.7&#10;&#9;&#9;C221.5,238.8,221.2,239.1,220.8,239.1z"/>
	<path class="st0_css-24" d="M151.7,270.9h-34.2c-0.4,0-0.7-0.3-0.7-0.7l0,0v-23.8c0-0.4,0.3-0.7,0.7-0.7h34.2c0.4,0,0.7,0.3,0.7,0.7v23.9&#10;&#9;&#9;C152.4,270.6,152.1,270.9,151.7,270.9z M118.2,269.5H151V247h-32.8L118.2,269.5z"/>
	<path class="st0_css-24" d="M194.6,270.9h-34.2c-0.4,0-0.7-0.3-0.7-0.7l0,0v-23.8c0-0.4,0.3-0.7,0.7-0.7h34.2c0.4,0,0.7,0.3,0.7,0.7v23.9&#10;&#9;&#9;C195.3,270.6,195,270.9,194.6,270.9z M161.1,269.5h32.8V247h-32.8V269.5z"/>
	<path class="st0_css-24" d="M237.4,270.9h-34.2c-0.4,0-0.7-0.3-0.7-0.7l0,0v-23.8c0-0.4,0.3-0.7,0.7-0.7h34.2c0.4,0,0.7,0.3,0.7,0.7v23.9&#10;&#9;&#9;C238.1,270.6,237.8,270.9,237.4,270.9z M204,269.5h32.8V247H204V269.5z"/>
</g>
<path id="floor_css-24" class="st3_css-24" d="M425.5,374.5h-351c-0.4,0-0.7-0.3-0.7-0.7c0-0.4,0.3-0.7,0.7-0.7h351c0.4,0,0.7,0.3,0.7,0.7&#10;&#9;C426.2,374.1,425.9,374.5,425.5,374.5z"/>
<g id="Screen_css-24">
	<rect x="293.8" y="236.3" class="st0_css-24" width="124.4" height="76.8"/>
	<path class="st3_css-24" d="M418.2,313.9H293.8c-0.4,0-0.7-0.3-0.7-0.7v0v-76.8c0-0.4,0.3-0.7,0.7-0.7l0,0h124.4c0.4,0,0.7,0.3,0.7,0.7&#10;&#9;&#9;c0,0,0,0,0,0v76.8C418.9,313.6,418.6,313.9,418.2,313.9L418.2,313.9z M294.5,312.5h123V237h-123V312.5z"/>
	<path class="st3_css-24" d="M418.2,250.5H294.6c-0.4,0-0.7-0.3-0.7-0.7c0-0.4,0.3-0.7,0.7-0.7h123.6c0.4,0,0.7,0.3,0.7,0.7&#10;&#9;&#9;C418.9,250.2,418.6,250.5,418.2,250.5z"/>
	<path class="st2_css-24 targetColor" d="M312.2,276.4v-3.2l10.8-7.6l2.1,4l-7.7,5.2l7.7,5.2L323,284L312.2,276.4z" style="fill: rgb(236, 156, 82);"/>
	<path class="st2_css-24 targetColor" d="M327,274.8c0-7.1,4.3-12.1,10.4-12.1c4.7-0.1,8.6,3.3,9.3,7.9l-4.6,1.5c-0.6-2.7-2.3-4.3-4.7-4.3&#10;&#9;&#9;c-3.3,0-5.4,2.8-5.4,7s2.2,7,5.4,7c2.5,0,4.2-1.7,4.8-4.8l4.6,1.3c-0.9,5.4-4.6,8.5-9.5,8.5C331.3,286.8,327,281.9,327,274.8z" style="fill: rgb(236, 156, 82);"/>
	<path class="st2_css-24 targetColor" d="M347.6,278.5l4.7-1c0.6,3.2,2.2,4.5,5.2,4.5c2.3,0,3.7-0.8,3.7-2.2s-1-2.1-5.7-3.3c-4.9-1.3-7.2-3.3-7.2-6.9&#10;&#9;&#9;c0-4,3.2-6.9,8.1-6.9c4.6,0,8.2,2.7,9.1,7l-4.7,1.2c-0.4-2.1-2.3-3.6-4.4-3.5c-1.9,0-3.2,0.9-3.2,2.1c0,1,0.9,1.6,5.4,2.8&#10;&#9;&#9;c4.9,1.3,7.5,3.5,7.5,7.4c0,4.3-3.4,7.1-8.6,7.1C351.9,286.8,348.3,283.8,347.6,278.5z" style="fill: rgb(236, 156, 82);"/>
	<path class="st2_css-24 targetColor" d="M366.8,278.5l4.7-1c0.6,3.2,2.2,4.5,5.2,4.5c2.3,0,3.7-0.8,3.7-2.2s-1-2.1-5.7-3.3s-7.2-3.3-7.2-6.9&#10;&#9;&#9;c0-4,3.2-6.9,8.1-6.9c4.6,0,8.2,2.7,9.1,7l-4.7,1.2c-0.4-2.1-2.3-3.6-4.4-3.5c-1.9,0-3.2,0.9-3.2,2.1c0,1,0.9,1.6,5.4,2.8&#10;&#9;&#9;c4.9,1.3,7.5,3.5,7.5,7.4c0,4.3-3.4,7.1-8.6,7.1C371.1,286.8,367.5,283.8,366.8,278.5z" style="fill: rgb(236, 156, 82);"/>
	<path class="st2_css-24 targetColor" d="M386.9,280l7.7-5.2l-7.7-5.2l2.1-4l10.8,7.6v3.2L389,284L386.9,280z" style="fill: rgb(236, 156, 82);"/>
	<rect x="82" y="198" class="st0_css-24" width="46.7" height="41.7"/>
	<path class="st3_css-24" d="M128.7,240.4H82c-0.4,0-0.7-0.3-0.7-0.7V198c0-0.4,0.3-0.7,0.7-0.7h46.7c0.4,0,0.7,0.3,0.7,0.7v41.7&#10;&#9;&#9;C129.4,240.1,129.1,240.4,128.7,240.4z M82.7,239H128v-40.3H82.7L82.7,239z"/>
	<path class="st3_css-24" d="M128.7,204.3H82c-0.4,0-0.7-0.3-0.7-0.7c0-0.4,0.3-0.7,0.7-0.7h46.7c0.4,0,0.7,0.3,0.7,0.7&#10;&#9;&#9;C129.4,204,129.1,204.3,128.7,204.3L128.7,204.3z"/>
	<path class="st2_css-24 targetColor" d="M88.7,221.7v-1.8l8.3-5l1.4,2.3l-6.2,3.6l6.2,3.6l-1.4,2.3L88.7,221.7z" style="fill: rgb(236, 156, 82);"/>
	<path class="st2_css-24 targetColor" d="M99.5,228.6l9.9-16.8l1.9,1.2l-9.8,16.8L99.5,228.6z" style="fill: rgb(236, 156, 82);"/>
	<path class="st2_css-24 targetColor" d="M112.4,224.4l6.2-3.6l-6.2-3.6l1.4-2.3l8.3,5v1.8l-8.3,5L112.4,224.4z" style="fill: rgb(236, 156, 82);"/>
</g>
</svg>