<svg id="_0182_css" xmlns="http://www.w3.org/2000/svg" xmlns:xlink="http://www.w3.org/1999/xlink" viewBox="0 0 500 500" data-imageid="css-13" imageName="CSS" class="illustrations_image" style="width: 158px;"><defs><style>.cls-1_css-13{fill:url(#linear-gradient);}.cls-1_css-13,.cls-2_css-13,.cls-3_css-13,.cls-4_css-13,.cls-5_css-13,.cls-6_css-13,.cls-7_css-13,.cls-8_css-13,.cls-9_css-13,.cls-10_css-13,.cls-11_css-13,.cls-12_css-13,.cls-13_css-13,.cls-14_css-13,.cls-15_css-13,.cls-16_css-13,.cls-17_css-13,.cls-18_css-13,.cls-19_css-13,.cls-20_css-13,.cls-21_css-13,.cls-22_css-13,.cls-23_css-13,.cls-24_css-13{stroke-width:0px;}.cls-2_css-13{fill:url(#linear-gradient-11-css-13);}.cls-3_css-13{fill:url(#linear-gradient-12-css-13);}.cls-4_css-13{fill:url(#linear-gradient-13-css-13);}.cls-5_css-13{fill:url(#linear-gradient-10-css-13);}.cls-6_css-13{fill:url(#linear-gradient-17-css-13);}.cls-7_css-13{fill:url(#linear-gradient-16-css-13);}.cls-8_css-13{fill:url(#linear-gradient-15-css-13);}.cls-9_css-13{fill:url(#linear-gradient-18-css-13);}.cls-10_css-13{fill:url(#linear-gradient-14-css-13);}.cls-11_css-13{opacity:.13;}.cls-11_css-13,.cls-20_css-13{isolation:isolate;}.cls-11_css-13,.cls-20_css-13,.cls-24_css-13{fill:#68e1fd;}.cls-25_css-13,.cls-20_css-13{opacity:.24;}.cls-26_css-13{opacity:.52;}.cls-12_css-13{fill:url(#linear-gradient-4-css-13);}.cls-13_css-13{fill:url(#linear-gradient-2-css-13);}.cls-14_css-13{fill:url(#linear-gradient-3-css-13);}.cls-15_css-13{fill:url(#linear-gradient-8-css-13);}.cls-16_css-13{fill:url(#linear-gradient-9-css-13);}.cls-17_css-13{fill:url(#linear-gradient-7-css-13);}.cls-18_css-13{fill:url(#linear-gradient-5-css-13);}.cls-19_css-13{fill:url(#linear-gradient-6-css-13);}.cls-21_css-13{fill:#231f20;}.cls-22_css-13{fill:#fff;}.cls-23_css-13{fill:#ffaa71;}</style><linearGradient id="linear-gradient-css-13" x1="719.14" y1="2989.33" x2="720.32" y2="3091.94" gradientTransform="translate(-471 3371.95) scale(1 -1)" gradientUnits="userSpaceOnUse"><stop offset="0" stop-color="#231f20" stop-opacity="0"/><stop offset="1" stop-color="#231f20"/></linearGradient><linearGradient id="linear-gradient-2-css-13" x1="723" y1="3283.6" x2="724.36" y2="2780.97" gradientTransform="translate(-472.02 3369.35) scale(1 -1)" xlink:href="#linear-gradient-css-13"/><linearGradient id="linear-gradient-3-css-13" x1="720.1" y1="3054.48" x2="720.19" y2="3017.91" xlink:href="#linear-gradient-css-13"/><linearGradient id="linear-gradient-4-css-13" x1="795.74" y1="3317.18" x2="803.27" y2="3299.89" gradientTransform="translate(-472.02 3369.35) scale(1 -1)" xlink:href="#linear-gradient-css-13"/><linearGradient id="linear-gradient-5-css-13" x1="799.76" y1="3316.25" x2="805.3" y2="3316.25" gradientTransform="translate(-472.02 3369.35) scale(1 -1)" xlink:href="#linear-gradient-css-13"/><linearGradient id="linear-gradient-6-css-13" x1="564.54" y1="3433.98" x2="522.69" y2="3412.48" gradientTransform="translate(-754.05 3396.91) rotate(9.05) scale(1 -1)" xlink:href="#linear-gradient-css-13"/><linearGradient id="linear-gradient-7-css-13" x1="805.31" y1="3224.62" x2="829.98" y2="3234.91" gradientTransform="translate(-472.02 3369.35) scale(1 -1)" xlink:href="#linear-gradient-css-13"/><linearGradient id="linear-gradient-8-css-13" x1="783.17" y1="3224.1" x2="831.56" y2="3247.83" gradientTransform="translate(-472.02 3369.35) scale(1 -1)" xlink:href="#linear-gradient-css-13"/><linearGradient id="linear-gradient-9-css-13" x1="817.27" y1="3226.87" x2="780.33" y2="3247.2" gradientTransform="translate(-472.02 3369.35) scale(1 -1)" xlink:href="#linear-gradient-css-13"/><linearGradient id="linear-gradient-10-css-13" x1="789.93" y1="3244.61" x2="759.66" y2="3247.77" gradientTransform="translate(-472.02 3369.35) scale(1 -1)" xlink:href="#linear-gradient-css-13"/><linearGradient id="linear-gradient-11-css-13" x1="787.79" y1="3257.39" x2="762.94" y2="3263.16" gradientTransform="translate(-472.02 3369.35) scale(1 -1)" xlink:href="#linear-gradient-css-13"/><linearGradient id="linear-gradient-12-css-13" x1="791.84" y1="3274.13" x2="749.13" y2="3260.26" gradientTransform="translate(-472.02 3369.35) scale(1 -1)" xlink:href="#linear-gradient-css-13"/><linearGradient id="linear-gradient-13-css-13" x1="810.48" y1="3262.66" x2="787.41" y2="3252.29" gradientTransform="translate(-472.02 3369.35) scale(1 -1)" xlink:href="#linear-gradient-css-13"/><linearGradient id="linear-gradient-14-css-13" x1="799.13" y1="3256.3" x2="798.72" y2="3250.16" gradientTransform="translate(-472.02 3369.35) scale(1 -1)" xlink:href="#linear-gradient-css-13"/><linearGradient id="linear-gradient-15-css-13" x1="796.13" y1="3294.12" x2="826.1" y2="3330.64" gradientTransform="translate(-472.02 3369.35) scale(1 -1)" xlink:href="#linear-gradient-css-13"/><linearGradient id="linear-gradient-16-css-13" x1="817.62" y1="3245.92" x2="792.54" y2="3321.37" gradientTransform="translate(-472.02 3369.35) scale(1 -1)" xlink:href="#linear-gradient-css-13"/><linearGradient id="linear-gradient-17-css-13" x1="823.13" y1="3247.81" x2="800.76" y2="3315.11" gradientTransform="translate(-472.02 3369.35) scale(1 -1)" xlink:href="#linear-gradient-css-13"/><linearGradient id="linear-gradient-18-css-13" x1="1699.3" y1="2328.44" x2="1705.01" y2="2329.23" gradientTransform="translate(-81.13 2919.87) rotate(-28.08) scale(1 -1)" xlink:href="#linear-gradient-css-13"/></defs><path id="background_css-13" class="cls-20_css-13 targetColor" d="M145.41,47.16c-15.04,14.49-24.12,33.95-31.64,53.43-7.52,19.48-14.31,39.63-26.67,56.45-17.15,23.42-43.83,38.61-60.64,62.29-19.02,26.81-23.17,62.85-13.47,94.26,9.7,31.41,32.37,58.06,60.35,75.33,56.55,34.91,127.7,31.22,194.18,30.19,40.42-.63,81.6.06,120.41-11.33,38.81-11.39,75.8-37.29,89.15-75.48,15.76-45.09-5.43-96.29-39.22-130.04-17.1-17.08-37.78-31.62-48.79-53.15-7.76-15.19-9.96-32.6-16.27-48.46-12.44-31.29-40.67-54.71-72.36-66.1-27.92-10.04-106.44-34.23-155.05,12.6Z" style="fill: rgb(236, 156, 82);"/><g id="monitor_css-13"><path class="cls-11_css-13 targetColor" d="M137.44,384.36c8.53,6.11,19.61,7.03,30.08,7.74,65.28,4.36,131.41,7.88,195.65-4.53,4.75-.92,10.36-2.71,11.56-7.4-13.35-3.64-27.44-2.96-41.27-2.63-34.71.84-69.43-.65-103.94-4.45-14.95-1.64-30.53-2.35-45.53-1.27-8.22.63-16.36,2.05-24.3,4.25-2.66.72-21.12,9.08-22.23,8.29Z" style="fill: rgb(236, 156, 82);"/><polygon class="cls-24_css-13 targetColor" points="298.84 376.45 197.36 376.45 215.07 341.38 285.41 341.38 298.84 376.45" style="fill: rgb(236, 156, 82);"/><polygon class="cls-1_css-13" points="296.79 371.35 199.74 371.35 215.07 341.38 285.41 341.38 296.79 371.35"/><rect class="cls-24_css-13 targetColor" x="189.06" y="373.92" width="119.15" height="8.5" style="fill: rgb(236, 156, 82);"/><path class="cls-24_css-13 targetColor" d="M397.94,138.59v200.58c0,5.17-4.2,9.35-9.37,9.34,0,0,0,0-.01,0H114.15c-5.17.02-9.37-4.15-9.39-9.32,0,0,0-.01,0-.02v-200.58c0-5.18,4.21-9.38,9.39-9.38h274.4c5.18,0,9.37,4.2,9.38,9.38Z" style="fill: rgb(236, 156, 82);"/><path class="cls-13_css-13" d="M397.94,138.59v167.73H104.77v-167.73c0-5.18,4.21-9.38,9.39-9.38h274.4c5.18,0,9.37,4.2,9.38,9.38Z"/><rect class="cls-22_css-13" x="115.52" y="141.03" width="272.88" height="158.01"/><circle class="cls-14_css-13" cx="249.12" cy="327.07" r="6.47"/><g class="cls-26_css-13"><rect class="cls-24_css-13 targetColor" x="150.47" y="153.93" width="60.13" height="4.41" style="fill: rgb(236, 156, 82);"/><rect class="cls-24_css-13 targetColor" x="150.47" y="162.47" width="36.7" height="4.15" style="fill: rgb(236, 156, 82);"/><rect class="cls-24_css-13 targetColor" x="201.98" y="162.47" width="115.49" height="4.17" style="fill: rgb(236, 156, 82);"/><rect class="cls-24_css-13 targetColor" x="169.56" y="171.02" width="50.46" height="4.36" style="fill: rgb(236, 156, 82);"/><rect class="cls-24_css-13 targetColor" x="185.75" y="179.55" width="60.13" height="4.41" style="fill: rgb(236, 156, 82);"/><rect class="cls-24_css-13 targetColor" x="249.81" y="179.55" width="50.4" height="4.9" style="fill: rgb(236, 156, 82);"/><rect class="cls-24_css-13 targetColor" x="185.67" y="188.09" width="46.43" height="4.15" style="fill: rgb(236, 156, 82);"/><rect class="cls-24_css-13 targetColor" x="236.56" y="188.09" width="95.8" height="4.59" style="fill: rgb(236, 156, 82);"/><rect class="cls-24_css-13 targetColor" x="150.47" y="199.63" width="60.13" height="4.41" style="fill: rgb(236, 156, 82);"/><rect class="cls-24_css-13 targetColor" x="150.47" y="208.16" width="36.7" height="4.15" style="fill: rgb(236, 156, 82);"/><rect class="cls-24_css-13 targetColor" x="201.98" y="208.16" width="115.49" height="4.17" style="fill: rgb(236, 156, 82);"/><rect class="cls-24_css-13 targetColor" x="169.56" y="216.7" width="50.46" height="4.36" style="fill: rgb(236, 156, 82);"/><rect class="cls-24_css-13 targetColor" x="185.75" y="225.25" width="60.13" height="4.41" style="fill: rgb(236, 156, 82);"/><rect class="cls-24_css-13 targetColor" x="249.81" y="225.25" width="50.4" height="4.9" style="fill: rgb(236, 156, 82);"/><rect class="cls-24_css-13 targetColor" x="185.67" y="233.79" width="46.43" height="4.15" style="fill: rgb(236, 156, 82);"/><rect class="cls-24_css-13 targetColor" x="236.56" y="233.79" width="95.8" height="4.59" style="fill: rgb(236, 156, 82);"/><rect class="cls-24_css-13 targetColor" x="150.47" y="245.33" width="60.13" height="4.41" style="fill: rgb(236, 156, 82);"/><rect class="cls-24_css-13 targetColor" x="150.47" y="253.86" width="36.7" height="4.15" style="fill: rgb(236, 156, 82);"/><rect class="cls-24_css-13 targetColor" x="201.98" y="253.86" width="115.49" height="4.17" style="fill: rgb(236, 156, 82);"/><rect class="cls-24_css-13 targetColor" x="169.56" y="262.4" width="50.46" height="4.36" style="fill: rgb(236, 156, 82);"/><rect class="cls-24_css-13 targetColor" x="185.75" y="270.93" width="60.13" height="4.41" style="fill: rgb(236, 156, 82);"/><rect class="cls-24_css-13 targetColor" x="249.81" y="270.93" width="50.4" height="4.9" style="fill: rgb(236, 156, 82);"/><rect class="cls-24_css-13 targetColor" x="185.67" y="279.49" width="46.43" height="4.15" style="fill: rgb(236, 156, 82);"/><rect class="cls-24_css-13 targetColor" x="236.56" y="279.49" width="95.8" height="4.59" style="fill: rgb(236, 156, 82);"/></g></g><g id="css_css-13"><g class="cls-25_css-13"><rect class="cls-24_css-13 targetColor" x="84.24" y="83.89" width="162.57" height="74.97" rx="11.51" ry="11.51" style="fill: rgb(236, 156, 82);"/><polygon class="cls-24_css-13 targetColor" points="246.81 174.3 246.81 147.06 223.79 147.06 246.81 174.3" style="fill: rgb(236, 156, 82);"/></g><rect class="cls-22_css-13" x="90.74" y="77.64" width="150.65" height="69.47" rx="10.66" ry="10.66"/><polygon class="cls-22_css-13" points="241.39 161.42 241.39 136.18 220.05 136.18 241.39 161.42"/><path class="cls-24_css-13 targetColor" d="M115.3,112.81l15.94-8.18v2.37l-13.43,6.69v.07l13.43,6.73v2.37l-15.94-8.21v-1.85Z" style="fill: rgb(236, 156, 82);"/><path class="cls-24_css-13 targetColor" d="M152.31,122.11c-1.94.8-4.02,1.17-6.12,1.1-6.52,0-11.43-4.12-11.43-11.71s4.88-12.16,12.09-12.16c1.89-.08,3.77.27,5.5,1.03l-.7,2.44c-1.47-.66-3.06-.99-4.67-.96-5.43,0-9.06,3.48-9.06,9.55,0,5.67,3.26,9.3,8.89,9.3,1.68.03,3.34-.3,4.88-.96l.62,2.37Z" style="fill: rgb(236, 156, 82);"/><path class="cls-24_css-13 targetColor" d="M155.65,119.22c1.62.97,3.47,1.49,5.36,1.51,3.06,0,4.88-1.61,4.88-3.95,0-2.16-1.23-3.4-4.36-4.6-3.78-1.34-6.11-3.3-6.11-6.56,0-3.61,2.99-6.27,7.49-6.27,1.77-.06,3.53.33,5.12,1.14l-.82,2.44c-1.35-.73-2.86-1.11-4.4-1.1-3.16,0-4.36,1.89-4.36,3.48,0,2.16,1.39,3.23,4.6,4.46,3.91,1.51,5.9,3.4,5.9,6.8,0,3.57-2.64,6.66-8.11,6.66-2.06.02-4.1-.49-5.9-1.48l.72-2.54Z" style="fill: rgb(236, 156, 82);"/><path class="cls-24_css-13 targetColor" d="M172.6,119.22c1.62.97,3.47,1.49,5.35,1.51,3.06,0,4.84-1.61,4.84-3.95,0-2.16-1.23-3.4-4.36-4.6-3.78-1.34-6.11-3.3-6.11-6.56,0-3.61,2.99-6.27,7.49-6.27,1.78-.08,3.56.3,5.16,1.09l-.83,2.44c-1.35-.73-2.86-1.11-4.39-1.1-3.16,0-4.36,1.89-4.36,3.48,0,2.16,1.39,3.23,4.6,4.46,3.92,1.51,5.91,3.4,5.91,6.8,0,3.57-2.65,6.66-8.11,6.66-2.06.02-4.1-.48-5.91-1.48l.72-2.5Z" style="fill: rgb(236, 156, 82);"/><path class="cls-24_css-13 targetColor" d="M205.55,114.69l-15.93,8.18v-2.37l13.53-6.73v-.08l-13.53-6.73v-2.33l15.93,8.18v1.89Z" style="fill: rgb(236, 156, 82);"/></g><g id="character_css-13"><path class="cls-23_css-13" d="M343.29,93.23s-.7,16.38-1.23,17.08-7.1.61-7.1.61l.62-6.7,2.96-9.28,4.75-1.71Z"/><path class="cls-21_css-13" d="M334.53,49.08c-.76-1.12-1.84-2-3.09-2.52-2.44-1.18-5.2-1.5-7.85-.91-2.64.61-4.91,2.28-6.27,4.63-1.36,2.43-1.56,5.44-3.32,7.6.23.48.68.82,1.21.89l-.33.79c.23-.08.49.04.57.27.04.1.04.21,0,.3h1.97c-.07.29.17.56.38.77l2.9,2.79c.27.32.64.55,1.05.65.51-.53,1.73,1.39,1.89.7s-.86-3.85-.2-4.13l5.58-2.29c1.29-.53,3.14-1,3.97-2.23.61-.91.7-2.09,1.31-3.07.82-1.38,1.16-2.7.23-4.23Z"/><path class="cls-12_css-13" d="M334.53,49.08c-.76-1.12-1.84-2-3.09-2.52-2.44-1.18-5.2-1.5-7.85-.91-2.64.61-4.91,2.28-6.27,4.63-1.36,2.43-1.56,5.44-3.32,7.6.23.48.68.82,1.21.89l-.33.79c.23-.08.49.04.57.27.04.1.04.21,0,.3h1.97c-.07.29.17.56.38.77l2.9,2.79c.27.32.64.55,1.05.65.51-.53,1.73.88,1.89.16s-.86-3.35-.2-3.62l5.58-2.29c1.29-.53,3.14-1,3.97-2.23.61-.91.7-2.09,1.31-3.07.82-1.35,1.16-2.66.23-4.2Z"/><path class="cls-18_css-13" d="M329.33,52.6c.41-.89,1.1-1.63,1.97-2.09.58-.29,1.28-.17,1.72.29.22.37.31.8.26,1.23v1.87c-.91.24-1.43,1.2-2.26,1.64-.56.26-1.17.37-1.78.31-.5,0-1.81-.31-1.44-.96.21-.36.6-.7.83-1.03s.47-.84.7-1.25Z"/><path class="cls-24_css-13 targetColor" d="M338.95,76.65c5.03,4.44,5.5,11.19,5.91,14.28.51,3.83-8.62,6.27-7.45,1.83.6-2.29-4.07-18.09-1.03-17.75,1.05.12,1.03.28,2.57,1.64Z" style="fill: rgb(236, 156, 82);"/><path class="cls-19_css-13" d="M337.73,80.73c4.27,5.18,3.67,11.92,3.6,15.03,0,3.88-.64,7.73-1.86,11.41-1.24,3.71-3.57,6.95-6.68,9.31-.24.2-.52.34-.83.41-.67-.01-1.31-.34-1.71-.88-.76-.67-1.34-1.51-1.69-2.46-.7-2.37,1.39-4.52,2.75-6.59,2.79-4.36,2.59-9.97,1.87-15.11-.32-2.35-.7-13.94,2.27-13.12,1.02.25.98.4,2.28,1.99Z"/><path class="cls-17_css-13" d="M337.73,152.93c-.08,1.39-.15,2.96.7,4.08,2.22-1.33,2.9-4.18,3.18-6.79.56-5.11.42-10.27-.42-15.33-.09-.82-.33-1.61-.7-2.34-.72-1.05-1.73-1.86-2.91-2.32-.71-.39-1.5-.6-2.31-.61-.83.01-1.55.54-1.82,1.32-.07.5-.01,1,.16,1.47.49,1.68.84,3.43,1.74,4.94.8,1.26,1.39,2.63,1.74,4.08.82,3.77,1.03,7.65.63,11.49Z"/><path class="cls-15_css-13" d="M307.29,134.31c1.64,1.28,3.81,1.67,5.88,1.82.77.05,1.53.07,2.3.1,2.22.09,4.01,1.87,4.11,4.09.07,1.59.1,3.18.1,4.77,0,3.81-.13,7.79,1.54,11.21.35.7.91,1.48,1.71,1.48.43-.02.83-.19,1.16-.47,1.02-.85,1.72-2.02,2.01-3.32.28-1.29.39-2.61.33-3.93,0-5.05-.44-10.19-2.4-14.84-.21-.53-.47-1.04-.77-1.53-1.29-1.86-3.24-3.16-5.46-3.63-2.2-.46-4.45-.58-6.68-.35-1.07.07-2.13.16-3.19.21-.59,0-2.79-.3-3.23,0-.86.73,1.96,3.9,2.59,4.38Z"/><path class="cls-21_css-13" d="M351.54,131.81c.23,5.01-6.18,29.97-7.57,30.88-1.16.79-3.25-.26-4.45-1-.23-.17-.4-.3-.56-.4-.93-.7.56-19.86.56-19.86,0,0,.47-6.5-4.08-10.29-5.08-4.22-10.89-8.1-10.5-11.09.04-.45.23-.87.54-1.2,2.56-3.05,17.1-.7,20.16,1.53l.17.1s0,.04,0,.06c.07.07.17.2.33.37.23.3.6.73,1,1.23,1.08,1.49,2.05,3.05,2.89,4.68.82,1.55,1.34,3.24,1.52,4.98Z"/><path class="cls-16_css-13" d="M350.05,126.79c0,1.3-10-.86-11.23,1.3-1.23,2.16,1.49,1.3,2.46,6.08s0,24.54-1.07,26.63c-.16.34-.4.63-.7.86-.23-.17-.4-.3-.56-.4-.93-.7.56-19.86.56-19.86,0,0,.47-6.5-4.08-10.29,0,0,.7-4.31-2.46-6.77-2.98-2.32-7.57-4.12-8.04-4.31.37-.13,6.68-2.09,11.76-1.86,3.09.13,6.13.88,8.94,2.2l.17.1s0,.04,0,.06c.07.07.17.2.33.37.23.3.6.73,1,1.23,1.25,1.63,2.92,3.89,2.92,4.68Z"/><path class="cls-21_css-13" d="M331.68,160.76c-.52,1.51-1.38,2.87-2.52,3.99-1.23,1.03-3.09,1.46-4.42.63-1.56-.97-1.86-3.02-2.03-4.82-.53-6.27-.56-17.1-1.09-23.35-.06-.7-.38-1.35-.9-1.83h0c-.79-.62-1.69-1.1-2.66-1.39-1.89-.63-4.25-1.13-6.01-2.29-.63-.39-1.19-.9-1.63-1.49-3.12-4.29-4.28-12.98-1.69-17.14.7-1.28,1.97-2.15,3.42-2.33,4.52-.56,12.66,2.4,14.55,6.48.6,1.32.86,2.79,1.73,3.95,1.49,2.09,4.45,2.72,5.91,4.84.66,1.11,1.07,2.36,1.2,3.65,1.64,10.52.31,21.29-3.85,31.08Z"/><path class="cls-5_css-13" d="M321.57,133.9c.28.62.25,1.33-.06,1.92-.26-.13-.5-.3-.77-.43h0c-.86-.46-1.76-.93-2.66-1.39-1.26-.56-2.59-1.09-3.92-1.56-.7-.23-1.39-.47-2.09-.73-.63-.39-1.19-.9-1.63-1.49-3.12-4.29-4.28-12.98-1.69-17.14,2.53.17,4.98,1.33,7.28,2.43,1.36.7,2.73,1.3,4.01,2.09.86.5,2.63,1.23,1.26,2.2-1.85,1.3-5.41-1-6.84,1.09-.26.48-.4,1.02-.4,1.56-.07.79-.13,1.62-.2,2.46-.09.73-.04,1.47.13,2.19.41.91,1.08,1.68,1.93,2.2,1.49,1.06,3.12,1.89,4.45,3.09.5.42.9.94,1.19,1.53Z"/><path class="cls-21_css-13" d="M324.53,172.78c.56.54,1.18,1.01,1.85,1.39l2.91,1.81c1.05.65,2.43,1.29,3.41.56s.82-2.01.47-3.06c-.52-1.55-1.42-2.95-2.63-4.06-.26-.19-.47-.43-.63-.7-.11-.3-.16-.62-.13-.94v-2.99c0-3.02-4.18-2.48-5.48-.7-1.6,2.18-1.64,6.67.24,8.68Z"/><path class="cls-21_css-13" d="M339.08,169.06c.72,1.11,1.77,1.97,3,2.45,1.18.57,2.41,1.02,3.68,1.36.52.22,1.12.17,1.6-.13.2-.22.34-.5.38-.79.43-1.92-.12-3.92-1.46-5.36-.6-.51-1.14-1.1-1.61-1.74-.57-1-.45-2.22-.55-3.36-.22-2.5-4.18-1.85-5.17-.23s-.73,6.22.12,7.8Z"/><path class="cls-24_css-13 targetColor" d="M307.79,110.67c-.07,1.02.17,2.03.7,2.91.54.61,1.22,1.09,1.97,1.39,3.7,1.85,7.46,3.74,11.52,4.5,4.06.77,8.55.29,11.85-2.21,1.2-.84,2.1-2.04,2.59-3.42.53-1.68.17-3.48.08-5.25-.23-4.38,1.23-8.64,2.25-12.91,1.02-4.27,1.56-8.95-.37-12.89-1.53-3.1,1.76-5.7-1.14-7.6-4.06-2.66-8.84-3.95-15.49-2.96-2.58.38-11.38,4-12.34,6.43s1.83,4.88,1.51,7.49c-1,8.06-3.14,16.42-3.14,24.51Z" style="fill: rgb(236, 156, 82);"/><path class="cls-2_css-13" d="M313.06,111.4c.08-.15.19-.27.33-.36.21-.08.43-.1.65-.06,1.27.11,2.55.11,3.82,0,.4,0,.8-.11,1.15-.31.35-.21.52-.64.39-1.03-.17-.38-.63-.5-1.04-.59-1.4-.33-2.76-.82-4.04-1.48-1.11-.67-2.27-1.24-3.48-1.69-.97-.29-2.3-.18-2.64.78-.07.23-.1.46-.1.7l-.15,2.9c-.14,1.07,0,2.17.4,3.17.7,1.3,2.13,1.94,3.48,2.5.4.21.86.27,1.31.19-.64-1.53-1.09-3.16-.09-4.72Z"/><path class="cls-3_css-13" d="M313.21,96.49c0-1.22,1.09-2.09,1.89-3.05,1.48-1.74,2.23-3.99,2.09-6.27-.08-1.3-.93-2.89-2.21-2.62-.3.08-.58.22-.83.41-2.9,2.01-5.02,4.97-5.97,8.36-.38,1.2-.47,2.47-.25,3.71.47,1.63,1.43,3.09,2.73,4.18,2.46,2.33,5.41,4.09,8.62,5.16.86.28,3.48,1.14,2.88-.5-.33-.92-9.01-8.22-8.95-9.39Z"/><path class="cls-23_css-13" d="M305.73,90.35s-2.79,7.79-2.96,12.16,14.18,7.16,14.18,7.16l2.32-3.29s-8.01-4.34-8.79-6.22,1.71-7.72,1.71-7.72l-6.47-2.1Z"/><path class="cls-4_css-13" d="M315.51,110.71l16.82.79.84.26s-1.64,5.58-4.62,5.38-13.03-6.43-13.03-6.43Z"/><path class="cls-24_css-13 targetColor" d="M322.97,113.73l8.2.05s-1.73,2.86-3.17,3.02l-5.03-3.07Z" style="fill: rgb(236, 156, 82);"/><path class="cls-10_css-13" d="M322.97,113.73l8.2.05s-1.73,2.86-3.17,3.02l-5.03-3.07Z"/><path class="cls-23_css-13" d="M325.16,80.54c1.55.82,3.45.65,4.83-.43.64-.56,1.06-1.33,1.19-2.17.36-2.38-1.65-4.59-1.48-6.97.09-1.19.7-2.41.29-3.53-.36-.95-5.7-2.51-5.9-1.51-1.37,7.07-4.78,11.7,1.06,14.62Z"/><path class="cls-8_css-13" d="M324.86,66.24s-.56,10.41,5.05,9.7c0,0,.88-.11.61-1.39s-1.35-2.6-1.28-3.74-4.38-4.57-4.38-4.57Z"/><path class="cls-23_css-13" d="M334.47,56.08c0,.26.04.51.09.76.25.94.44,1.89.57,2.86.16,1.82.2,3.66.12,5.49.01,1.57-.3,3.13-.91,4.59-.67,1.45-2.03,2.46-3.62,2.68-1.44.13-2.79-.66-3.97-1.53-1.81-1.39-6.39-6.27-4.36-5.21,2.85,1.51-1.91-5.07.08-6.38.54-.36,1.17-.36,1.71-.7.67-.47,1.27-1.03,1.78-1.67,1.09-1.23,2.09-2.65,3.71-3.25,1.24-.47,2.62-.36,3.77.31.3.16.56.4.74.7.2.42.3.89.29,1.36Z"/><path class="cls-23_css-13" d="M328.96,109.42c.56,1.02.76,2.19.57,3.34,0,.22-.07.44-.17.63-.17.24-.42.4-.7.47-2,.7-4.01-1.09-6.13-1.19-.53,0-1.06.06-1.58,0-.67-.14-1.3-.41-1.86-.81-.61-.38-1.21-.78-1.79-1.2-1.39-1.02-.8-2.84.36-3.82,1.05-.88,1.89-.73,3.08-.31,2.5.88,6.61.44,8.21,2.88Z"/><path class="cls-23_css-13" d="M341.57,109.77c.21.13.37.31.49.53.07.22.09.46.06.7-.16,1.37-.66,2.67-1.46,3.79-.31.51-.81.88-1.39,1.02-1.02.15-1.78-.93-2.75-1.32s-2.25-.07-3.15-.7c-.68-.57-1.07-1.42-1.05-2.31-.13-1.74,2.61-2.91,4.08-3.27,1.76-.4,3.82.55,5.19,1.56Z"/><path class="cls-24_css-13 targetColor" d="M337.22,104.5c.41-.86.88-1.83,1.77-2.19.37-.13.75-.2,1.14-.21,8.69-.65,17.42-.36,26.05.86.07.57-.13,1.14-.54,1.54-4.12,5.39-8.25,10.8-13.02,15.63-.28.32-.62.59-1,.78-.52.18-1.08.23-1.62.13-1.39-.14-2.79-.38-4.18-.58-5.47-.82-10.99-1.25-16.52-1.27-1.28.06-2.57-.06-3.82-.37-.9-.31-1.77-.72-2.58-1.22-2.94-1.54-5.7-3.39-8.25-5.52-.2-.17-.4-.4-.36-.66s.3-.4.54-.49c2.71-1.07,4.02,1.12,6.53,2.6,1.53.91,4.12,2.83,5.83,3.33,1.54.45,3.44-2.36,4.35-3.48,2.28-2.69,4.2-5.67,5.69-8.87Z" style="fill: rgb(236, 156, 82);"/><path class="cls-7_css-13" d="M365.62,104.51c-.46.59-.93,1.23-1.39,1.83-3.57,4.84-7.45,9.44-11.62,13.78-.28.32-.62.59-1,.79-.53.16-1.08.21-1.63.13-1.39-.13-2.79-.4-4.18-.59-5.18-.8-10.4-1.21-15.64-1.23h-2.43c-.76,0-1.52-.12-2.26-.33-.91-.31-1.78-.72-2.59-1.23-1.89-1.04-3.73-2.17-5.51-3.39-.96-.65-1.87-1.36-2.73-2.13-.22-.15-.36-.4-.36-.66,0-.27.3-.4.53-.5,2.73-1.06,3.53.7,6.01,2.2,1.53.9,4.66,3.24,6.36,3.74,1.55.46,3.44-2.35,4.34-3.45,2.29-2.7,4.21-5.69,5.72-8.89.4-.86.86-1.83,1.76-2.2.36-.14.74-.22,1.13-.23,8.69-.65,17.43-.38,26.06.8.06.58-.14,1.15-.56,1.56Z"/><path class="cls-6_css-13" d="M365.62,104.5c-3.65,4.78-8.76,11.33-13.01,15.62-.28.32-.62.59-1,.79-.53.16-1.08.21-1.63.13-1.39-.13-2.79-.4-4.18-.59-5.18-.8-10.4-1.21-15.64-1.23.73-.64,1.37-1.36,1.92-2.15,2.27-2.71,4.18-5.7,5.68-8.9.4-.86,2.25-3.67,3.15-4.04.37-.12.75-.18,1.13-.2,7.86-.6,15.76-.41,23.58.56Z"/><path class="cls-23_css-13" d="M321.57,63.96c-.15,0-.31.05-.44.13-.2.15-.3.4-.29.65.02.24.1.48.22.7.17.32.37.63.6.91.4.56,1.08.84,1.76.74.59-.19.94-.79.81-1.39-.44-1.07-1.5-1.76-2.66-1.73Z"/><path class="cls-9_css-13" d="M322.69,65.45c-.18-.11-.17-.38-.29-.56s-.44-.22-.77-.2c-.03.02-.05.06-.04.1-.02.49.17.96.53,1.29.12.13.27.23.43.3.17.06.36.03.5-.08.16-.16.22-.39.16-.61-.11-.33-.24-.1-.52-.25Z"/><path class="cls-24_css-13 targetColor" d="M304.59,86.71c-.18.37-.27.78-.29,1.19,0,.49-.7,2.51-.49,2.95,1.09,2.15,7.56,4.18,7.72,4.06,1.45-1.19,1.53-3.48,2.33-5.15.82-1.6,1.34-3.33,1.53-5.12.18-2.7-1.07-5.58-3.88-6.27-2.59-.65-3.56,1.55-4.66,3.52-.87,1.56-1.62,3.17-2.27,4.83Z" style="fill: rgb(236, 156, 82);"/></g></svg>