<svg width="500" height="500" viewBox="0 0 500 500" fill="none" xmlns="http://www.w3.org/2000/svg">
<g opacity="0.58">
<path d="M326.491 113.1C326.491 113.1 313.181 109.47 310.291 97.0801C310.291 97.0801 330.911 92.9101 331.501 114.19L326.501 113.1H326.491Z" fill="#EC9C52"/>
</g>
<g opacity="0.73">
<path d="M328.119 111.78C328.119 111.78 318.819 97.0798 326.999 83.3398C326.999 83.3398 342.679 93.2998 335.709 111.81L328.109 111.78H328.119Z" fill="#EC9C52"/>
</g>
<path d="M330.51 111.79C330.51 111.79 335.42 96.2701 350.27 93.3301C350.27 93.3301 353.05 103.41 340.65 111.84L330.5 111.8L330.51 111.79Z" fill="#EC9C52"/>
<path d="M320.859 111.44L323.559 129.9L340.549 129.97L343.049 111.53L320.859 111.44Z" fill="#24285B"/>
<path d="M364.65 129.48H123.08V312.6H364.65V129.48Z" fill="#E6E6E6"/>
<path d="M203.68 176.84C203.68 176.84 149.46 239.45 163.98 273.02C178.5 306.59 187.86 312.59 187.86 312.59C187.86 312.59 220.13 206.21 203.67 176.84H203.68Z" fill="#EC9C52"/>
<g opacity="0.08">
<path d="M203.68 176.84C203.68 176.84 149.46 239.45 163.98 273.02C178.5 306.59 187.86 312.59 187.86 312.59C187.86 312.59 220.13 206.21 203.67 176.84H203.68Z" fill="#000001"/>
</g>
<path d="M263.36 165.84C263.36 165.84 306.64 163.29 304.7 207.5C302.76 251.72 282.11 312.59 282.11 312.59H187.87C187.87 312.59 186.9 288.83 184.64 264.95C182.38 241.07 155.21 164.19 263.36 165.84Z" fill="#EC9C52"/>
<path d="M263.85 113.04L263.36 165.84L229.49 178.44L246.32 126.01L263.85 113.04Z" fill="#F4A28C"/>
<g opacity="0.31">
<path d="M243.33 134.1C243.33 134.1 248.82 133.92 253.56 130.12C253.56 130.12 251.55 139.57 239.5 147.21L243.33 134.09V134.1Z" fill="#CE8172"/>
</g>
<path d="M241.421 104.92C241.421 104.92 235.281 119.82 234.671 130.82C234.421 135.28 237.891 139.16 242.351 139.34C247.891 139.57 255.451 138.28 259.711 130.69L268.521 118.7C268.521 118.7 273.781 111 267.061 102.04C260.351 93.0902 244.701 95.6502 241.421 104.91V104.92Z" fill="#F4A28C"/>
<path d="M238.04 114.5L231.9 119.08C230.38 120.21 230.56 122.54 232.23 123.43L237.76 126.38L238.04 114.5Z" fill="#F4A28C"/>
<path d="M264.841 134.97L274.281 115.2C274.281 115.2 286.681 115.43 284.571 106.9C282.461 98.37 276.661 102.67 278.191 93.63C279.721 84.6 272.771 81.37 266.621 85.44C260.471 89.51 264.231 82.9 257.951 80.71C251.671 78.52 249.401 81.08 248.321 85.96C247.231 90.85 238.911 83.83 235.321 89.58C231.731 95.33 230.241 101.3 246.141 105.38C262.041 109.46 247.981 120.5 264.851 134.97H264.841Z" fill="#FFD200"/>
<g opacity="0.08">
<path d="M298.499 217.15C298.499 217.15 288.599 263.82 258.889 280.28C229.179 296.74 225.789 312.59 225.789 312.59H187.869C187.869 312.59 185.819 267.92 184.139 261.03C182.459 254.14 203.759 249.54 203.759 249.54L241.269 247.36L298.499 217.15Z" fill="#000001"/>
</g>
<path d="M253.631 123.2C253.631 123.2 255.601 117.32 259.911 119.17C264.211 121.02 261.421 129.54 255.121 128.44L253.631 123.2Z" fill="#F4A28C"/>
<path d="M215.991 142.96C220.111 139.64 225.421 137.95 230.651 138.73C234.861 139.35 238.911 141.48 239.511 147.22C240.801 159.74 214.741 160.49 214.741 160.49L207.881 149.5L215.991 142.96Z" fill="#F4A28C"/>
<path d="M207.881 149.5L214.741 160.49C214.741 160.49 178.511 215.89 207.881 233.32C237.251 250.75 242.741 190.72 265.651 175.87C288.561 161.02 311.481 187.81 299.861 214.28C288.241 240.75 242.411 287.54 205.301 273.99C168.181 260.43 142.361 212.21 207.881 149.5Z" fill="#EC9C52"/>
<g opacity="0.44">
<path d="M207.881 149.5L214.741 160.49C214.741 160.49 178.511 215.89 207.881 233.32C237.251 250.75 242.741 190.72 265.651 175.87C288.561 161.02 311.481 187.81 299.861 214.28C288.241 240.75 242.411 287.54 205.301 273.99C168.181 260.43 142.361 212.21 207.881 149.5Z" fill="white"/>
</g>
<path d="M234.449 352.15H48.4492V405.25H234.449V352.15Z" fill="#24285B"/>
<path d="M78.8395 396.21C88.7253 396.21 96.7395 388.196 96.7395 378.31C96.7395 368.424 88.7253 360.41 78.8395 360.41C68.9536 360.41 60.9395 368.424 60.9395 378.31C60.9395 388.196 68.9536 396.21 78.8395 396.21Z" fill="#FFD200"/>
<path d="M74.3889 384.13H71.8789L77.5289 368.44H80.2689L85.9189 384.13H83.4089L78.9689 371.29H78.8489L74.4089 384.13H74.3889ZM74.8089 377.98H82.9589V379.97H74.8089V377.98Z" fill="#24285B"/>
<g opacity="0.23">
<path d="M212.59 375.03H114.27C112.696 375.03 111.42 376.306 111.42 377.88V382.66C111.42 384.234 112.696 385.51 114.27 385.51H212.59C214.164 385.51 215.44 384.234 215.44 382.66V377.88C215.44 376.306 214.164 375.03 212.59 375.03Z" fill="white"/>
</g>
<path d="M451.561 352.15H265.561V405.25H451.561V352.15Z" fill="#24285B"/>
<path d="M295.83 396.21C305.716 396.21 313.73 388.196 313.73 378.31C313.73 368.424 305.716 360.41 295.83 360.41C285.944 360.41 277.93 368.424 277.93 378.31C277.93 388.196 285.944 396.21 295.83 396.21Z" fill="#FFD200"/>
<path d="M302.63 374.92H300.24C300.15 374.41 299.98 373.96 299.73 373.57C299.48 373.18 299.17 372.85 298.81 372.58C298.45 372.31 298.04 372.1 297.6 371.97C297.15 371.83 296.68 371.76 296.18 371.76C295.28 371.76 294.47 371.99 293.75 372.44C293.04 372.89 292.48 373.56 292.06 374.44C291.65 375.32 291.44 376.39 291.44 377.66C291.44 378.93 291.65 380.01 292.06 380.89C292.47 381.77 293.03 382.43 293.75 382.88C294.47 383.33 295.27 383.55 296.16 383.55C296.66 383.55 297.13 383.48 297.57 383.35C298.02 383.21 298.42 383.01 298.78 382.75C299.14 382.48 299.45 382.16 299.7 381.77C299.95 381.38 300.13 380.94 300.23 380.44H302.62C302.49 381.22 302.25 381.93 301.88 382.57C301.51 383.21 301.05 383.77 300.48 384.24C299.91 384.71 299.26 385.07 298.53 385.32C297.8 385.57 297 385.7 296.14 385.7C294.78 385.7 293.57 385.38 292.51 384.73C291.45 384.08 290.61 383.16 290 381.95C289.39 380.74 289.08 379.31 289.08 377.64C289.08 375.97 289.39 374.53 290 373.32C290.61 372.12 291.45 371.19 292.51 370.55C293.57 369.9 294.78 369.58 296.13 369.58C296.96 369.58 297.74 369.7 298.46 369.94C299.18 370.18 299.83 370.53 300.41 370.98C300.99 371.44 301.47 371.99 301.84 372.65C302.22 373.31 302.47 374.06 302.61 374.9L302.63 374.92Z" fill="#24285B"/>
<g opacity="0.23">
<path d="M427.971 375.03H329.651C328.077 375.03 326.801 376.306 326.801 377.88V382.66C326.801 384.234 328.077 385.51 329.651 385.51H427.971C429.545 385.51 430.821 384.234 430.821 382.66V377.88C430.821 376.306 429.545 375.03 427.971 375.03Z" fill="white"/>
</g>
<path d="M234.449 421.15H48.4492V474.25H234.449V421.15Z" fill="#24285B"/>
<path d="M78.8395 465.6C88.7253 465.6 96.7395 457.586 96.7395 447.7C96.7395 437.814 88.7253 429.8 78.8395 429.8C68.9536 429.8 60.9395 437.814 60.9395 447.7C60.9395 457.586 68.9536 465.6 78.8395 465.6Z" fill="#FFD200"/>
<path d="M73.2188 454.67V438.98H78.9688C80.0788 438.98 81.0087 439.16 81.7387 439.53C82.4687 439.9 83.0187 440.39 83.3787 441.01C83.7387 441.63 83.9187 442.33 83.9187 443.11C83.9187 443.76 83.7987 444.31 83.5587 444.76C83.3187 445.21 82.9987 445.56 82.5987 445.83C82.1987 446.1 81.7587 446.29 81.2787 446.42V446.57C81.7987 446.6 82.3087 446.76 82.8087 447.07C83.3087 447.38 83.7188 447.82 84.0488 448.38C84.3788 448.95 84.5387 449.64 84.5387 450.45C84.5387 451.26 84.3488 451.97 83.9788 452.61C83.6088 453.25 83.0287 453.75 82.2387 454.12C81.4587 454.49 80.4587 454.68 79.2387 454.68H73.2288L73.2188 454.67ZM75.5887 445.77H78.7588C79.2888 445.77 79.7687 445.67 80.1987 445.46C80.6287 445.26 80.9688 444.97 81.2188 444.6C81.4688 444.23 81.5987 443.79 81.5987 443.29C81.5987 442.64 81.3687 442.1 80.9187 441.66C80.4687 441.22 79.7688 441 78.8288 441H75.5987V445.77H75.5887ZM75.5887 452.64H79.0088C80.1388 452.64 80.9587 452.42 81.4487 451.98C81.9387 451.54 82.1888 450.99 82.1888 450.33C82.1888 449.83 82.0687 449.38 81.8187 448.97C81.5687 448.56 81.2087 448.23 80.7487 447.98C80.2887 447.73 79.7387 447.61 79.1087 447.61H75.6087V452.64H75.5887Z" fill="#24285B"/>
<g opacity="0.23">
<path d="M212.59 443.51H114.27C112.696 443.51 111.42 444.786 111.42 446.36V451.14C111.42 452.714 112.696 453.99 114.27 453.99H212.59C214.164 453.99 215.44 452.714 215.44 451.14V446.36C215.44 444.786 214.164 443.51 212.59 443.51Z" fill="white"/>
</g>
<path d="M451.561 421.15H265.561V474.25H451.561V421.15Z" fill="#24285B"/>
<path d="M295.83 465.6C305.716 465.6 313.73 457.586 313.73 447.7C313.73 437.814 305.716 429.8 295.83 429.8C285.944 429.8 277.93 437.814 277.93 447.7C277.93 457.586 285.944 465.6 295.83 465.6Z" fill="#FFD200"/>
<path d="M295.75 454.67H290.67V438.98H295.91C297.45 438.98 298.77 439.29 299.87 439.92C300.97 440.55 301.82 441.44 302.41 442.61C303 443.78 303.29 445.18 303.29 446.8C303.29 448.42 302.99 449.84 302.4 451.01C301.81 452.19 300.95 453.09 299.82 453.72C298.7 454.35 297.34 454.67 295.74 454.67H295.75ZM293.04 452.6H295.62C296.82 452.6 297.81 452.37 298.6 451.92C299.39 451.47 299.98 450.81 300.38 449.95C300.77 449.09 300.97 448.04 300.97 446.8C300.97 445.56 300.77 444.52 300.38 443.67C299.99 442.82 299.41 442.16 298.64 441.72C297.87 441.28 296.91 441.05 295.77 441.05H293.04V452.6Z" fill="#24285B"/>
<g opacity="0.23">
<path d="M427.971 443.51H329.651C328.077 443.51 326.801 444.786 326.801 446.36V451.14C326.801 452.714 328.077 453.99 329.651 453.99H427.971C429.545 453.99 430.821 452.714 430.821 451.14V446.36C430.821 444.786 429.545 443.51 427.971 443.51Z" fill="white"/>
</g>
</svg>
