<svg id="_0021_video_call" xmlns="http://www.w3.org/2000/svg" viewBox="0 0 500 500" data-imageid="facetime-3-74" imageName="Facetime 3" class="illustrations_image" style="width: 158px;"><defs><style>.cls-1_facetime-3-74,.cls-2_facetime-3-74{fill:#fff;}.cls-3_facetime-3-74{fill:#f4a28c;}.cls-4_facetime-3-74{fill:#a5a5a5;}.cls-5_facetime-3-74{opacity:.03;}.cls-5_facetime-3-74,.cls-6_facetime-3-74{fill:#000001;}.cls-7_facetime-3-74{fill:#e6e6e6;}.cls-8_facetime-3-74{fill:#ce8172;opacity:.31;}.cls-9_facetime-3-74{opacity:.58;}.cls-9_facetime-3-74,.cls-10_facetime-3-74,.cls-11_facetime-3-74{fill:#68e1fd;}.cls-2_facetime-3-74{opacity:.2;}.cls-12_facetime-3-74{fill:#24285b;}.cls-6_facetime-3-74{opacity:.08;}.cls-10_facetime-3-74{opacity:.73;}.cls-13_facetime-3-74{fill:#ffd200;}</style></defs><g id="person_facetime-3-74"><path class="cls-5_facetime-3-74" d="m44.76,397.63c0-2.15-44.48-124.41,12.77-211.19,19.35-29.34,70.18-108.98,188.57-97.72,77.8,7.4,315.43,37.19,196.23,307.5l-61.9,8.92-221.82-5.9-113.85-1.62Z"/><path class="cls-9_facetime-3-74 targetColor" d="m427.53,373.17s-17.98-4.83-21.95-21.52c0,0,27.8-5.74,28.71,22.97l-6.76-1.45Z" style="fill: rgb(236, 156, 82);"/><path class="cls-10_facetime-3-74 targetColor" d="m429.72,371.38s-12.63-19.78-1.67-38.37c0,0,21.21,13.35,11.92,38.37h-10.25Z" style="fill: rgb(236, 156, 82);"/><path class="cls-11_facetime-3-74 targetColor" d="m432.95,371.38s6.54-20.97,26.56-25.02c0,0,3.81,13.58-12.87,25.02h-13.69Z" style="fill: rgb(236, 156, 82);"/><polygon class="cls-12_facetime-3-74" points="419.93 370.96 423.67 395.85 446.6 395.85 449.87 370.96 419.93 370.96"/><polygon class="cls-7_facetime-3-74" points="367.16 395.85 384.77 336.16 299.23 336.16 286.82 384.86 255.83 386.52 255.83 395.85 367.16 395.85"/><rect class="cls-7_facetime-3-74" x="32.53" y="395.85" width="427.13" height="18.6"/><rect class="cls-7_facetime-3-74" x="32.53" y="414.45" width="427.13" height="16.65"/><path class="cls-11_facetime-3-74 targetColor" d="m109.43,293.62s33.74-24.25,73.11-19.23c39.36,5.02,54.46,14.91,57.26,61.17,2.79,46.26-18.98,95.54-18.98,95.54l-64.54-.6-46.85-136.88Z" style="fill: rgb(236, 156, 82);"/><path class="cls-6_facetime-3-74" d="m133.8,281.11s32.62,17.03,35.96,60.93c3.34,43.9,9.25,75.38,56.4,75.15l-5.34,13.92-64.54-.6-46.85-136.88s14.87-9.36,24.37-12.51Z"/><path class="cls-12_facetime-3-74" d="m25.67,430.5h130.59s3.02-73.81-20.26-116.19c-23.28-42.38-171.94-38-110.34,116.19Z"/><polygon class="cls-3_facetime-3-74" points="143.73 255.54 151.76 275.81 133.8 281.11 128.84 250.92 143.73 255.54"/><path class="cls-3_facetime-3-74" d="m121.75,235.22c3.33-8.36,14.39-10.18,20.62-3.67,6.82,7.14,15.08,18.52,5.93,24.85-14,9.69-27.11-8.02-27.11-8.02,0,0-1.96-6.82.56-13.16Z"/><path class="cls-3_facetime-3-74" d="m126.89,247.69s-4.5-1.4-4.36,3.19,6.83,4.05,7.75,1.32c.93-2.73-3.4-4.51-3.4-4.51Z"/><path class="cls-3_facetime-3-74" d="m183.82,311.82c-3.25-19.61,18.86-33.44,35.12-22,10.45,7.35,20.36,18.81,25.74,36.67,14.79,49.15,41.3,78.56,109.29,61.86l4.07,17.53s-150.23,50.82-174.22-94.06Z"/><path class="cls-13_facetime-3-74" d="m118.47,243.47s3.6,15.87,11.95,15.84,7.69-5.38,5.98-15.84c-1.71-10.46,10.7-7.36,9.03-19.29s-2.47-11.45-13.4-10.74-24.77,9.95-13.56,30.02Z"/><path class="cls-3_facetime-3-74" d="m358.9,386.05s8.1-4.68,15.2-2.86c7.28,1.87,8.02,12.02,1.27,15.33l-13.5,6.63-2.98-19.1Z"/><polygon class="cls-1_facetime-3-74" points="307.95 344.3 297.22 382.77 358.77 382.77 369.28 344.3 307.95 344.3"/><path class="cls-11_facetime-3-74 targetColor" d="m200.04,360.92l48.33-23.34s-6.12-52.98-48.33-56.47c-42.21-3.49-15.05,64.81,0,79.81Z" style="fill: rgb(236, 156, 82);"/><path class="cls-2_facetime-3-74" d="m200.04,360.92l48.33-23.34s-6.12-52.98-48.33-56.47c-42.21-3.49-15.05,64.81,0,79.81Z"/><polygon class="cls-4_facetime-3-74" points="324.59 354.68 320.3 370.9 344.63 362.79 324.59 354.68"/><path class="cls-8_facetime-3-74" d="m133.8,281.11l7.29-2.15-4.98-21.51s-9.77-3.42-9.64-16.3c0,0-12.16-10.45,1.64-27.1,0,0-12.33,2.2-13.76,14.65,0,0-.54,7.07,4.11,14.77,0,0,3.62,15.86,11.95,15.84l3.38,21.8Z"/><rect class="cls-12_facetime-3-74" x="348.44" y="386.62" width="12.88" height="22.03" transform="translate(-86.16 98.4) rotate(-14.1)"/><circle class="cls-13_facetime-3-74" cx="354.88" cy="397.63" r="8.19"/><path class="cls-8_facetime-3-74" d="m217.67,352.4s24.37,73.37,131.62,49.45l1.54,6.12s-107.5,33.22-150.79-47.05l17.63-8.52Z"/><path class="cls-6_facetime-3-74" d="m217.67,352.4l-17.63,8.52s-36.71-51.19-16.55-75.41c0,0,7.98,46.33,34.18,66.89Z"/></g><g id="video_facetime-3-74"><rect class="cls-12_facetime-3-74" x="221.68" y="60.56" width="229.64" height="175.72"/><polygon class="cls-3_facetime-3-74" points="345.26 77.46 359.58 109.02 340.94 122.85 337.23 93.16 345.26 77.46"/><path class="cls-8_facetime-3-74" d="m337.33,94s11.71-1.82,13.21-5.28c0,0,9.84,17.75-11.31,19.48l-1.89-14.2Z"/><path class="cls-11_facetime-3-74 targetColor" d="m329.56,133.53s-94.86,80.19-129.87-15.3l-16.29,9.81s11.45,120.85,153.93,66l-7.77-60.51Z" style="fill: rgb(236, 156, 82);"/><path class="cls-2_facetime-3-74" d="m329.56,133.53s-94.86,80.19-129.87-15.3l-16.29,9.81s11.45,120.85,153.93,66l-7.77-60.51Z"/><path class="cls-11_facetime-3-74 targetColor" d="m340.94,122.85s-36.39,26.93-24.9,57.87c11.49,30.94,37.55,55.56,37.55,55.56h97.72s-1.04-24.12-3.89-50.51c-4.1-37.98-17.89-81.98-87.84-76.75l-18.64,13.83Z" style="fill: rgb(236, 156, 82);"/><path class="cls-6_facetime-3-74" d="m394.86,133.53s-13.04,13.12-7.61,29.75c5.43,16.63,23.34,69.51-16.83,64.51l32.39,3.92,33.84-3.92,14.9-35.24-26.3-37.08-30.39-21.94Z"/><polygon class="cls-1_facetime-3-74" points="254.23 84.2 254.23 132.21 302.79 106.13 254.23 84.2"/><polygon class="cls-13_facetime-3-74" points="313.81 236.28 298.77 177.73 382.68 177.73 390.8 225.5 425.26 227.13 425.26 236.28 313.81 236.28"/><circle class="cls-1_facetime-3-74" cx="346.88" cy="206.57" r="7.13"/><path class="cls-3_facetime-3-74" d="m186.27,126.32s-13.57-13.27-7.05-23.81c6.51-10.55,22.1-8.9,20.47,15.72l-13.42,8.09Z"/><path class="cls-11_facetime-3-74 targetColor" d="m418.94,121.24c12.39,5.45,25.35,14.84,32.61,30.97l-.24,84.06h-16.83l-7.08-14.46s8.67-34.99-18.73-61.87c-4.41-4.32-7.95-8.45-10.8-12.33-10.52-14.36,4.76-33.55,21.06-26.38Z" style="fill: rgb(236, 156, 82);"/><path class="cls-2_facetime-3-74" d="m418.94,121.24c12.39,5.45,25.35,14.84,32.61,30.97l-.24,84.06h-16.83l-7.08-14.46s8.67-34.99-18.73-61.87c-4.41-4.32-7.95-8.45-10.8-12.33-10.52-14.36,4.76-33.55,21.06-26.38Z"/><path class="cls-3_facetime-3-74" d="m350.49,80.07c-.11,2.89-.16,5.77.05,8.66.29,3.95-.35,9.94-6.44,11.75-9.4,2.79-13.55-12.1-13.55-12.1,0,0-7.54-13.56,2.63-16.62,9.15-2.75,17.83-4.94,17.31,8.31Z"/><path class="cls-13_facetime-3-74" d="m324.87,66.94c-2.14,1.18-3.94,2.91-4.76,5.21-.77,2.16-.94,4.73,1.05,6.81,4.3,4.5,9.38,9.42,9.38,9.42,0,0-3.9-7.66,2.96-7.67s12.77,4.57,16.98-.64,6.94-8.05,5.04-13.05c-1.91-5-1.61-11.27-9.08-8.48-7.47,2.8-4.56-2.96-8.8-6.66-4.24-3.7-11.11-3.16-10.5,2.05.53,4.55,2,10.65-2.27,13.01Z"/><path class="cls-3_facetime-3-74" d="m331.21,88.93s-1.04-4.55-5.03-3.93-1.5,9.06,5.03,3.93Z"/><path class="cls-3_facetime-3-74" d="m349.09,88.99s-1.88-4.27,1.7-6.15c3.58-1.88,6.6,6.38-1.7,6.15Z"/><path class="cls-3_facetime-3-74" d="m434.48,236.28c0-8.66-6.52-15.98-15.14-16.85-4.83-.48-9.23.24-10.38,4.03-2.85,9.37,16.29,12.82,16.29,12.82h9.23Z"/><path class="cls-1_facetime-3-74" d="m357.6,104.65s-19.6,6.95-20.38,21.27c0,0,20.18-1.22,29.72-17.28,0,0-2.8-5.27-9.34-3.99Z"/></g></svg>