<svg width="500" height="500" viewBox="0 0 500 500" fill="none" xmlns="http://www.w3.org/2000/svg">
<path d="M249.048 480.638C379.708 480.638 485.629 419.485 485.629 344.048C485.629 268.611 379.708 207.458 249.048 207.458C118.388 207.458 12.4668 268.611 12.4668 344.048C12.4668 419.485 118.388 480.638 249.048 480.638Z" fill="#F0F0F0"/>
<path d="M384.657 428.404C404.046 428.404 419.765 419.329 419.765 408.134C419.765 396.939 404.046 387.864 384.657 387.864C365.267 387.864 349.549 396.939 349.549 408.134C349.549 419.329 365.267 428.404 384.657 428.404Z" fill="#E0E0E0"/>
<path d="M65.987 385.554L26.718 362.882C25.331 362.081 25.331 360.784 26.718 359.983L243.143 235.03C244.53 234.229 246.778 234.229 248.164 235.03L287.434 257.701C288.821 258.502 288.821 259.799 287.434 260.6L71.009 385.554C69.622 386.354 67.374 386.354 65.987 385.554Z" fill="#E0E0E0"/>
<path d="M202.194 350.049L233.813 331.767C237.072 329.885 238.702 327.42 238.702 324.953C238.702 322.486 238.716 320.555 238.716 320.555L200.665 298.997C198.927 297.993 197.518 295.553 197.518 293.545V254.561L142.291 286.474L142.289 325.457C142.289 327.464 143.698 329.905 145.436 330.909L178.587 350.049C185.107 353.813 195.676 353.812 202.194 350.049Z" fill="#EC9C52"/>
<g opacity="0.5">
<path d="M202.194 350.049L233.813 331.767C237.072 329.885 238.702 327.42 238.702 324.953C238.702 322.486 238.716 320.555 238.716 320.555L200.665 298.997C198.927 297.993 197.518 295.553 197.518 293.545V254.561L142.291 286.474L142.289 325.457C142.289 327.464 143.698 329.905 145.436 330.909L178.587 350.049C185.107 353.813 195.676 353.812 202.194 350.049Z" fill="black"/>
</g>
<path d="M155.55 332.36V336.739L145.428 330.906C143.702 329.907 142.284 327.471 142.284 325.454V286.475L152.806 280.405C153.024 283.076 153.26 285.839 153.478 288.528L146.1 292.798V323.255C146.1 325.272 147.499 327.707 149.244 328.707L155.55 332.36Z" fill="#EC9C52"/>
<path opacity="0.7" d="M155.55 332.36V336.739L145.428 330.906C143.702 329.907 142.284 327.471 142.284 325.454V286.475L152.806 280.405C153.024 283.076 153.26 285.839 153.478 288.528L146.1 292.798V323.255C146.1 325.272 147.499 327.707 149.244 328.707L155.55 332.36Z" fill="black"/>
<path d="M146.1 323.263C146.1 325.27 147.509 327.711 149.247 328.715L178.585 345.653C185.104 349.416 195.673 349.418 202.193 345.656L233.828 327.376C240.348 323.614 240.348 317.513 233.83 313.749L204.477 296.802C202.739 295.798 201.329 293.358 201.329 291.35V260.89L146.1 292.803V323.263Z" fill="#EC9C52"/>
<path opacity="0.3" d="M146.1 323.263C146.1 325.27 147.509 327.711 149.247 328.715L178.585 345.653C185.104 349.416 195.673 349.418 202.193 345.656L233.828 327.376C240.348 323.614 240.348 317.513 233.83 313.749L204.477 296.802C202.739 295.798 201.329 293.358 201.329 291.35V260.89L146.1 292.803V323.263Z" fill="black"/>
<path opacity="0.7" d="M210.887 300.506V300.502L204.476 296.801C202.737 295.797 201.328 293.356 201.328 291.349V260.889L146.099 292.802V323.264C146.099 325.271 147.508 327.712 149.247 328.716L155.547 332.353L210.887 300.506Z" fill="#EC9C52"/>
<path opacity="0.6" d="M210.887 300.506V300.502L204.476 296.801C202.737 295.797 201.328 293.356 201.328 291.349V260.889L146.099 292.802V323.264C146.099 325.271 147.508 327.712 149.247 328.716L155.547 332.353L210.887 300.506Z" fill="black"/>
<path d="M238.711 320.558C238.711 320.558 238.711 322.484 238.711 324.956C238.711 327.428 237.076 329.881 233.823 331.771L202.199 350.043C199.073 351.86 195.021 352.769 190.932 352.841V348.461C195.021 348.407 199.073 347.462 202.199 345.663L233.823 327.373C237.075 325.5 238.711 323.029 238.711 320.558Z" fill="#EC9C52"/>
<path opacity="0.2" d="M238.711 320.558C238.711 320.558 238.711 322.484 238.711 324.956C238.711 327.428 237.076 329.881 233.823 331.771L202.199 350.043C199.073 351.86 195.021 352.769 190.932 352.841V348.461C195.021 348.407 199.073 347.462 202.199 345.663L233.823 327.373C237.075 325.5 238.711 323.029 238.711 320.558Z" fill="black"/>
<path d="M57.4234 365.319C59.4614 366.496 62.8764 366.432 65.0484 365.178C92.2004 349.502 251.483 257.542 278.631 241.869C280.804 240.614 282.564 237.564 282.564 235.055V48.109C282.564 45.6 280.912 42.612 278.873 41.435C276.835 40.258 273.421 40.321 271.248 41.576L57.6704 164.885C55.4974 166.14 53.7364 169.19 53.7364 171.7L53.7344 358.645C53.7334 361.154 55.3854 364.142 57.4234 365.319Z" fill="#EC9C52"/>
<path opacity="0.3" d="M57.4234 365.319C59.4614 366.496 62.8764 366.432 65.0484 365.178C92.2004 349.502 251.483 257.542 278.631 241.869C280.804 240.614 282.564 237.564 282.564 235.055V48.109C282.564 45.6 280.912 42.612 278.873 41.435C276.835 40.258 273.421 40.321 271.248 41.576L57.6704 164.885C55.4974 166.14 53.7364 169.19 53.7364 171.7L53.7344 358.645C53.7334 361.154 55.3854 364.142 57.4234 365.319Z" fill="black"/>
<path d="M65.0502 365.173L278.631 241.864C280.804 240.609 282.566 237.559 282.566 235.049V48.1041C282.566 45.5951 280.805 44.5781 278.631 45.8321L65.0522 169.142C62.8792 170.396 61.1182 173.447 61.1182 175.956L61.1152 362.901C61.1162 365.41 62.8772 366.427 65.0502 365.173Z" fill="#EC9C52"/>
<path d="M65.0502 365.173L278.631 241.864C280.804 240.609 282.566 237.559 282.566 235.049V48.1041C282.566 45.5951 280.805 44.5781 278.631 45.8321L65.0522 169.142C62.8792 170.396 61.1182 173.447 61.1182 175.956L61.1152 362.901C61.1162 365.41 62.8772 366.427 65.0502 365.173Z" fill="#EC9C52"/>
<path opacity="0.5" d="M65.0502 365.173L278.631 241.864C280.804 240.609 282.566 237.559 282.566 235.049V48.1041C282.566 45.5951 280.805 44.5781 278.631 45.8321L65.0522 169.142C62.8792 170.396 61.1182 173.447 61.1182 175.956L61.1152 362.901C61.1162 365.41 62.8772 366.427 65.0502 365.173Z" fill="#EC9C52"/>
<path d="M64.4714 365.47C62.2904 366.433 59.2744 366.397 57.4204 365.325C55.3854 364.144 53.7314 361.163 53.7314 358.638V337.613L61.1094 341.884V362.909C61.1094 365.197 62.5634 366.233 64.4714 365.47Z" fill="#EC9C52"/>
<path opacity="0.7" d="M64.4714 365.47C62.2904 366.433 59.2744 366.397 57.4204 365.325C55.3854 364.144 53.7314 361.163 53.7314 358.638V337.613L61.1094 341.884V362.909C61.1094 365.197 62.5634 366.233 64.4714 365.47Z" fill="black"/>
<path d="M61.1162 341.877V362.901C61.1162 365.41 62.8782 366.427 65.0502 365.173L278.631 241.864C280.804 240.609 282.565 237.559 282.565 235.049V214.024L61.1162 341.877Z" fill="#EC9C52"/>
<g opacity="0.5">
<path d="M61.1162 341.877V362.901C61.1162 365.41 62.8782 366.427 65.0502 365.173L278.631 241.864C280.804 240.609 282.565 237.559 282.565 235.049V214.024L61.1162 341.877Z" fill="black"/>
</g>
<path d="M68.4951 326.367L68.4971 178.406C68.4971 176.9 69.5541 175.07 70.8581 174.317L272.819 57.715C274.123 56.962 275.18 57.573 275.18 59.078L275.187 207.042C275.187 208.547 274.13 210.378 272.826 211.131L70.8561 327.731C69.5521 328.483 68.4951 327.872 68.4951 326.367Z" fill="#FAFAFA"/>
<path d="M171.838 286.475C169.799 287.652 168.146 290.515 168.146 292.869C168.146 295.223 169.799 296.177 171.838 295C173.877 293.823 175.53 290.96 175.529 288.606C175.529 286.252 173.876 285.298 171.838 286.475Z" fill="#EC9C52"/>
<path opacity="0.5" d="M171.838 286.475C169.799 287.652 168.146 290.515 168.146 292.869C168.146 295.223 169.799 296.177 171.838 295C173.877 293.823 175.53 290.96 175.529 288.606C175.529 286.252 173.876 285.298 171.838 286.475Z" fill="#EC9C52"/>
<path d="M62.2724 172.064C61.5644 173.3 61.1274 174.699 61.1094 175.953V341.883L53.7314 337.612V171.7C53.7314 170.446 54.1854 169.047 54.8944 167.811L62.2724 172.064Z" fill="#EC9C52"/>
<path opacity="0.7" d="M62.2724 172.064C61.5644 173.3 61.1274 174.699 61.1094 175.953V341.883L53.7314 337.612V171.7C53.7314 170.446 54.1854 169.047 54.8944 167.811L62.2724 172.064Z" fill="black"/>
<path d="M138.895 407.943L192.262 438.842C193.912 439.798 196.59 439.8 198.242 438.848L355.904 347.946C357.556 346.993 357.558 345.447 355.907 344.491L302.54 313.592C300.89 312.636 298.212 312.634 296.56 313.587L138.898 404.489C137.246 405.44 137.245 406.987 138.895 407.943Z" fill="#E0E0E0"/>
<path opacity="0.5" d="M352.671 339.011C352.672 338.386 352.258 337.761 351.432 337.284L301.296 308.343C299.645 307.389 296.967 307.391 295.316 308.345L142.334 396.814C141.509 397.291 141.097 397.916 141.097 398.54C141.098 399.165 141.098 403.174 141.097 403.797C141.096 404.423 141.51 405.048 142.339 405.524L192.449 434.463C194.102 435.413 196.781 435.411 198.433 434.457L351.432 346.129C352.255 345.654 352.668 345.032 352.671 344.41C352.674 343.783 352.671 339.636 352.671 339.011Z" fill="black"/>
<path d="M192.449 429.071L142.339 400.264C140.686 399.313 140.684 397.769 142.335 396.814L295.317 308.345C296.968 307.39 299.645 307.389 301.297 308.343L351.433 337.284C353.085 338.237 353.085 339.783 351.433 340.737L198.434 429.066C196.782 430.019 194.103 430.022 192.449 429.071Z" fill="#EC9C52"/>
<path opacity="0.3" d="M192.449 429.071L142.339 400.264C140.686 399.313 140.684 397.769 142.335 396.814L295.317 308.345C296.968 307.39 299.645 307.389 301.297 308.343L351.433 337.284C353.085 338.237 353.085 339.783 351.433 340.737L198.434 429.066C196.782 430.019 194.103 430.022 192.449 429.071Z" fill="#EC9C52"/>
<path d="M195.248 429.782V435.157C194.235 435.134 193.222 434.904 192.439 434.467L142.345 405.529C141.517 405.046 141.102 404.424 141.102 403.803V398.531C141.102 399.152 141.517 399.774 142.345 400.258L192.439 429.08C193.223 429.518 194.236 429.759 195.248 429.782Z" fill="#EC9C52"/>
<path opacity="0.7" d="M195.248 429.782V435.157C194.235 435.134 193.222 434.904 192.439 434.467L142.345 405.529C141.517 405.046 141.102 404.424 141.102 403.803V398.531C141.102 399.152 141.517 399.774 142.345 400.258L192.439 429.08C193.223 429.518 194.236 429.759 195.248 429.782Z" fill="black"/>
<path d="M259.238 345.605L264.95 348.901C265.087 348.981 265.251 348.989 265.314 348.989L270.58 346.057L264.437 342.603L259.238 345.605Z" fill="#37474F"/>
<path d="M266.113 341.637L271.848 344.948C271.942 344.995 272.062 345.021 272.187 345.021L272.4 345.007L277.453 342.089L271.309 338.635L266.113 341.637Z" fill="#37474F"/>
<path d="M247.669 352.289L253.402 355.6C253.495 355.646 253.618 355.673 253.738 355.673L262.263 350.862L256.12 347.407L247.669 352.289Z" fill="#37474F"/>
<path d="M240.796 356.257L246.523 359.565C246.616 359.613 246.741 359.641 246.865 359.641L252.135 356.71L245.991 353.255L240.796 356.257Z" fill="#37474F"/>
<path d="M209.401 408.179L214.667 405.247L208.525 401.795L203.326 404.794L209.062 408.105C209.158 408.153 209.278 408.179 209.401 408.179Z" fill="#37474F"/>
<path d="M233.923 360.225L239.625 363.517C239.758 363.598 239.914 363.61 239.995 363.61L245.263 360.679L239.119 357.224L233.923 360.225Z" fill="#37474F"/>
<path d="M272.208 347.089L267.009 350.09L272.732 353.394C272.829 353.446 272.953 353.474 273.084 353.474L278.352 350.54L272.208 347.089Z" fill="#37474F"/>
<path d="M252.998 374.04L258.267 371.109L252.123 367.655L246.923 370.653L252.649 373.96C252.744 374.011 252.871 374.04 252.998 374.04Z" fill="#37474F"/>
<path d="M279.956 349.507L285.225 346.575L279.077 343.12L273.885 346.121L279.617 349.432C279.712 349.481 279.832 349.507 279.956 349.507Z" fill="#37474F"/>
<path d="M246.126 378.008L251.395 375.077L245.25 371.623L240.052 374.622L245.756 377.915C245.889 377.996 246.044 378.008 246.126 378.008Z" fill="#37474F"/>
<path d="M239.255 381.977L244.521 379.046L238.378 375.592L233.178 378.59L238.914 381.902C239.01 381.949 239.134 381.977 239.255 381.977Z" fill="#37474F"/>
<path d="M266.743 366.104L277.794 359.831L263.89 351.892L257.964 355.31L265.232 359.504C265.326 359.559 265.438 359.655 265.438 359.804C265.438 359.906 265.371 360.005 265.258 360.07L260.671 362.717L266.368 366.005C266.504 366.092 266.661 366.104 266.743 366.104Z" fill="#37474F"/>
<path d="M220.176 368.158L225.906 371.469C225.999 371.517 226.124 371.545 226.248 371.545L231.518 368.614L225.374 365.16L220.176 368.158Z" fill="#37474F"/>
<path d="M259.868 370.073L265.139 367.142L258.994 363.687L253.796 366.686L259.491 369.974C259.632 370.063 259.802 370.073 259.868 370.073Z" fill="#37474F"/>
<path d="M181.567 406.31L186.835 403.378L180.691 399.923L175.492 402.925L181.197 406.216C181.335 406.301 181.501 406.31 181.567 406.31Z" fill="#37474F"/>
<path d="M165.194 399.902L170.943 403.22C171.034 403.262 171.153 403.286 171.268 403.286L171.481 403.272L176.534 400.354L170.39 396.902L165.194 399.902Z" fill="#37474F"/>
<path d="M191.144 409.75L191.357 409.736L196.41 406.818L190.266 403.366L185.07 406.365L190.806 409.676C190.899 409.724 191.019 409.75 191.144 409.75Z" fill="#37474F"/>
<path d="M195.657 416.115L200.925 413.183L194.779 409.729L189.583 412.731L195.287 416.023C195.425 416.105 195.592 416.115 195.657 416.115Z" fill="#37474F"/>
<path d="M172.067 395.934L177.802 399.245C177.895 399.291 178.018 399.318 178.14 399.318L183.406 396.386L177.262 392.934L172.067 395.934Z" fill="#37474F"/>
<path d="M202.531 412.149L207.794 409.215L201.653 405.764L196.454 408.762L202.184 412.071C202.28 412.12 202.407 412.149 202.531 412.149Z" fill="#37474F"/>
<path d="M192.685 384.03L198.415 387.339C198.51 387.388 198.633 387.416 198.76 387.416L204.029 384.487L197.885 381.033L192.685 384.03Z" fill="#37474F"/>
<path d="M199.558 380.062L205.275 383.363C205.373 383.418 205.504 383.449 205.634 383.449L210.9 380.518L204.756 377.064L199.558 380.062Z" fill="#37474F"/>
<path d="M206.431 376.095L212.135 379.389C212.268 379.47 212.423 379.482 212.505 379.482L217.774 376.551L211.627 373.097L206.431 376.095Z" fill="#37474F"/>
<path d="M185.812 387.999L191.518 391.292C191.651 391.373 191.805 391.385 191.885 391.385L197.156 388.454L191.011 385L185.812 387.999Z" fill="#37474F"/>
<path d="M213.306 372.129L219.037 375.438C219.082 375.46 219.206 375.513 219.377 375.513L224.646 372.582L218.499 369.127L213.306 372.129Z" fill="#37474F"/>
<path d="M178.939 391.966L184.669 395.274C184.765 395.324 184.892 395.353 185.016 395.353L190.283 392.422L184.136 388.968L178.939 391.966Z" fill="#37474F"/>
<path d="M227.048 364.19L232.791 367.508C232.883 367.552 233.002 367.577 233.12 367.577L238.39 364.646L232.247 361.192L227.048 364.19Z" fill="#37474F"/>
<path d="M244.219 363.246L249.931 366.542C250.062 366.619 250.216 366.63 250.296 366.63L250.507 366.616L255.558 363.699L249.417 360.247L244.219 363.246Z" fill="#37474F"/>
<path d="M281.308 332.867L287.017 336.163C287.154 336.242 287.316 336.251 287.379 336.251L292.648 333.32L286.504 329.865L281.308 332.867Z" fill="#37474F"/>
<path d="M288.18 328.9L293.894 332.195C293.991 332.252 294.121 332.284 294.251 332.284L299.521 329.353L293.376 325.898L288.18 328.9Z" fill="#37474F"/>
<path d="M237.349 367.214L243.065 370.513C243.195 370.587 243.346 370.598 243.423 370.598L248.689 367.666L242.545 364.212L237.349 367.214Z" fill="#37474F"/>
<path d="M295.053 324.931L300.762 328.227C300.899 328.306 301.061 328.315 301.124 328.315L306.393 325.384L300.249 321.929L295.053 324.931Z" fill="#37474F"/>
<path d="M257.168 362.663L257.381 362.649L262.434 359.734L256.291 356.28L251.091 359.279L256.804 362.575C256.935 362.651 257.088 362.663 257.168 362.663Z" fill="#37474F"/>
<path d="M289.07 337.35L294.771 340.638C294.906 340.724 295.065 340.737 295.147 340.737L300.413 337.805L294.27 334.351L289.07 337.35Z" fill="#37474F"/>
<path d="M302.815 329.414L308.516 332.702C308.656 332.791 308.825 332.801 308.89 332.801L314.159 329.87L308.015 326.416L302.815 329.414Z" fill="#37474F"/>
<path d="M302.021 336.769L307.288 333.838L301.143 330.384L295.943 333.383L301.674 336.689C301.77 336.74 301.893 336.769 302.021 336.769Z" fill="#37474F"/>
<path d="M323.207 333.249C323.299 333.291 323.417 333.315 323.532 333.315L323.745 333.301L328.797 330.385L314.89 322.445L309.69 325.445L323.207 333.249Z" fill="#37474F"/>
<path d="M230.475 371.182L236.186 374.478C236.317 374.555 236.469 374.566 236.548 374.566L236.761 374.552L241.817 371.635L235.673 368.18L230.475 371.182Z" fill="#37474F"/>
<path d="M309.788 341.251L310.002 341.237L315.054 338.319L308.911 334.868L303.711 337.866L309.424 341.161C309.556 341.24 309.709 341.251 309.788 341.251Z" fill="#37474F"/>
<path d="M316.661 337.284L321.93 334.352L315.784 330.9L310.585 333.899L316.281 337.185C316.415 337.271 316.577 337.284 316.661 337.284Z" fill="#37474F"/>
<path d="M196.11 391.022L201.815 394.314C201.948 394.395 202.105 394.407 202.187 394.407L207.453 391.475L201.31 388.02L196.11 391.022Z" fill="#37474F"/>
<path d="M182.368 398.958L188.07 402.25C188.203 402.331 188.359 402.343 188.44 402.343L188.653 402.329L193.708 399.411L187.564 395.957L182.368 398.958Z" fill="#37474F"/>
<path d="M204.892 401.816L210.159 398.885L204.012 395.431L198.815 398.429L204.556 401.741C204.611 401.769 204.73 401.816 204.892 401.816Z" fill="#37474F"/>
<path d="M198.017 405.782L203.286 402.853L197.14 399.399L191.944 402.398L197.68 405.71C197.773 405.756 197.893 405.782 198.017 405.782Z" fill="#37474F"/>
<path d="M211.762 397.846L211.975 397.832L217.031 394.917L210.887 391.462L205.688 394.461L211.393 397.752C211.531 397.837 211.696 397.846 211.762 397.846Z" fill="#37474F"/>
<path d="M223.601 375.15L229.32 378.449C229.415 378.503 229.545 378.534 229.676 378.534L229.889 378.52L234.942 375.602L228.801 372.15L223.601 375.15Z" fill="#37474F"/>
<path d="M225.508 389.913L230.776 386.982L224.633 383.528L219.433 386.526L225.138 389.82C225.276 389.903 225.442 389.913 225.508 389.913Z" fill="#37474F"/>
<path d="M218.638 393.88L223.905 390.949L217.76 387.495L212.561 390.494L218.297 393.805C218.393 393.853 218.517 393.88 218.638 393.88Z" fill="#37474F"/>
<path d="M209.855 383.086L215.56 386.377C215.693 386.458 215.851 386.47 215.932 386.47L221.198 383.538L215.054 380.084L209.855 383.086Z" fill="#37474F"/>
<path d="M189.238 394.99L194.942 398.281C195.075 398.362 195.232 398.374 195.314 398.374L200.58 395.442L194.436 391.988L189.238 394.99Z" fill="#37474F"/>
<path d="M216.729 379.118L222.44 382.414C222.571 382.491 222.725 382.502 222.805 382.502L228.072 379.57L221.927 376.116L216.729 379.118Z" fill="#37474F"/>
<path d="M202.985 387.054L208.687 390.346C208.82 390.427 208.977 390.439 209.059 390.439L209.272 390.425L214.325 387.507L208.181 384.053L202.985 387.054Z" fill="#37474F"/>
<path d="M232.378 385.944L237.648 383.013L231.503 379.559L226.304 382.558L232.03 385.864C232.127 385.916 232.251 385.944 232.378 385.944Z" fill="#37474F"/>
<path d="M272.985 337.669L278.721 340.98C278.816 341.027 278.936 341.053 279.059 341.053L284.325 338.121L278.182 334.667L272.985 337.669Z" fill="#37474F"/>
<path d="M163.518 400.872L158.319 403.87L164.057 407.182C164.151 407.229 164.271 407.255 164.395 407.255L164.608 407.241L169.664 404.323L163.518 400.872Z" fill="#37474F"/>
<path d="M173.82 403.893L166.09 408.355L171.826 411.666C171.921 411.713 172.041 411.739 172.164 411.739L172.377 411.725L179.963 407.346L173.82 403.893Z" fill="#37474F"/>
<path d="M155.178 394.801L148.893 398.427L154.605 401.723C154.737 401.8 154.89 401.811 154.97 401.811L161.322 398.255L155.178 394.801Z" fill="#37474F"/>
<path d="M187.909 413.697L181.627 417.325L187.329 420.617C187.467 420.701 187.634 420.71 187.699 420.71L194.053 417.151L187.909 413.697Z" fill="#37474F"/>
<path d="M183.394 407.335L173.856 412.84L179.592 416.152C179.686 416.199 179.806 416.225 179.93 416.225L180.143 416.211L189.539 410.786L183.394 407.335Z" fill="#37474F"/>
<path d="M165.917 395.493L171.185 392.561L165.041 389.107L159.842 392.105L165.547 395.399C165.68 395.48 165.835 395.493 165.917 395.493Z" fill="#37474F"/>
<path d="M189.394 421.81L195.104 425.106C195.201 425.162 195.332 425.194 195.464 425.194L203.263 420.798L197.121 417.346L189.394 421.81Z" fill="#37474F"/>
<path d="M172.791 391.524L178.057 388.592L171.913 385.138L166.718 388.139L172.451 391.45C172.545 391.499 172.666 391.524 172.791 391.524Z" fill="#37474F"/>
<path d="M203.268 373.926L203.481 373.912L208.537 370.994L202.393 367.54L197.197 370.541L202.913 373.84C203.007 373.895 203.137 373.926 203.268 373.926Z" fill="#37474F"/>
<path d="M210.143 369.958L215.409 367.026L209.265 363.572L204.067 366.573L209.785 369.872C209.915 369.947 210.065 369.958 210.143 369.958Z" fill="#37474F"/>
<path d="M196.395 377.894L196.608 377.88L201.664 374.962L195.52 371.508L190.321 374.509L196.026 377.8C196.164 377.885 196.33 377.894 196.395 377.894Z" fill="#37474F"/>
<path d="M186.534 383.588L186.747 383.574L191.802 380.656L185.658 377.202L180.462 380.203L186.177 383.502C186.273 383.558 186.403 383.588 186.534 383.588Z" fill="#37474F"/>
<path d="M179.662 387.557L184.93 384.625L178.786 381.17L173.59 384.171L179.317 387.479C179.412 387.529 179.535 387.557 179.662 387.557Z" fill="#37474F"/>
<path d="M326.125 342.869L331.87 346.187C331.962 346.229 332.08 346.253 332.195 346.253L332.408 346.239L337.464 343.321L331.32 339.867L326.125 342.869Z" fill="#37474F"/>
<path d="M290.31 363.543L296.015 366.833C296.149 366.917 296.304 366.93 296.385 366.93L301.653 363.999L295.51 360.545L290.31 363.543Z" fill="#37474F"/>
<path d="M312.376 350.805L318.087 354.1C318.224 354.181 318.387 354.189 318.45 354.189L318.663 354.175L330.591 347.289L324.448 343.835L312.376 350.805Z" fill="#37474F"/>
<path d="M297.183 359.575L302.883 362.863C303.017 362.947 303.177 362.96 303.26 362.96L308.527 360.031L302.382 356.577L297.183 359.575Z" fill="#37474F"/>
<path d="M304.056 355.607L309.736 358.884C309.875 358.979 310.045 358.993 310.133 358.993L315.399 356.062L309.256 352.608L304.056 355.607Z" fill="#37474F"/>
<path d="M217.013 365.99L217.226 365.976L222.282 363.058L216.138 359.604L210.94 362.605L216.644 365.897C216.776 365.978 216.932 365.99 217.013 365.99Z" fill="#37474F"/>
<path d="M330.426 331.414L325.227 334.416L338.743 342.219C338.836 342.262 338.951 342.285 339.069 342.285L339.282 342.271L344.333 339.354L330.426 331.414Z" fill="#37474F"/>
<path d="M206.757 411.786L212.459 415.077C212.597 415.161 212.764 415.17 212.829 415.17L219.181 411.611L213.04 408.156L206.757 411.786Z" fill="#37474F"/>
<path d="M214.715 407.191L220.408 410.477C220.543 410.563 220.703 410.576 220.786 410.576L220.999 410.562L260.055 388.016L253.911 384.559L214.715 407.191Z" fill="#37474F"/>
<path d="M216.274 404.211L221.542 401.282L215.398 397.828L210.199 400.826L215.929 404.135C216.024 404.184 216.147 404.211 216.274 404.211Z" fill="#37474F"/>
<path d="M198.798 416.379L204.502 419.672C204.635 419.753 204.79 419.765 204.87 419.765L211.224 416.206L205.08 412.752L198.798 416.379Z" fill="#37474F"/>
<path d="M255.586 383.592L261.298 386.888C261.43 386.965 261.582 386.976 261.662 386.976L261.875 386.962L268.015 383.419L261.869 379.965L255.586 383.592Z" fill="#37474F"/>
<path d="M271.503 374.404L277.226 377.709C277.355 377.778 277.501 377.789 277.578 377.789L277.791 377.775L283.93 374.23L277.786 370.775L271.503 374.404Z" fill="#37474F"/>
<path d="M263.545 378.997L269.28 382.308C269.376 382.356 269.5 382.383 269.621 382.383L275.974 378.822L269.827 375.37L263.545 378.997Z" fill="#37474F"/>
<path d="M279.459 369.809L285.171 373.105C285.303 373.182 285.455 373.193 285.535 373.193L285.748 373.179L293.332 368.8L287.19 365.345L279.459 369.809Z" fill="#37474F"/>
<path d="M286.828 345.539L287.041 345.525L292.096 342.607L285.953 339.153L280.754 342.154L286.478 345.459C286.574 345.51 286.698 345.539 286.828 345.539Z" fill="#37474F"/>
<path d="M295.49 358.477L295.703 358.463L300.758 355.545L294.615 352.091L289.416 355.089L295.139 358.397C295.268 358.466 295.414 358.477 295.49 358.477Z" fill="#37474F"/>
<path d="M271.258 372.469L285.566 364.315L279.423 360.861L265.183 369.082L270.923 372.394C270.967 372.417 271.091 372.469 271.258 372.469Z" fill="#37474F"/>
<path d="M310.683 349.705L310.896 349.691L315.951 346.77L309.806 343.319L304.609 346.32L310.344 349.631C310.439 349.679 310.559 349.705 310.683 349.705Z" fill="#37474F"/>
<path d="M317.555 345.736L317.768 345.722L322.821 342.805L316.678 339.35L311.481 342.352L317.204 345.657C317.332 345.726 317.478 345.736 317.555 345.736Z" fill="#37474F"/>
<path d="M264.38 376.437L269.651 373.506L263.507 370.052L258.308 373.05L264.018 376.348C264.114 376.404 264.246 376.437 264.38 376.437Z" fill="#37474F"/>
<path d="M302.916 345.219L303.129 345.205L308.183 342.287L302.038 338.835L296.839 341.834L302.535 345.12C302.67 345.207 302.831 345.219 302.916 345.219Z" fill="#37474F"/>
<path d="M230.019 396.275L235.285 393.343L229.143 389.891L223.944 392.89L229.674 396.198C229.769 396.248 229.892 396.275 230.019 396.275Z" fill="#37474F"/>
<path d="M257.513 380.405L262.776 377.471L256.635 374.019L251.437 377.018L257.185 380.336C257.229 380.357 257.35 380.405 257.513 380.405Z" fill="#37474F"/>
<path d="M223.147 400.243L223.36 400.229L228.412 397.311L222.271 393.86L217.072 396.858L222.808 400.169C222.903 400.217 223.023 400.243 223.147 400.243Z" fill="#37474F"/>
<path d="M236.894 392.309L242.16 389.378L236.017 385.924L230.818 388.923L236.572 392.241C236.626 392.266 236.742 392.309 236.894 392.309Z" fill="#37474F"/>
<path d="M243.764 388.339L243.977 388.325L249.029 385.407L242.888 381.955L237.689 384.954L243.394 388.245C243.527 388.327 243.683 388.339 243.764 388.339Z" fill="#37474F"/>
<path d="M250.637 384.371L250.85 384.357L255.906 381.442L249.762 377.988L244.563 380.986L250.299 384.298C250.392 384.345 250.512 384.371 250.637 384.371Z" fill="#37474F"/>
<path d="M233.752 356.328L239.018 353.396L232.874 349.945L227.675 352.944L233.38 356.236C233.513 356.315 233.67 356.328 233.752 356.328Z" fill="#37474F"/>
<path d="M324.428 341.769L324.641 341.755L329.697 338.837L323.551 335.383L318.355 338.384L324.09 341.695C324.184 341.743 324.304 341.769 324.428 341.769Z" fill="#37474F"/>
<path d="M247.497 348.392L252.763 345.46L246.619 342.008L241.42 345.007L247.124 348.298C247.258 348.379 247.415 348.392 247.497 348.392Z" fill="#37474F"/>
<path d="M262.762 339.579L268.028 336.647L261.884 333.192L256.686 336.193L262.398 339.489C262.529 339.567 262.683 339.579 262.762 339.579Z" fill="#37474F"/>
<path d="M255.889 343.547L261.154 340.615L255.011 337.161L249.812 340.162L255.524 343.458C255.655 343.535 255.809 343.547 255.889 343.547Z" fill="#37474F"/>
<path d="M226.879 360.295L232.145 357.363L226.001 353.909L220.805 356.91L226.521 360.209C226.651 360.284 226.802 360.295 226.879 360.295Z" fill="#37474F"/>
<path d="M240.624 352.359L240.836 352.345L245.889 349.427L239.745 345.976L234.546 348.975L240.251 352.267C240.385 352.347 240.542 352.359 240.624 352.359Z" fill="#37474F"/>
<path d="M269.635 335.611L274.9 332.679L268.757 329.225L263.558 332.226L269.27 335.521C269.401 335.599 269.555 335.611 269.635 335.611Z" fill="#37474F"/>
<path d="M296.578 317.754L301.842 314.82L298.502 313.016L293.299 316.019L296.225 317.671C296.322 317.724 296.45 317.754 296.578 317.754Z" fill="#37474F"/>
<path d="M307.997 324.348L313.265 321.417L307.12 317.962L301.924 320.963L307.632 324.258C307.77 324.339 307.933 324.348 307.997 324.348Z" fill="#37474F"/>
<path d="M275.958 329.655L276.172 329.641L281.221 326.723L277.884 324.919L272.685 327.922L275.594 329.566C275.726 329.644 275.878 329.655 275.958 329.655Z" fill="#37474F"/>
<path d="M282.831 325.688L283.044 325.674L288.093 322.756L284.757 320.952L279.557 323.955L282.494 325.614C282.586 325.661 282.709 325.688 282.831 325.688Z" fill="#37474F"/>
<path d="M289.703 321.72L294.966 318.788L291.629 316.984L286.43 319.987L289.366 321.646C289.458 321.693 289.582 321.72 289.703 321.72Z" fill="#37474F"/>
<g opacity="0.8">
<path d="M297.526 62.755V211.21C297.526 213.183 296.139 215.571 294.44 216.553L94.3468 332.294C93.9928 332.496 93.6388 332.597 93.3248 332.587C93.1928 332.587 93.0618 332.567 92.9298 332.536C92.8388 332.516 92.7478 332.485 92.6668 332.445C92.6058 332.415 92.5558 332.384 92.5048 332.354C92.4438 332.313 92.3838 332.273 92.3228 332.232C92.2618 332.181 92.2018 332.141 92.1508 332.08C91.9078 331.857 91.7258 331.584 91.5838 331.27C91.3818 330.815 91.2598 330.278 91.2598 329.712V182.007C91.2598 180.044 92.6458 177.646 94.3458 176.664L294.438 60.974C295.238 60.519 295.956 60.448 296.513 60.711C296.604 60.752 296.695 60.802 296.776 60.863C296.786 60.873 296.796 60.883 296.796 60.883C296.877 60.944 296.938 61.004 296.998 61.085C297.038 61.115 297.059 61.156 297.089 61.196C297.129 61.247 297.17 61.297 297.19 61.358C297.271 61.479 297.332 61.611 297.372 61.753C297.402 61.834 297.433 61.925 297.443 62.026C297.453 62.046 297.463 62.066 297.453 62.087C297.483 62.178 297.493 62.269 297.504 62.37C297.516 62.492 297.526 62.624 297.526 62.755Z" fill="#455A64"/>
<path d="M295.808 61.558C295.915 61.558 296.006 61.577 296.106 61.624C296.119 61.63 296.131 61.635 296.14 61.64L296.142 61.642L296.2 61.685L296.284 61.797L296.285 61.802L296.359 61.913C296.369 61.927 296.377 61.942 296.385 61.957L296.368 61.988L296.465 62.278L296.468 62.31L296.49 62.354L296.499 62.38C296.504 62.408 296.506 62.437 296.508 62.452C296.516 62.547 296.525 62.65 296.525 62.754V211.21C296.525 212.827 295.34 214.877 293.938 215.687L93.8507 331.426C93.5997 331.57 93.4347 331.588 93.3307 331.588C93.3287 331.588 93.3267 331.588 93.3247 331.588C93.2837 331.588 93.2267 331.58 93.1157 331.553C93.0877 331.539 93.0647 331.525 93.0407 331.511L92.9137 331.426L92.8917 331.408L92.8777 331.391L92.8267 331.344C92.6977 331.226 92.5897 331.068 92.4987 330.866C92.3427 330.516 92.2607 330.118 92.2607 329.714V182.007C92.2607 180.39 93.4457 178.34 94.8477 177.53L294.934 61.843C295.261 61.657 295.563 61.558 295.808 61.558ZM295.808 60.558C295.395 60.558 294.933 60.693 294.439 60.974L94.3467 176.664C92.6467 177.646 91.2607 180.044 91.2607 182.007V329.713C91.2607 330.28 91.3827 330.816 91.5847 331.271C91.7257 331.585 91.9087 331.858 92.1517 332.081C92.2017 332.142 92.2627 332.182 92.3237 332.233C92.3847 332.273 92.4457 332.314 92.5057 332.355C92.5567 332.385 92.6067 332.416 92.6677 332.446C92.7487 332.486 92.8397 332.517 92.9307 332.537C93.0627 332.567 93.1937 332.588 93.3257 332.588C93.3397 332.588 93.3547 332.589 93.3687 332.589C93.6717 332.589 94.0097 332.488 94.3477 332.295L294.44 216.554C296.14 215.572 297.526 213.184 297.526 211.211V62.755C297.526 62.623 297.516 62.492 297.506 62.37C297.496 62.269 297.486 62.178 297.455 62.087C297.465 62.067 297.455 62.046 297.445 62.026C297.435 61.925 297.405 61.834 297.374 61.753C297.334 61.611 297.273 61.48 297.192 61.358C297.172 61.297 297.131 61.247 297.091 61.196C297.061 61.155 297.041 61.115 297 61.085C296.939 61.004 296.878 60.943 296.797 60.883C296.797 60.883 296.787 60.873 296.777 60.863C296.696 60.802 296.605 60.752 296.514 60.711C296.301 60.61 296.064 60.558 295.808 60.558Z" fill="#455A64"/>
<g opacity="0.7">
<path d="M297.526 62.755V211.21C297.526 213.183 296.139 215.571 294.44 216.553L94.3468 332.294C93.9928 332.496 93.6388 332.597 93.3248 332.587C93.1928 332.587 93.0618 332.567 92.9298 332.536C92.8388 332.516 92.7478 332.485 92.6668 332.445C92.6058 332.415 92.5558 332.384 92.5048 332.354C92.4438 332.313 92.3838 332.273 92.3228 332.232C92.2618 332.181 92.2018 332.141 92.1508 332.08C91.9078 331.857 91.7258 331.584 91.5838 331.27C91.3818 330.815 91.2598 330.278 91.2598 329.712V182.007C91.2598 180.044 92.6458 177.646 94.3458 176.664L294.438 60.974C295.238 60.519 295.956 60.448 296.513 60.711C296.604 60.752 296.695 60.802 296.776 60.863C296.786 60.873 296.796 60.883 296.796 60.883C296.877 60.944 296.938 61.004 296.998 61.085C297.038 61.115 297.059 61.156 297.089 61.196C297.129 61.247 297.17 61.297 297.19 61.358C297.271 61.479 297.332 61.611 297.372 61.753C297.402 61.834 297.433 61.925 297.443 62.026C297.453 62.046 297.463 62.066 297.453 62.087C297.483 62.178 297.493 62.269 297.504 62.37C297.516 62.492 297.526 62.624 297.526 62.755Z" fill="#455A64"/>
</g>
</g>
<path d="M296.513 60.711C295.956 60.448 295.238 60.519 294.438 60.974L94.3462 176.664C92.6462 177.646 91.2602 180.044 91.2602 182.007V192.085L87.3242 189.778V179.77C87.3242 177.807 88.7002 175.419 90.4002 174.437L290.503 58.747C291.383 58.231 292.173 58.221 292.739 58.565C293.295 58.9 295.855 60.367 296.513 60.711Z" fill="#EC9C52"/>
<path d="M297.519 62.734C297.507 60.787 296.134 59.999 294.439 60.978L94.3447 176.667C92.6427 177.65 91.2627 180.04 91.2627 182.006L91.2657 192.089L297.519 72.852V62.734Z" fill="#EC9C52"/>
<g opacity="0.4">
<path d="M294.437 60.977L94.3488 176.666C93.5058 177.16 92.7298 177.994 92.1768 178.954L88.2598 176.685C88.8128 175.735 89.5708 174.909 90.4048 174.434L290.5 58.745C291.382 58.231 292.168 58.223 292.74 58.562C293.293 58.901 295.852 60.356 296.502 60.705C295.959 60.444 295.232 60.521 294.437 60.977Z" fill="white"/>
</g>
<path opacity="0.15" d="M87.3193 189.791L87.3213 179.769C87.3213 178.77 87.6873 177.665 88.2593 176.686L92.1863 178.945C91.6143 179.915 91.2653 181.01 91.2653 182.009V192.091L87.3193 189.791Z" fill="black"/>
<path d="M278.949 74.213C277.987 74.768 277.207 76.419 277.207 77.9C277.207 79.381 277.987 80.131 278.949 79.576C279.911 79.021 280.691 77.37 280.691 75.889C280.691 74.407 279.911 73.657 278.949 74.213Z" fill="#455A64"/>
<path d="M285.221 70.585C284.259 71.14 283.479 72.791 283.479 74.272C283.479 75.753 284.259 76.5029 285.221 75.9479C286.183 75.3929 286.963 73.742 286.963 72.261C286.963 70.78 286.183 70.03 285.221 70.585Z" fill="#455A64"/>
<path d="M291.491 66.958C290.529 67.513 289.749 69.164 289.749 70.645C289.749 72.126 290.529 72.876 291.491 72.321C292.453 71.766 293.233 70.115 293.233 68.634C293.233 67.153 292.453 66.403 291.491 66.958Z" fill="#455A64"/>
<path opacity="0.9" d="M92.3933 332.304C92.2823 332.233 92.1503 332.162 92.0083 332.081C91.7253 331.909 91.4013 331.727 91.0573 331.545L91.0473 331.535C90.8753 331.434 90.7033 331.333 90.5313 331.242C90.5213 331.232 90.5013 331.222 90.4903 331.222C90.2073 331.06 89.9333 330.898 89.6803 330.756C89.4173 330.604 89.1843 330.473 89.0023 330.371C88.8203 330.26 88.6783 330.189 88.6173 330.159C88.4253 330.058 88.2433 329.916 88.0913 329.734C87.9293 329.562 87.7873 329.35 87.6763 329.107C87.4543 328.641 87.3223 328.075 87.3223 327.478V189.778L91.2583 192.085V329.713C91.2883 330.32 91.4003 330.836 91.5823 331.271C91.7233 331.585 91.9063 331.858 92.1493 332.081C92.1903 332.142 92.2503 332.192 92.3213 332.233C92.3423 332.263 92.3633 332.284 92.3933 332.304Z" fill="#37474F"/>
<path d="M158.153 243.469C158.153 243.469 150.869 238.759 149.927 238.729C148.985 238.699 129.234 238.079 129.234 238.079L137.46 242.457V242.819L158.153 243.469Z" fill="#263238"/>
<path d="M122.668 257.658V244.697L158.152 200.591V217.791L137.46 242.457V242.819L158.152 243.469V260.669L122.668 257.658Z" fill="#FAFAFA"/>
<path d="M158.153 200.591L149.927 195.851L114.443 239.957L122.668 244.697L158.153 200.591Z" fill="#455A64"/>
<path d="M114.443 239.957V252.918L122.668 257.658V244.697L114.443 239.957Z" fill="#37474F"/>
<path d="M179.631 252.147L168.616 258.506L196.076 157.862L206.698 151.729L179.631 252.147Z" fill="#FAFAFA"/>
<path d="M206.698 151.729L198.473 146.99L187.851 153.122L196.076 157.862L206.698 151.729Z" fill="#455A64"/>
<path d="M187.851 153.122L196.076 157.862L168.617 258.506L160.391 253.766L187.851 153.122Z" fill="#37474F"/>
<path d="M208.936 204.662L217.162 209.402L237.854 184.495L229.628 179.756L208.936 204.662Z" fill="#263238"/>
<path d="M237.853 184.495L217.162 183.723V166.523L252.646 169.656V182.617L217.162 226.602V209.402L237.853 184.858V184.495Z" fill="#FAFAFA"/>
<path d="M208.936 161.783L217.162 166.523L252.646 169.656L244.42 164.916L208.936 161.783Z" fill="#455A64"/>
<path d="M217.162 166.523V183.723L208.936 178.984V161.783" fill="#37474F"/>
<path d="M208.936 204.662L217.162 209.402V226.602L208.936 221.863V204.662Z" fill="#37474F"/>
<g opacity="0.8">
<path d="M362.129 88.358V236.813C362.129 238.786 360.743 241.174 359.043 242.156L273.756 291.364C273.402 291.566 273.048 291.667 272.734 291.657C272.602 291.657 272.471 291.637 272.339 291.606C272.248 291.586 272.157 291.555 272.076 291.515C272.016 291.485 271.965 291.454 271.914 291.424C271.854 291.384 271.793 291.343 271.732 291.303C271.671 291.252 271.611 291.212 271.56 291.151C271.317 290.928 271.135 290.655 270.993 290.341C270.791 289.886 270.669 289.349 270.669 288.783V141.077C270.669 139.114 272.055 136.716 273.755 135.734L359.042 86.577C359.841 86.122 360.56 86.051 361.116 86.314C361.207 86.354 361.298 86.405 361.379 86.466C361.389 86.476 361.399 86.486 361.399 86.486C361.48 86.547 361.541 86.607 361.601 86.688C361.641 86.718 361.662 86.759 361.692 86.799C361.733 86.85 361.773 86.9 361.793 86.961C361.874 87.082 361.935 87.214 361.975 87.356C362.005 87.437 362.036 87.528 362.046 87.629C362.056 87.649 362.066 87.67 362.056 87.69C362.086 87.781 362.097 87.872 362.107 87.973C362.119 88.095 362.129 88.227 362.129 88.358Z" fill="#455A64"/>
<path d="M360.411 87.162C360.518 87.162 360.609 87.181 360.71 87.228C360.723 87.234 360.734 87.239 360.744 87.245L360.745 87.246L360.802 87.289L360.887 87.402L360.888 87.405L360.963 87.517C360.972 87.531 360.98 87.545 360.988 87.559L360.971 87.589L361.069 87.884L361.072 87.913L361.092 87.954L361.102 87.985C361.108 88.013 361.109 88.042 361.111 88.055C361.119 88.151 361.128 88.254 361.128 88.358V236.813C361.128 238.43 359.944 240.48 358.542 241.29L273.259 290.496C273.008 290.64 272.843 290.658 272.739 290.658C272.737 290.658 272.735 290.658 272.733 290.658C272.692 290.658 272.635 290.65 272.524 290.623C272.497 290.609 272.473 290.596 272.449 290.581L272.322 290.496L272.299 290.478L272.285 290.461L272.235 290.415C272.106 290.297 271.998 290.139 271.907 289.937C271.751 289.587 271.669 289.189 271.669 288.785V141.077C271.669 139.46 272.853 137.41 274.255 136.601L359.537 87.446C359.864 87.26 360.166 87.162 360.411 87.162ZM360.411 86.162C359.998 86.162 359.536 86.297 359.042 86.578L273.755 135.735C272.055 136.717 270.669 139.115 270.669 141.078V288.785C270.669 289.352 270.791 289.888 270.993 290.343C271.135 290.657 271.317 290.93 271.56 291.153C271.61 291.214 271.671 291.254 271.732 291.305C271.793 291.345 271.854 291.386 271.914 291.426C271.965 291.456 272.015 291.487 272.076 291.517C272.157 291.557 272.248 291.588 272.339 291.608C272.47 291.638 272.602 291.659 272.734 291.659C272.748 291.659 272.763 291.66 272.777 291.66C273.08 291.66 273.418 291.559 273.756 291.366L359.043 242.158C360.743 241.177 362.129 238.788 362.129 236.815V88.358C362.129 88.226 362.119 88.095 362.109 87.973C362.099 87.872 362.089 87.781 362.058 87.69C362.068 87.67 362.058 87.65 362.048 87.629C362.038 87.528 362.007 87.437 361.977 87.356C361.937 87.214 361.876 87.083 361.795 86.961C361.775 86.9 361.734 86.85 361.694 86.799C361.664 86.758 361.644 86.718 361.603 86.688C361.542 86.607 361.482 86.546 361.401 86.486C361.401 86.486 361.391 86.476 361.381 86.466C361.3 86.405 361.209 86.355 361.118 86.314C360.904 86.214 360.667 86.162 360.411 86.162Z" fill="#455A64"/>
<g opacity="0.8">
<path d="M362.129 88.358V236.813C362.129 238.786 360.743 241.174 359.043 242.156L273.756 291.364C273.402 291.566 273.048 291.667 272.734 291.657C272.602 291.657 272.471 291.637 272.339 291.606C272.248 291.586 272.157 291.555 272.076 291.515C272.016 291.485 271.965 291.454 271.914 291.424C271.854 291.384 271.793 291.343 271.732 291.303C271.671 291.252 271.611 291.212 271.56 291.151C271.317 290.928 271.135 290.655 270.993 290.341C270.791 289.886 270.669 289.349 270.669 288.783V141.077C270.669 139.114 272.055 136.716 273.755 135.734L359.042 86.577C359.841 86.122 360.56 86.051 361.116 86.314C361.207 86.354 361.298 86.405 361.379 86.466C361.389 86.476 361.399 86.486 361.399 86.486C361.48 86.547 361.541 86.607 361.601 86.688C361.641 86.718 361.662 86.759 361.692 86.799C361.733 86.85 361.773 86.9 361.793 86.961C361.874 87.082 361.935 87.214 361.975 87.356C362.005 87.437 362.036 87.528 362.046 87.629C362.056 87.649 362.066 87.67 362.056 87.69C362.086 87.781 362.097 87.872 362.107 87.973C362.119 88.095 362.129 88.227 362.129 88.358Z" fill="#455A64"/>
</g>
</g>
<path d="M361.116 86.314C360.559 86.051 359.841 86.122 359.042 86.577L273.755 135.734C272.055 136.716 270.669 139.114 270.669 141.077V151.156L266.733 148.849V138.841C266.733 136.878 268.109 134.49 269.809 133.508L355.106 84.351C355.986 83.835 356.776 83.825 357.342 84.169C357.898 84.503 360.458 85.97 361.116 86.314Z" fill="#EC9C52"/>
<path d="M362.122 88.338C362.11 86.391 360.737 85.603 359.042 86.582L273.755 135.738C272.053 136.721 270.673 139.111 270.673 141.077L270.676 151.16L362.123 98.455V88.338H362.122Z" fill="#EC9C52"/>
<g opacity="0.4">
<path d="M359.04 86.58L273.757 135.736C272.914 136.23 272.138 137.064 271.585 138.024L267.668 135.755C268.221 134.805 268.979 133.979 269.813 133.504L355.103 84.348C355.985 83.834 356.771 83.826 357.343 84.165C357.896 84.504 360.455 85.959 361.105 86.308C360.562 86.047 359.835 86.125 359.04 86.58Z" fill="white"/>
</g>
<path opacity="0.15" d="M266.729 148.861L266.731 138.839C266.731 137.84 267.097 136.735 267.669 135.756L271.596 138.015C271.024 138.985 270.675 140.08 270.675 141.079V151.161L266.729 148.861Z" fill="black"/>
<path d="M343.553 99.8161C342.591 100.371 341.811 102.022 341.811 103.503C341.811 104.984 342.591 105.734 343.553 105.179C344.515 104.623 345.295 102.973 345.295 101.492C345.295 100.011 344.515 99.2601 343.553 99.8161Z" fill="#455A64"/>
<path d="M349.824 96.189C348.862 96.744 348.082 98.395 348.082 99.876C348.082 101.357 348.862 102.107 349.824 101.552C350.786 100.996 351.566 99.346 351.566 97.865C351.566 96.384 350.786 95.633 349.824 96.189Z" fill="#455A64"/>
<path d="M356.095 92.562C355.133 93.118 354.353 94.768 354.353 96.249C354.353 97.73 355.133 98.48 356.095 97.925C357.057 97.37 357.837 95.719 357.837 94.238C357.837 92.757 357.057 92.006 356.095 92.562Z" fill="#455A64"/>
<path opacity="0.9" d="M271.802 291.374C271.691 291.303 271.559 291.232 271.417 291.151C271.134 290.979 270.81 290.797 270.466 290.615L270.456 290.605C270.284 290.504 270.112 290.403 269.94 290.312C269.93 290.302 269.91 290.292 269.899 290.292C269.616 290.13 269.342 289.968 269.089 289.826C268.826 289.674 268.593 289.543 268.411 289.442C268.229 289.331 268.087 289.26 268.026 289.23C267.834 289.129 267.652 288.987 267.5 288.805C267.338 288.633 267.196 288.42 267.085 288.178C266.862 287.713 266.731 287.146 266.731 286.549V148.849L270.667 151.156V288.784C270.697 289.391 270.809 289.907 270.991 290.342C271.133 290.656 271.315 290.929 271.558 291.152C271.598 291.213 271.659 291.263 271.73 291.304C271.751 291.334 271.772 291.354 271.802 291.374Z" fill="#37474F"/>
<path d="M278.244 159.533C278.244 159.348 278.296 159.156 278.401 158.957L280.617 154.37C280.654 154.303 280.687 154.258 280.718 154.235C280.748 154.212 280.766 154.198 280.774 154.193C280.84 154.155 280.899 154.158 280.948 154.205C280.996 154.252 281.021 154.327 281.021 154.43V155.971C281.021 156.167 281.006 156.326 280.975 156.447C280.945 156.568 280.893 156.708 280.818 156.867L279.649 159.291L280.818 160.364C280.893 160.436 280.946 160.516 280.975 160.602C281.006 160.689 281.021 160.83 281.021 161.026V162.567C281.021 162.671 280.996 162.775 280.948 162.878C280.899 162.981 280.84 163.052 280.774 163.091C280.766 163.095 280.747 163.103 280.718 163.115C280.687 163.126 280.654 163.12 280.617 163.095L278.401 161.067C278.296 160.989 278.244 160.859 278.244 160.674V159.533Z" fill="#EC9C52"/>
<path d="M286.352 148.03C286.39 147.882 286.445 147.731 286.52 147.578C286.595 147.425 286.704 147.308 286.846 147.226L287.678 146.746C287.745 146.707 287.803 146.711 287.853 146.758C287.901 146.805 287.925 146.88 287.925 146.984C287.925 147.03 287.919 147.087 287.904 147.153L284.103 163.354C284.073 163.487 284.02 163.633 283.945 163.792C283.87 163.95 283.758 164.073 283.608 164.16L282.81 164.621C282.743 164.66 282.685 164.656 282.636 164.609C282.587 164.562 282.563 164.486 282.563 164.382C282.563 164.336 282.57 164.28 282.585 164.214L286.352 148.03Z" fill="#EC9C52"/>
<path d="M292.233 152.599C292.233 152.784 292.181 152.975 292.076 153.174L289.86 157.76C289.822 157.828 289.789 157.874 289.758 157.897C289.728 157.92 289.709 157.934 289.703 157.938C289.636 157.977 289.578 157.973 289.528 157.926C289.48 157.879 289.456 157.803 289.456 157.699V156.158C289.456 155.961 289.471 155.803 289.5 155.682C289.53 155.561 289.583 155.421 289.657 155.262L290.827 152.838L289.657 151.764C289.583 151.691 289.529 151.612 289.5 151.526C289.47 151.439 289.456 151.298 289.456 151.102V149.56C289.456 149.456 289.48 149.354 289.528 149.25C289.577 149.147 289.636 149.076 289.703 149.037C289.71 149.033 289.729 149.025 289.758 149.014C289.789 149.003 289.822 149.009 289.86 149.032L292.076 151.061C292.181 151.138 292.233 151.27 292.233 151.455V152.599Z" fill="#EC9C52"/>
<path d="M298.395 151.534C298.477 151.487 298.548 151.492 298.61 151.549C298.669 151.607 298.7 151.7 298.7 151.826V153.523C298.7 153.651 298.669 153.776 298.61 153.904C298.549 154.031 298.478 154.118 298.395 154.166L297.35 154.77C297.267 154.818 297.196 154.812 297.136 154.755C297.076 154.697 297.046 154.605 297.046 154.478V152.781C297.046 152.654 297.076 152.527 297.136 152.4C297.195 152.274 297.266 152.186 297.35 152.138L298.395 151.534Z" fill="#EC9C52"/>
<path d="M301.893 149.515C301.975 149.467 302.046 149.473 302.107 149.53C302.167 149.588 302.197 149.681 302.197 149.807V151.504C302.197 151.632 302.167 151.757 302.107 151.885C302.047 152.012 301.975 152.099 301.893 152.147L300.846 152.751C300.763 152.799 300.693 152.793 300.633 152.736C300.573 152.678 300.543 152.586 300.543 152.459V150.762C300.543 150.635 300.573 150.508 300.633 150.381C300.693 150.254 300.763 150.167 300.846 150.119L301.893 149.515Z" fill="#EC9C52"/>
<path d="M305.389 147.496C305.471 147.449 305.542 147.454 305.603 147.511C305.662 147.569 305.693 147.662 305.693 147.788V149.485C305.693 149.613 305.662 149.739 305.603 149.866C305.542 149.993 305.471 150.08 305.389 150.128L304.343 150.732C304.26 150.78 304.189 150.774 304.129 150.717C304.069 150.659 304.039 150.567 304.039 150.44V148.743C304.039 148.617 304.069 148.49 304.129 148.362C304.188 148.236 304.26 148.148 304.343 148.1L305.389 147.496Z" fill="#EC9C52"/>
<path d="M279.177 171.905L330.421 142.319C331.026 141.97 331.516 142.218 331.516 142.873C331.516 143.528 331.026 144.343 330.421 144.692L279.177 174.278C278.572 174.627 278.082 174.379 278.082 173.724C278.082 173.069 278.572 172.254 279.177 171.905Z" fill="#EC9C52"/>
<path d="M295.618 190.889L346.862 161.303C347.467 160.954 347.957 161.202 347.957 161.857C347.957 162.512 347.467 163.327 346.862 163.676L295.618 193.262C295.013 193.611 294.523 193.363 294.523 192.708C294.523 192.053 295.013 191.239 295.618 190.889Z" fill="#E0E0E0"/>
<path d="M295.618 200.382L320.145 186.232C320.75 185.883 321.24 186.131 321.24 186.786C321.24 187.441 320.75 188.256 320.145 188.605L295.619 202.755C295.014 203.104 294.524 202.856 294.524 202.201C294.523 201.546 295.013 200.731 295.618 200.382Z" fill="#E0E0E0"/>
<path d="M295.618 209.874L320.145 195.724C320.75 195.375 321.24 195.623 321.24 196.278C321.24 196.933 320.75 197.748 320.145 198.097L295.619 212.247C295.014 212.596 294.524 212.348 294.524 211.693C294.523 211.038 295.013 210.224 295.618 209.874Z" fill="#E0E0E0"/>
<path d="M334.667 139.867L355.083 128.036C355.688 127.687 356.178 127.935 356.178 128.59C356.178 129.245 355.688 130.06 355.083 130.409L334.667 142.24C334.062 142.589 333.572 142.341 333.572 141.686C333.571 141.031 334.062 140.217 334.667 139.867Z" fill="#EC9C52"/>
<path d="M279.177 276.312L330.421 246.726C331.026 246.377 331.516 246.625 331.516 247.28C331.516 247.935 331.026 248.75 330.421 249.099L279.177 278.685C278.572 279.034 278.082 278.786 278.082 278.131C278.082 277.476 278.572 276.661 279.177 276.312Z" fill="#EC9C52"/>
<path d="M334.667 244.274L355.083 232.443C355.688 232.094 356.178 232.342 356.178 232.997C356.178 233.652 355.688 234.467 355.083 234.816L334.667 246.647C334.062 246.996 333.572 246.748 333.572 246.093C333.571 245.438 334.062 244.624 334.667 244.274Z" fill="#EC9C52"/>
<path d="M334.667 215.848L355.083 204.017C355.688 203.668 356.178 203.916 356.178 204.571C356.178 205.226 355.688 206.041 355.083 206.39L334.667 218.221C334.062 218.57 333.572 218.322 333.572 217.667C333.571 217.012 334.062 216.198 334.667 215.848Z" fill="#EC9C52"/>
<path d="M334.667 225.339L355.083 213.508C355.688 213.159 356.178 213.407 356.178 214.062C356.178 214.717 355.688 215.532 355.083 215.881L334.667 227.712C334.062 228.061 333.572 227.813 333.572 227.158C333.571 226.502 334.062 225.688 334.667 225.339Z" fill="#EC9C52"/>
<path d="M279.177 266.83L330.421 237.244C331.026 236.895 331.516 237.143 331.516 237.798C331.516 238.453 331.026 239.268 330.421 239.617L279.177 269.203C278.572 269.552 278.082 269.304 278.082 268.649C278.082 267.994 278.572 267.179 279.177 266.83Z" fill="#F5F5F5"/>
<path d="M317.258 225.871L328.729 219.249C329.334 218.9 329.824 219.148 329.824 219.803C329.824 220.458 329.334 221.273 328.729 221.622L317.259 228.244C316.654 228.593 316.163 228.345 316.163 227.69C316.163 227.034 316.653 226.22 317.258 225.871Z" fill="#EC9C52"/>
<path d="M279.177 181.419L309.066 164.15C309.671 163.801 310.161 164.049 310.161 164.704C310.161 165.359 309.671 166.174 309.066 166.523L279.177 183.792C278.572 184.141 278.082 183.893 278.082 183.238C278.082 182.583 278.572 181.768 279.177 181.419Z" fill="#EC9C52"/>
<path opacity="0.6" d="M279.177 181.419L309.066 164.15C309.671 163.801 310.161 164.049 310.161 164.704C310.161 165.359 309.671 166.174 309.066 166.523L279.177 183.792C278.572 184.141 278.082 183.893 278.082 183.238C278.082 182.583 278.572 181.768 279.177 181.419Z" fill="white"/>
<path d="M279.177 190.893L289.317 185.032C289.922 184.683 290.412 184.931 290.412 185.586C290.412 186.241 289.922 187.056 289.317 187.405L279.177 193.266C278.572 193.615 278.082 193.367 278.082 192.712C278.082 192.057 278.572 191.243 279.177 190.893Z" fill="#EC9C52"/>
<path opacity="0.6" d="M279.177 190.893L289.317 185.032C289.922 184.683 290.412 184.931 290.412 185.586C290.412 186.241 289.922 187.056 289.317 187.405L279.177 193.266C278.572 193.615 278.082 193.367 278.082 192.712C278.082 192.057 278.572 191.243 279.177 190.893Z" fill="white"/>
<path d="M279.177 200.385L289.317 194.524C289.922 194.175 290.412 194.423 290.412 195.078C290.412 195.733 289.922 196.548 289.317 196.897L279.177 202.758C278.572 203.107 278.082 202.859 278.082 202.204C278.082 201.549 278.572 200.735 279.177 200.385Z" fill="#EC9C52"/>
<path opacity="0.6" d="M279.177 200.385L289.317 194.524C289.922 194.175 290.412 194.423 290.412 195.078C290.412 195.733 289.922 196.548 289.317 196.897L279.177 202.758C278.572 203.107 278.082 202.859 278.082 202.204C278.082 201.549 278.572 200.735 279.177 200.385Z" fill="white"/>
<path d="M279.177 209.877L289.317 204.016C289.922 203.667 290.412 203.915 290.412 204.57C290.412 205.225 289.922 206.04 289.317 206.389L279.177 212.25C278.572 212.599 278.082 212.351 278.082 211.696C278.082 211.041 278.572 210.227 279.177 209.877Z" fill="#EC9C52"/>
<path opacity="0.6" d="M279.177 209.877L289.317 204.016C289.922 203.667 290.412 203.915 290.412 204.57C290.412 205.225 289.922 206.04 289.317 206.389L279.177 212.25C278.572 212.599 278.082 212.351 278.082 211.696C278.082 211.041 278.572 210.227 279.177 209.877Z" fill="white"/>
<path d="M279.177 219.369L289.317 213.508C289.922 213.159 290.412 213.407 290.412 214.062C290.412 214.717 289.922 215.532 289.317 215.881L279.177 221.742C278.572 222.091 278.082 221.843 278.082 221.188C278.082 220.533 278.572 219.719 279.177 219.369Z" fill="#EC9C52"/>
<path opacity="0.6" d="M279.177 219.369L289.317 213.508C289.922 213.159 290.412 213.407 290.412 214.062C290.412 214.717 289.922 215.532 289.317 215.881L279.177 221.742C278.572 222.091 278.082 221.843 278.082 221.188C278.082 220.533 278.572 219.719 279.177 219.369Z" fill="white"/>
<path d="M313.312 161.698L326.31 154.218C326.915 153.869 327.405 154.117 327.405 154.772C327.405 155.427 326.914 156.242 326.31 156.591L313.313 164.071C312.708 164.42 312.218 164.172 312.218 163.517C312.217 162.861 312.707 162.047 313.312 161.698Z" fill="#EC9C52"/>
<path opacity="0.6" d="M313.312 161.698L326.31 154.218C326.915 153.869 327.405 154.117 327.405 154.772C327.405 155.427 326.914 156.242 326.31 156.591L313.313 164.071C312.708 164.42 312.218 164.172 312.218 163.517C312.217 162.861 312.707 162.047 313.312 161.698Z" fill="white"/>
<path d="M307.95 212.233L337.839 194.964C338.444 194.615 338.934 194.863 338.934 195.518C338.934 196.173 338.444 196.988 337.839 197.337L307.95 214.606C307.345 214.955 306.855 214.707 306.855 214.052C306.854 213.397 307.345 212.583 307.95 212.233Z" fill="#F5F5F5"/>
<path d="M325.194 211.808L355.084 194.539C355.689 194.19 356.179 194.438 356.179 195.093C356.179 195.748 355.689 196.563 355.084 196.912L325.195 214.181C324.59 214.53 324.1 214.282 324.1 213.627C324.099 212.972 324.589 212.157 325.194 211.808Z" fill="#F5F5F5"/>
<path d="M342.085 192.512L355.083 185.032C355.688 184.683 356.178 184.931 356.178 185.586C356.178 186.241 355.688 187.056 355.083 187.405L342.086 194.885C341.481 195.234 340.991 194.986 340.991 194.331C340.99 193.676 341.48 192.861 342.085 192.512Z" fill="#F5F5F5"/>
<path d="M295.618 181.401L325.507 164.132C326.112 163.783 326.602 164.031 326.602 164.686C326.602 165.341 326.112 166.156 325.507 166.505L295.618 183.774C295.013 184.123 294.523 183.875 294.523 183.22C294.523 182.565 295.013 181.751 295.618 181.401Z" fill="#EC9C52"/>
<path opacity="0.6" d="M295.618 181.401L325.507 164.132C326.112 163.783 326.602 164.031 326.602 164.686C326.602 165.341 326.112 166.156 325.507 166.505L295.618 183.774C295.013 184.123 294.523 183.875 294.523 183.22C294.523 182.565 295.013 181.751 295.618 181.401Z" fill="white"/>
<path d="M329.754 161.68L342.751 154.2C343.356 153.851 343.846 154.099 343.846 154.754C343.846 155.409 343.356 156.224 342.751 156.573L329.754 164.053C329.149 164.402 328.659 164.154 328.659 163.499C328.658 162.844 329.148 162.029 329.754 161.68Z" fill="#EC9C52"/>
<path opacity="0.6" d="M329.754 161.68L342.751 154.2C343.356 153.851 343.846 154.099 343.846 154.754C343.846 155.409 343.356 156.224 342.751 156.573L329.754 164.053C329.149 164.402 328.659 164.154 328.659 163.499C328.658 162.844 329.148 162.029 329.754 161.68Z" fill="white"/>
<path d="M425.208 95.43V84.044L415.597 83.206C415.447 83.193 415.312 83.225 415.198 83.287C414.826 83.491 405.726 88.697 405.607 88.768C405.252 88.981 405.123 89.498 405.451 89.852L415.641 100.898L425.208 95.43Z" fill="#EC9C52"/>
<path d="M415.64 100.898L405.45 89.852C405.014 89.379 405.388 88.618 406.029 88.673L415.641 89.511L415.64 100.898Z" fill="#EC9C52"/>
<path d="M425.204 84.04L415.64 89.516L406.027 88.674C405.906 88.666 405.792 88.682 405.695 88.723C406.464 88.27 414.846 83.474 415.195 83.287C415.308 83.222 415.446 83.19 415.6 83.206L425.204 84.04Z" fill="#EC9C52"/>
<path opacity="0.5" d="M425.204 84.04L415.64 89.516L406.027 88.674C405.906 88.666 405.792 88.682 405.695 88.723C406.464 88.27 414.846 83.474 415.195 83.287C415.308 83.222 415.446 83.19 415.6 83.206L425.204 84.04Z" fill="white"/>
<path d="M415.659 76.666C415.659 74.456 417.21 71.77 419.124 70.665L421.945 69.036C423.858 67.931 426.961 67.931 428.875 69.036L458.945 86.399C460.859 87.504 462.41 90.19 462.41 92.4V127.138C462.41 129.348 460.858 132.034 458.945 133.139L456.124 134.768C454.21 135.873 451.108 135.873 449.194 134.768L440.317 129.643L428.778 122.977L419.124 117.406C417.21 116.302 415.659 113.615 415.659 111.405V76.666Z" fill="#EC9C52"/>
<path opacity="0.2" d="M462.409 127.137C462.409 129.347 460.857 132.033 458.944 133.138L456.123 134.767C454.393 135.766 451.702 135.853 449.786 135.046C451.417 135.663 452.658 134.743 452.658 132.766V98.028C452.658 96.923 452.27 95.699 451.643 94.613L461.394 88.984C462.021 90.07 462.409 91.294 462.409 92.399V127.137Z" fill="black"/>
<path opacity="0.5" d="M415.772 75.681C416.176 74.21 417.518 73.741 419.118 74.663L449.195 92.031C450.148 92.58 451.021 93.518 451.636 94.617L461.383 88.992C460.753 87.893 459.896 86.955 458.943 86.405L428.882 69.037C426.959 67.938 423.855 67.938 421.947 69.037L419.118 70.67C417.485 71.608 416.111 73.709 415.772 75.681Z" fill="white"/>
<path d="M434.156 89.35L422.706 87.755L424.306 108.875L434.156 121.67V89.35Z" fill="#455A64"/>
<path d="M434.156 89.35L445.606 100.976L444.005 120.249L434.156 121.671V89.35Z" fill="#37474F"/>
<path d="M438.873 116.845L441.495 118.359L434.18 92.574L426.865 109.912L429.487 111.426L431.066 107.667L437.293 111.262L438.873 116.845ZM432.018 105.403L434.18 100.256L436.342 107.899L432.018 105.403Z" fill="#FAFAFA"/>
<path d="M425.208 160.273V148.886L415.597 148.048C415.447 148.035 415.312 148.067 415.198 148.129C414.826 148.333 405.726 153.539 405.607 153.61C405.252 153.823 405.123 154.34 405.451 154.695L415.641 165.741L425.208 160.273Z" fill="#EC9C52"/>
<path d="M415.64 165.742L405.45 154.696C405.014 154.223 405.388 153.462 406.029 153.517L415.641 154.355L415.64 165.742Z" fill="#EBEBEB"/>
<path d="M425.204 148.883L415.64 154.359L406.027 153.517C405.906 153.509 405.792 153.525 405.695 153.566C406.464 153.113 414.846 148.317 415.195 148.131C415.308 148.066 415.446 148.034 415.6 148.05L425.204 148.883Z" fill="#EC9C52"/>
<path d="M425.204 148.883L415.64 154.359L406.027 153.517C405.906 153.509 405.792 153.525 405.695 153.566C406.464 153.113 414.846 148.317 415.195 148.131C415.308 148.066 415.446 148.034 415.6 148.05L425.204 148.883Z" fill="#F5F5F5"/>
<path d="M415.659 141.509C415.659 139.299 417.21 136.613 419.124 135.508L421.945 133.879C423.858 132.774 426.961 132.774 428.875 133.879L458.945 151.242C460.859 152.347 462.41 155.033 462.41 157.243V191.981C462.41 194.191 460.858 196.877 458.945 197.982L456.124 199.611C454.21 200.716 451.108 200.716 449.194 199.611L440.317 194.486L428.778 187.82L419.124 182.249C417.21 181.145 415.659 178.458 415.659 176.248V141.509Z" fill="#EBEBEB"/>
<path d="M462.409 191.98C462.409 194.19 460.857 196.876 458.944 197.981L456.123 199.61C454.393 200.609 451.702 200.695 449.786 199.889C451.417 200.506 452.658 199.586 452.658 197.609V162.871C452.658 161.766 452.27 160.542 451.643 159.456L461.394 153.827C462.021 154.913 462.409 156.137 462.409 157.242V191.98Z" fill="#E0E0E0"/>
<path d="M415.772 140.524C416.176 139.053 417.518 138.584 419.118 139.506L449.195 156.874C450.148 157.423 451.021 158.361 451.636 159.46L461.383 153.835C460.753 152.736 459.896 151.798 458.943 151.248L428.882 133.88C426.959 132.781 423.855 132.781 421.947 133.88L419.118 135.513C417.485 136.451 416.111 138.552 415.772 140.524Z" fill="#F5F5F5"/>
<path d="M434.156 162.747L436.683 157.993L445.606 163.145L434.156 184.683L422.706 149.924L431.629 155.076L434.156 162.747Z" fill="#EC9C52"/>
<path opacity="0.15" d="M434.156 162.747L436.683 157.993L445.606 163.145L434.156 184.683L422.706 149.924L431.629 155.076L434.156 162.747Z" fill="black"/>
<path d="M434.156 162.747L431.629 155.076L427.651 152.779C430.843 162.47 434.156 172.527 434.156 172.527L440.661 160.291L436.683 157.994L434.156 162.747Z" fill="#37474F"/>
<path d="M425.208 225.117V213.731L415.597 212.893C415.447 212.88 415.312 212.912 415.198 212.974C414.826 213.178 405.726 218.384 405.607 218.455C405.252 218.668 405.123 219.185 405.451 219.539L415.641 230.585L425.208 225.117Z" fill="#EC9C52"/>
<path d="M415.64 230.585L405.45 219.539C405.014 219.066 405.388 218.305 406.029 218.36L415.641 219.198L415.64 230.585Z" fill="#37474F"/>
<path d="M425.204 213.726L415.64 219.202L406.027 218.36C405.906 218.352 405.792 218.368 405.695 218.409C406.464 217.956 414.846 213.16 415.195 212.973C415.308 212.908 415.446 212.876 415.6 212.892L425.204 213.726Z" fill="#EC9C52"/>
<path d="M425.204 213.726L415.64 219.202L406.027 218.36C405.906 218.352 405.792 218.368 405.695 218.409C406.464 217.956 414.846 213.16 415.195 212.973C415.308 212.908 415.446 212.876 415.6 212.892L425.204 213.726Z" fill="#455A64"/>
<path d="M415.659 206.352C415.659 204.142 417.21 201.456 419.124 200.351L421.945 198.722C423.858 197.617 426.961 197.617 428.875 198.722L458.945 216.084C460.859 217.189 462.41 219.876 462.41 222.085V256.822C462.41 259.032 460.858 261.719 458.945 262.823L456.124 264.452C454.21 265.557 451.108 265.557 449.194 264.452L440.317 259.327L428.778 252.66L419.124 247.089C417.21 245.985 415.659 243.298 415.659 241.088V206.352Z" fill="#37474F"/>
<path d="M462.409 256.823C462.409 259.033 460.857 261.719 458.944 262.824L456.123 264.453C454.393 265.452 451.702 265.539 449.786 264.732C451.417 265.349 452.658 264.429 452.658 262.452V227.714C452.658 226.609 452.27 225.385 451.643 224.299L461.394 218.67C462.021 219.756 462.409 220.98 462.409 222.085V256.823Z" fill="#263238"/>
<path d="M415.772 205.367C416.176 203.896 417.518 203.427 419.118 204.349L449.195 221.717C450.148 222.266 451.021 223.204 451.636 224.303L461.383 218.678C460.753 217.579 459.896 216.641 458.943 216.092L428.882 198.724C426.959 197.625 423.855 197.625 421.947 198.724L419.118 200.357C417.485 201.294 416.111 203.395 415.772 205.367Z" fill="#455A64"/>
<path d="M440.854 232.885C441.564 229.29 441.269 225.978 439.849 224.099C439.134 223.152 438.2 222.658 437.133 222.658C437.05 222.658 436.967 222.661 436.884 222.667C436.026 222.727 435.127 223.088 434.23 223.709C432.201 219.933 430.214 217.605 428.797 217.605C428.729 217.605 428.661 217.611 428.594 217.622C428.224 217.684 427.919 217.913 427.686 218.304C427.001 219.449 426.962 221.936 427.482 225.21C425.91 224.912 424.604 224.974 423.739 225.475C422.98 225.913 422.579 226.668 422.579 227.657C422.579 229.827 424.491 232.809 427.458 235.65C426.748 239.245 427.042 242.558 428.462 244.437C428.791 244.873 429.169 245.217 429.587 245.458C430.074 245.74 430.605 245.88 431.173 245.88C431.513 245.88 431.867 245.83 432.233 245.728C432.862 245.554 433.502 245.218 434.14 244.768C435.753 247.784 437.355 249.944 438.648 250.691C438.995 250.891 439.318 250.991 439.614 250.991C439.684 250.991 439.752 250.985 439.82 250.973C440.19 250.911 440.495 250.682 440.728 250.291C441.415 249.142 441.452 246.644 440.927 243.355C441.497 243.459 442.034 243.518 442.521 243.518C443.343 243.518 444.038 243.368 444.57 243.06C445.33 242.621 445.731 241.866 445.731 240.877C445.732 238.708 443.82 235.727 440.854 232.885ZM437.423 238.679C437.073 239.311 436.701 239.885 436.32 240.43C435.657 240.112 434.959 239.748 434.219 239.321C433.481 238.895 432.774 238.448 432.095 237.989C431.705 236.984 431.32 235.93 430.949 234.83C430.583 233.747 430.26 232.71 429.971 231.715C430.246 231.095 430.548 230.474 430.889 229.86C431.239 229.229 431.607 228.652 431.983 228.11C432.65 228.429 433.347 228.789 434.092 229.219C434.869 229.668 435.614 230.138 436.324 230.623C436.709 231.619 437.091 232.666 437.464 233.77C437.808 234.788 438.117 235.768 438.393 236.708C438.106 237.365 437.785 238.025 437.423 238.679ZM438.404 233.569C438.18 232.907 437.951 232.261 437.718 231.626C438.389 232.134 439.021 232.65 439.609 233.169C439.434 233.861 439.218 234.568 438.96 235.284C438.783 234.718 438.6 234.148 438.404 233.569ZM434.219 227.929C433.711 227.636 433.213 227.371 432.72 227.121C433.186 226.545 433.663 226.043 434.143 225.62C434.614 226.572 435.092 227.621 435.569 228.754C435.127 228.471 434.677 228.194 434.219 227.929ZM429.968 228.811C429.786 229.139 429.615 229.472 429.45 229.807C429.181 228.763 428.953 227.776 428.773 226.861C429.373 227.031 430.024 227.256 430.728 227.546C430.468 227.948 430.213 228.368 429.968 228.811ZM430.011 235.027C430.238 235.698 430.473 236.354 430.712 237.002C429.995 236.465 429.325 235.918 428.702 235.368C428.888 234.633 429.117 233.882 429.397 233.121C429.591 233.749 429.793 234.383 430.011 235.027ZM434.092 240.608C434.597 240.899 435.092 241.162 435.581 241.412C435.136 241.959 434.683 242.453 434.225 242.864C433.77 241.939 433.311 240.938 432.855 239.859C433.262 240.115 433.674 240.366 434.092 240.608ZM438.343 239.726C438.546 239.36 438.738 238.988 438.92 238.614C439.207 239.713 439.447 240.75 439.637 241.708C439.009 241.534 438.324 241.301 437.579 240.994C437.841 240.59 438.096 240.171 438.343 239.726ZM436.984 229.709C436.307 228.004 435.607 226.43 434.905 225.017C435.467 224.624 436.028 224.332 436.576 224.18C436.873 224.097 437.162 224.056 437.435 224.056C437.856 224.056 438.241 224.153 438.576 224.346C438.833 224.494 439.062 224.7 439.256 224.957C440.212 226.223 440.467 228.873 439.872 231.982C438.98 231.198 438.01 230.435 436.984 229.709ZM431.447 226.519C430.411 226.056 429.431 225.7 428.519 225.451C428.019 222.352 428.08 220.22 428.577 219.389C428.702 219.179 428.854 219.059 429.027 219.029C429.057 219.024 429.087 219.022 429.119 219.022C429.275 219.022 429.456 219.081 429.661 219.199C430.61 219.747 431.979 221.53 433.47 224.31C432.779 224.904 432.099 225.646 431.447 226.519ZM428.825 231.185C428.371 232.273 428.002 233.377 427.724 234.467C425.156 231.99 423.632 229.587 423.632 228.12C423.632 227.523 423.888 227.072 424.394 226.781C424.775 226.56 425.344 226.424 426.092 226.424C426.564 226.424 427.114 226.484 427.727 226.605C428.003 228.024 428.371 229.563 428.825 231.185ZM431.444 238.911C432.1 240.55 432.784 242.084 433.475 243.475C432.649 244.071 431.831 244.42 431.073 244.474C430.242 244.54 429.544 244.224 429.055 243.579C428.098 242.312 427.843 239.662 428.439 236.552C429.365 237.368 430.375 238.16 431.444 238.911ZM436.865 242.024C437.936 242.503 438.955 242.875 439.893 243.124C440.397 246.235 440.336 248.374 439.838 249.207C439.713 249.417 439.561 249.537 439.387 249.567C438.482 249.727 436.77 247.7 434.895 244.175C435.568 243.588 436.231 242.872 436.865 242.024ZM439.537 237.224C439.967 236.177 440.32 235.118 440.587 234.07C443.155 236.546 444.678 238.95 444.678 240.416C444.678 241.013 444.422 241.464 443.916 241.755C443.307 242.109 442.217 242.24 440.68 241.952C440.396 240.49 440.011 238.9 439.537 237.224Z" fill="#EC9C52"/>
<path d="M436.188 235.442C436.188 236.939 435.278 237.627 434.155 236.979C433.033 236.331 432.122 234.592 432.122 233.096C432.122 231.6 433.032 230.911 434.155 231.559C435.278 232.206 436.188 233.945 436.188 235.442Z" fill="#EC9C52"/>
<g opacity="0.65">
<path d="M440.854 232.885C441.564 229.29 441.269 225.978 439.849 224.099C439.134 223.152 438.2 222.658 437.133 222.658C437.05 222.658 436.967 222.661 436.884 222.667C436.026 222.727 435.127 223.088 434.23 223.709C432.201 219.933 430.214 217.605 428.797 217.605C428.729 217.605 428.661 217.611 428.594 217.622C428.224 217.684 427.919 217.913 427.686 218.304C427.001 219.449 426.962 221.936 427.482 225.21C425.91 224.912 424.604 224.974 423.739 225.475C422.98 225.913 422.579 226.668 422.579 227.657C422.579 229.827 424.491 232.809 427.458 235.65C426.748 239.245 427.042 242.558 428.462 244.437C428.791 244.873 429.169 245.217 429.587 245.458C430.074 245.74 430.605 245.88 431.173 245.88C431.513 245.88 431.867 245.83 432.233 245.728C432.862 245.554 433.502 245.218 434.14 244.768C435.753 247.784 437.355 249.944 438.648 250.691C438.995 250.891 439.318 250.991 439.614 250.991C439.684 250.991 439.752 250.985 439.82 250.973C440.19 250.911 440.495 250.682 440.728 250.291C441.415 249.142 441.452 246.644 440.927 243.355C441.497 243.459 442.034 243.518 442.521 243.518C443.343 243.518 444.038 243.368 444.57 243.06C445.33 242.621 445.731 241.866 445.731 240.877C445.732 238.708 443.82 235.727 440.854 232.885ZM437.423 238.679C437.073 239.311 436.701 239.885 436.32 240.43C435.657 240.112 434.959 239.748 434.219 239.321C433.481 238.895 432.774 238.448 432.095 237.989C431.705 236.984 431.32 235.93 430.949 234.83C430.583 233.747 430.26 232.71 429.971 231.715C430.246 231.095 430.548 230.474 430.889 229.86C431.239 229.229 431.607 228.652 431.983 228.11C432.65 228.429 433.347 228.789 434.092 229.219C434.869 229.668 435.614 230.138 436.324 230.623C436.709 231.619 437.091 232.666 437.464 233.77C437.808 234.788 438.117 235.768 438.393 236.708C438.106 237.365 437.785 238.025 437.423 238.679ZM438.404 233.569C438.18 232.907 437.951 232.261 437.718 231.626C438.389 232.134 439.021 232.65 439.609 233.169C439.434 233.861 439.218 234.568 438.96 235.284C438.783 234.718 438.6 234.148 438.404 233.569ZM434.219 227.929C433.711 227.636 433.213 227.371 432.72 227.121C433.186 226.545 433.663 226.043 434.143 225.62C434.614 226.572 435.092 227.621 435.569 228.754C435.127 228.471 434.677 228.194 434.219 227.929ZM429.968 228.811C429.786 229.139 429.615 229.472 429.45 229.807C429.181 228.763 428.953 227.776 428.773 226.861C429.373 227.031 430.024 227.256 430.728 227.546C430.468 227.948 430.213 228.368 429.968 228.811ZM430.011 235.027C430.238 235.698 430.473 236.354 430.712 237.002C429.995 236.465 429.325 235.918 428.702 235.368C428.888 234.633 429.117 233.882 429.397 233.121C429.591 233.749 429.793 234.383 430.011 235.027ZM434.092 240.608C434.597 240.899 435.092 241.162 435.581 241.412C435.136 241.959 434.683 242.453 434.225 242.864C433.77 241.939 433.311 240.938 432.855 239.859C433.262 240.115 433.674 240.366 434.092 240.608ZM438.343 239.726C438.546 239.36 438.738 238.988 438.92 238.614C439.207 239.713 439.447 240.75 439.637 241.708C439.009 241.534 438.324 241.301 437.579 240.994C437.841 240.59 438.096 240.171 438.343 239.726ZM436.984 229.709C436.307 228.004 435.607 226.43 434.905 225.017C435.467 224.624 436.028 224.332 436.576 224.18C436.873 224.097 437.162 224.056 437.435 224.056C437.856 224.056 438.241 224.153 438.576 224.346C438.833 224.494 439.062 224.7 439.256 224.957C440.212 226.223 440.467 228.873 439.872 231.982C438.98 231.198 438.01 230.435 436.984 229.709ZM431.447 226.519C430.411 226.056 429.431 225.7 428.519 225.451C428.019 222.352 428.08 220.22 428.577 219.389C428.702 219.179 428.854 219.059 429.027 219.029C429.057 219.024 429.087 219.022 429.119 219.022C429.275 219.022 429.456 219.081 429.661 219.199C430.61 219.747 431.979 221.53 433.47 224.31C432.779 224.904 432.099 225.646 431.447 226.519ZM428.825 231.185C428.371 232.273 428.002 233.377 427.724 234.467C425.156 231.99 423.632 229.587 423.632 228.12C423.632 227.523 423.888 227.072 424.394 226.781C424.775 226.56 425.344 226.424 426.092 226.424C426.564 226.424 427.114 226.484 427.727 226.605C428.003 228.024 428.371 229.563 428.825 231.185ZM431.444 238.911C432.1 240.55 432.784 242.084 433.475 243.475C432.649 244.071 431.831 244.42 431.073 244.474C430.242 244.54 429.544 244.224 429.055 243.579C428.098 242.312 427.843 239.662 428.439 236.552C429.365 237.368 430.375 238.16 431.444 238.911ZM436.865 242.024C437.936 242.503 438.955 242.875 439.893 243.124C440.397 246.235 440.336 248.374 439.838 249.207C439.713 249.417 439.561 249.537 439.387 249.567C438.482 249.727 436.77 247.7 434.895 244.175C435.568 243.588 436.231 242.872 436.865 242.024ZM439.537 237.224C439.967 236.177 440.32 235.118 440.587 234.07C443.155 236.546 444.678 238.95 444.678 240.416C444.678 241.013 444.422 241.464 443.916 241.755C443.307 242.109 442.217 242.24 440.68 241.952C440.396 240.49 440.011 238.9 439.537 237.224Z" fill="white"/>
<path d="M436.188 235.442C436.188 236.939 435.278 237.627 434.155 236.979C433.033 236.331 432.122 234.592 432.122 233.096C432.122 231.6 433.032 230.911 434.155 231.559C435.278 232.206 436.188 233.945 436.188 235.442Z" fill="white"/>
</g>
<path d="M393.113 274.216C397.021 274.976 398.802 276.307 401.025 281.728C403.248 287.149 407.21 300.353 408.134 303.975C408.548 305.598 398.275 320.119 398.716 319.904C398.851 319.838 394.705 312.901 394.705 312.901L399.746 303.255L396.157 294.483L393.113 274.216Z" fill="#FFA8A7"/>
<path d="M391.788 274.301C391.788 274.301 395.355 273.662 397.714 275.623C400.073 277.584 400.434 278.886 402.027 282.914C403.62 286.942 406.245 295.307 406.245 295.307C406.245 295.307 405.491 299.812 398.161 300.696L391.877 286.545C391.877 286.545 389.69 277.989 391.788 274.301Z" fill="#EC9C52"/>
<path d="M384.425 390.406C384.325 391.676 384.162 392.818 384.655 394.215C385.362 396.22 386.858 397.138 387.736 397.929C388.614 398.72 389.592 399.889 390.295 401.031C390.92 402.046 391.629 403.211 392.966 404.369C393.801 405.092 396.149 405.157 397.281 404.681C398.414 404.205 398.793 403.779 398.723 401.97C398.655 400.203 393.17 399.545 393.17 399.545L384.425 390.406Z" fill="#455A64"/>
<path d="M398.015 396.576C398.483 396.753 398.601 397.644 398.672 399.416C398.726 400.757 399.289 402.719 397.443 403.564C395.954 404.246 393.573 403.793 392.566 402.529C391.31 400.952 390.461 399.564 388.669 397.639C387.114 395.97 385.495 395.407 384.804 392.071C384.36 389.926 384.709 389.038 386.152 388.423C388.137 387.577 391.255 390.341 392.81 390.776C394.149 391.15 397.547 396.398 398.015 396.576Z" fill="#EC9C52"/>
<path opacity="0.2" d="M398.015 396.576C398.483 396.753 398.601 397.644 398.672 399.416C398.726 400.757 399.289 402.719 397.443 403.564C395.954 404.246 393.573 403.793 392.566 402.529C391.31 400.952 390.461 399.564 388.669 397.639C387.114 395.97 385.495 395.407 384.804 392.071C384.36 389.926 384.709 389.038 386.152 388.423C388.137 387.577 391.255 390.341 392.81 390.776C394.149 391.15 397.547 396.398 398.015 396.576Z" fill="black"/>
<path d="M392.811 390.775C392.728 390.752 392.639 390.719 392.547 390.683C389.683 390.932 388.538 392.905 388.25 393.501C387.985 394.085 388.801 394.539 389.286 394.085C390.395 391.881 392.672 391.393 393.579 391.284C393.287 391.023 393.022 390.834 392.811 390.775Z" fill="#FAFAFA"/>
<path d="M394.094 391.785C391.448 392.14 390.379 394.004 390.101 394.579C389.836 395.163 390.653 395.617 391.139 395.163C392.018 393.416 393.635 392.746 394.72 392.489C394.507 392.238 394.296 391.998 394.094 391.785Z" fill="#FAFAFA"/>
<path d="M359.483 417.816C359.18 419.318 359.723 420.101 361.661 421.22C363.599 422.339 366.64 422.723 369.839 421.792C373.038 420.861 374.567 419.465 375.897 419.133C377.227 418.801 380.516 418.772 381.83 418.387C383.144 418.002 383.124 417.328 383.117 415.749L359.483 417.816Z" fill="#455A64"/>
<path d="M381.83 408.134C381.83 408.134 382.454 410.026 382.791 411.68C383.058 412.995 383.441 415.193 382.981 416.182C382.52 417.171 380.724 417.81 377.939 417.788C376.135 417.774 373.324 418.999 371.4 420.073C369.412 421.182 367.256 421.186 365.153 420.939C362.675 420.648 360.108 419.211 359.708 418.185C359.308 417.159 359.204 416.389 365.043 413.901C365.096 413.878 371.819 411.398 374.644 408.28L381.83 408.134Z" fill="#EC9C52"/>
<g opacity="0.2">
<path d="M381.83 408.134C381.83 408.134 382.454 410.026 382.791 411.68C383.058 412.995 383.441 415.193 382.981 416.182C382.52 417.171 380.724 417.81 377.939 417.788C376.135 417.774 373.324 418.999 371.4 420.073C369.412 421.182 367.256 421.186 365.153 420.939C362.675 420.648 360.108 419.211 359.708 418.185C359.308 417.159 359.204 416.389 365.043 413.901C365.096 413.878 371.819 411.398 374.644 408.28L381.83 408.134Z" fill="black"/>
</g>
<path d="M370.602 420.457C370.602 420.457 370.102 415.443 366.026 414.009C362.342 412.713 359.125 415.443 359.483 417.816C359.724 419.413 364.209 423.038 370.602 420.457Z" fill="#FAFAFA"/>
<path d="M367.058 413.07C367.058 413.07 368.372 413.07 369.84 414.305C371.015 415.294 371.049 415.951 371.049 415.951C371.317 416.363 372.181 416.137 372.112 415.443C372.112 415.443 371.839 412.914 368.51 412.396C368.51 412.396 367.595 412.168 367.058 413.07Z" fill="#FAFAFA"/>
<path d="M369.389 411.954C369.389 411.954 370.729 411.834 372.198 413.07C373.373 414.059 373.38 414.836 373.38 414.836C373.648 415.247 374.512 415.022 374.443 414.328C374.443 414.328 374.169 411.799 370.841 411.281C370.841 411.281 369.926 411.053 369.389 411.954Z" fill="#FAFAFA"/>
<path d="M371.702 410.634C371.702 410.634 373.031 410.423 374.58 411.556C375.82 412.462 375.88 413.237 375.88 413.237C376.176 413.629 377.022 413.345 376.906 412.657C376.906 412.657 376.46 410.153 373.105 409.863C373.105 409.863 372.176 409.698 371.702 410.634Z" fill="#FAFAFA"/>
<path d="M398.015 393.709V397.11C398.015 397.11 395.753 398.848 392.519 397.259C392.424 397.049 392.148 393.709 392.148 393.709H398.015Z" fill="#FFA8A7"/>
<path d="M381.83 405.783C381.83 405.783 381.822 407.397 381.83 408.32C381.838 409.242 380.749 410.617 377.929 410.516C375.948 410.445 374.565 409.913 374.644 408.281V405.929L381.83 405.783Z" fill="#FFA8A7"/>
<path d="M401.684 364.847C401.5 357.673 400.025 354.525 400.025 354.525C400.025 354.525 400.574 345.664 401.767 334.815C403.582 318.298 402.747 315.096 399.488 307.665C399.488 307.665 371.685 304.847 370.837 316.401C369.781 330.79 369.655 360.059 370.037 365.142C370.419 370.225 370.414 365.528 371.648 375.817C372.625 383.956 374.644 405.929 374.644 405.929C378.334 407.924 381.83 405.782 381.83 405.782C381.83 405.782 384.103 378.894 383.865 373.029C383.574 365.867 383.168 364.044 383.168 364.044C383.168 364.044 386.419 340.859 386.922 337.126C386.922 337.126 387.375 343.806 387.757 348.89C388.139 353.973 388.107 358.067 389.178 368.582C390.018 376.829 392.053 394.634 392.053 394.634C395.34 396.022 398.116 394.187 398.116 394.187C398.116 394.187 401.833 370.652 401.684 364.847Z" fill="#455A64"/>
<path d="M385.715 394.539C385.715 394.539 385.871 390.568 391.238 390.016L391.546 390.19C391.546 390.19 390.691 388.633 388.906 388.151C387.121 387.67 385.712 388.131 384.775 389.338C383.838 390.545 384.788 393.765 385.715 394.539Z" fill="#FAFAFA"/>
<path d="M378.873 270.475L380.179 281.219L389.624 280.366L388.545 268.441L378.873 270.475Z" fill="#FFA8A7"/>
<path d="M398.836 279.413C397.798 276.587 395.419 273.626 391.788 274.301C390.842 274.477 390.011 274.615 389.12 274.794C389.038 277.269 384.375 278.55 379.725 277.049C378.327 277.45 377.048 277.857 375.886 278.272C372.562 279.459 371.225 284.982 371.152 294.221C371.079 303.459 369.78 322.009 369.78 322.009C369.78 322.009 376.77 325.72 389.854 323.349C402.938 320.977 402.708 316.531 402.708 316.531C402.708 316.531 402.446 311.111 396.55 302.01C401.558 288.691 400.377 283.607 398.836 279.413Z" fill="#37474F"/>
<path d="M371.855 256.828C371.855 256.828 369.876 253.067 372.566 248.842C375.737 243.863 381.85 243.014 389.093 244.956C392.683 245.919 397.704 249.734 398.154 256.621C398.501 261.933 383.686 265.851 384.024 269.49L371.855 256.828Z" fill="#263238"/>
<path d="M371.535 258.846C371.535 258.846 369.525 262.07 369.807 262.398C370.089 262.726 371.431 263.047 371.431 263.047L371.535 258.846Z" fill="#F28F8F"/>
<path d="M377.667 248.637C375.658 249.744 372.191 251.784 371.488 259.311C370.767 267.038 372.553 269.668 373.631 270.65C374.358 271.312 378.022 271.461 379.914 270.817C382.281 270.011 387.383 267.317 389.701 263.276C392.427 258.522 392.848 252.273 389.49 249.918C384.764 246.602 379.367 247.699 377.667 248.637Z" fill="#FFA8A7"/>
<path d="M377.767 257.731C377.767 257.731 373.623 256.46 372.864 251.557C372.105 246.654 378.229 244.579 378.229 244.579L377.767 257.731Z" fill="#263238"/>
<path d="M377.075 248.974C377.075 248.974 375.489 256.048 377.736 260.431C377.736 260.431 378.907 257.656 381.285 258.379C383.679 259.107 383.547 262.276 381.724 263.944C379.9 265.611 378.066 264.824 378.066 264.824C378.066 264.824 379.153 267.805 381.6 270.16C381.6 270.16 388.641 273.299 394.737 266.418C400.269 260.174 399.241 249.284 390.768 246.715C382.297 244.146 377.075 248.974 377.075 248.974Z" fill="#263238"/>
<path d="M406.246 276.692C400.936 276.692 396.631 272.387 396.631 267.077V250.978C401.941 250.978 406.246 255.283 406.246 260.592V276.692Z" fill="#263238"/>
<path d="M397.704 248.891C396.831 249.172 396.351 250.106 396.631 250.979L399.792 249.963C399.512 249.09 398.577 248.61 397.704 248.891Z" fill="#263238"/>
<path d="M351.982 295.289C350.611 293.723 350.384 290.263 348.556 287.883C346.772 285.558 347.062 283.104 345.916 284.172C344.69 285.314 345.626 289.142 345.626 289.142C345.626 289.142 343.499 293.088 343.319 295.108C343.139 297.128 348.483 302.2 348.483 302.2L351.982 295.289Z" fill="#FFA8A7"/>
<path d="M345.916 288.871C345.916 288.871 343.752 291.897 334.003 287.945C331.311 286.853 333.128 292.642 336.43 295.04C339.486 297.259 343.312 297.946 346.37 300.018C346.378 299.723 345.916 288.871 345.916 288.871Z" fill="#FFA8A7"/>
<path d="M376.714 277.987C373.937 278.953 371.507 280.072 368.915 284.942C365.585 291.2 359.529 303.459 359.529 303.459L351.983 295.289C351.983 295.289 350.884 293.741 348.842 297.116C346.799 300.492 347.702 301.425 347.702 301.425C347.702 301.425 356.482 313.186 358.094 314.682C359.706 316.179 362.353 315.015 364.08 312.661C365.807 310.307 374.742 294.126 374.742 294.126C374.742 294.126 380.638 283.904 376.714 277.987Z" fill="#FFA8A7"/>
<path d="M378.06 277.547C377.369 277.769 372.584 277.768 369.596 283.175C366.278 289.179 362.781 295.954 362.781 295.954C362.781 295.954 365.185 301.757 371.321 302.2C371.332 301.602 376.344 292.705 378.229 288.891C380.115 285.078 379.935 279.261 378.06 277.547Z" fill="#EC9C52"/>
<path d="M386.922 337.127L387.448 331.507C387.448 331.507 391.53 331.113 395.929 328.298C395.929 328.298 394.124 331.192 389.167 332.51L388.048 337.985L387.756 348.891L386.922 337.127Z" fill="#37474F"/>
</svg>
