<svg id="_0529_campaign_launch" xmlns="http://www.w3.org/2000/svg" viewBox="0 0 500 500" data-imageid="marketing-campaign-55" imageName="Marketing Campaign" class="illustrations_image" style="width: 158px;"><defs><style>.cls-1_marketing-campaign-55{fill:#fff;}.cls-2_marketing-campaign-55{fill:#f4a28c;}.cls-3_marketing-campaign-55{fill:#a5a5a5;}.cls-4_marketing-campaign-55{opacity:.58;}.cls-4_marketing-campaign-55,.cls-5_marketing-campaign-55,.cls-6_marketing-campaign-55,.cls-7_marketing-campaign-55,.cls-8_marketing-campaign-55,.cls-9_marketing-campaign-55,.cls-10_marketing-campaign-55{fill:none;}.cls-5_marketing-campaign-55{opacity:.13;}.cls-11_marketing-campaign-55{fill:#e6e6e6;}.cls-6_marketing-campaign-55{opacity:.03;}.cls-7_marketing-campaign-55{opacity:.73;}.cls-8_marketing-campaign-55{opacity:.08;}.cls-9_marketing-campaign-55{opacity:.55;}.cls-10_marketing-campaign-55{opacity:.2;}.cls-12_marketing-campaign-55{fill:#24285b;}.cls-13_marketing-campaign-55{fill:#ffd200;}.cls-14_marketing-campaign-55{fill:#68e1fd;}</style></defs><g id="screen_marketing-campaign-55"><rect class="cls-12_marketing-campaign-55" x="71.11" y="30.65" width="416.72" height="302.59" transform="translate(558.94 363.9) rotate(-180)"/><g class="cls-9_marketing-campaign-55"><path class="cls-3_marketing-campaign-55" d="m239.24,186.07l-8.86,11.11c-9.42,11.81-13.86,26.83-12.39,41.87l1.69,17.26,25.94-23.55-6.39-46.7Z"/></g><g class="cls-9_marketing-campaign-55"><path class="cls-3_marketing-campaign-55" d="m301.43,186.07l8.86,11.11c9.42,11.81,13.86,26.83,12.39,41.87l-1.69,17.26-25.94-23.55,6.39-46.7Z"/></g><g class="cls-5_marketing-campaign-55"><path class="cls-1_marketing-campaign-55" d="m258.5,236.46s8.07,47.62-5.21,51.52c-13.28,3.91-19.53-17.45-36.98-4.69-17.45,12.76,4.95,26.82-26.04,22.91-30.99-3.91-42.96,11.36-35.67,27.03h228.62s11.46-14.53-1.3-24.43c-6.59-5.11-14.02-5.29-19.65-4.27-4.01.73-7.68-2.38-7.56-6.46.14-4.68-.68-10-4.29-13.23-4.4-3.95-13.51.17-20.33,4.28-7.82,4.72-16.93,6.91-25.99,5.82-7.93-.95-16.04-3.58-18.26-10.11-4.69-13.79-1.82-49.27-1.82-49.27l-25.52.88Z"/></g><path class="cls-11_marketing-campaign-55" d="m270.37,87.49s-65.46,35.92-24.75,145.28h49.49c40.71-109.36-24.75-145.28-24.75-145.28Z"/><polygon class="cls-3_marketing-campaign-55" points="295.11 232.77 292.92 241.15 248.02 241.15 245.62 231.77 295.11 232.77"/><circle class="cls-12_marketing-campaign-55" cx="270.84" cy="151.64" r="16.81"/><circle class="cls-13_marketing-campaign-55" cx="100.9" cy="61.53" r="10.51"/><circle class="cls-14_marketing-campaign-55 targetColor" cx="130.51" cy="61.53" r="10.51" style="fill: rgb(236, 156, 82);"/><circle class="cls-1_marketing-campaign-55" cx="158.85" cy="61.53" r="10.51"/><rect class="cls-1_marketing-campaign-55" x="403.41" y="192.39" width="59.02" height="9.94"/><rect class="cls-1_marketing-campaign-55" x="403.41" y="218.58" width="59.02" height="9.94"/><rect class="cls-14_marketing-campaign-55 targetColor" x="367.62" y="192.39" width="17.4" height="9.94" style="fill: rgb(236, 156, 82);"/><rect class="cls-13_marketing-campaign-55" x="367.62" y="218.58" width="17.4" height="9.94"/><circle class="cls-1_marketing-campaign-55" cx="407.84" cy="131.44" r="38.87"/><path class="cls-13_marketing-campaign-55" d="m407.84,92.57v38.87l38.06-7.92s-5.31-31.21-38.06-30.95Z"/><path class="cls-14_marketing-campaign-55 targetColor" d="m407.84,131.44l-21.61,32.31s21.79,16.58,47.02-2.91c0,0,17.26-12.51,12.65-37.32l-38.06,7.92Z" style="fill: rgb(236, 156, 82);"/><rect class="cls-13_marketing-campaign-55" x="92.73" y="100.5" width="127.26" height="31.71" rx="6.51" ry="6.51"/><path class="cls-1_marketing-campaign-55" d="m113.54,110.04h3.93v9.6h6.14v3.14h-10.07v-12.73Z"/><path class="cls-1_marketing-campaign-55" d="m133.23,120.67h-4.47l-.62,2.1h-4.02l4.79-12.73h4.29l4.78,12.73h-4.12l-.64-2.1Zm-.82-2.75l-1.41-4.58-1.39,4.58h2.8Z"/><path class="cls-1_marketing-campaign-55" d="m146.92,110.04h3.93v7.59c0,.75-.12,1.46-.35,2.13-.23.67-.6,1.25-1.1,1.75s-1.03.85-1.58,1.05c-.76.28-1.68.43-2.75.43-.62,0-1.3-.04-2.03-.13s-1.34-.26-1.84-.52-.94-.62-1.35-1.1-.69-.96-.84-1.47c-.24-.81-.36-1.53-.36-2.15v-7.59h3.93v7.77c0,.69.19,1.24.58,1.63s.92.58,1.6.58,1.21-.19,1.59-.58.58-.93.58-1.64v-7.77Z"/><path class="cls-1_marketing-campaign-55" d="m153.48,110.04h3.67l4.79,7.04v-7.04h3.71v12.73h-3.71l-4.77-6.99v6.99h-3.7v-12.73Z"/><path class="cls-1_marketing-campaign-55" d="m176.74,117.56l3.45,1.04c-.23.97-.6,1.77-1.09,2.42s-1.12,1.14-1.85,1.47-1.68.5-2.82.5c-1.38,0-2.51-.2-3.39-.6s-1.63-1.11-2.27-2.12c-.64-1.01-.96-2.31-.96-3.89,0-2.11.56-3.73,1.68-4.86,1.12-1.13,2.71-1.7,4.75-1.7,1.6,0,2.86.32,3.78.97s1.6,1.64,2.05,2.99l-3.47.77c-.12-.39-.25-.67-.38-.85-.22-.3-.49-.53-.81-.69s-.67-.24-1.07-.24c-.89,0-1.57.36-2.05,1.08-.36.53-.54,1.37-.54,2.51,0,1.41.21,2.38.64,2.9s1.03.78,1.81.78,1.32-.21,1.71-.63.66-1.04.84-1.84Z"/><path class="cls-1_marketing-campaign-55" d="m182.12,110.04h3.93v4.46h4.3v-4.46h3.95v12.73h-3.95v-5.15h-4.3v5.15h-3.93v-12.73Z"/><rect class="cls-14_marketing-campaign-55 targetColor" x="146.87" y="145.11" width="64.34" height="37.95" style="fill: rgb(236, 156, 82);"/></g><g id="sd_marketing-campaign-55" class="cls-6_marketing-campaign-55"><ellipse cx="227.54" cy="453.93" rx="215.37" ry="15.41"/></g><g id="person_marketing-campaign-55"><path class="cls-14_marketing-campaign-55 targetColor" d="m55.22,224.65s-69.49,49.4-31.89,134.46h10.37s-5.44-61.71,21.52-90.93c26.96-29.22,0-43.53,0-43.53Z" style="fill: rgb(236, 156, 82);"/><g class="cls-10_marketing-campaign-55"><path class="cls-1_marketing-campaign-55" d="m55.22,224.65s-69.49,49.4-31.89,134.46h10.37s-5.44-61.71,21.52-90.93c26.96-29.22,0-43.53,0-43.53Z"/></g><polygon class="cls-2_marketing-campaign-55" points="74.18 197.99 80.1 215.73 66.05 224.65 61 193.9 74.18 197.99"/><path class="cls-2_marketing-campaign-55" d="m56.18,176.75c3.02-7.37,12.83-8.88,18.28-3.07,5.98,6.38,13.18,16.53,5.03,22.05-12.48,8.45-23.93-7.34-23.93-7.34,0,0-1.68-6.05.62-11.65Z"/><path class="cls-2_marketing-campaign-55" d="m65.3,187.63s-3.2-2.67-4.65,1.12c-1.45,3.8,4.2,5.63,5.89,3.72,1.69-1.92-1.24-4.84-1.24-4.84Z"/><path class="cls-14_marketing-campaign-55 targetColor" d="m49.66,233.36c4.24-9.53,12.53-16.66,22.51-19.66,19.08-5.73,54.21.54,64.92,18.39,14.66,24.44-6.8,102.06-6.8,102.06l-64.12,4.98s-35.27-63.62-16.51-105.77Z" style="fill: rgb(236, 156, 82);"/><polygon class="cls-12_marketing-campaign-55" points="130.3 334.15 121.86 444.4 108.53 444.4 96.62 358.74 67.15 339.13 130.3 334.15"/><polygon class="cls-12_marketing-campaign-55" points="67.15 339.13 48.74 444.4 63.04 444.4 93.92 356.94 67.15 339.13"/><g class="cls-8_marketing-campaign-55"><path d="m77.72,212.03s-30,96.61,56.62,103.01l-4.04,19.11-64.12,4.98s-22.59-35.48-21.64-85.31c0,0,.55-24.64,17.89-35.53,0,0,6.62-4.88,15.29-6.26Z"/></g><path class="cls-14_marketing-campaign-55 targetColor" d="m52.1,444.17l-8.61,6.35c-1.47,1.08-.7,3.42,1.12,3.42h14.43c1.05,0,1.89-.85,1.89-1.89v-7.87h-8.83Z" style="fill: rgb(236, 156, 82);"/><path class="cls-14_marketing-campaign-55 targetColor" d="m120.2,444.17l8.11,6.34c1.43,1.12.64,3.42-1.18,3.42h-10.27c-3.03,0-5.49-2.46-5.49-5.49v-4.28h8.83Z" style="fill: rgb(236, 156, 82);"/><path class="cls-2_marketing-campaign-55" d="m24.96,359.11s1.4,20.68,11.21,15.31c9.81-5.37-2.48-15.31-2.48-15.31h-8.73Z"/><path class="cls-13_marketing-campaign-55" d="m56.65,193.24s3.98,7.21,10.55,4.98c6.57-2.23,1.85-17.8,1.85-17.8,0,0,7.96-11.48,6.81-20.58-.63-4.99-7.41-5.74-9.71-1.27-1.17,2.28-3.42,4.25-7.65,4.72-11.21,1.25-21.49,18.94-1.87,29.94Z"/><path class="cls-14_marketing-campaign-55 targetColor" d="m102.07,240.65c-6.76-14.81,9.25-29.52,23.42-21.51,10.46,5.91,20.99,16.36,25.12,34.85,9.34,41.81,11.91,92.48,11.91,92.48l-10.74,1.17s-11.82-52.09-32-80.41c-4.83-6.79-13.55-17.45-17.72-26.57Z" style="fill: rgb(236, 156, 82);"/><g class="cls-10_marketing-campaign-55"><path class="cls-1_marketing-campaign-55" d="m102.07,240.65c-6.76-14.81,9.25-29.52,23.42-21.51,10.46,5.91,20.99,16.36,25.12,34.85,9.34,41.81,11.91,92.48,11.91,92.48l-10.74,1.17s-11.82-52.09-32-80.41c-4.83-6.79-13.55-17.45-17.72-26.57Z"/></g><path class="cls-2_marketing-campaign-55" d="m153.91,347.4s-5.57,15.29,1.45,16.12c9.19,1.09,7.16-17.06,7.16-17.06l-8.61.94Z"/></g><g id="laptop_marketing-campaign-55"><rect class="cls-3_marketing-campaign-55" x="293.76" y="431.24" width="98.66" height="24.23" transform="translate(686.18 886.7) rotate(-180)"/><rect class="cls-11_marketing-campaign-55" x="286.51" y="407.01" width="88.91" height="24.23" transform="translate(661.93 838.25) rotate(-180)"/><g class="cls-4_marketing-campaign-55"><path class="cls-14_marketing-campaign-55 targetColor" d="m349.28,392s11.66-3.18,14.19-14.03c0,0-18.06-3.65-18.57,14.99l4.38-.96Z" style="fill: rgb(236, 156, 82);"/></g><g class="cls-7_marketing-campaign-55"><path class="cls-14_marketing-campaign-55 targetColor" d="m347.85,390.85s8.14-12.87.98-24.91c0,0-13.73,8.72-7.63,24.94l6.65-.03Z" style="fill: rgb(236, 156, 82);"/></g><path class="cls-14_marketing-campaign-55 targetColor" d="m345.75,390.86s-4.3-13.6-17.31-16.17c0,0-2.44,8.83,8.42,16.21l8.89-.04Z" style="fill: rgb(236, 156, 82);"/><polygon class="cls-12_marketing-campaign-55" points="354.2 390.55 351.84 406.72 336.96 406.78 334.76 390.63 354.2 390.55"/><polygon class="cls-13_marketing-campaign-55" points="287.7 356.11 294.15 319.64 248.4 319.64 244.43 350.73 223.46 351.02 223.46 356.11 287.7 356.11"/><polygon class="cls-1_marketing-campaign-55" points="252.27 323.86 249.15 350.24 283.2 350.24 287.18 323.86 252.27 323.86"/><rect class="cls-11_marketing-campaign-55" x="209.71" y="354.89" width="102.36" height="100.57"/><g class="cls-8_marketing-campaign-55"><path d="m243.4,354.89s-27.62,79.59,26.55,100.54h-60.48v-100.54h33.93Z"/></g></g></svg>