<svg id="_0062_office_work" xmlns="http://www.w3.org/2000/svg" xmlns:xlink="http://www.w3.org/1999/xlink" viewBox="0 0 500 500" data-imageid="office-work-15" imageName="Office Work" class="illustrations_image" style="width: 178px;"><defs><style>.cls-1_office-work-15{fill:url(#linear-gradient);}.cls-1_office-work-15,.cls-2_office-work-15,.cls-3_office-work-15,.cls-4_office-work-15,.cls-5_office-work-15,.cls-6_office-work-15,.cls-7_office-work-15,.cls-8_office-work-15,.cls-9_office-work-15,.cls-10_office-work-15,.cls-11_office-work-15,.cls-12_office-work-15,.cls-13_office-work-15,.cls-14_office-work-15,.cls-15_office-work-15,.cls-16_office-work-15,.cls-17_office-work-15,.cls-18_office-work-15,.cls-19_office-work-15,.cls-20_office-work-15,.cls-21_office-work-15,.cls-22_office-work-15,.cls-23_office-work-15,.cls-24_office-work-15,.cls-25_office-work-15,.cls-26_office-work-15{stroke-width:0px;}.cls-2_office-work-15{opacity:.18;}.cls-2_office-work-15,.cls-25_office-work-15{fill:#68e1fd;}.cls-2_office-work-15,.cls-26_office-work-15{isolation:isolate;}.cls-3_office-work-15{fill:url(#linear-gradient-11-office-work-15);}.cls-4_office-work-15{fill:url(#linear-gradient-12-office-work-15);}.cls-5_office-work-15{fill:url(#linear-gradient-13-office-work-15);}.cls-6_office-work-15{fill:url(#linear-gradient-10-office-work-15);}.cls-7_office-work-15{fill:url(#linear-gradient-17-office-work-15);}.cls-8_office-work-15{fill:url(#linear-gradient-16-office-work-15);}.cls-9_office-work-15{fill:url(#linear-gradient-19-office-work-15);}.cls-10_office-work-15{fill:url(#linear-gradient-15-office-work-15);}.cls-11_office-work-15{fill:url(#linear-gradient-21-office-work-15);}.cls-12_office-work-15{fill:url(#linear-gradient-18-office-work-15);}.cls-13_office-work-15{fill:url(#linear-gradient-14-office-work-15);}.cls-14_office-work-15{fill:url(#linear-gradient-20-office-work-15);}.cls-15_office-work-15{fill:url(#linear-gradient-4-office-work-15);}.cls-16_office-work-15{fill:url(#linear-gradient-2-office-work-15);}.cls-17_office-work-15{fill:url(#linear-gradient-3-office-work-15);}.cls-18_office-work-15{fill:url(#linear-gradient-8-office-work-15);}.cls-19_office-work-15{fill:url(#linear-gradient-9-office-work-15);}.cls-20_office-work-15{fill:url(#linear-gradient-7-office-work-15);}.cls-21_office-work-15{fill:url(#linear-gradient-5-office-work-15);}.cls-22_office-work-15{fill:url(#linear-gradient-6-office-work-15);}.cls-23_office-work-15{fill:#231f20;}.cls-24_office-work-15{fill:#ffb4a3;}.cls-26_office-work-15{fill:#fff;opacity:.25;}</style><linearGradient id="linear-gradient-office-work-15" x1="313.11" y1="-206.16" x2="323.58" y2="-206.16" gradientTransform="translate(-86.96 602.09)" gradientUnits="userSpaceOnUse"><stop offset="0" stop-color="#231f20" stop-opacity="0"/><stop offset="1" stop-color="#231f20"/></linearGradient><linearGradient id="linear-gradient-2-office-work-15" x1="338.44" y1="-204.84" x2="343.25" y2="-204.84" xlink:href="#linear-gradient-office-work-15"/><linearGradient id="linear-gradient-3-office-work-15" x1="349.16" y1="-212.78" x2="377.75" y2="-225.55" xlink:href="#linear-gradient-office-work-15"/><linearGradient id="linear-gradient-4-office-work-15" x1="348.71" y1="-249.9" x2="313.97" y2="-238.25" xlink:href="#linear-gradient-office-work-15"/><linearGradient id="linear-gradient-5-office-work-15" x1="367.99" y1="-212.2" x2="278.93" y2="-182.33" xlink:href="#linear-gradient-office-work-15"/><linearGradient id="linear-gradient-6-office-work-15" x1="371" y1="-203.16" x2="367.91" y2="-202.12" xlink:href="#linear-gradient-office-work-15"/><linearGradient id="linear-gradient-7-office-work-15" x1="336.92" y1="-212.01" x2="309.86" y2="-219.36" xlink:href="#linear-gradient-office-work-15"/><linearGradient id="linear-gradient-8-office-work-15" x1="369.3" y1="-201.76" x2="368.25" y2="-201.41" xlink:href="#linear-gradient-office-work-15"/><linearGradient id="linear-gradient-9-office-work-15" x1="204.71" y1="66.25" x2="443.19" y2="744.55" gradientTransform="matrix(1,0,0,1,0,0)" xlink:href="#linear-gradient-office-work-15"/><linearGradient id="linear-gradient-10-office-work-15" x1="318.48" y1="227.71" x2="339.33" y2="432.31" gradientTransform="matrix(1,0,0,1,0,0)" xlink:href="#linear-gradient-office-work-15"/><linearGradient id="linear-gradient-11-office-work-15" x1="205.15" y1="-168.2" x2="162.91" y2="-166.58" xlink:href="#linear-gradient-office-work-15"/><linearGradient id="linear-gradient-12-office-work-15" x1="211.58" y1="-187.57" x2="176.58" y2="-186.37" xlink:href="#linear-gradient-office-work-15"/><linearGradient id="linear-gradient-13-office-work-15" x1="122.13" y1="-217.82" x2="104.42" y2="-132.54" gradientTransform="translate(-31.01 602.5)" xlink:href="#linear-gradient-office-work-15"/><linearGradient id="linear-gradient-14-office-work-15" x1="170.08" y1="-197.53" x2="134.45" y2="-360.04" xlink:href="#linear-gradient-office-work-15"/><linearGradient id="linear-gradient-15-office-work-15" x1="172.1" y1="-194.24" x2="167.93" y2="-213.23" xlink:href="#linear-gradient-office-work-15"/><linearGradient id="linear-gradient-16-office-work-15" x1="167.09" y1="-185.74" x2="207.07" y2="-322.6" xlink:href="#linear-gradient-office-work-15"/><linearGradient id="linear-gradient-17-office-work-15" x1="578.28" y1="-362.57" x2="422.22" y2="-465.88" xlink:href="#linear-gradient-office-work-15"/><linearGradient id="linear-gradient-18-office-work-15" x1="551.54" y1="-306.89" x2="443.06" y2="-408.04" xlink:href="#linear-gradient-office-work-15"/><linearGradient id="linear-gradient-19-office-work-15" x1="351.13" y1="2992.72" x2="377.17" y2="2888.34" gradientTransform="translate(-31.01 3234.34) scale(1 -1)" xlink:href="#linear-gradient-office-work-15"/><linearGradient id="linear-gradient-20-office-work-15" x1="308.41" y1="2976.17" x2="395.91" y2="2946.85" gradientTransform="translate(-31 3234.34) scale(1 -1)" xlink:href="#linear-gradient-office-work-15"/><linearGradient id="linear-gradient-21-office-work-15" x1="308.13" y1="2954.28" x2="305.84" y2="2937.65" gradientTransform="translate(-31.01 3234.34) scale(1 -1)" xlink:href="#linear-gradient-office-work-15"/></defs><path id="background_office-work-15" class="cls-2_office-work-15 targetColor" d="M370.72,138.99c-13.86-15.76-24.59-34.59-41.15-47.45-26.02-20.25-63.47-22.23-93.89-9.5-30.42,12.72-54.12,38.37-69.75,67.4-8.22,15.28-14.67,31.94-26.71,44.43-10.18,10.55-23.56,17.28-36.24,24.61-20.45,11.78-40.15,26.02-53.38,45.56-13.23,19.54-19.15,45.2-10.69,67.22,5.7,14.86,17.2,26.68,28.97,37.38,13.85,12.58,28.74,24.37,45.93,31.87,21.51,9.33,45.4,11.33,68.81,12.28,41.52,1.68,83.1.42,124.44-3.75,33.85-3.41,68.73-9.24,97.06-28.09,39.68-26.4,60.14-74.77,64.74-122.2,1.87-18.97,1.4-38.68-5.92-56.29-17.51-42.1-64.77-32.25-92.22-63.48Z" style="fill: rgb(236, 156, 82);"/><g id="chair_office-work-15"><path class="cls-25_office-work-15 targetColor" d="M276.53,390.94l-22.73,6.73c-3.3.97-6.77-.91-7.75-4.21h0c-.97-3.3.91-6.77,4.21-7.75l22.69-6.74c3.3-.97,6.76.91,7.75,4.21h0c.98,3.3-.89,6.76-4.18,7.76Z" style="fill: rgb(236, 156, 82);"/><circle class="cls-23_office-work-15" cx="275.25" cy="405.33" r="10.47"/><circle class="cls-23_office-work-15" cx="273.36" cy="406.29" r="5.24"/><circle class="cls-23_office-work-15" cx="233.27" cy="394.98" r="10.47"/><path class="cls-1_office-work-15" d="M236.62,395.93c0,2.89-2.34,5.24-5.24,5.24s-5.24-2.34-5.24-5.24,2.34-5.24,5.24-5.24,5.24,2.34,5.24,5.24h0Z"/><circle class="cls-23_office-work-15" cx="230.24" cy="409.3" r="10.47"/><path class="cls-23_office-work-15" d="M238.51,409.65c0,2.89-2.34,5.24-5.24,5.24s-5.24-2.34-5.24-5.24,2.34-5.24,5.24-5.24,5.24,2.34,5.24,5.24h0Z"/><path class="cls-25_office-work-15 targetColor" d="M277.36,401.21l-47.89-9.67c-3.37-.69-5.55-3.97-4.87-7.35h0c.69-3.37,3.97-5.55,7.34-4.87l47.89,9.65c3.37.69,5.55,3.97,4.87,7.35h0c-.68,3.38-3.96,5.56-7.34,4.89Z" style="fill: rgb(236, 156, 82);"/><path class="cls-25_office-work-15 targetColor" d="M247.83,325.97h13.08v55.08c0,3.61-2.93,6.54-6.54,6.54h0c-3.61,0-6.54-2.93-6.54-6.54v-55.08h0Z" style="fill: rgb(236, 156, 82);"/><path class="cls-25_office-work-15 targetColor" d="M252.52,397.59l-22.72,6.74c-3.3.97-6.77-.91-7.75-4.21h0c-.97-3.3.91-6.77,4.21-7.75l22.72-6.72c3.3-.97,6.76.91,7.75,4.21h0c.96,3.3-.92,6.75-4.21,7.74Z" style="fill: rgb(236, 156, 82);"/><path class="cls-16_office-work-15" d="M256.29,396.93l-2.5.74c-.75.22-1.53.3-2.3.23l1.04-.31c.73-.21,1.41-.56,2.01-1.02l1.75.35Z"/><path class="cls-17_office-work-15" d="M280.97,384.97c0,1.44-.5,2.83-1.41,3.94l-19.87-4.02c.5-.68.86-1.45,1.06-2.27l12.24-3.62c3.32-.96,6.78.96,7.74,4.27,0,0,0,0,0,0,.16.55.24,1.13.24,1.71Z"/><path class="cls-15_office-work-15" d="M248,382.54c-.11-.49-.17-.99-.17-1.49v-55.08h4.54v59.36c-.04.29-.03.59.04.87-.69-.3-1.43-.46-2.17-.48-.53-.04-1.06-.04-1.59,0l.32-.09c.2-.04-.72-1.97-.98-3.09Z"/><path class="cls-23_office-work-15" d="M202.77,223.18c-8.61-1.57-16.76.05-20.16,8.47-4.45,11.03-1.95,26.35-1.01,37.86,1.04,12.79,3.93,25.36,7.26,37.73,2.8,10.41,3.7,22.61,14.05,28.32,4.8,2.65,10.27,3.78,15.66,4.75,19.96,3.6,40.74,5.03,60.61.09,2.08-.52,4.22-1.14,5.8-2.59,3.34-3.07,2.82-8.47,1.43-12.79-.77-2.41-1.76-4.8-3.38-6.75-1.77-2.13-4.21-3.62-6.71-4.82-4.82-2.32-10.02-3.75-14.92-5.89s-9.65-5.18-12.39-9.78c-2.32-3.89-2.97-8.5-3.72-12.96-1.4-8.41-3.27-16.75-5.6-24.95-2.5-8.83-5.73-17.82-12.19-24.34-4.69-4.73-15-10.58-24.72-12.35Z"/><path class="cls-21_office-work-15" d="M281.56,400.54c-.91.51-1.94.77-2.98.77-.42,0-.84-.04-1.25-.12l-21.07-4.26-1.76-.35c-.6.46-1.28.81-2.01,1.02l-1.04.31-21.65,6.44c-3.3.97-6.77-.91-7.75-4.21,1.88,1.74,4.73,1.91,6.79.39,2.64-1.83,13.17-4.58,19.13-6.04,2.82-.67,4.97-2.94,5.5-5.79.01-.17.04-.33.07-.5.99,1.07,2.82,2.28,6.12,3.31,8.12,2.5,21.31,4.16,21.31,4.16,0,0,2.38,2.34.59,4.9Z"/><path class="cls-22_office-work-15" d="M283.82,398.44c-.41.64-.94,1.21-1.56,1.66.42-.43.96-1.01,1.56-1.66Z"/><path class="cls-20_office-work-15" d="M248,382.54c.26,1.11.8,2.13,1.57,2.96-.19.04-.39.09-.59.14l-19.7,5.83c-3.34-.85-5.37-4.25-4.52-7.59.69-2.72,3.11-4.65,5.92-4.71.42,0,.84.04,1.25.12l16.06,3.24Z"/><path class="cls-18_office-work-15" d="M282.27,400.09c-.79.81-1.16,1.11-.69.44.24-.13.47-.28.69-.44Z"/></g><g id="character_foot_office-work-15"><path class="cls-23_office-work-15" d="M343.94,307.08c.56.33,1.1.7,1.61,1.14,4.21,3.67,7.94,7.98,10.91,12.71,4.22,6.71,6.82,14.54,6.13,22.53-1.81,20.99-4.47,52.17-4.47,52.17,0,0-8.22,3.46-13.67,0s-8.75-50.83-11.45-55.36c-2.79-4.68-6.81-8.85-10.72-12.59-2.95-2.82-6.11-5.45-9.52-7.71-1.77-1.17-3.13-2.1-5.2-2.58-2.48-.57-4.97-1.14-7.45-1.72-1.79-.41-3.6-.83-5.3-1.54-1.34-.56-2.59-1.3-3.84-2.03-5.99-3.52-11.98-7.04-17.73-10.94.42-.51,1.06-.78,1.68-1.02,8.06-3.04,16.95-2.7,25.47-4.04,4.69-.74,9.31-2,14.04-2.47s9.71-.08,13.85,2.27c3.69,2.1,6.37,5.48,9.73,8.01,1.86,1.4,4.02,2.04,5.95,3.17Z"/><path class="cls-23_office-work-15" d="M241.45,321.34c1.41,1.51,2.96,2.83,4.56,3.88,6.78,4.43,14.56,7.33,22.53,8.67,17.52,2.94,25.69,5.4,31.04,20.46,5.35,15.07,10.49,47.49,12.17,51.11,1.68,3.62,8.83,1.77,8.83,1.77,0,0,4.04-4.64,4.04-30.42,0-35.94,2.5-43.31-6.5-52.34-3.52-3.53-7.48-6.65-11.84-9.06-1.51-.83-3.06-1.2-4.6-1.87-2.21-.96-3.9-3.22-5.61-4.88-1.12-1.09-2.25-2.19-3.62-2.94-1.18-.65-2.5-1-3.82-1.29-5.22-1.12-10.6-1.18-15.94-1.24-11.5-.12-22.99-.23-34.49-.35-.8,0-1.66,0-2.29.5-.7.55-.89,1.52-.94,2.41-.31,5.56,2.52,11.33,6.47,15.58Z"/><path class="cls-25_office-work-15 targetColor" d="M321.5,284.81c1.72,2.61,3.83,5.79,4.23,8.23.28,1.72-.46,3.46-1.43,4.91-3.71,5.54-10.49,8.04-16.9,9.86-21.45,6.08-44,8.27-66.22,6.44-1.09-.09-2.2-.2-3.18-.67-2.12-1.03-3.07-3.49-3.79-5.73-3.08-9.57-5.35-19.39-6.78-29.34-.23-1.57-.41-3.27.35-4.65.41-.74,1.04-1.31,1.67-1.87,1.98-1.78,3.89-3.43,5.48-5.53,1.14-1.52,1.11-2.29,3.1-3.15,3.2-1.38,7.19-1.04,10.59-1.24,13.69-.82,27.34-2.13,40.94-3.93,3.71-.49,7.46-1.02,11.18-.66,3.39.32,7.3,1.48,9.69,4.05,1.93,2.07,2.04,4.85,2.99,7.37,1.81,4.78,4.05,9.4,6.7,13.78.39.64.87,1.37,1.38,2.15Z" style="fill: rgb(236, 156, 82);"/><path class="cls-23_office-work-15" d="M311.76,405.47l1.67,13.15h3.12s20.12,1.1,20.75.62-.97-10.42-8.59-10.14-8.12-1.87-8.12-1.87l-8.83-1.77Z"/><path class="cls-23_office-work-15" d="M346.9,396.71l3.25,12.95,35.5-4.87s1.25-8.5-10-7.66c-2.97.22-5.18,2.31-8.75,2.32-3.57.02-6.99-1.44-8.79-3.82h0l-11.22,1.08Z"/></g><g id="table_office-work-15"><path class="cls-25_office-work-15 targetColor" d="M151.38,442.15l11.04.37v-88.17s.56-22.8,22.08-25.09c21.52-2.29,216.68-30.54,216.68-30.54,0,0,7.74-.82,12.19,14.02,4.46,14.83,8.79,73.16,8.79,73.16l59.9,8.07s1.58-103.04-20.05-108.72c-21.63-5.69-304.53,23.29-304.53,23.29,0,0-20.98,109.44-6.1,133.61Z" style="fill: rgb(236, 156, 82);"/><path class="cls-19_office-work-15" d="M151.38,442.15l11.04.37v-88.17s.56-22.8,22.08-25.09c21.52-2.29,216.68-30.54,216.68-30.54,0,0,7.74-.82,12.19,14.02,4.46,14.83,8.79,73.16,8.79,73.16l59.9,8.07s1.58-103.04-20.05-108.72c-21.63-5.69-304.53,23.29-304.53,23.29,0,0-20.98,109.44-6.1,133.61Z"/><path class="cls-25_office-work-15 targetColor" d="M93.12,319.36s5.41-29.94,43.47-37.79l268.66-30.78s26.37-1.09,38.44,6.21c12.07,7.3,29.29,13.36,36.35,46.41,7.06,33.05,8.75,89.52,8.75,89.52l-6.68,1.04s-9.75-102.25-20.08-108.72c-10.33-6.47-289.59,33.24-289.59,33.24,0,0-19.37,3.86-21.06,32.56-1.69,28.71,0,91.09,0,91.09l-58.26-23.52v-99.26Z" style="fill: rgb(236, 156, 82);"/></g><path id="shadow_office-work-15" class="cls-6_office-work-15" d="M369.52,262.31c-13.9-1.81-27.92-3.12-41.93-2.59-10.53.41-20.99,1.87-31.43,3.33l-92.08,12.88c-1.56.22-3.34.57-4.12,1.95-1.5,2.62,2.02,5.21,4.88,6.21,30.62,10.73,63.33,21.61,94.85,13.95,14.41-3.5,27.79-10.77,42.41-13.29,14.62-2.52,29.62-.2,44.2-2.58,13.71-2.24,26.76-8.59,40.66-8.65,4.26,0,8.65.55,12.69-.8s7.62-5.47,6.5-9.59c-13.05-.46-27.69-2.87-40.49-.25-12.67,2.59-23.44-.57-36.13-.57Z"/><g id="plant_office-work-15"><path class="cls-25_office-work-15 targetColor" d="M109.89,424.33l-6.72,20.4c-19.48,6.92-36.05,0-36.05,0l-4.82-21.39s24.3,8.05,47.58.99Z" style="fill: rgb(236, 156, 82);"/><path class="cls-3_office-work-15" d="M109.89,424.33l-6.72,20.4c-19.48,6.92-36.05,0-36.05,0l-4.82-21.39s24.3,8.05,47.58.99Z"/><path class="cls-25_office-work-15 targetColor" d="M117.51,405.34l-2.16,16.12-5.46,2.86c-23.26,7.06-47.58-.99-47.58-.99l-4.19-3.12-1.96-14.87h61.35Z" style="fill: rgb(236, 156, 82);"/><path class="cls-4_office-work-15" d="M117.51,405.34l-2.16,16.12-5.46,2.86c-23.26,7.06-47.58-.99-47.58-.99l-4.19-3.12-1.96-14.87h61.35Z"/><ellipse class="cls-25_office-work-15 targetColor" cx="86.83" cy="405.34" rx="30.67" ry="5.52" style="fill: rgb(236, 156, 82);"/><ellipse class="cls-5_office-work-15" cx="86.83" cy="405.34" rx="30.67" ry="5.52"/><path class="cls-25_office-work-15 targetColor" d="M72.24,282.23c-3.01-1.42-6.25-2.5-8.85-4.58-5.25-4.23-6.58-11.52-8.22-18.05-1.64-6.54-4.82-13.72-11.3-15.6-2.42-.69-5.27-.42-7.11,1.31-1.94,1.82-2.34,4.81-1.81,7.44s1.82,5,2.82,7.5c2.33,5.81,3.05,12.14,2.06,18.31-.82,5.07-2.77,10.2-1.52,15.17,2.13,8.43,12.75,13.37,13.04,22.06.2,5.86-4.62,11.28-3.53,17.05.81,4.27,4.74,7.6,4.95,11.93.24,4.92-4.41,9.08-4.19,14,.22,4.92,5.14,8.2,8.34,12.07,2.69,3.25,4.29,7.26,4.57,11.47.17,2.62-.17,5.34.69,7.83.62,1.82,1.87,3.36,2.84,5,1.07,1.77,1.87,3.68,3.16,5.32,3.31,4.17,8.83,5.91,13.93,4.37.99-6.54.12-13.2.4-19.81.54-12.8,5.39-25.69,2.29-38.12-1.14-4.56-3.32-8.88-3.71-13.55-.34-4.17.77-8.31,1.54-12.43,1.6-8.5,1.57-17.3.92-25.89-.52-6.82-5.32-9.97-11.31-12.8Z" style="fill: rgb(236, 156, 82);"/><path class="cls-25_office-work-15 targetColor" d="M91.39,315.75c-.05,5.7,1.25,11.6-.57,17.02-1.38,4.11-4.42,7.47-5.99,11.5-3.62,9.32,1.25,19.76.26,29.71-.41,4.1-1.82,8.04-2.71,12.06-1.1,5.09-1.37,10.33-.8,15.52-.12,1.95,1.21,3.69,3.12,4.09,3.06,1.17,6.23,2.02,9.47,2.56-1.09-6.03.06-12.25,3.24-17.5,4.96-8.12,14.58-13.6,16.38-22.93,1.21-6.32-1.61-12.73-1.41-19.16.14-4.28,1.62-8.41,4.21-11.81,2.33-3.04,5.49-5.39,7.65-8.54,5.21-7.59,3.59-17.74,2.04-26.82-1.55-9.08-2.45-19.53,3.67-26.41,1.94-2.17,4.46-3.81,6.22-6.13,3.91-5.18,2.92-13.16-1.62-17.79-4.55-4.63-11.87-5.91-18.06-3.87-2.61.77-4.91,2.34-6.59,4.48-3.12,4.44-1.87,10.5-.55,15.77,1.16,4.58,2.09,9.87.51,14.48-1.18,3.44-4.17,5.3-6.72,7.69-7.28,6.74-11.52,16.14-11.75,26.06Z" style="fill: rgb(236, 156, 82);"/><path class="cls-13_office-work-15" d="M84.93,366.3c-.89,6.2-2.17,12.45-2.43,18.66v.62c-.01.15-.05.31-.11.45-1.11,5.09-1.38,10.33-.82,15.51.03.84.25,1.66.62,2.41-.03.26-.07.52-.11.78-5.1,1.53-10.62-.2-13.93-4.37-1.25-1.64-2.09-3.55-3.16-5.32-1-1.64-2.22-3.19-2.84-5-.86-2.5-.52-5.2-.69-7.83-.28-4.21-1.88-8.22-4.57-11.47-3.21-3.84-8.12-7.07-8.34-12.07s4.42-9.08,4.19-14c-.21-4.34-4.14-7.67-4.95-11.93-1.09-5.77,3.75-11.19,3.53-17.05-.29-8.69-10.91-13.63-13.04-22.06-1.25-4.97.7-10.1,1.52-15.17.99-6.17.29-12.49-2.03-18.3-1-2.5-2.29-4.86-2.82-7.5s-.14-5.62,1.81-7.45c1.87-1.72,4.69-2,7.11-1.31,6.49,1.87,9.65,9.09,11.3,15.62,1.65,6.54,2.97,13.82,8.22,18.05,2.59,2.09,5.84,3.16,8.85,4.58,6,2.84,10.8,5.98,11.31,12.74.62,8.6.68,17.39-.92,25.89-.77,4.12-1.87,8.25-1.54,12.43s2.15,8.12,3.34,12.17c.13.46.26.92.37,1.38,1.57,6.43,1.07,12.93.12,19.5Z"/><path class="cls-10_office-work-15" d="M82.23,403.97c-.39-.75-.61-1.57-.66-2.41-.56-5.18-.28-10.42.83-15.51.03-.15.07-.3.11-.45-.22,6.14.49,12.32-.28,18.37Z"/><path class="cls-8_office-work-15" d="M136.08,268.89c-1.76,2.32-4.28,3.96-6.22,6.13-6.12,6.87-5.22,17.33-3.67,26.41s3.17,19.23-2.04,26.82c-2.17,3.12-5.32,5.5-7.65,8.54-2.6,3.4-4.07,7.53-4.21,11.81-.2,6.43,2.62,12.84,1.41,19.16-1.79,9.33-11.42,14.82-16.38,22.93-3.17,5.25-4.31,11.47-3.21,17.5-3.23-.53-6.39-1.39-9.44-2.56-.84-.25-1.59-.71-2.2-1.33-.09-.1-.16-.21-.23-.32-.39-.74-.61-1.56-.66-2.4-.56-5.18-.28-10.42.83-15.51.03-.15.07-.3.11-.45.89-3.87,2.2-7.66,2.6-11.61.21-2.56.16-5.14-.15-7.69.94-6.56,1.45-13.07-.14-19.45-.11-.46-.24-.92-.37-1.38.12-.4.26-.8.41-1.19,1.57-4.04,4.61-7.4,5.99-11.5,1.82-5.42.52-11.32.57-17.02.08-9.85,4.52-19.37,11.66-26.09,2.54-2.39,5.54-4.26,6.72-7.69,1.58-4.62.62-9.9-.51-14.48-1.33-5.27-2.59-11.33.55-15.77,1.56-2.2,4.02-3.63,6.59-4.48,6.16-2.04,13.52-.76,18.06,3.87,4.54,4.63,5.5,12.64,1.59,17.79Z"/></g><g id="monitor_office-work-15"><path class="cls-25_office-work-15 targetColor" d="M470.7,233.83l-134.39,7.2c-3.25.17-6.02-2.32-6.2-5.57v-95.54c0-3.86,3.09-7,6.94-7.09l133.84-2.76c3.57-.07,6.53,2.77,6.6,6.34,0,0,0,0,0,0v90.25c0,3.81-2.99,6.96-6.8,7.17Z" style="fill: rgb(236, 156, 82);"/><path class="cls-25_office-work-15 targetColor" d="M476.9,233.83l-134.39,7.2c-3.25.17-6.02-2.33-6.19-5.58v-95.53c0-3.86,3.08-7.01,6.94-7.09l133.85-2.76c3.57-.07,6.52,2.77,6.59,6.34v90.26c0,3.81-2.99,6.96-6.8,7.17Z" style="fill: rgb(236, 156, 82);"/><path class="cls-7_office-work-15" d="M476.9,233.83l-134.39,7.2c-3.25.17-6.02-2.33-6.19-5.58v-95.53c0-3.86,3.08-7.01,6.94-7.09l133.85-2.76c3.57-.07,6.52,2.77,6.59,6.34v90.26c0,3.81-2.99,6.96-6.8,7.17Z"/><path class="cls-25_office-work-15 targetColor" d="M437.77,269.81l-34.12,3.64s-10.39-2.1-9.83-3.64,11.43-3.02,11.43-3.02v-61.96h0c-.09-.14-1.52-1.96-5.44-3.12h0c-.76-.23-1.53-.4-2.31-.54-.67-.1-1.32-.3-1.94-.59-2.33-1.21.24-3.31,3.86-3.4.57-.02,1.13.01,1.69.1h26.24s9.94,2.8,10.42,16.77c.48,13.97,0,55.76,0,55.76Z" style="fill: rgb(236, 156, 82);"/><path class="cls-25_office-work-15 targetColor" d="M410,269.94l-6.37,3.51s-10.39-2.1-9.83-3.64,11.45-3.02,11.45-3.02v-61.96h0c-.13-.14-1.72-1.79-5.44-3.12h0c-1.38-.49-2.81-.86-4.25-1.12-2.33-1.21.24-3.31,3.86-3.4,3.08.42,9.15,3.79,9.54,5.72s1.04,67.04,1.04,67.04Z" style="fill: rgb(236, 156, 82);"/><path class="cls-12_office-work-15" d="M410,269.94l-6.37,3.51s-10.39-2.1-9.83-3.64,11.45-3.02,11.45-3.02v-61.96h0c-.13-.14-1.72-1.79-5.44-3.12h0c-1.38-.49-2.81-.86-4.25-1.12-2.33-1.21.24-3.31,3.86-3.4,3.08.42,9.15,3.79,9.54,5.72s1.04,67.04,1.04,67.04Z"/></g><g id="mouse_keyboard_office-work-15"><path class="cls-25_office-work-15 targetColor" d="M286.25,278l.54,2.06s15.91,9.89,15.81,10.21,65.99-15.79,65.99-15.79l1.54-4.62-83.87,8.15Z" style="fill: rgb(236, 156, 82);"/><path class="cls-9_office-work-15" d="M286.25,278l.54,2.06s15.91,9.89,15.81,10.21,65.99-15.79,65.99-15.79l1.54-4.62-83.87,8.15Z"/><polygon class="cls-25_office-work-15 targetColor" points="287.73 278 345.87 264.9 370.11 269.86 304.06 286.47 287.73 278" style="fill: rgb(236, 156, 82);"/><polygon class="cls-14_office-work-15" points="287.73 278 345.87 264.9 370.11 269.86 304.06 286.47 287.73 278"/><path class="cls-25_office-work-15 targetColor" d="M269.43,288.37l13.8.46s3.51.21,4.41-2.46-5.62-8.28-6.32-8.39-18.86,4.72-16.25,9.54l4.36.84Z" style="fill: rgb(236, 156, 82);"/><path class="cls-11_office-work-15" d="M269.43,288.37l13.8.46s3.51.21,4.41-2.46-5.62-8.28-6.32-8.39-18.86,4.72-16.25,9.54l4.36.84Z"/></g><g id="character_body_office-work-15"><path class="cls-23_office-work-15" d="M278.34,117.22s-.26-19.42-15.82-17.75c-15.56,1.67-14.37-4.76-21.02-4.05-6.65.71-14.37,7.27-12.15,15.37s-5.87,9.92-11.18,16.06c-5.31,6.15,1.25,11.18,10.2,17.19,8.95,6.01-.56,4.46,4.75,13.96,5.3,9.5,23.26-2.64,23.26-2.64l21.96-38.15Z"/><path class="cls-25_office-work-15 targetColor" d="M246.83,170.9s-26.29,4.02-38.45,32.68c-12.16,28.66-5.84,64.17-5.62,67.3s37.26,16.68,47.85,16.68,12.8-10.49,12.8-10.49l-18.71-7.88,56.86-6.49h10.21l-5.62,9.37s11.1,1.15,18.51,1.41c7.42.26,12.45-14.24,13.28-21.45s-32.76-70.5-37.78-74.25c-5.02-3.75-18.63-12.91-53.33-6.87Z" style="fill: rgb(236, 156, 82);"/><path class="cls-24_office-work-15" d="M278.54,117.01c.88.8,1.63,1.76,2.18,2.89,1.22,2.49,1.4,5.34,1.41,8.11.02,5.6-.56,11.2-1.72,16.68-.99,4.64-2.96,9.82-7.45,11.36-1.66.57-3.41.52-5.11.15-1.43-.31-2.83-.89-2.92,1.28-.1,2.26,1.9,4.69,2.89,6.66,1.56,3.11,3.26,6.89,5.98,9.17,3.76,3.14-3.78,14.72-11.12,10.92s-15.84-13.34-15.84-13.34c0,0,6.12-11.49,4.05-17.54-.66-1.93-1.18-4.02-2.01-5.88-.62-1.41-1.72-4.98-2.76-5.86-.28-.24-.66-.29-1.01-.4-1.84-.58-2.72-2.66-3.05-4.56-.3-1.72-.16-3.86,1.37-4.7,1.12-.61,2.58-.21,3.56.63s1.56,2.02,2.13,3.17c-.35-3.68-.31-7.49,1.04-10.93,1.35-3.44,4.23-6.45,7.85-7.16,1.6-.31,3.29-.17,4.84-.69,1.05-.35,1.98-.98,2.97-1.49,4.05-2.09,9.37-1.52,12.73,1.52Z"/><polygon class="cls-26_office-work-15" points="236.19 212.16 232.07 262.69 244.66 269.18 254.91 267.43 242.13 252 236.19 212.16"/><path class="cls-26_office-work-15" d="M302.59,209.64s16.46,39.18,9.17,53.08l-5.62-1.08-3.54-52Z"/><path class="cls-24_office-work-15" d="M256.57,275.25s-6.29,5.62-3.48,10c2.81,4.37,6.15,4.25,8.95,2.29s8.28-6.6,14.82-4.47,8.12,3.49,8.12,3.49c0,0,3.44-2.26,2.55-4.52s-7.73-9.59-9.71-10.54c-1.98-.95-10.2,1.97-10.2,1.97,0,0-6.04-1.71-11.04,1.78Z"/><path class="cls-24_office-work-15" d="M313.63,264.7s-5.99.69-7.5,4.49c-1.51,3.8-2.06,4.26-2.06,4.26,0,0,3.38.62,4.79-1.14s2.87-1.02,2.87-1.02l-.42,2.27s9.19,1.34,13.33-.1c4.15-1.44,5.93-3.12,5.93-3.12l1.62-3.84s-3.92-2.74-6.87-3.17-11.7,1.38-11.7,1.38Z"/></g></svg>