<svg id="_0270_order_confirmation" xmlns="http://www.w3.org/2000/svg" xmlns:xlink="http://www.w3.org/1999/xlink" viewBox="0 0 500 500" data-imageid="order-confirmed-2-78" imageName="Order Confirmed 2" class="illustrations_image" style="width: 158px;"><defs><style>.cls-1_order-confirmed-2-78{fill:url(#linear-gradient);}.cls-1_order-confirmed-2-78,.cls-2_order-confirmed-2-78,.cls-3_order-confirmed-2-78,.cls-4_order-confirmed-2-78,.cls-5_order-confirmed-2-78,.cls-6_order-confirmed-2-78,.cls-7_order-confirmed-2-78,.cls-8_order-confirmed-2-78,.cls-9_order-confirmed-2-78,.cls-10_order-confirmed-2-78,.cls-11_order-confirmed-2-78,.cls-12_order-confirmed-2-78,.cls-13_order-confirmed-2-78,.cls-14_order-confirmed-2-78,.cls-15_order-confirmed-2-78,.cls-16_order-confirmed-2-78,.cls-17_order-confirmed-2-78,.cls-18_order-confirmed-2-78,.cls-19_order-confirmed-2-78,.cls-20_order-confirmed-2-78{stroke-width:0px;}.cls-2_order-confirmed-2-78{fill:url(#linear-gradient-11-order-confirmed-2-78);}.cls-3_order-confirmed-2-78{fill:url(#linear-gradient-12-order-confirmed-2-78);}.cls-4_order-confirmed-2-78{fill:url(#linear-gradient-13-order-confirmed-2-78);}.cls-5_order-confirmed-2-78{fill:url(#linear-gradient-10-order-confirmed-2-78);}.cls-6_order-confirmed-2-78{fill:url(#linear-gradient-15-order-confirmed-2-78);}.cls-7_order-confirmed-2-78{fill:url(#linear-gradient-14-order-confirmed-2-78);}.cls-8_order-confirmed-2-78{fill:url(#linear-gradient-4-order-confirmed-2-78);}.cls-9_order-confirmed-2-78{fill:url(#linear-gradient-2-order-confirmed-2-78);}.cls-10_order-confirmed-2-78{fill:url(#linear-gradient-3-order-confirmed-2-78);}.cls-11_order-confirmed-2-78{fill:url(#linear-gradient-8-order-confirmed-2-78);}.cls-12_order-confirmed-2-78{fill:url(#linear-gradient-9-order-confirmed-2-78);}.cls-13_order-confirmed-2-78{fill:url(#linear-gradient-7-order-confirmed-2-78);}.cls-14_order-confirmed-2-78{fill:url(#linear-gradient-5-order-confirmed-2-78);}.cls-15_order-confirmed-2-78{fill:url(#linear-gradient-6-order-confirmed-2-78);}.cls-16_order-confirmed-2-78{isolation:isolate;opacity:.24;}.cls-16_order-confirmed-2-78,.cls-20_order-confirmed-2-78{fill:#68e1fd;}.cls-17_order-confirmed-2-78{fill:#231f20;}.cls-18_order-confirmed-2-78{fill:#fff;}.cls-19_order-confirmed-2-78{fill:#ffb4a3;}</style><linearGradient id="linear-gradient-order-confirmed-2-78" x1="-42.56" y1="3057.44" x2="-78.18" y2="2899.53" gradientTransform="translate(387.25 3202.93) scale(1 -1)" gradientUnits="userSpaceOnUse"><stop offset="0" stop-color="#231f20" stop-opacity="0"/><stop offset="1" stop-color="#231f20"/></linearGradient><linearGradient id="linear-gradient-2-order-confirmed-2-78" x1="-27.84" y1="2965.74" x2="-116.09" y2="2898.76" xlink:href="#linear-gradient-order-confirmed-2-78"/><linearGradient id="linear-gradient-3-order-confirmed-2-78" x1="-147.09" y1="2895.69" x2="-166.23" y2="2209.83" xlink:href="#linear-gradient-order-confirmed-2-78"/><linearGradient id="linear-gradient-4-order-confirmed-2-78" x1="-161.75" y1="2987.39" x2="240.2" y2="2898.07" gradientTransform="translate(409 3210.11) scale(1 -1)" xlink:href="#linear-gradient-order-confirmed-2-78"/><linearGradient id="linear-gradient-5-order-confirmed-2-78" x1="-180.51" y1="2851.59" x2="-104.76" y2="2830.55" gradientTransform="translate(409 3210.11) scale(1 -1)" xlink:href="#linear-gradient-order-confirmed-2-78"/><linearGradient id="linear-gradient-6-order-confirmed-2-78" x1="-177.28" y1="2853.43" x2="-318.69" y2="2785.53" gradientTransform="translate(409 3210.11) scale(1 -1)" xlink:href="#linear-gradient-order-confirmed-2-78"/><linearGradient id="linear-gradient-7-order-confirmed-2-78" x1="-277.59" y1="2851.59" x2="-201.83" y2="2830.55" gradientTransform="translate(409 3210.11) scale(1 -1)" xlink:href="#linear-gradient-order-confirmed-2-78"/><linearGradient id="linear-gradient-8-order-confirmed-2-78" x1="-274.35" y1="2853.43" x2="-415.76" y2="2785.53" gradientTransform="translate(409 3210.11) scale(1 -1)" xlink:href="#linear-gradient-order-confirmed-2-78"/><linearGradient id="linear-gradient-9-order-confirmed-2-78" x1="-157.78" y1="2851.59" x2="-82.03" y2="2830.55" gradientTransform="translate(409 3210.11) scale(1 -1)" xlink:href="#linear-gradient-order-confirmed-2-78"/><linearGradient id="linear-gradient-10-order-confirmed-2-78" x1="-154.55" y1="2853.43" x2="-295.96" y2="2785.53" gradientTransform="translate(409 3210.11) scale(1 -1)" xlink:href="#linear-gradient-order-confirmed-2-78"/><linearGradient id="linear-gradient-11-order-confirmed-2-78" x1="-244.28" y1="2904.73" x2="-234.31" y2="2870.05" xlink:href="#linear-gradient-order-confirmed-2-78"/><linearGradient id="linear-gradient-12-order-confirmed-2-78" x1="-247.26" y1="2949.72" x2="-227.72" y2="2940.34" xlink:href="#linear-gradient-order-confirmed-2-78"/><linearGradient id="linear-gradient-13-order-confirmed-2-78" x1="-2881.46" y1="2961.3" x2="-2676.24" y2="2875.69" gradientTransform="translate(-2629.86 3202.93) rotate(-180)" xlink:href="#linear-gradient-order-confirmed-2-78"/><linearGradient id="linear-gradient-14-order-confirmed-2-78" x1="-2800.48" y1="2909.67" x2="-2837.47" y2="2951.26" gradientTransform="translate(-2629.86 3202.93) rotate(-180)" xlink:href="#linear-gradient-order-confirmed-2-78"/><linearGradient id="linear-gradient-15-order-confirmed-2-78" x1="-262.07" y1="2892.92" x2="-250.07" y2="2892.92" xlink:href="#linear-gradient-order-confirmed-2-78"/></defs><g id="plant_order-confirmed-2-78"><path class="cls-20_order-confirmed-2-78 targetColor" d="M364.45,135.78c4.18-7.47,7.08-16.75,3.32-24.47-.37-.98-1.11-1.78-2.06-2.22-.54-.15-1.1-.19-1.65-.11-9.12.91-15.2,9.83-18.42,18.41-3.23,8.57-5.18,18.12-11.64,24.63-2.82,2.84-6.34,4.92-9.06,7.89-5.86,6.5-6.69,16-6.96,24.75-.29,9.29.12,26.16,13.27,24.29,6.93-1,16-9.7,18.85-15.96,3.3-7.25,1.92-16.38,2.14-24.1.42-13.4,5.85-21.77,12.22-33.11Z" style="fill: rgb(236, 156, 82);"/><path class="cls-1_order-confirmed-2-78" d="M364.45,135.78c4.18-7.47,7.08-16.75,3.32-24.47-.37-.98-1.11-1.78-2.06-2.22-.54-.15-1.1-.19-1.65-.11-9.12.91-15.2,9.83-18.42,18.41-3.23,8.57-5.18,18.12-11.64,24.63-2.82,2.84-6.34,4.92-9.06,7.89-5.86,6.5-6.69,16-6.96,24.75-.29,9.29.12,26.16,13.27,24.29,6.93-1,16-9.7,18.85-15.96,3.3-7.25,1.92-16.38,2.14-24.1.42-13.4,5.85-21.77,12.22-33.11Z"/><path class="cls-20_order-confirmed-2-78 targetColor" d="M373.13,170.77c5.65-.54,12.69.82,14.36,6.25.99,3.24-.44,6.69-2.08,9.65-6.56,11.89-16.82,21.42-23.33,33.35-1.44,2.36-2.36,4.99-2.72,7.73-.41,5.06,2.45,9.71,4.72,14.26,5.64,11.25,7.67,26.08-.66,35.51-4.07,4.59-10.08,7.25-13.65,12.26-4.01,5.6-4.18,12.99-6.18,19.58s-7.79,13.39-14.5,11.88c.81-17.57.51-35.17-.91-52.7-1.81-21.89-6.48-45,2.56-65.74,7.4-17.1,23.47-30.21,42.38-32.04Z" style="fill: rgb(236, 156, 82);"/><path class="cls-9_order-confirmed-2-78" d="M373.13,170.77c5.65-.54,12.69.82,14.36,6.25.99,3.24-.44,6.69-2.08,9.65-6.56,11.89-16.82,21.42-23.33,33.35-1.44,2.36-2.36,4.99-2.72,7.73-.41,5.06,2.45,9.71,4.72,14.26,5.64,11.25,7.67,26.08-.66,35.51-4.07,4.59-10.08,7.25-13.65,12.26-4.01,5.6-4.18,12.99-6.18,19.58s-7.79,13.39-14.5,11.88c.81-17.57.51-35.17-.91-52.7-1.81-21.89-6.48-45,2.56-65.74,7.4-17.1,23.47-30.21,42.38-32.04Z"/></g><g id="background_order-confirmed-2-78"><path class="cls-16_order-confirmed-2-78 targetColor" d="M229.72,436.74c55.02,3.51,111.6,4.2,163.68-13.92,14.26-4.96,28.22-11.41,39.74-21.15,26.93-22.78,36.71-63.66,23.01-96.16-7.33-17.36-20.69-32.88-21.81-51.66-.98-16.37,7.57-31.54,13.76-46.73,16.76-41.09,15.78-91.53-11.34-126.61-29.01-37.61-79.91-50.02-127.17-54.17-35.83-2.99-71.84-3.08-107.69-.28-14,1.04-28.26,2.53-41.08,8.24-19.47,8.67-33.59,26.2-44.22,44.67-9.71,16.89-17.11,35-21.99,53.86-3.73,14.4-6.03,29.28-11.84,42.97-9.35,22.07-27.08,39.29-39.68,59.67-25.02,40.39-32.38,115.56,6.12,151.27,44.37,41.16,123.71,46.36,180.53,50Z" style="fill: rgb(236, 156, 82);"/><path class="cls-10_order-confirmed-2-78" d="M135.01,378.12c-5.86.49-13.33,2.51-13.81,8.37-.48,5.86,6.49,9.06,12.2,10.12,13.59,2.6,27.5,2.72,41.33,2.82,47.31.27,94.61,0,141.92-.82,12.62-.22,26.62-1.03,35.48-10.01,1.48-1.5,2.83-3.41,2.64-5.5-.37-3.96-5.44-5.23-9.44-5.48-70.85-4.47-139.54-5.45-210.31.5Z"/></g><g id="phone_order-confirmed-2-78"><rect class="cls-20_order-confirmed-2-78 targetColor" x="179.99" y="81.82" width="151.86" height="285.65" rx="26.03" ry="26.03" style="fill: rgb(236, 156, 82);"/><rect class="cls-8_order-confirmed-2-78" x="179.99" y="81.82" width="151.86" height="285.65" rx="26.03" ry="26.03"/><rect class="cls-20_order-confirmed-2-78 targetColor" x="172.81" y="81.82" width="151.86" height="285.65" rx="26.03" ry="26.03" style="fill: rgb(236, 156, 82);"/><rect class="cls-18_order-confirmed-2-78" x="183.45" y="99.94" width="133.18" height="250.52" rx="22.83" ry="22.83"/></g><g id="button_order-confirmed-2-78"><rect class="cls-20_order-confirmed-2-78 targetColor" x="207.64" y="245.72" width="87.2" height="27.65" rx="13.82" ry="13.82" style="fill: rgb(236, 156, 82);"/><path class="cls-18_order-confirmed-2-78" d="M227.35,262.03c0,.11,0,.21,0,.32,0,.08,0,.15,0,.23-.01.06-.04.11-.06.16-.03.05-.07.11-.12.15-.1.08-.2.16-.32.22-.19.1-.38.19-.58.26-1.14.39-2.38.39-3.53,0-.52-.19-.98-.5-1.36-.91-.41-.43-.72-.95-.91-1.52-.42-1.41-.42-2.91,0-4.32.19-.59.49-1.14.91-1.6.39-.44.87-.78,1.41-1,.58-.22,1.19-.34,1.81-.34.26,0,.52.03.78.07.23.04.46.1.69.17.2.07.39.15.57.25.13.06.25.14.35.24.06.05.11.1.15.16.02.06.04.11.05.17,0,.08,0,.17,0,.25v.73c0,.09-.02.17-.05.25-.02.05-.05.1-.09.14-.03.03-.07.05-.12.05-.11-.01-.21-.06-.29-.13-.14-.11-.29-.21-.44-.29-.21-.12-.43-.22-.65-.3-.29-.09-.6-.13-.91-.13-.36,0-.71.08-1.03.24-.31.16-.57.39-.77.67-.22.32-.39.68-.48,1.06-.12.46-.18.93-.17,1.4,0,.5.05,1,.18,1.48.1.37.26.73.5,1.03.21.26.48.47.79.6.33.14.68.21,1.03.2.31,0,.61-.03.91-.12.23-.07.45-.17.66-.28l.44-.26c.08-.07.18-.11.28-.13.04-.01.08-.01.12,0,.04.03.06.07.07.12,0,.08,0,.17,0,.25.17.1.17.24.17.43Z"/><path class="cls-18_order-confirmed-2-78" d="M237.39,258.54c.01.73-.09,1.46-.3,2.16-.18.6-.49,1.15-.91,1.61-.4.45-.9.8-1.47,1.01-.64.24-1.33.36-2.01.34-.67.01-1.34-.09-1.98-.3-.54-.18-1.02-.49-1.4-.91-.39-.45-.68-.97-.84-1.54-.2-.72-.3-1.47-.28-2.22,0-.72.09-1.43.3-2.12.19-.59.5-1.13.91-1.59.41-.44.91-.79,1.47-1.01.65-.24,1.34-.36,2.03-.34.66-.01,1.31.08,1.94.29.54.18,1.02.49,1.4.91.4.44.69.96.86,1.53.2.71.3,1.45.28,2.18ZM235.32,258.65c0-.47-.03-.94-.12-1.4-.07-.38-.21-.74-.41-1.07-.19-.3-.45-.54-.77-.69-.37-.18-.78-.26-1.2-.24-.42-.01-.84.08-1.21.27-.32.18-.59.43-.79.73-.21.33-.35.69-.42,1.07-.08.42-.13.85-.13,1.29,0,.48.04.96.12,1.43.07.38.21.75.41,1.08.19.29.45.53.76.69.38.17.79.25,1.21.24.42.02.84-.08,1.21-.27.32-.18.59-.43.79-.73.21-.33.35-.7.43-1.08.08-.43.12-.87.12-1.31Z"/><path class="cls-18_order-confirmed-2-78" d="M247.04,262.81c0,.2-.08.39-.22.53-.07.06-.16.1-.24.13-.09.03-.19.04-.28.05h-.82c-.15,0-.31-.02-.45-.05-.13-.04-.25-.1-.35-.19-.12-.11-.23-.23-.32-.37-.1-.16-.21-.36-.34-.62l-2.41-4.53c-.14-.27-.28-.56-.43-.91-.15-.34-.27-.62-.39-.91h0c0,.36,0,.72.05,1.08s0,.72,0,1.11v5.07s-.02.09-.05.13c-.03.05-.08.09-.14.11-.09.03-.18.05-.27.06h-.88c-.09-.01-.18-.03-.27-.06-.06-.02-.1-.06-.14-.11-.01-.04-.01-.09,0-.13v-8.72c-.01-.2.06-.39.21-.53.14-.12.32-.18.51-.17h1.05c.16-.02.32-.02.48,0,.12.03.24.09.34.16.12.08.22.19.29.31.1.16.2.32.28.49l1.88,3.54.33.63c.11.21.21.42.31.63l.3.61.27.6h0v-6.71s.02-.1.05-.14c.04-.05.1-.08.15-.11.09-.03.18-.05.27-.06h.87c.09.01.18.03.26.06.05.03.1.06.14.11.01.04.01.09,0,.14l-.05,8.76Z"/><path class="cls-18_order-confirmed-2-78" d="M254.59,254.62v.38c0,.08-.03.16-.06.24-.02.05-.05.1-.09.14-.03.03-.07.05-.12.05h-3.17v2.61h2.97s.09-.01.13,0c.04.04.07.08.09.13.03.08.05.16.06.24v.74c-.01.08-.03.17-.06.24-.02.05-.05.1-.09.15-.04.01-.09.01-.13,0h-2.97v3.62s-.01.1-.05.14c-.04.05-.1.09-.16.11-.1.03-.2.05-.3.06h-.95c-.1-.01-.21-.03-.31-.06-.06-.02-.12-.06-.16-.11-.03-.04-.05-.09-.05-.14v-8.79c-.02-.18.04-.35.17-.47.11-.1.26-.15.41-.15h4.53s.08-.01.12,0c.04.04.07.08.09.14.03.08.06.17.06.25.03.2.04.33.04.48Z"/><path class="cls-18_order-confirmed-2-78" d="M258.16,263.23s-.02.1-.05.14c-.04.05-.1.08-.16.1-.1.03-.2.05-.3.06h-.95c-.1-.01-.21-.03-.31-.06-.06-.02-.12-.05-.16-.1-.03-.04-.05-.09-.05-.14v-9.16s.02-.09.05-.13c.04-.05.1-.08.16-.1.1-.03.2-.05.31-.06.16-.01.31-.01.47,0,.16-.01.32-.01.48,0,.1.01.2.03.3.06.06.02.12.05.16.1.03.04.04.08.05.13v9.16Z"/><path class="cls-18_order-confirmed-2-78" d="M267.48,263.24s.01.09,0,.14c-.03.05-.08.08-.14.1-.11.02-.22.04-.34.05-.2.01-.39.01-.59,0-.17.01-.33.01-.5,0-.1,0-.2-.02-.3-.05-.06-.02-.11-.05-.15-.1-.03-.05-.05-.1-.07-.15l-.91-2.17c-.11-.24-.21-.46-.31-.65-.09-.17-.2-.34-.34-.48-.12-.12-.26-.22-.43-.28-.17-.07-.36-.11-.55-.1h-.61v3.69c0,.05-.02.1-.05.14-.04.05-.1.09-.16.1-.1.03-.2.05-.3.06h-.95c-.1-.01-.2-.03-.3-.06-.06-.01-.12-.05-.16-.1-.03-.04-.05-.09-.05-.14v-8.8c-.02-.18.04-.35.17-.47.11-.1.26-.15.42-.15h3.59c.36.05.72.15,1.05.29.29.12.56.3.79.53.22.22.39.48.5.77.12.33.18.67.17,1.02,0,.31-.03.61-.12.91-.08.26-.2.5-.36.72-.17.21-.37.4-.6.54-.25.16-.52.29-.8.38.15.07.28.15.41.25.13.11.26.23.36.36.12.15.23.31.32.48.1.19.19.39.29.63l.82,1.9c.06.14.1.28.15.42.03.08.04.16.05.24ZM264.93,256.66c0-.28-.07-.57-.22-.81-.17-.24-.42-.4-.71-.46l-.34-.06h-1.43v2.72h1c.25,0,.5-.03.73-.1.2-.05.38-.14.54-.26.14-.12.25-.27.32-.44.08-.18.11-.38.11-.58Z"/><path class="cls-18_order-confirmed-2-78" d="M280.21,263.23s.01.09,0,.14c-.04.05-.09.08-.15.1-.09.03-.19.05-.28.06h-.91c-.1-.01-.2-.03-.29-.06-.06-.02-.11-.05-.15-.1-.03-.04-.05-.09-.05-.14v-7.88h0l-2.81,7.88c-.02.06-.05.11-.1.15-.05.05-.11.09-.18.1-.1.03-.2.05-.3.05h-.86c-.1,0-.2-.03-.3-.06-.07-.02-.13-.05-.18-.1-.05-.03-.08-.08-.09-.14l-2.72-7.88h0v7.88s-.02.1-.05.14c-.04.05-.09.09-.15.1-.09.03-.19.05-.28.06h-.91c-.1-.01-.2-.03-.29-.06-.06-.02-.11-.05-.15-.1-.03-.04-.05-.09-.05-.14v-8.64c-.01-.21.06-.42.2-.58.15-.14.34-.21.54-.2h1.29c.2,0,.4.02.59.05.16.03.3.09.44.18.12.1.22.22.3.35.09.17.16.34.21.53l2.09,5.77h0l2.17-5.76c.05-.18.13-.36.22-.53.06-.13.15-.25.26-.35.11-.09.23-.16.37-.19.16-.04.32-.06.48-.05h1.33c.11-.01.23-.01.34,0,.09.03.17.08.24.15.07.07.12.16.15.25.03.11.05.22.05.33l-.04,8.67Z"/></g><g id="icon_order-confirmed-2-78"><circle class="cls-20_order-confirmed-2-78 targetColor" cx="249.91" cy="175.8" r="44.92" style="fill: rgb(236, 156, 82);"/><polygon class="cls-18_order-confirmed-2-78" points="262.96 187.93 232.6 187.93 235.53 161.49 259.04 161.49 262.96 187.93"/><path class="cls-18_order-confirmed-2-78" d="M252.29,163.04c0-.07-1.06-7.25-5.36-6.71-4.49.57-4.64,5.98-4.64,6.21h-2.84c0-2.8,1.57-8.27,7.11-8.98,5.71-.7,8.07,5.66,8.52,9.13l-2.8.34Z"/><circle class="cls-20_order-confirmed-2-78 targetColor" cx="264.23" cy="186.67" r="10.47" transform="translate(37.65 417.59) rotate(-80.78)" style="fill: rgb(236, 156, 82);"/><circle class="cls-18_order-confirmed-2-78" cx="265.63" cy="187.66" r="10.47"/><path class="cls-20_order-confirmed-2-78 targetColor" d="M264,193.83c-.37,0-.73-.15-1-.42l-4.59-4.6c-.55-.55-.55-1.45,0-2,.55-.55,1.45-.55,2,0h0l3.51,3.52,7.18-8.23c.58-.52,1.47-.48,2,.1.43.47.49,1.18.14,1.72l-8.16,9.37c-.26.3-.63.47-1.02.49l-.06.06Z" style="fill: rgb(236, 156, 82);"/></g><g id="bag_order-confirmed-2-78"><polygon class="cls-20_order-confirmed-2-78 targetColor" points="254.68 387.12 209.23 387.12 214.56 330.73 247.67 329.89 254.68 387.12" style="fill: rgb(236, 156, 82);"/><polygon class="cls-14_order-confirmed-2-78" points="254.68 387.12 209.23 387.12 214.56 330.73 247.67 329.89 254.68 387.12"/><polygon class="cls-20_order-confirmed-2-78 targetColor" points="247.1 387.12 201.65 387.12 206.98 330.73 240.09 329.89 247.1 387.12" style="fill: rgb(236, 156, 82);"/><polygon class="cls-15_order-confirmed-2-78" points="247.1 387.12 201.65 387.12 206.98 330.73 240.09 329.89 247.1 387.12"/><polygon class="cls-20_order-confirmed-2-78 targetColor" points="157.61 387.12 112.15 387.12 117.48 330.73 150.59 329.89 157.61 387.12" style="fill: rgb(236, 156, 82);"/><polygon class="cls-13_order-confirmed-2-78" points="157.61 387.12 112.15 387.12 117.48 330.73 150.59 329.89 157.61 387.12"/><polygon class="cls-20_order-confirmed-2-78 targetColor" points="150.03 387.12 104.58 387.12 109.91 330.73 143.01 329.89 150.03 387.12" style="fill: rgb(236, 156, 82);"/><polygon class="cls-11_order-confirmed-2-78" points="150.03 387.12 104.58 387.12 109.91 330.73 143.01 329.89 150.03 387.12"/><path class="cls-20_order-confirmed-2-78 targetColor" d="M139.15,331.13l-.54-.06c.1-2.48,0-9.41-3.25-13.39-1.42-1.81-3.56-2.91-5.86-2.99-2.19-.16-4.34.65-5.89,2.21-4.01,3.92-4.87,11.81-5.05,14.35h-.66c0-.45.39-10.62,5.38-15.19,1.68-1.61,3.96-2.41,6.27-2.21,2.39.07,4.65,1.15,6.19,2.98,4.19,4.83,3.47,13.92,3.4,14.3Z" style="fill: rgb(236, 156, 82);"/><path class="cls-20_order-confirmed-2-78 targetColor" d="M144.11,331.13l-.54-.06c.09-2.48,0-9.41-3.26-13.39-1.41-1.81-3.56-2.91-5.85-2.99-2.19-.16-4.35.65-5.89,2.21-4.01,3.92-4.88,11.81-5.05,14.35h-.66c0-.45.39-10.62,5.38-15.19,1.68-1.62,3.98-2.43,6.3-2.23,2.39.07,4.64,1.15,6.19,2.98,4.17,4.85,3.45,13.94,3.38,14.32Z" style="fill: rgb(236, 156, 82);"/><path class="cls-20_order-confirmed-2-78 targetColor" d="M236.23,331.13l-.54-.06c.09-2.48,0-9.41-3.26-13.39-1.41-1.81-3.56-2.91-5.85-2.99-2.19-.16-4.35.65-5.89,2.21-4.01,3.92-4.88,11.81-5.05,14.35h-.66c0-.45.38-10.62,5.38-15.19,1.68-1.6,3.97-2.41,6.28-2.21,2.39.07,4.64,1.15,6.19,2.98,4.18,4.83,3.46,13.92,3.4,14.3Z" style="fill: rgb(236, 156, 82);"/><path class="cls-20_order-confirmed-2-78 targetColor" d="M241.21,331.13l-.55-.06c.1-2.48,0-9.41-3.25-13.39-1.42-1.81-3.56-2.91-5.86-2.99-2.19-.16-4.34.65-5.89,2.21-4,3.92-4.87,11.81-5.05,14.35h-.66c0-.45.39-10.62,5.38-15.19,1.68-1.61,3.96-2.41,6.27-2.21,2.39.07,4.65,1.15,6.19,2.98,4.19,4.83,3.47,13.92,3.41,14.3Z" style="fill: rgb(236, 156, 82);"/><polygon class="cls-20_order-confirmed-2-78 targetColor" points="277.4 387.12 231.95 387.12 237.28 330.73 270.39 329.89 277.4 387.12" style="fill: rgb(236, 156, 82);"/><polygon class="cls-12_order-confirmed-2-78" points="277.4 387.12 231.95 387.12 237.28 330.73 270.39 329.89 277.4 387.12"/><polygon class="cls-20_order-confirmed-2-78 targetColor" points="269.83 387.12 224.38 387.12 229.71 330.73 262.82 329.89 269.83 387.12" style="fill: rgb(236, 156, 82);"/><polygon class="cls-5_order-confirmed-2-78" points="269.83 387.12 224.38 387.12 229.71 330.73 262.82 329.89 269.83 387.12"/><path class="cls-20_order-confirmed-2-78 targetColor" d="M258.95,331.13l-.54-.06c.09-2.48,0-9.41-3.26-13.39-1.41-1.81-3.54-2.9-5.83-2.99-2.19-.16-4.35.65-5.89,2.21-4.01,3.92-4.88,11.81-5.05,14.35h-.66c0-.45.39-10.62,5.38-15.19,1.66-1.6,3.93-2.41,6.23-2.23,2.39.07,4.64,1.15,6.19,2.98,4.22,4.85,3.5,13.94,3.44,14.32Z" style="fill: rgb(236, 156, 82);"/><path class="cls-20_order-confirmed-2-78 targetColor" d="M263.94,331.13l-.54-.06c.09-2.48,0-9.41-3.26-13.39-1.42-1.81-3.56-2.91-5.86-2.99-2.19-.16-4.34.65-5.88,2.21-4.01,3.92-4.88,11.81-5.06,14.35h-.65c0-.45.38-10.62,5.38-15.19,1.68-1.6,3.96-2.41,6.27-2.21,2.39.07,4.65,1.15,6.19,2.98,4.19,4.83,3.47,13.92,3.41,14.3Z" style="fill: rgb(236, 156, 82);"/></g><g id="character_order-confirmed-2-78"><path class="cls-20_order-confirmed-2-78 targetColor" d="M141.57,291.58c-2.06-.21-4.13.03-6.08.72-3.24,1.4-5.05,4.83-6.23,8.16-1.9,5.37-2.76,11.06-3.62,16.69-.38,2.49-.75,5.06-.15,7.49.17.86.59,1.64,1.21,2.26.65.49,1.4.83,2.2.99,11.8,3.24,24.16,3.91,36.25,1.98,1.53-.1,2.99-.67,4.18-1.64,1.18-1.17,1.46-2.95,1.62-4.59.7-7.4.02-14.87-2.01-22.02-.62-2.16-1.44-4.41-3.21-5.8-2.84-2.2-7.42-1.81-10.77-2.65-4.4-.97-8.89-1.51-13.39-1.59Z" style="fill: rgb(236, 156, 82);"/><path class="cls-2_order-confirmed-2-78" d="M170.95,323.65c-.17,1.64-.45,3.4-1.61,4.59s-2.72,1.39-4.2,1.64c-12.09,1.93-24.45,1.25-36.25-1.98-.78-.18-1.53-.51-2.17-.99-.41-.4-.72-.9-.91-1.44-.11-.27-.21-.54-.29-.82-.59-2.44-.23-5.01.15-7.5.91-5.64,1.73-11.3,3.62-16.68,1.08-3.01,2.66-6.09,5.36-7.65.28-.19.59-.35.91-.48,1.95-.7,4.03-.96,6.09-.74,4.51.09,8.99.62,13.39,1.59,3.34.82,7.93.43,10.77,2.64,1.75,1.39,2.57,3.62,3.2,5.81,2.02,7.16,2.68,14.64,1.95,22.04Z"/><path class="cls-20_order-confirmed-2-78 targetColor" d="M147.05,251.9c-3.55,6.13-6.62,12.96-6.02,20.01.8,7.72,5.83,14.36,13.05,17.22,3.39-2.72,3.76-7.66,3.86-12,.22-10.07,1.56-20.94.52-30.96-.26-2.56,2.72-14.68-.96-13.3-2.22.86-9.21,16.89-10.45,19.03Z" style="fill: rgb(236, 156, 82);"/><path class="cls-3_order-confirmed-2-78" d="M147.05,251.9c-3.55,6.13-6.62,12.96-6.02,20.01.8,7.72,5.83,14.36,13.05,17.22,3.39-2.72,3.76-7.66,3.86-12,.22-10.07,1.56-20.94.52-30.96-.26-2.56,2.72-14.68-.96-13.3-2.22.86-9.21,16.89-10.45,19.03Z"/><path class="cls-4_order-confirmed-2-78" d="M198.78,298.47c.08-2.5.64-4.97,1.67-7.25,3.43-6.51,12.38-7.25,18.39-11.46,4.83-3.42,7.61-9.15,8.69-14.97,1.08-5.82.64-11.78.2-17.7-.12-1.68-.3-3.48-1.42-4.73-2.46-2.72-6.91-.78-9.97,1.29l-8.01,5.55c-1.7,1.17-4.03,2.33-5.65,1.05-1.07-.83-1.25-2.36-1.35-3.72l-1.52-21.24c-.43-5.86-1.43-12.69-6.58-15.52-5.15-2.84-11.78.2-15.03,5.02-3.25,4.82-3.84,10.87-4.26,16.67-2.17,30.41-1.71,60.95,1.36,91.29.12,1.2.34,2.55,1.32,3.23.78.41,1.67.57,2.54.45,5.65-.18,15.78,1.94,18.52-3.96,2.75-5.9.53-17.41,1.11-23.98Z"/><path class="cls-19_order-confirmed-2-78" d="M225.29,257.81c.33-2.39.28-4.83-.16-7.2-.04-.37-.16-.74-.34-1.06-.68-.99-2.3-.6-3.1.3s-1.12,2.13-1.88,3.05c-.63.76-1.5,1.28-2.19,1.98-1.11,1.27-1.85,2.82-2.15,4.48-.12.41-.17.85-.14,1.28.12.61.38,1.19.76,1.68,1.23,1.88,3.33,4.46,5.65,2.72,2.08-1.64,3.17-4.74,3.56-7.21Z"/><path class="cls-19_order-confirmed-2-78" d="M192.22,291.22l-5.44,90.62-9.88,1.45-4.53-68.79-4.1,68.63-9.78.32s-4.53-69.32-3.54-74.39c.99-5.07,0-21.27,0-21.27l37.26,3.43Z"/><path class="cls-20_order-confirmed-2-78 targetColor" d="M193.82,282.37c4.78-2.89,9.42-15.2,7.36-18.18-2.48-3.62-6.18-28.45-9.45-31.3-3.27-2.85-7.4-4.91-11.7-4.75-5.08.19-10.69-2.18-15.41-.26-2.72,1.09-4.89,3.06-7.06,5.01-3.4,3.04-6.04,54.3-2.24,59.88,4.88,7.12,14.91,7.36,23.4,6.87,2.93-.17,5.98-.37,8.55-1.81,6.39-3.77,7.2-7.89,6.55-15.45Z" style="fill: rgb(236, 156, 82);"/><path class="cls-19_order-confirmed-2-78" d="M192.41,210.92c0,.11.02.22.03.34.13.95.52,1.87,1.13,2.62.34.42.75.79,1.03,1.25s.42,1.06.17,1.54c-.22.43-.69.66-1.02,1.01-1.22,1.33.04,3.64-.83,5.23-.63,1.14-2.09,1.47-3.38,1.64-1.13.15-2.57.4-3.46,1.2-.97.87-.68,2.46-.51,3.63.02.11.03.23-.04.31-.09.11-.25.1-.38.08-3.08-.48-6.07-1.48-8.82-2.94-.18-.09-.36-.2-.48-.36-.41-.56-.38-1.89-.61-2.6-.37-1.14-.7-2.29-.93-3.47-.45-2.34-.55-4.75-.18-7.11.88-5.65,4.84-10.93,10.35-12.3,1.99-.49,4.15-.27,5.72,1.16,1.51,1.38,2.13,4.58,2.2,6.55.03.74-.04,1.49.01,2.23Z"/><path class="cls-17_order-confirmed-2-78" d="M192.61,200.86c-.77,2.77-3.1,4.84-5.56,6.34-1.68,1.01-3.14,1.73-4.11,3.48-.99,1.83-1.64,3.83-1.91,5.89,0,.3-.13.65-.41.74s-.63-.28-.75-.62c-.24-.71-.33-1.56-.95-1.96-.49-.27-1.09-.23-1.54.11-.43.34-.72.84-.81,1.39-.23,1.36.42,2.73,1.64,3.39.32.13.63.31.91.53,1.2,1.11.05,2.37-.43,3.42-.57,1.47-.76,3.05-.55,4.61.21,2.18.77,4.37.45,6.54-.23,1.77-1.15,3.37-2.55,4.48-1.43,1.09-3.33,1.35-5,.69-1.19-.52-2.13-1.53-3.37-1.89-2.86-.85-5.79,2.1-8.71,1.42-1.65-.39-2.81-1.81-3.69-3.3-.8-1.18-1.31-2.54-1.47-3.96-.14-2.36,1.28-4.53,2.62-6.43,1.9-2.78,3.82-5.69,4.45-9.01.49-2.61.16-5.34.8-7.91.7-2.84,2.78-4.88,3.79-7.49.91-2.44,2.09-4.82,4.63-5.97,2.37-1.09,5.13-.63,7.72-.91,3.62-.4,6.48-2.94,10.2-1.52,3.08,1.14,5.52,4.63,4.59,7.95Z"/><path class="cls-20_order-confirmed-2-78 targetColor" d="M213.59,260.26c.7-.37,1.5-.48,2.27-.32.43.18.81.46,1.11.81,1.58,1.62,2.81,3.54,3.62,5.65.47.98.58,2.11.3,3.16-.56,1.1-1.49,1.97-2.62,2.46-7.57,4.35-16.63,10.56-25.32,9.71-.61-.06-.4-1.88-.85-2.28-.5-.57-.77-1.31-.75-2.08-.39-2.76-.47-5.55-.24-8.33.24-2.8,1.4-5.43,3.31-7.49.74-.84,1.76-1.38,2.87-1.51,1.69-.1,1.56,1.19,2.56,1.81,1.24.73,3.08.73,4.53.7,3.17-.24,6.28-1.02,9.2-2.29Z" style="fill: rgb(236, 156, 82);"/><path class="cls-7_order-confirmed-2-78" d="M183.39,254.23s2.83,22.41,10.39,28.15c0,0,2.6,13.88-9.36,16.31,0,0-3.39,1.4-9.06.91,0,0,11.64,3.53,9.44-19.8-2.19-23.33-1.4-25.57-1.4-25.57Z"/><path class="cls-17_order-confirmed-2-78" d="M193.9,388.04c.34.29.54.71.56,1.15-.05.32-.21.61-.45.82-.88.72-1.95,1.14-3.08,1.21-3.63.54-7.33.33-10.87-.61-.89-.16-1.72-.58-2.37-1.21-.65-.95-.95-2.09-.85-3.24l-.11-3.94c-.03-.31,0-.61.1-.91.3-.72,1.22-.91,2-.95,1.87-.14,3.74-.17,5.61-.1.66,0,1.51-.1,2.04.32s.71,1.24,1.06,1.68c1.75,2.3,4.41,3.66,6.36,5.78Z"/><path class="cls-17_order-confirmed-2-78" d="M175.18,388.06c.32.28.52.68.54,1.11-.05.31-.2.59-.44.79-.84.69-1.88,1.1-2.97,1.18-3.51.52-7.09.33-10.52-.58-.86-.16-1.66-.57-2.29-1.18-.62-.92-.91-2.02-.82-3.13l-.1-3.81c-.04-.31,0-.62.1-.91.29-.69,1.18-.86,1.93-.91,1.81-.13,3.62-.16,5.44-.1.64,0,1.47-.09,1.98.32.51.41.68,1.2,1.02,1.62,1.72,2.19,4.26,3.54,6.14,5.59Z"/><path class="cls-6_order-confirmed-2-78" d="M137.11,313.68c-.05,3.34-.12,6.74-1.13,9.91-.31,1.36-1.16,2.54-2.36,3.26-1.87.91-5.8,0-7.84-1.39-.11-.27-.21-.54-.29-.82-.59-2.44-.23-5.01.15-7.5.91-5.64,1.73-11.3,3.62-16.68,1.08-3.01,2.66-6.09,5.36-7.65.22.05.43.14.63.25,1.59.96,1.81,3.14,1.87,4.98.14,5.21.05,10.39,0,15.63Z"/><path class="cls-20_order-confirmed-2-78 targetColor" d="M143.98,287.93c.38-1.15.91-2.25,1.58-3.27.67-1.02,1.71-1.75,2.9-2.04-.1.55-.33,1.08-.67,1.52-1.4,2.22-2.44,4.65-3.08,7.2-.2.78-1.81,3.62-2.47,1.62-.33-1.15,1.38-3.95,1.75-5.03Z" style="fill: rgb(236, 156, 82);"/><path class="cls-17_order-confirmed-2-78" d="M183.09,290.45c2.8-.02,5.58.39,8.25,1.22.74.21,1.4.64,1.89,1.23.34.56.55,1.2.61,1.86,1.81,11.55-.31,23.32-.08,35,.08,4.48.52,8.93.86,13.39.12.53,0,1.09-.32,1.53-.32.26-.71.4-1.11.41-2.76.27-5.53.3-8.29.08-10.87-.59-25.28,1.17-36.01-.43-1.6-13.59,2.3-30.24,4.42-43.76.43-2.72.11-6.43,1.21-8.94s3.82-2.08,6.29-2.08c7.43.02,14.85.19,22.28.49Z"/></g></svg>