<svg id="_0256_personal_data" xmlns="http://www.w3.org/2000/svg" viewBox="0 0 500 500" data-imageid="personal-data-30" imageName="Personal Data" class="illustrations_image" style="width: 158px;"><defs><style>.cls-1_personal-data-30{fill:#fff;}.cls-2_personal-data-30{opacity:.11;}.cls-2_personal-data-30,.cls-3_personal-data-30,.cls-4_personal-data-30,.cls-5_personal-data-30,.cls-6_personal-data-30,.cls-7_personal-data-30,.cls-8_personal-data-30{fill:none;}.cls-9_personal-data-30{fill:#f4a28c;}.cls-10_personal-data-30{fill:#a5a5a5;}.cls-11_personal-data-30{fill:#ce8172;}.cls-12_personal-data-30{fill:#e6e6e6;}.cls-3_personal-data-30{opacity:.03;}.cls-4_personal-data-30{opacity:.08;}.cls-5_personal-data-30{opacity:.5;}.cls-6_personal-data-30{opacity:.36;}.cls-7_personal-data-30{opacity:.31;}.cls-13_personal-data-30{fill:#24285b;}.cls-14_personal-data-30{fill:#000001;}.cls-15_personal-data-30{fill:#ffd200;}.cls-8_personal-data-30{opacity:.1;}.cls-16_personal-data-30{fill:#68e1fd;}</style></defs><g id="bg_personal-data-30" class="cls-3_personal-data-30"><ellipse class="cls-14_personal-data-30" cx="250" cy="259.85" rx="235.01" ry="193.48"/></g><g id="cv_personal-data-30"><path class="cls-9_personal-data-30" d="m116.29,275.56s-4.55-78.49,35.12-89.35c39.67-10.86,92.7,99.95-.32,139.06l-34.8-49.71Z"/><g class="cls-8_personal-data-30"><path class="cls-14_personal-data-30" d="m116.29,275.56s-4.55-78.49,35.12-89.35c39.67-10.86,92.7,99.95-.32,139.06l-34.8-49.71Z"/></g><rect class="cls-10_personal-data-30" x="158.85" y="61.23" width="240.48" height="288.25" transform="translate(-21.67 33.29) rotate(-6.57)"/><rect class="cls-12_personal-data-30" x="157.15" y="53.65" width="233.69" height="288.25" transform="translate(-20.83 32.66) rotate(-6.57)"/><rect class="cls-12_personal-data-30" x="147.82" y="46.94" width="233.69" height="288.25" transform="translate(-20.13 31.55) rotate(-6.57)"/><rect class="cls-1_personal-data-30" x="165.27" y="77.24" width="78.44" height="90.8" transform="translate(-12.69 24.21) rotate(-6.57)"/><path class="cls-16_personal-data-30 targetColor" d="m168.91,156.49s2.4-19.72,20.58-27.26c18.19-7.54,44.08-8.97,57.34,18.29l1.81,15.74-77.92,8.98-1.81-15.74Z" style="fill: rgb(236, 156, 82);"/><polygon class="cls-9_personal-data-30" points="199.19 101.06 197.46 126.39 213.23 133.7 207.12 107.94 199.19 101.06"/><g class="cls-7_personal-data-30"><path class="cls-11_personal-data-30" d="m208.24,111.93s-2.62-.29-4.76-2.29c0,0,.61,4.61,6.1,8.72l-1.34-6.43Z"/></g><path class="cls-9_personal-data-30" d="m210.25,98.01s2.39,7.37,2.27,12.67c-.05,2.15-1.85,3.88-4,3.8-2.67-.1-6.24-1-8-4.79l-3.78-6.08s-2.23-3.89,1.32-7.93,10.96-2.23,12.19,2.33Z"/><path class="cls-9_personal-data-30" d="m211.52,102.73l2.77,2.42c.69.6.51,1.71-.32,2.07l-2.76,1.21.31-5.7Z"/><path class="cls-15_personal-data-30" d="m197.9,111.54l-3.79-9.83s-5.95-.35-4.62-4.36c1.33-4.01,3.95-1.73,3.55-6.12-.4-4.39,3.06-5.67,5.85-3.49,2.8,2.18,1.24-1.13,4.33-1.95,3.09-.82,4.08.5,4.42,2.88s4.59-.67,6.1,2.22,2,5.81-5.78,7.17c-7.77,1.36-1.45,7.18-10.07,13.49Z"/><path class="cls-9_personal-data-30" d="m203.72,106.32s-.73-2.89-2.86-2.17c-2.13.73-1.11,4.91,1.95,4.62l.91-2.46Z"/><g class="cls-4_personal-data-30"><path class="cls-14_personal-data-30" d="m168.91,156.49s8.87,14.15,27.52,4.03c18.65-10.12,39.42-15.47,51.48-3.61l.73,6.35-77.92,8.98-1.81-15.74Z"/></g><rect class="cls-10_personal-data-30" x="256.8" y="70.34" width="57.96" height="13.49" transform="translate(-6.94 33.21) rotate(-6.57)"/><g class="cls-5_personal-data-30"><rect class="cls-10_personal-data-30" x="259.8" y="96.37" width="57.96" height="13.49" transform="translate(-9.9 33.73) rotate(-6.57)"/></g><g class="cls-2_personal-data-30"><rect class="cls-10_personal-data-30" x="199.95" y="182.88" width="51.56" height="13.49" transform="translate(-20.22 27.08) rotate(-6.57)"/></g><g class="cls-2_personal-data-30"><rect class="cls-10_personal-data-30" x="204.5" y="222.41" width="51.56" height="13.49" transform="translate(-24.71 27.86) rotate(-6.57)"/></g><g class="cls-2_personal-data-30"><rect class="cls-10_personal-data-30" x="298.6" y="171.51" width="51.56" height="13.49" transform="translate(-18.27 38.29) rotate(-6.57)"/></g><g class="cls-2_personal-data-30"><rect class="cls-10_personal-data-30" x="303.15" y="211.05" width="51.56" height="13.49" transform="translate(-22.76 39.08) rotate(-6.57)"/></g><g class="cls-6_personal-data-30"><rect class="cls-1_personal-data-30" x="263.97" y="120.57" width="88.48" height="35.7" transform="translate(-13.82 36.18) rotate(-6.57)"/></g><g class="cls-6_personal-data-30"><rect class="cls-1_personal-data-30" x="184.07" y="254.75" width="184.42" height="51.39" transform="translate(-30.28 33.46) rotate(-6.57)"/></g><rect class="cls-16_personal-data-30 targetColor" x="173.36" y="185.31" width="18.55" height="18.55" transform="translate(-21.07 22.18) rotate(-6.57)" style="fill: rgb(236, 156, 82);"/><rect class="cls-15_personal-data-30" x="270.7" y="174.1" width="18.55" height="18.55" transform="translate(-19.15 33.25) rotate(-6.57)"/><rect class="cls-13_personal-data-30" x="177.91" y="224.85" width="18.55" height="18.55" transform="translate(-25.56 22.96) rotate(-6.57)"/><rect class="cls-1_personal-data-30" x="275.25" y="213.63" width="18.55" height="18.55" transform="translate(-23.64 34.03) rotate(-6.57)"/><rect class="cls-16_personal-data-30 targetColor" x="314.5" y="280.11" width="55.56" height="18.55" transform="translate(-30.87 41.07) rotate(-6.57)" style="fill: rgb(236, 156, 82);"/><g class="cls-8_personal-data-30"><path class="cls-14_personal-data-30" d="m186.49,211.51s17.23,11.3,4.52,35.65c-12.7,24.35,1.58,43.05,4.67,50.46,3.09,7.41,7.15,61.6,7.15,61.6l-28.05,3.33-14.5-56.6,6.03-57.03,20.18-37.41Z"/></g><path class="cls-13_personal-data-30" d="m339.64,83.65c-2.2,0-4.33-.74-6.08-2.13-2.05-1.63-3.35-3.96-3.65-6.56l-2.49-21.6,2.22-.25,2.49,21.6c.23,2.01,1.23,3.81,2.82,5.07,1.59,1.26,3.57,1.83,5.58,1.59,2.01-.23,3.81-1.23,5.07-2.82,1.26-1.59,1.82-3.57,1.59-5.58l-4.62-40.14c-.67-5.84-5.98-10.06-11.82-9.38-5.84.67-10.05,5.98-9.38,11.82l.48,4.12-2.22.25-.48-4.12c-.81-7.07,4.27-13.48,11.34-14.29,7.05-.81,13.48,4.27,14.29,11.34l4.62,40.14c.3,2.6-.43,5.17-2.06,7.22-1.63,2.05-3.96,3.35-6.56,3.65-.38.04-.76.07-1.14.07Z"/><path class="cls-9_personal-data-30" d="m139.82,239.51s22.04-39.7,36.03-40.54c11.54-.69,17.5,21.02-1.32,45.61-7.72,10.09-10.83,22.89-8.3,35.34,2.09,10.29,2.05,23.23-5.72,35.12-16.34,25.01-36.9,12.75-41.88-13.6-4.97-26.35-5.68-34.38,21.19-61.94Z"/><polygon class="cls-13_personal-data-30" points="186.75 328.68 203.4 470.1 104.02 477.84 107.38 332.36 186.75 328.68"/><polygon class="cls-16_personal-data-30 targetColor" points="113.5 332.07 113.5 311.57 182.63 311.57 182.63 328.68 113.5 332.07" style="fill: rgb(236, 156, 82);"/><polygon class="cls-16_personal-data-30 targetColor" points="113.5 332.07 113.5 311.57 182.63 311.57 182.63 328.68 113.5 332.07" style="fill: rgb(236, 156, 82);"/><g class="cls-8_personal-data-30"><polygon class="cls-14_personal-data-30" points="155.11 311.57 159.48 473.52 203.4 470.1 186.75 328.68 182.63 328.68 182.63 311.57 155.11 311.57"/></g></g></svg>