<svg id="_0574_ranking" xmlns="http://www.w3.org/2000/svg" viewBox="0 0 500 500" data-imageid="ranking-66" imageName="Ranking" class="illustrations_image" style="width: 158px;"><defs><style>.cls-1_ranking-66{fill:#fff;}.cls-2_ranking-66{fill:#f4a28c;}.cls-3_ranking-66{opacity:.43;}.cls-3_ranking-66,.cls-4_ranking-66,.cls-5_ranking-66,.cls-6_ranking-66,.cls-7_ranking-66,.cls-8_ranking-66,.cls-9_ranking-66,.cls-10_ranking-66,.cls-11_ranking-66,.cls-12_ranking-66{fill:none;}.cls-4_ranking-66{opacity:.46;}.cls-13_ranking-66{fill:#a5a5a5;}.cls-5_ranking-66{opacity:.13;}.cls-6_ranking-66{opacity:.8;}.cls-14_ranking-66{fill:#ce8172;}.cls-15_ranking-66{fill:#e6e6e6;}.cls-7_ranking-66{opacity:.09;}.cls-8_ranking-66{opacity:.08;}.cls-9_ranking-66{opacity:.5;}.cls-10_ranking-66{opacity:.31;}.cls-11_ranking-66{opacity:.2;}.cls-12_ranking-66{opacity:.3;}.cls-16_ranking-66{fill:#24285b;}.cls-17_ranking-66{fill:#000001;}.cls-18_ranking-66{fill:#ffd200;}.cls-19_ranking-66{fill:#68e1fd;}</style></defs><g id="bg_ranking-66"><g class="cls-12_ranking-66"><path class="cls-15_ranking-66" d="m132.69,43.27c-39.96,21.61-71.24,73.2-75.52,168.96-3.61,80.69,7.73,218.58,70.5,249.74,57.48,28.53,290.11,49.09,308.79-89.79,12.66-94.14,15.68-262.93-59.08-316.31-50.7-36.2-159.04-58.9-244.69-12.6Z"/></g></g><g id="screen_ranking-66"><rect class="cls-15_ranking-66" x="34.56" y="95.23" width="451.64" height="328.17" transform="translate(-.64 .64) rotate(-.14)"/><rect class="cls-16_ranking-66" x="34.13" y="95.79" width="451.81" height="64.06"/><circle class="cls-1_ranking-66" cx="74.66" cy="128.56" r="8.18"/><circle class="cls-19_ranking-66 targetColor" cx="99.01" cy="128.5" r="8.18" style="fill: rgb(236, 156, 82);"/><circle class="cls-18_ranking-66" cx="121.96" cy="128.44" r="8.18"/><rect class="cls-15_ranking-66" x="347.79" y="318.34" width="68.95" height="8.4"/><rect class="cls-15_ranking-66" x="427.71" y="318.34" width="34.67" height="8.4"/><g class="cls-6_ranking-66"><rect class="cls-15_ranking-66" x="326.41" y="340.66" width="40.06" height="8.4"/></g><g class="cls-6_ranking-66"><rect class="cls-15_ranking-66" x="378.41" y="340.66" width="83.97" height="8.4"/></g><g class="cls-9_ranking-66"><rect class="cls-15_ranking-66" x="326.41" y="362.98" width="135.97" height="8.4"/></g><g class="cls-11_ranking-66"><rect class="cls-15_ranking-66" x="326.41" y="385.3" width="94.56" height="8.4"/></g><rect class="cls-15_ranking-66" x="57.19" y="255.21" width="19.82" height="50.57"/><rect class="cls-15_ranking-66" x="86.03" y="232.06" width="19.82" height="73.71"/><rect class="cls-15_ranking-66" x="114.87" y="204.64" width="19.82" height="101.13"/><path class="cls-15_ranking-66" d="m460.29,187.74v113.34h-31.32v-74.27c-5.07,3.85-9.97,6.97-14.71,9.35-4.74,2.38-10.68,4.66-17.83,6.84v-25.39c10.54-3.4,18.73-7.47,24.55-12.24,5.83-4.76,10.39-10.64,13.68-17.64h25.62Z"/><path class="cls-15_ranking-66" d="m402.16,288.88l.94-4.69h-4.5v-5.09h5.52l1.33-6.61h5.25l-1.33,6.61h4.05l1.33-6.61h5.23l-1.32,6.61h2.56v5.09h-3.57l-.94,4.69h4.51v5.09h-5.53l-1.3,6.49h-5.25l1.3-6.49h-4.07l-1.31,6.49h-5.21l1.3-6.49h-2.54v-5.09h3.56Zm5.23,0h4.06l.94-4.69h-4.06l-.94,4.69Z"/><polygon class="cls-18_ranking-66" points="124.78 178.47 128.03 185.07 135.31 186.12 130.04 191.25 131.29 198.5 124.78 195.08 118.27 198.5 119.52 191.25 114.25 186.12 121.53 185.07 124.78 178.47"/><g class="cls-9_ranking-66"><rect class="cls-15_ranking-66" x="62.06" y="176.84" width="23.97" height="5.07"/></g><g class="cls-11_ranking-66"><rect class="cls-15_ranking-66" x="62.06" y="192.4" width="23.97" height="5.07"/></g><g class="cls-9_ranking-66"><rect class="cls-15_ranking-66" x="90.83" y="176.84" width="6.22" height="5.07"/></g><g class="cls-11_ranking-66"><rect class="cls-15_ranking-66" x="90.83" y="192.4" width="6.22" height="5.07"/></g></g><g id="winner_ranking-66"><path class="cls-2_ranking-66" d="m253.48,202.6s5.26,9.58,6.51,16.95c.51,2.99-1.54,5.86-4.54,6.33-3.72.57-8.91.27-12.36-4.52l-6.84-7.42s-4.13-4.8-.28-11.34c3.85-6.54,14.59-6,17.5,0Z"/><polygon class="cls-2_ranking-66" points="240.21 212.22 237.75 247.95 257.54 247.9 251.38 221.92 240.21 212.22"/><path class="cls-16_ranking-66" d="m251.18,204.11c-1.71.86-4.92,2.26-9.53,3.36,0,0,5.05,2.97,4.04,9.15-1.01,6.17-7.01,6.33-7.01,6.33l-5.5-12.92c-1.72-3.71-1.3-8.08,1.15-11.36,1-1.34,2.15-2.74,3.37-3.99,3.04-3.11,9.55-3.04,11.76-7,.97-1.74,3.46-1.79,4.52-.11,2.3,3.65,4.32,10.11-.03,14.58-.8.82-1.76,1.44-2.77,1.96Z"/><path class="cls-2_ranking-66" d="m246.63,215.85s-1.77-3.82-4.53-2.24c-2.76,1.57-.23,7.1,3.93,5.89l.61-3.64Z"/><path class="cls-2_ranking-66" d="m256.48,208.81l4.49,2.62c1.11.65,1.17,2.23.11,2.95l-3.51,2.41-1.09-7.98Z"/><g class="cls-10_ranking-66"><path class="cls-14_ranking-66" d="m252.97,227.55s-3.7-.42-6.71-3.23c0,0,.86,6.5,8.6,12.3l-1.89-9.07Z"/></g><rect class="cls-18_ranking-66" x="252.92" y="115.95" width="7.3" height="22.59"/><path class="cls-18_ranking-66" d="m232.4,76.86h49.92v37.51c0,3.63-2.95,6.58-6.58,6.58h-36.76c-3.63,0-6.58-2.95-6.58-6.58v-37.51h0Z" transform="translate(3.88 -9.56) rotate(2.14)"/><rect class="cls-16_ranking-66" x="244.08" y="132.78" width="26.31" height="19.86"/><g class="cls-5_ranking-66"><rect class="cls-1_ranking-66" x="250.18" y="137.39" width="14.1" height="10.65"/></g><path class="cls-18_ranking-66" d="m253.86,109.88h-24.03c-7.6,0-13.78-6.18-13.78-13.78s6.18-13.78,13.78-13.78h24.03v27.57Zm-24.03-24.27c-5.78,0-10.49,4.71-10.49,10.49s4.71,10.49,10.49,10.49h20.73v-20.97h-20.73Z"/><path class="cls-18_ranking-66" d="m287.89,109.88h-24.03v-27.57h24.03c7.6,0,13.78,6.18,13.78,13.78s-6.18,13.78-13.78,13.78Zm-20.73-3.3h20.73c5.78,0,10.49-4.7,10.49-10.49s-4.7-10.49-10.49-10.49h-20.73v20.97Z"/><g class="cls-3_ranking-66"><path class="cls-1_ranking-66" d="m238.49,85c-.98,7.26-1.65,22.81,9.25,28.98,1.38.78,2.94-.74,2.14-2.11-2.77-4.71-6.09-13.53-3.62-26.71.39-2.08-1.21-4.01-3.33-4.01h0c-2.23,0-4.14,1.64-4.44,3.85Z"/></g><path class="cls-19_ranking-66 targetColor" d="m233.62,144.36l5.62,13.01c-4.14.49-59.46,32.85-57.49,61.37,1.98,28.52,62.82,40.77,40.1,81.27-22.72,40.5-68.26-31.02-71.71-53.74-3.46-22.72-12.33-71.46,83.48-101.91Z" style="fill: rgb(236, 156, 82);"/><path class="cls-2_ranking-66" d="m239.23,157.37c4.14-.49,11.17-8.4,4.63-18.33-6.54-9.93-10.25,5.32-10.25,5.32,0,0,4.51,13.14,5.62,13.01Z"/><path class="cls-19_ranking-66 targetColor" d="m278.92,146.82l-5.62,13.01c4.14.49,59.46,32.85,57.49,61.37-1.98,28.52-61.28,35.99-38.56,76.49,22.72,40.5,66.71-26.24,70.17-48.96,3.46-22.72,12.33-71.46-83.48-101.91Z" style="fill: rgb(236, 156, 82);"/><g class="cls-4_ranking-66"><path class="cls-1_ranking-66" d="m233.62,144.36l5.62,13.01c-4.14.49-59.46,32.85-57.49,61.37,1.98,28.52,62.82,40.77,40.1,81.27-22.72,40.5-68.26-31.02-71.71-53.74-3.46-22.72-12.33-71.46,83.48-101.91Z"/></g><g class="cls-4_ranking-66"><path class="cls-1_ranking-66" d="m278.92,146.82l-5.62,13.01c4.14.49,59.46,32.85,57.49,61.37-1.98,28.52-61.28,35.99-38.56,76.49,22.72,40.5,66.71-26.24,70.17-48.96,3.46-22.72,12.33-71.46-83.48-101.91Z"/></g><path class="cls-2_ranking-66" d="m278.92,146.82s-3.71-15.25-10.25-5.32c-6.54,9.93.49,17.84,4.63,18.33l5.62-13.01Z"/><path class="cls-19_ranking-66 targetColor" d="m237.75,247.95l19.79-.05s69.5,1.82,64.27,57.13c-5.23,55.32-34.86,101.75-34.86,101.75l-71.34-4.07s-77.44-152.57,22.14-154.76Z" style="fill: rgb(236, 156, 82);"/><path class="cls-16_ranking-66" d="m238.35,239.3s-16.1,6.96-9.68,27.71c6.42,20.74,21.43,40.09,21.43,40.09l6.39-2.24s-30.07-41.12-18.73-56.9l.6-8.66Z"/><path class="cls-16_ranking-66" d="m255.4,238.87s13.52,2.27,10.51,28.14c-2.51,21.57-9.4,38.77-9.4,38.77l-6.64-.33s10.18-32.91,6.95-57.49l-1.43-9.09Z"/><g class="cls-7_ranking-66"><path class="cls-17_ranking-66" d="m241.96,323.35l-4.44,34.34,5.83-7.34s6.46,11.8,6.28,11.01,3.62-35.12,3.62-35.12l-11.28-2.88Z"/></g><g class="cls-7_ranking-66"><path class="cls-17_ranking-66" d="m263.04,323.35l4.44,34.34-5.83-7.34s-6.46,11.8-6.28,11.01-3.62-35.12-3.62-35.12l11.28-2.88Z"/></g><circle class="cls-18_ranking-66" cx="252.25" cy="314.58" r="18.13"/><polygon class="cls-16_ranking-66" points="290.85 424.06 286.95 406.78 215.61 402.71 213.66 424.06 290.85 424.06"/></g><g id="rating_ranking-66"><g class="cls-8_ranking-66"><rect class="cls-13_ranking-66" x="34.98" y="347.99" width="121.91" height="45.48"/></g><rect class="cls-15_ranking-66" x="22.93" y="339.88" width="117.01" height="45.48"/><rect class="cls-13_ranking-66" x="13.38" y="339.8" width="136.13" height="45.48"/><polygon class="cls-1_ranking-66" points="38.03 351.27 41.07 357.43 47.87 358.41 42.95 363.21 44.11 369.98 38.03 366.78 31.95 369.98 33.11 363.21 28.19 358.41 34.99 357.43 38.03 351.27"/><polygon class="cls-1_ranking-66" points="59.74 351.27 62.78 357.43 69.57 358.41 64.65 363.21 65.82 369.98 59.74 366.78 53.66 369.98 54.82 363.21 49.9 358.41 56.7 357.43 59.74 351.27"/><polygon class="cls-1_ranking-66" points="81.44 351.27 84.48 357.43 91.28 358.41 86.36 363.21 87.52 369.98 81.44 366.78 75.36 369.98 76.52 363.21 71.6 358.41 78.4 357.43 81.44 351.27"/><polygon class="cls-1_ranking-66" points="103.15 351.27 106.19 357.43 112.98 358.41 108.06 363.21 109.23 369.98 103.15 366.78 97.07 369.98 98.23 363.21 93.31 358.41 100.11 357.43 103.15 351.27"/><polygon class="cls-1_ranking-66" points="124.85 351.27 127.89 357.43 134.69 358.41 129.77 363.21 130.93 369.98 124.85 366.78 118.77 369.98 119.93 363.21 115.01 358.41 121.81 357.43 124.85 351.27"/></g></svg>