<svg id="_0224_social_media_1" xmlns="http://www.w3.org/2000/svg" viewBox="0 0 500 500" data-imageid="social-media-1-63" imageName="Social Media 1" class="illustrations_image" style="width: 178px;"><defs><style>.cls-1_social-media-1-63{opacity:.45;}.cls-1_social-media-1-63,.cls-2_social-media-1-63,.cls-3_social-media-1-63,.cls-4_social-media-1-63,.cls-5_social-media-1-63{fill:none;}.cls-6_social-media-1-63{fill:#fff;}.cls-7_social-media-1-63{fill:#f4a28c;}.cls-2_social-media-1-63{opacity:.46;}.cls-8_social-media-1-63{fill:#a5a5a5;}.cls-9_social-media-1-63{fill:#ce8172;}.cls-10_social-media-1-63{fill:#e6e6e6;}.cls-3_social-media-1-63{opacity:.6;}.cls-4_social-media-1-63{opacity:.31;}.cls-11_social-media-1-63{fill:#24285b;}.cls-12_social-media-1-63{fill:#ffd200;}.cls-5_social-media-1-63{opacity:.49;}.cls-13_social-media-1-63{fill:#68e1fd;}</style></defs><g id="person_socmed_social-media-1-63"><polygon class="cls-11_social-media-1-63" points="169.77 394.8 305.02 424.9 276.16 467.31 148.48 467.31 169.77 394.8"/><path class="cls-13_social-media-1-63 targetColor" d="m183.38,323.09l-43.77-69.55-19.31,9.18s16.29,83.5,43.91,84.8c27.62,1.31,19.16-24.43,19.16-24.43Z" style="fill: rgb(236, 156, 82);"/><g class="cls-2_social-media-1-63"><path class="cls-6_social-media-1-63" d="m183.38,323.09l-43.77-69.55-19.31,9.18s16.29,83.5,43.91,84.8c27.62,1.31,19.16-24.43,19.16-24.43Z"/></g><path class="cls-13_social-media-1-63 targetColor" d="m279.85,219.39s-113.59-38.84-105.35,95.37l105.35-95.37Z" style="fill: rgb(236, 156, 82);"/><g class="cls-2_social-media-1-63"><path class="cls-6_social-media-1-63" d="m174.5,314.77l105.35-95.37s-113.59-38.84-105.35,95.37"/></g><path class="cls-7_social-media-1-63" d="m311.45,164.75s-9.58,11.69-13.14,21.38c-1.44,3.93.61,8.36,4.56,9.74,4.91,1.72,12.04,2.63,17.94-3.01l11.18-8.34s6.82-5.47,3.25-15.34c-3.57-9.86-18.31-11.84-23.78-4.43Z"/><polygon class="cls-7_social-media-1-63" points="328.29 180.72 319.47 229.44 292.97 222.66 310.03 189.93 328.29 180.72"/><path class="cls-12_social-media-1-63" d="m314.19,167.39c2.1,1.6,6.11,4.32,12.1,6.98,0,0-7.61,2.76-7.8,11.41-.19,8.65,7.92,10.37,7.92,10.37l10.75-16.16c3.28-4.61,3.81-10.65,1.31-15.73-1.02-2.07-2.22-4.27-3.56-6.27-3.35-5-12.21-6.55-14.21-12.49-.88-2.6-4.25-3.31-6.12-1.29-4.05,4.38-8.43,12.64-3.66,19.82.87,1.31,2.02,2.4,3.27,3.36Z"/><path class="cls-7_social-media-1-63" d="m317.4,184.49s3.38-4.74,6.73-1.9c3.35,2.84-1.48,9.71-6.83,7.01l.1-5.11Z"/><path class="cls-7_social-media-1-63" d="m305.79,172.43l-6.76,2.43c-1.67.6-2.15,2.73-.89,3.99l4.16,4.16,3.5-10.57Z"/><g class="cls-4_social-media-1-63"><path class="cls-9_social-media-1-63" d="m305.99,196.94s5.1.7,10.09-2.05c0,0-3.36,8.42-15.7,13.57l5.61-11.51Z"/></g><path class="cls-13_social-media-1-63 targetColor" d="m388.94,294.64c-2.04-32.39-51.85-61.43-83.29-69.48l-11.76-3.01s-81.66-24.17-109.54,48.45c-27.89,72.62-11.4,141.44-11.4,141.44l134.71,15.52s85.86-60.32,81.27-132.91Z" style="fill: rgb(236, 156, 82);"/><path class="cls-13_social-media-1-63 targetColor" d="m330.8,234.88s4.69-13.22-11.25-19.61c-15.94-6.39-31.93-12.58-39.7,4.13,0,0,13.09,13.37,50.95,15.49Z" style="fill: rgb(236, 156, 82);"/><g class="cls-2_social-media-1-63"><path class="cls-6_social-media-1-63" d="m330.8,234.88s4.69-13.22-11.25-19.61c-15.94-6.39-31.93-12.58-39.7,4.13,0,0,13.09,13.37,50.95,15.49Z"/></g><path class="cls-13_social-media-1-63 targetColor" d="m434.85,155.15s95.03,171.67,8.65,206.78c-68.58,27.88-121.25-21.92-117.4-77.73,1.86-26.93,35.66-37.03,52-15.54,6.88,9.05,12.84,20.72,15.84,35.61,9.95,49.47,42.48,11.35,38.27-26.54-4.21-37.89,2.64-122.59,2.64-122.59Z" style="fill: rgb(236, 156, 82);"/><g class="cls-2_social-media-1-63"><path class="cls-6_social-media-1-63" d="m434.85,155.15s95.03,171.67,8.65,206.78c-68.58,27.88-121.25-21.92-117.4-77.73,1.86-26.93,35.66-37.03,52-15.54,6.88,9.05,12.84,20.72,15.84,35.61,9.95,49.47,42.48,11.35,38.27-26.54-4.21-37.89,2.64-122.59,2.64-122.59Z"/></g><path class="cls-10_social-media-1-63" d="m20.23,49.82l16.26,388.87,409.5-17.13-16.26-388.87L20.23,49.82Zm397.71,239.84l-365.12,15.27-6.82-163.15,365.12-15.27,6.82,163.15Z"/><circle class="cls-8_social-media-1-63" cx="75.21" cy="94.69" r="23.78"/><rect class="cls-8_social-media-1-63" x="116.27" y="75.43" width="54.35" height="11.56" rx="3.39" ry="3.39" transform="translate(-3.27 6.06) rotate(-2.39)"/><g class="cls-2_social-media-1-63"><rect class="cls-8_social-media-1-63" x="117.09" y="94.77" width="81.4" height="11.56" rx="3.39" ry="3.39" transform="translate(-4.06 6.68) rotate(-2.39)"/></g><path class="cls-7_social-media-1-63" d="m435.63,173.79s12.21-32.28-6.02-36.59c-18.23-4.31-4.25,29.05,6.02,36.59Z"/><path class="cls-7_social-media-1-63" d="m139.61,253.54s-11.82-11.81-17.29-26.84c-5.47-15.03-12.82-2.42-8.05,5.75,4.77,8.17-16.67,1.68-13.1,16.3,3.57,14.62,19.13,13.97,19.13,13.97l19.31-9.18Z"/><g class="cls-1_social-media-1-63"><rect class="cls-10_social-media-1-63" x="78.42" y="163.09" width="140.07" height="13.74" transform="translate(-6.97 6.35) rotate(-2.39)"/></g><circle class="cls-12_social-media-1-63" cx="87.05" cy="343.64" r="25.2"/><circle class="cls-11_social-media-1-63" cx="159.79" cy="340.6" r="25.2"/><g class="cls-2_social-media-1-63"><rect class="cls-8_social-media-1-63" x="64.49" y="376.89" width="352.15" height="53.23" transform="translate(-16.65 10.4) rotate(-2.39)"/></g><path class="cls-6_social-media-1-63" d="m165.37,329.63c-1.44.11-2.73.67-3.83,1.67-1.05.95-1.71,2.11-2.08,2.95-.5-.77-1.33-1.81-2.52-2.59-1.24-.81-2.59-1.16-4.04-1.05-4.03.31-6.81,3.85-6.46,8.21.37,4.72,4.41,7.65,10.53,12.09,1.04.75,2.22,1.61,3.44,2.52.16.12.36.18.56.16s.39-.1.53-.25c1.07-1.09,2.1-2.12,3.01-3.03,5.35-5.33,8.89-8.86,8.52-13.58-.34-4.37-3.63-7.42-7.66-7.11Z"/><g class="cls-5_social-media-1-63"><rect class="cls-6_social-media-1-63" x="73.97" y="339.88" width="10" height="15.08" transform="translate(-14.45 3.6) rotate(-2.39)"/></g><path class="cls-6_social-media-1-63" d="m83.7,340.83s6.38-3.3,8.09-9.06c.57-1.92,3.32-2.07,4.17-.26.47,1,.68,2.32.31,4.03-1.23,5.79,4.85,2.09,6.42,4.49,1.58,2.4,6.73,15.8-18.47,13.57l-.53-12.78Z"/><g class="cls-3_social-media-1-63"><circle class="cls-8_social-media-1-63" cx="356.08" cy="335.92" r="7.13"/></g><g class="cls-3_social-media-1-63"><circle class="cls-8_social-media-1-63" cx="378.04" cy="334.96" r="7.13"/></g><g class="cls-3_social-media-1-63"><circle class="cls-8_social-media-1-63" cx="400.59" cy="333.97" r="7.13"/></g></g></svg>