<svg version="1.1" id="Layer_1" xmlns="http://www.w3.org/2000/svg" xmlns:xlink="http://www.w3.org/1999/xlink" x="0px" y="0px" viewBox="0 0 500 500" style="width: 158px;" xml:space="preserve" data-imageid="social-media-38" imageName="Social Media" class="illustrations_image">
<style type="text/css">
	.st0_social-media-38{fill:#231F20;}
	.st1_social-media-38{fill:#FFFFFF;}
	.st2_social-media-38{fill:#68E1FD;}
	.st3_social-media-38{fill:none;}
	.st4_social-media-38{fill:#D1D3D4;}
</style>
<g id="Character_social-media-38">
	<polygon class="st0_social-media-38" points="193.7,395 189.7,424.1 338.7,424.1 329.8,378.6 &#9;"/>
	<path class="st0_social-media-38" d="M338.7,424.9H189.7c-0.2,0-0.4-0.1-0.5-0.2c-0.1-0.2-0.2-0.4-0.2-0.6l4-29.2c0-0.3,0.3-0.6,0.6-0.6l136.1-16.4&#10;&#9;&#9;c0.4,0,0.7,0.2,0.8,0.6l8.8,45.5c0.1,0.4-0.2,0.8-0.6,0.8C338.8,424.8,338.7,424.8,338.7,424.9L338.7,424.9z M190.5,423.5h147.3&#10;&#9;&#9;l-8.5-44.1l-135,16.2L190.5,423.5z"/>
	<path class="st0_social-media-38" d="M261.6,130.7c0,0-10.2-11-21.6-13.2s-48.3,11.2-51.9,25.7s2.4,35.3,2.4,35.3S244.4,128.3,261.6,130.7z"/>
	<path class="st0_social-media-38" d="M190.5,179.3h-0.2c-0.2-0.1-0.4-0.2-0.5-0.5c-0.2-0.9-6.1-21.2-2.5-35.7c3.7-14.9,40.9-28.4,52.7-26.2&#10;&#9;&#9;c11.5,2.2,21.6,12.9,22,13.4c0.2,0.2,0.3,0.5,0.1,0.8c-0.1,0.3-0.4,0.4-0.7,0.4c-16.7-2.4-70,47.2-70.5,47.7&#10;&#9;&#9;C190.8,179.2,190.7,179.3,190.5,179.3z M237.1,118c-13.4,0-45.1,12.4-48.4,25.4c-3,12.3,1,29.4,2.1,33.9c7-6.4,51.2-46.6,68.9-47.3&#10;&#9;&#9;c-3-2.9-11.2-10.1-20-11.7C238.9,118.1,238,118,237.1,118z"/>
	
		<ellipse transform="matrix(0.9003 -0.4352 0.4352 0.9003 -46.4551 117.7744)" class="st1_social-media-38" cx="233.9" cy="160.3" rx="58.2" ry="22.1"/>
	<path class="st0_social-media-38" d="M198.6,193.2c-9.2,0-15.4-2.5-17.7-7.3c-2.7-5.6,0.4-13.5,8.7-22.3c8.1-8.6,20.4-17.1,34.4-23.9&#10;&#9;&#9;s28.3-11.1,40.1-12.2c12-1,20.1,1.5,22.8,7s-0.4,13.5-8.7,22.3c-8.1,8.6-20.4,17.1-34.4,23.9S215.5,192,203.7,193&#10;&#9;&#9;C201.9,193.1,200.2,193.2,198.6,193.2z M269.2,128.8c-1.6,0-3.3,0.1-5.1,0.2c-11.6,1-25.7,5.3-39.6,12s-26,15.1-34,23.6&#10;&#9;&#9;c-7.9,8.3-10.9,15.7-8.4,20.7s10.1,7.3,21.5,6.3c11.6-1,25.7-5.3,39.6-12s26-15.1,34-23.6c7.9-8.3,10.9-15.7,8.4-20.7l0,0&#10;&#9;&#9;C283.6,131.1,277.8,128.8,269.2,128.8z"/>
	<polygon class="st2_social-media-38 targetColor" points="214.5,223.9 127.2,233.9 106.1,289.7 218.9,293.5 &#9;" style="fill: rgb(236, 156, 82);"/>
	<polygon class="st2_social-media-38 targetColor" points="304.1,222.6 391.7,262.2 398.8,322.7 295.5,289.6 &#9;" style="fill: rgb(236, 156, 82);"/>
	<path class="st2_social-media-38 targetColor" d="M241,225.6c-7.7,0.8-35.9,3.3-43.1,6.6c-24.5,11-5.1,168.5-8.4,168.9c0.8-0.1,146.5-14,146.5-14&#10;&#9;&#9;c-5.7-55.4,5.2-96-25.8-158.3C301.5,211.1,260.4,223.7,241,225.6z" style="fill: rgb(236, 156, 82);"/>
	<path class="st0_social-media-38" d="M236.6,235c0,0,4.6,38.6,25.4,33.6s10.9-39.6,10.9-39.6L236.6,235z"/>
	<path class="st0_social-media-38" d="M258.4,269.7c-2.9,0-5.8-0.9-8.1-2.6c-11.4-7.9-14.3-31.1-14.4-32c0-0.4,0.2-0.7,0.6-0.8l36.3-6&#10;&#9;&#9;c0.4-0.1,0.7,0.2,0.8,0.5c0.2,0.9,5.9,21.1-1,32.9c-2.2,3.9-6,6.7-10.4,7.6C260.9,269.6,259.7,269.8,258.4,269.7z M237.4,235.6&#10;&#9;&#9;c0.6,3.9,3.9,23.6,13.7,30.4c3.1,2.2,7.1,2.9,10.8,1.9c4-0.9,7.5-3.4,9.5-7c6-10.2,1.9-27.7,1-31.2L237.4,235.6z"/>
	<line class="st3_social-media-38" x1="304.6" y1="239.1" x2="319.5" y2="293"/>
	<path class="st0_social-media-38" d="M319.5,293.7c-0.3,0-0.6-0.2-0.7-0.5l-14.9-54c-0.1-0.4,0.1-0.8,0.5-0.9c0.4-0.1,0.7,0.1,0.8,0.5l14.9,54&#10;&#9;&#9;c0.1,0.4-0.1,0.8-0.5,0.9L319.5,293.7z"/>
	<line class="st3_social-media-38" x1="189.7" y1="255" x2="197.7" y2="306.1"/>
	<path class="st0_social-media-38" d="M197.7,306.8c-0.3,0-0.6-0.3-0.7-0.6l-7.9-51.1c0-0.4,0.2-0.7,0.6-0.8c0.4,0,0.7,0.2,0.8,0.5l7.9,51.1&#10;&#9;&#9;c0.1,0.4-0.2,0.7-0.6,0.8L197.7,306.8z"/>
	<path class="st1_social-media-38" d="M298.5,190.3c-2-5.3-6.7-8.9-10.7-12.9c-9.1-9-13.1-20.3-19.7-30.9c-2.1-3.4-4.7-6.4-7.7-9&#10;&#9;&#9;c-8.9,1.8-19.8,4.4-28.2,8.1c-26.7,11.8-34.3,26-34.5,26.2c1.1,14.4,5.2,37.7,9.7,51.4c2.1,6.5,4.7,15.2,12.1,17.6&#10;&#9;&#9;c2.1,0.7-0.8-1.5,1.3-2.1c7.3-2,15.1-3.9,21.9-7.2c6.4-3.1,11.2-8.2,17.3-11.5c4.1-2.2,8.4-2.4,12.8-2.8c0.9-0.1,1.8-0.1,2.7-0.2&#10;&#9;&#9;c6.7-0.7,13.5-3.1,18.3-8S300.9,196.7,298.5,190.3z"/>
	<path class="st0_social-media-38" d="M220.2,241.7c-0.3,0-0.5-0.1-0.8-0.2c-7.5-2.4-10.1-10.6-12.3-17.2l-0.3-0.8c-4.7-14.4-8.8-38-9.8-51.5&#10;&#9;&#9;c0-0.2,0.1-0.4,0.2-0.6v-0.1c2.2-3.6,11.2-15.9,34.7-26.3c8.8-3.9,20.4-6.5,28.4-8.1c0.2,0,0.4,0,0.6,0.1c3.1,2.6,5.7,5.7,7.9,9.1&#10;&#9;&#9;c2.1,3.4,4,7,5.9,10.4c3.9,7.4,7.6,14.3,13.7,20.3c0.7,0.7,1.5,1.4,2.2,2.1c3.4,3.2,6.9,6.5,8.6,11l0,0c2.3,6.3,0.4,14-4.9,19.4&#10;&#9;&#9;c-5.6,5.7-13.3,7.6-18.7,8.2l-2.7,0.2l-0.6,0.1c-4.1,0.3-8.1,0.6-11.9,2.6c-2.8,1.6-5.5,3.4-8,5.4c-2.9,2.3-6,4.4-9.3,6.1&#10;&#9;&#9;c-5.8,2.8-12.3,4.6-18.5,6.3l-3.5,1c-0.1,0-0.2,0.1-0.3,0.1c0,0.2,0.1,0.4,0.2,0.6c0.3,0.4,0.3,0.9,0,1.3&#10;&#9;&#9;C220.7,241.6,220.4,241.7,220.2,241.7z M219.7,240.9L219.7,240.9z M198.4,172.1c1,13.5,5,36.7,9.7,51l0.3,0.8&#10;&#9;&#9;c2,6.2,4.5,13.9,11,16.2c-0.1-0.4-0.1-0.8,0.1-1.1c0.2-0.4,0.7-0.8,1.2-0.9l3.5-1c6.2-1.7,12.6-3.5,18.3-6.2c3.2-1.7,6.3-3.7,9.1-6&#10;&#9;&#9;c2.6-2,5.3-3.9,8.2-5.5c4-2.2,8.1-2.5,12.4-2.8h0.6c0.9-0.1,1.8-0.1,2.7-0.2c5.2-0.6,12.5-2.3,17.8-7.8c4.9-5,6.7-12.2,4.6-17.9&#10;&#9;&#9;l0,0c-1.5-4.1-5-7.4-8.2-10.5c-0.8-0.7-1.5-1.4-2.3-2.2c-6.2-6.1-10.1-13.5-14-20.6c-1.8-3.4-3.7-7-5.8-10.4&#10;&#9;&#9;c-2-3.2-4.5-6.1-7.4-8.6c-7.9,1.6-19.2,4.2-27.8,8C209.4,156.6,200.6,168.7,198.4,172.1L198.4,172.1z"/>
	<path class="st1_social-media-38" d="M263.6,154.9c0,0,11.7,15.8,12.6,30.2c0.8,8.2-3.4,16-10.6,20l7.2,23.8c0,0,3.8,12.2-11.8,14.8&#10;&#9;&#9;c-9.1,1.5-18.4-1.8-24.5-8.8l-14.9-43.4c0,0,14-14.8,7.8-30.2C229.5,161.4,252.6,165.2,263.6,154.9z"/>
	<path class="st0_social-media-38" d="M256.6,244.8c-7.9-0.1-15.3-3.5-20.6-9.4c-0.1-0.1-0.1-0.1-0.1-0.2L221,191.8c-0.1-0.2,0-0.5,0.2-0.7&#10;&#9;&#9;c0.1-0.1,13.6-14.7,7.7-29.4c-0.1-0.2-0.1-0.5,0.1-0.7c0.2-0.2,0.4-0.3,0.7-0.2c0.2,0,22.9,3.5,33.5-6.4c0.1-0.1,0.3-0.2,0.5-0.2&#10;&#9;&#9;c0.2,0,0.4,0.1,0.5,0.3c0.5,0.6,11.8,16.2,12.8,30.6c0.7,8.2-3.4,16.1-10.4,20.4l7,23.3c0.9,3.2,0.4,6.5-1.2,9.4&#10;&#9;&#9;c-2,3.3-5.8,5.4-11.1,6.3C259.7,244.7,258.1,244.8,256.6,244.8z M237.2,234.6c0.9,1,9.6,10.8,23.8,8.4c4.9-0.8,8.3-2.7,10.1-5.6&#10;&#9;&#9;c1.4-2.5,1.8-5.5,1.1-8.3l-7.2-23.9c-0.1-0.3,0.1-0.7,0.4-0.8c0.5-0.2,11.1-5.5,10.2-19.3c-0.8-12.4-9.9-26.2-12-29.2&#10;&#9;&#9;c-10,8.5-28.1,6.9-32.9,6.3c4.8,13.9-6.2,27.2-8.1,29.5L237.2,234.6z"/>
	<path class="st1_social-media-38" d="M229.1,186c0,0-12.4-14.4-17.5-1.4s10.4,20.8,17.5,17.6"/>
	<path class="st0_social-media-38" d="M225.2,203.6c-4.2-0.1-8.3-1.8-11.3-4.7c-4-3.7-5.3-9.5-3-14.5c1.4-3.4,3.3-5.3,5.9-5.8c5.9-1,12.5,6.6,12.8,7&#10;&#9;&#9;c0.3,0.3,0.3,0.7,0,1c-0.3,0.3-0.7,0.3-1,0c0,0,0,0-0.1-0.1c-0.1-0.1-6.4-7.4-11.5-6.5c-2,0.3-3.6,2-4.8,4.9c-2,4.5-0.9,9.7,2.7,13&#10;&#9;&#9;c3.9,3.7,10.1,5.4,13.8,3.7c0.3-0.2,0.8-0.1,1,0.3c0.2,0.3,0.1,0.8-0.3,1c0,0-0.1,0-0.1,0.1C228,203.4,226.6,203.7,225.2,203.6z"/>
	<path class="st0_social-media-38" d="M254,187.6c-0.4,0-0.7-0.3-0.7-0.7c0-0.4,0.3-0.7,0.7-0.7c0.1,0,5.1-0.2,7.1-2.1c0-0.1,0.1-0.1,0-0.2&#10;&#9;&#9;c-0.1-2-6.6-7.4-10.6-10.3c-0.3-0.2-0.4-0.7-0.2-1c0.2-0.3,0.7-0.4,1-0.1c1.8,1.3,10.9,8.1,11.1,11.3c0.1,0.5-0.1,1-0.5,1.3&#10;&#9;&#9;C259.7,187.4,254.3,187.6,254,187.6L254,187.6z"/>
	<path class="st0_social-media-38" d="M265.7,205.1c0,0-12.3,5.4-20.1,5.8c0,0,13.6,16.4,25.7,12.7L265.7,205.1z"/>
	<path class="st0_social-media-38" d="M267.5,224.8c-11.1,0-22-12.9-22.5-13.5c-0.2-0.2-0.2-0.5-0.1-0.7c0.1-0.2,0.3-0.4,0.6-0.4&#10;&#9;&#9;c7.7-0.3,19.8-5.6,19.9-5.7c0.2-0.1,0.4-0.1,0.6,0c0.2,0.1,0.3,0.2,0.4,0.4l5.6,18.4c0.1,0.4-0.1,0.8-0.4,0.9c0,0,0,0,0,0&#10;&#9;&#9;C270.2,224.6,268.8,224.8,267.5,224.8z M247,211.5c3.2,3.4,13.8,13.9,23.4,11.6l-5.1-17C262.6,207.2,253.8,210.8,247,211.5z"/>
	
		<ellipse transform="matrix(0.9408 -0.3391 0.3391 0.9408 -45.5073 92.3683)" class="st0_social-media-38" cx="241.6" cy="176.4" rx="1.9" ry="3.4"/>
	<path class="st1_social-media-38" d="M204.9,214.6c3.7,14.2,11,40.1,31,26.5c4.2-2.9,7.1-7.3,8.1-12.2c1.8-9-13.3-16.1-20.3-19.3"/>
	<path class="st0_social-media-38" d="M225.4,245.7c-1.4,0-2.9-0.3-4.2-0.8c-10.2-3.8-14.6-20.9-17-30.1c-0.1-0.4,0.1-0.8,0.5-0.9c0,0,0,0,0,0&#10;&#9;&#9;c0.4-0.1,0.8,0.1,0.9,0.5c2.2,8.3,6.7,25.6,16.1,29.1c4,1.5,8.6,0.5,13.8-3c4-2.8,6.8-7,7.8-11.8c1.8-8.8-14.6-16.1-19.9-18.5&#10;&#9;&#9;c-0.4-0.1-0.6-0.5-0.4-0.9c0.1-0.4,0.5-0.6,0.9-0.4c0,0,0.1,0,0.1,0.1c9.7,4.4,22.5,11.2,20.7,20.1c-1,5.2-4.1,9.7-8.4,12.7&#10;&#9;&#9;C232.4,244.4,228.8,245.7,225.4,245.7z"/>
	<path class="st0_social-media-38" d="M254.7,201.6c-1,0-2.1-0.1-3.1-0.3c-10.2-1.9-9.5-9.9-9.5-10c0-0.4,0.3-0.6,0.7-0.6l0,0l22.2,0.1&#10;&#9;&#9;c0.2,0,0.4,0.1,0.5,0.2c0.1,0.1,0.2,0.3,0.2,0.5c-0.1,3-1.5,5.8-3.8,7.8C259.9,200.8,257.3,201.6,254.7,201.6z M243.5,192&#10;&#9;&#9;c0.1,1.7,1,6.5,8.4,7.9c3.8,0.7,6.9,0.1,9.2-1.8c1.8-1.5,2.9-3.7,3.2-6L243.5,192z"/>
	<path class="st0_social-media-38" d="M256.9,173.1c-0.1,0-0.2,0-0.2,0c-0.4-0.1-0.6-0.5-0.4-0.9c0,0,0,0,0,0c0.7-2,2.1-3.6,4-4.6&#10;&#9;&#9;c1.6-0.7,3.5-0.6,5,0.2c0.4,0.1,0.6,0.5,0.4,0.9c-0.1,0.4-0.5,0.6-0.9,0.4c0,0-0.1,0-0.1,0c-1.2-0.6-2.7-0.7-3.9-0.2&#10;&#9;&#9;c-1.5,0.8-2.6,2.1-3.2,3.7C257.5,172.9,257.2,173.1,256.9,173.1z"/>
	<path class="st1_social-media-38" d="M121.6,289c-15.9,10.1-35.8-9.3-27.2-34.5s68.6-85.8,68.6-85.8s-5-14.3-0.5-19.6s13.3-2.4,13.3-2.4&#10;&#9;&#9;s5.2-23,9.8-21.3s-3,23.8-3,23.8s12.3-24.4,15.4-19.7c3.1,4.7-9.1,22.8-9.1,22.8s7.4-1,2.9,9.5c-2.9,6.4-7.7,11.8-13.8,15.4&#10;&#9;&#9;C177.9,177.2,137.5,278.9,121.6,289z"/>
	<path class="st0_social-media-38" d="M112.5,292.4c-4.1-0.1-8-1.5-11.2-4.1c-7.6-5.9-12.8-18.8-7.6-34.1c8.3-24.4,63.4-80.5,68.5-85.7&#10;&#9;&#9;c-0.8-2.5-4.6-14.8-0.2-19.9c4-4.8,11-3.4,13.3-2.8c0.9-3.9,4.6-18.7,8.7-20.9c0.6-0.3,1.3-0.4,1.9-0.2c3.4,1.2,1.5,10.6-0.4,17.6&#10;&#9;&#9;c3.4-6.1,8.4-14,11.4-14.1c0.7,0,1.4,0.3,1.7,0.9c2.9,4.4-5.7,18.3-8.4,22.5c1.1,0.1,2.2,0.7,2.9,1.6c1.3,1.8,1.1,4.8-0.7,8.9&#10;&#9;&#9;c-2.9,6.6-7.8,12-14,15.7c-3.3,9.2-41.1,102.1-56.3,111.8l0,0C119.2,291.4,115.9,292.4,112.5,292.4z M170.4,146.6&#10;&#9;&#9;c-2.8-0.2-5.5,0.9-7.4,3c-4.2,5,0.6,18.8,0.6,19c0.1,0.3,0,0.5-0.2,0.7c-0.6,0.6-60.1,60.7-68.5,85.5c-5,14.7,0,27,7.2,32.6&#10;&#9;&#9;c5.8,4.6,12.9,5,19,1.1l0,0c15.5-9.9,55.6-110.4,56-111.4c0.1-0.2,0.2-0.3,0.3-0.4c5.9-3.6,10.6-8.9,13.5-15.2&#10;&#9;&#9;c1.5-3.6,1.8-6.2,0.8-7.5c-0.8-0.8-1.9-1.2-3-1.1c-0.3,0-0.5-0.1-0.7-0.3c-0.1-0.2-0.1-0.5,0-0.8c3.3-4.9,11.4-18.5,9.1-22&#10;&#9;&#9;c-0.1-0.2-0.3-0.3-0.5-0.3c-2.8,0.2-9.9,12.3-13.7,19.9c-0.2,0.3-0.6,0.5-0.9,0.3c-0.3-0.1-0.5-0.5-0.4-0.9&#10;&#9;&#9;c5.2-14.9,5.2-22.4,3.5-22.9c-0.2-0.1-0.5,0-0.7,0.1c-3.2,1.8-7,15.6-8.1,20.8c0,0.2-0.2,0.4-0.3,0.5c-0.2,0.1-0.4,0.1-0.6,0.1&#10;&#9;&#9;C173.9,146.8,172.2,146.6,170.4,146.6z"/>
	<path class="st0_social-media-38" d="M171.5,166.7h-0.1c-0.4-0.1-0.6-0.4-0.6-0.8c0.2-2.2,1.4-4.1,3.2-5.4c1.3-0.8,2.7-1.3,4.2-1.4&#10;&#9;&#9;c-1.8-0.9-3.5-2.1-5-3.4c-1-0.9-1.3-1.7-1-2.5c1.2-2.8,12.9-1.9,16.5-1.6c0.4,0,0.7,0.4,0.6,0.8c0,0.4-0.4,0.7-0.7,0.6c0,0,0,0,0,0&#10;&#9;&#9;c-7.7-0.7-14.6-0.3-15,0.8c0,0.1,0,0.4,0.6,0.9c2.3,2.2,5.1,3.7,8.2,4.6c0.9,0.1,1.4,0.3,1.5,0.3c0.3,0.1,0.6,0.4,0.5,0.8&#10;&#9;&#9;c-0.1,0.4-0.4,0.6-0.7,0.6c-0.5-0.1-1.1-0.2-1.6-0.3c-1.8-0.3-5-0.4-7.3,1.1c-1.5,1-2.4,2.6-2.6,4.4&#10;&#9;&#9;C172.2,166.4,171.9,166.7,171.5,166.7z"/>
</g>
<g id="Insta_Frame_social-media-38">
	<path class="st1_social-media-38" d="M116.2,101L149,386.8l218.9-25.1L335.1,75.8L116.2,101z M338.7,268.3l-182.4,20.9l-19.4-169.4l182.4-20.9&#10;&#9;&#9;L338.7,268.3z"/>
	<path class="st0_social-media-38" d="M149,387.5c-0.2,0-0.3-0.1-0.4-0.2c-0.1-0.1-0.2-0.3-0.3-0.5l-32.8-285.8c0-0.4,0.2-0.7,0.6-0.8L335,75.2&#10;&#9;&#9;c0.2,0,0.4,0,0.5,0.1c0.1,0.1,0.2,0.3,0.3,0.5l32.8,285.8c0,0.4-0.2,0.7-0.6,0.8c0,0,0,0,0,0L149,387.5L149,387.5z M117,101.6&#10;&#9;&#9;L149.6,386l217.5-25L334.5,76.6L117,101.6z M156.3,289.9c-0.4,0-0.7-0.3-0.7-0.6l-19.5-169.4c0-0.4,0.2-0.7,0.6-0.8c0,0,0,0,0,0&#10;&#9;&#9;l182.4-20.9c0.2,0,0.4,0,0.5,0.2c0.1,0.1,0.2,0.3,0.3,0.5l19.4,169.4c0,0.4-0.2,0.7-0.6,0.8L156.3,289.9L156.3,289.9z M137.6,120.4&#10;&#9;&#9;l19.3,168l181-20.8l-19.3-168L137.6,120.4z"/>
	<path class="st2_social-media-38 targetColor" d="M175.5,302l0.3-0.5c0.6-1.2,1.6-2.2,2.7-2.8c0.9-0.5,1.9-0.8,2.9-0.8c1.5-0.1,3,0.4,4.1,1.4&#10;&#9;&#9;c1,0.8,1.7,1.9,2,3.2c0.2,0.8,0.3,1.6,0.3,2.5c0.1,2.1-0.6,4.2-1.8,5.8c-0.8,1-1.6,2.1-2.5,3l-4.6,5c-0.4,0.5-0.9,1-1.3,1.5&#10;&#9;&#9;l-0.1,0.1l-0.4-0.3c-1.8-1.4-3.7-2.6-5.6-3.9c-1.2-0.8-2.4-1.7-3.6-2.6c-0.9-0.7-1.6-1.4-2.3-2.2c-0.7-0.9-1.2-1.9-1.5-3&#10;&#9;&#9;c-0.2-0.8-0.4-1.6-0.4-2.5c-0.2-2.5,1.1-4.9,3.4-6c2.2-1.1,5-0.8,6.9,0.8c0.5,0.4,0.9,0.8,1.3,1.3L175.5,302z" style="fill: rgb(236, 156, 82);"/>
	<path class="st4_social-media-38" d="M219.7,316.1c-0.1,0-0.2,0-0.3-0.1l-4.4-2c-1.4,0.7-3,1.1-4.5,1.3c-3.2,0.4-6.3-0.3-9-2.1&#10;&#9;&#9;c-4.5-2.8-5.9-8.8-3.1-13.4c0.4-0.6,0.9-1.2,1.4-1.7c4.6-4.7,11.8-5.5,17.3-2c2.5,1.6,4.1,4.2,4.5,7.1c0.3,2.4-0.4,4.8-1.8,6.8&#10;&#9;&#9;l0.6,5.2C220.4,315.7,220.1,316,219.7,316.1C219.7,316.1,219.7,316.1,219.7,316.1L219.7,316.1z M215,312.6c0.1,0,0.2,0,0.3,0.1&#10;&#9;&#9;l3.5,1.6l-0.5-4.2c0-0.2,0-0.4,0.1-0.5c1.3-1.7,1.9-3.9,1.7-6c-0.3-2.5-1.8-4.8-3.9-6.1c-4.9-3.1-11.4-2.4-15.5,1.8&#10;&#9;&#9;c-3.3,3.2-3.3,8.5-0.1,11.8c0.5,0.5,1,0.9,1.6,1.2c2.4,1.6,5.2,2.2,8.1,1.9c1.5-0.2,3-0.6,4.4-1.3&#10;&#9;&#9;C214.8,312.6,214.9,312.6,215,312.6z"/>
	<path class="st4_social-media-38" d="M242.6,312.3L242.6,312.3c-0.3,0-0.6-0.2-0.6-0.5l-2.6-8.5l-10.2-3.9c-0.3-0.1-0.5-0.4-0.4-0.7&#10;&#9;&#9;c0-0.3,0.2-0.6,0.5-0.6l21.5-7.7c0.3-0.1,0.5,0,0.7,0.2c0.2,0.2,0.2,0.5,0.1,0.8l-8.2,20.6C243.1,312.2,242.9,312.3,242.6,312.3z&#10;&#9;&#9; M231.3,298.8l8.8,3.4c0.2,0.1,0.4,0.2,0.4,0.5l2.1,7l6.9-17.3L231.3,298.8z"/>
	<path class="st4_social-media-38" d="M239.9,303.5c-0.4,0-0.7-0.3-0.7-0.7c0-0.2,0.1-0.4,0.2-0.5l10.9-11.7c0.3-0.3,0.7-0.3,1,0&#10;&#9;&#9;c0.3,0.3,0.3,0.7,0,1c0,0,0,0,0,0l-10.9,11.7C240.2,303.4,240,303.5,239.9,303.5z"/>
	<path class="st4_social-media-38" d="M167.4,337.2c-0.4,0-0.7-0.3-0.7-0.6c0-0.4,0.2-0.7,0.6-0.8l176.8-20.3c0.4,0,0.7,0.2,0.8,0.6&#10;&#9;&#9;c0,0.4-0.2,0.7-0.6,0.8c0,0,0,0,0,0L167.4,337.2L167.4,337.2z"/>
	<path class="st4_social-media-38" d="M169.2,353.3c-0.4,0-0.6-0.3-0.7-0.6c-0.1-0.4,0.2-0.7,0.6-0.8c0,0,0,0,0,0l150.4-17.2&#10;&#9;&#9;c0.4-0.1,0.7,0.2,0.8,0.6s-0.2,0.7-0.6,0.8c0,0,0,0,0,0L169.2,353.3L169.2,353.3z"/>
</g>
<g id="right_hand_social-media-38">
	<path class="st1_social-media-38" d="M375.2,306.8c-14.6-35.4-21-84.5-21-84.5s-24.9-5-26.8-21.2s20.9-10.2,20.9-10.2c0-5-0.6-10-1.8-14.9&#10;&#9;&#9;c3.3,0.6,52.5,65.9,60.7,119C411,319.4,389.9,342.1,375.2,306.8z"/>
	<path class="st0_social-media-38" d="M392.6,325.7c-6.6,0-13-6.6-18-18.7l0,0c-13.7-33.2-20.3-78.9-21-84.1c-4.3-1-8.4-2.5-12.4-4.5&#10;&#9;&#9;c-8.7-4.4-13.7-10.4-14.5-17.3c-0.5-4.1,0.5-7.2,2.9-9.2c5.1-4.4,14.9-2.6,18-2c-0.1-4.7-0.6-9.3-1.7-13.9c-0.1-0.2,0-0.5,0.2-0.6&#10;&#9;&#9;c0.2-0.2,0.4-0.3,0.6-0.2c3.4,0.6,52.9,65.7,61.2,119.6c2.2,14-3.6,28-12.6,30.5C394.5,325.5,393.5,325.7,392.6,325.7z&#10;&#9;&#9; M375.9,306.5c5.4,13,12.3,19.4,19.1,17.5c8.2-2.3,13.6-15.8,11.6-29c-7.6-49.3-50.3-108.1-58.8-117.2c0.9,4.3,1.3,8.7,1.3,13.1&#10;&#9;&#9;c0,0.2-0.1,0.4-0.3,0.6c-0.2,0.1-0.4,0.2-0.6,0.1c-0.1,0-12.2-3.2-17.6,1.4c-2,1.7-2.8,4.4-2.4,8c1.8,15.6,26,20.6,26.2,20.6&#10;&#9;&#9;c0.3,0.1,0.5,0.3,0.6,0.6C355,222.7,361.4,271.6,375.9,306.5L375.9,306.5z"/>
</g>
<g id="Love_emoji_social-media-38">
	<path class="st4_social-media-38" d="M304.5,138.1c-0.2,0-0.3-0.1-0.5-0.2l-0.3-0.3c-1.3-1.4-2.7-2.7-4-3.9l-0.2-0.2c-0.8-0.8-1.7-1.6-2.5-2.4&#10;&#9;&#9;c-0.7-0.7-1.2-1.5-1.7-2.3c-0.5-0.9-0.8-1.9-0.9-2.9c-0.1-0.7-0.1-1.5,0-2.2c0.1-2.4,1.7-4.4,4-5.1c2.2-0.7,4.7,0,6.2,1.7&#10;&#9;&#9;c0.2,0.2,0.4,0.4,0.5,0.6c0.7-0.8,1.6-1.4,2.6-1.8c0.9-0.3,1.9-0.5,2.8-0.4c2.7,0.3,4.8,2.4,5.1,5.1c0.1,0.7,0,1.5-0.1,2.2&#10;&#9;&#9;c-0.1,0.7-0.3,1.4-0.5,2.1c-0.4,1.1-1.1,2-1.8,2.8c-0.8,0.8-1.6,1.5-2.5,2.2l-4.4,3.6c-0.3,0.2-0.6,0.5-0.8,0.7l-0.4,0.4&#10;&#9;&#9;C305,138,304.8,138.1,304.5,138.1z M300.3,119.7c-0.5,0-1,0.1-1.5,0.2c-1.7,0.5-2.9,2.1-3,3.8c0,0.7,0,1.3,0,2&#10;&#9;&#9;c0.1,0.9,0.4,1.7,0.8,2.4c0.4,0.7,0.9,1.4,1.5,2c0.8,0.8,1.6,1.6,2.4,2.4l0.2,0.2c1.3,1.2,2.6,2.4,3.9,3.8l0.9-0.7l4.4-3.6&#10;&#9;&#9;c0.8-0.6,1.6-1.4,2.4-2.1c0.7-0.7,1.2-1.5,1.6-2.4c0.4-1.2,0.6-2.4,0.5-3.7c-0.1-0.9-0.5-1.8-1.1-2.5c-0.7-0.8-1.7-1.3-2.8-1.4&#10;&#9;&#9;c-0.7-0.1-1.5,0-2.2,0.3c-0.9,0.4-1.7,1-2.3,1.8l-0.2,0.3l-0.1,0.1c-0.1,0.2-0.4,0.3-0.6,0.3c-0.2,0-0.4-0.1-0.6-0.3l0.6-0.4&#10;&#9;&#9;l-0.6,0.4c-0.2-0.4-0.5-0.8-0.9-1.2C302.8,120.3,301.6,119.7,300.3,119.7L300.3,119.7z M304.5,121.7l0.6,0.4L304.5,121.7z"/>
	<path class="st4_social-media-38" d="M296.6,169.5h-0.1c-0.8,0-1.5-0.4-1.9-1.1c-0.2-0.3-0.2-0.7,0.1-1c0,0,0,0,0,0c0.3-0.2,0.8-0.2,1,0.2&#10;&#9;&#9;c0,0,0,0,0,0c0.2,0.3,0.5,0.5,0.9,0.5h0.1c1.2-0.2,2.4-0.8,3.1-1.8c5.9-7,8.8-15.9,8.3-25c0-0.4,0.3-0.7,0.6-0.8&#10;&#9;&#9;c0.4,0,0.7,0.3,0.8,0.7c0.6,9.5-2.5,18.8-8.6,26C299.7,168.5,298.2,169.3,296.6,169.5z"/>
</g>
</svg>