<svg id="_0126_team_presentation_4" xmlns="http://www.w3.org/2000/svg" viewBox="0 0 500 500" data-imageid="team-presentation-4-28" imageName="Team Presentation 4" class="illustrations_image" style="width: 158px;"><defs><style>.cls-1_team-presentation-4-28,.cls-2_team-presentation-4-28{fill:#fff;}.cls-3_team-presentation-4-28{fill:#f4a28c;}.cls-4_team-presentation-4-28,.cls-5_team-presentation-4-28,.cls-6_team-presentation-4-28{fill:#a5a5a5;}.cls-7_team-presentation-4-28{opacity:.03;}.cls-7_team-presentation-4-28,.cls-8_team-presentation-4-28{fill:#000001;}.cls-5_team-presentation-4-28{opacity:.25;}.cls-6_team-presentation-4-28{opacity:.66;}.cls-9_team-presentation-4-28{fill:#e6e6e6;}.cls-10_team-presentation-4-28{fill:#ce8172;opacity:.31;}.cls-11_team-presentation-4-28{opacity:.58;}.cls-11_team-presentation-4-28,.cls-12_team-presentation-4-28,.cls-13_team-presentation-4-28{fill:#68e1fd;}.cls-2_team-presentation-4-28{opacity:.46;}.cls-14_team-presentation-4-28{fill:#24285b;}.cls-8_team-presentation-4-28{opacity:.08;}.cls-12_team-presentation-4-28{opacity:.73;}.cls-15_team-presentation-4-28{fill:#ffd200;}</style></defs><ellipse id="sd_team-presentation-4-28" class="cls-7_team-presentation-4-28" cx="255.97" cy="443.69" rx="229.9" ry="19.23"/><g id="board_team-presentation-4-28"><polygon class="cls-4_team-presentation-4-28" points="202.21 439.5 194.52 433.79 228.11 388.58 228.11 310.74 237.69 310.74 237.69 391.75 202.21 439.5"/><rect class="cls-4_team-presentation-4-28" x="243.93" y="381.73" width="9.58" height="60.69" transform="translate(-194.15 223.58) rotate(-35.83)"/><rect class="cls-9_team-presentation-4-28" x="150.1" y="79.44" width="165.6" height="234.19"/><rect class="cls-9_team-presentation-4-28" x="150.1" y="51.35" width="165.6" height="262.28"/><rect class="cls-1_team-presentation-4-28" x="175.9" y="82.75" width="112.92" height="110.82"/><rect class="cls-4_team-presentation-4-28" x="189.05" y="147.9" width="15.68" height="32.23"/><rect class="cls-4_team-presentation-4-28" x="211.07" y="131.32" width="15.68" height="48.81"/><rect class="cls-4_team-presentation-4-28" x="234.63" y="155.73" width="15.68" height="24.41"/><rect class="cls-4_team-presentation-4-28" x="257.61" y="126.84" width="15.68" height="53.29"/><rect class="cls-4_team-presentation-4-28" x="150.1" y="279.19" width="165.6" height="34.43"/><rect class="cls-6_team-presentation-4-28" x="175.9" y="215.12" width="112.92" height="15.1"/><rect class="cls-5_team-presentation-4-28" x="175.9" y="242.9" width="112.92" height="15.1"/><path class="cls-8_team-presentation-4-28" d="m261.9,193.57s15.95-5.73,14.08,16.64c-1.86,22.38-12.85,96.12-125.88,103.42v-55.63l66.21,2.82,31.82-20.61,6.21-33.89,7.56-12.75Z"/></g><g id="plant_team-presentation-4-28"><path class="cls-11_team-presentation-4-28 targetColor" d="m444.81,422.83s-15.26-4.17-18.58-18.37c0,0,23.65-4.78,24.32,19.63l-5.74-1.26Z" style="fill: rgb(236, 156, 82);"/><path class="cls-12_team-presentation-4-28 targetColor" d="m446.69,421.32s-10.66-16.86-1.28-32.62c0,0,17.98,11.42,9.99,32.66l-8.71-.04Z" style="fill: rgb(236, 156, 82);"/><path class="cls-13_team-presentation-4-28 targetColor" d="m449.43,421.33s5.63-17.8,22.66-21.18c0,0,3.19,11.56-11.03,21.22l-11.64-.05Z" style="fill: rgb(236, 156, 82);"/><polygon class="cls-14_team-presentation-4-28" points="438.36 420.93 441.46 442.1 460.94 442.18 463.82 421.03 438.36 420.93"/></g><g id="girl_team-presentation-4-28"><path class="cls-3_team-presentation-4-28" d="m129.09,190.94s25.24,11.02,44.57,39.59c19.33,28.58,69.76,19.07,79-24.79,0,0,3.78-20.58,10.51-19.75,6.72.84,0,15.54,0,15.54,0,0,9.25.42,8.4,7.56-.84,7.14-12.19,13.87-12.19,13.87,0,0-19.75,87.41-115.98,34.46l-14.32-66.49Z"/><path class="cls-14_team-presentation-4-28" d="m115.61,157.47s14.06,23.48-2.05,29.52c-16.11,6.04-15.41-36.35-15.41-36.35l17.46,6.83Z"/><path class="cls-13_team-presentation-4-28 targetColor" d="m80.46,181.06s-45.56,20.73-45.01,53.46c.56,32.73,35,90.11,35,90.11h73.32l.03-37.96c0-11.71,2.6-23.26,7.55-33.87,7.46-16.01,11.51-45.63-38.54-71.74h-32.35Z" style="fill: rgb(236, 156, 82);"/><path class="cls-1_team-presentation-4-28" d="m89.14,186.65s18.24,12.7,23.67-5.59h-16.84s-6.83,5.59-6.83,5.59Z"/><path class="cls-3_team-presentation-4-28" d="m111.33,140.39s3.97,8.41,4.65,14.74c.27,2.56-1.61,4.9-4.18,5.14-3.19.29-7.59-.23-10.26-4.48l-5.43-6.66s-3.25-4.29.36-9.65c3.61-5.36,12.71-4.33,14.87.91Z"/><polygon class="cls-3_team-presentation-4-28" points="98.15 150.65 95.97 181.05 112.81 181.06 107.77 159.49 98.15 150.65"/><path class="cls-3_team-presentation-4-28" d="m113.56,145.82l3.67,2.46c.91.61.87,1.95-.06,2.52l-3.1,1.86-.51-6.84Z"/><path class="cls-10_team-presentation-4-28" d="m107.91,160.1s-3.56-.61-5.49-2.63c0,0-1.09,6.59,6.93,8.81l-1.44-6.18Z"/><path class="cls-14_team-presentation-4-28" d="m105.17,144.89l-3.93,1.35s4.28,16.78-1.38,31.36c-3.58,9.22-15.16,12.26-23.11,6.38l-3.44-2.55c-4.08-3.01-3.71-9.17.66-11.75,6.38-3.77,13.01-10.51,11.79-21.95-1.44-13.48,10.78-21.61,19.58-19.43,8.63,2.14,8.49,14.51-.16,16.58Z"/><path class="cls-3_team-presentation-4-28" d="m103.65,150.27s-1.31-3.34-3.74-2.14-.57,6.02,3.03,5.21l.71-3.06Z"/><polygon class="cls-3_team-presentation-4-28" points="76.79 386.21 84.17 440.56 90.6 438.2 93.69 380.01 76.79 386.21"/><polygon class="cls-3_team-presentation-4-28" points="144.07 386.94 169.84 434.83 176.44 434.83 161.73 381.67 144.07 386.94"/><path class="cls-13_team-presentation-4-28 targetColor" d="m84.24,437.02s-4.06,4.61-8.91,4.12c-4.85-.5-5.93,6.34,1.93,6.04,3-.11,5.42-.46,7.27-.85,2.2-.47,4.44-.11,6.58.58.67.22,1.45.1,2.28-.77,2.36-2.49-2.77-8.78-2.77-8.78l-6.38-.34Z" style="fill: rgb(236, 156, 82);"/><path class="cls-13_team-presentation-4-28 targetColor" d="m176.37,433.89s2.83,5.45,7.66,6.13,4.24,7.57-3.32,5.41c-2.92-.84-5.21-1.77-6.92-2.6-2-.97-4.25-1.14-6.47-.98-.7.05-1.43-.25-2.03-1.29-.9-1.58.5-3.69,2.01-5.32s3.74-2.36,5.92-1.94l3.14.6Z" style="fill: rgb(236, 156, 82);"/><rect class="cls-15_team-presentation-4-28" x="115.9" y="254.22" width="19.52" height="28.85"/><path class="cls-8_team-presentation-4-28" d="m77.19,206.32s23.75,20.02,9.68,43.34c-14.07,23.32-9.75,47.52,16.77,42.04l26.52-5.48h0s12.64,21.6-11.29,25.45l3.41,12.95h-51.83l-5.83-13.71-10.1-16.98-23.64-19.47,46.3-68.15Z"/><path class="cls-3_team-presentation-4-28" d="m78.74,212.58c-1.03-14.82-18.4-22.18-29.76-12.6-9.65,8.13-19.74,20.2-23.66,36.87-8.4,35.72-11.69,66.82,10.12,74.38,21.81,7.56,80.56-15.13,80.56-15.13,0,0,18.16,0,19.42-13.03,1.26-13.03-17.02-8.11-21.86,3.78,0,0-71.01,21.01-61.76-13.03,7.17-26.38,28.67-36.47,26.95-61.25Z"/><rect class="cls-13_team-presentation-4-28 targetColor" x="245.94" y="216.67" width="18.91" height="7.56" transform="translate(97.4 -77.65) rotate(21.28)" style="fill: rgb(236, 156, 82);"/><polygon class="cls-14_team-presentation-4-28" points="143.77 324.63 176.08 405.71 62.13 412.08 70.46 324.63 143.77 324.63"/><path class="cls-14_team-presentation-4-28" d="m101.25,146.24l17.86-4.16s-5.55-18.91-20.96-13.49l3.1,17.65Z"/></g><g id="video_team-presentation-4-28"><rect class="cls-15_team-presentation-4-28" x="387.55" y="136.5" width="70.96" height="53.77"/><polygon class="cls-1_team-presentation-4-28" points="409 150.83 409 176.53 437.68 163.38 409 150.83"/></g><g id="speech_team-presentation-4-28"><polygon class="cls-9_team-presentation-4-28" points="79.69 60.16 79.69 91.02 99.63 91.02 103.99 103.3 109.15 91.02 129.09 91.02 129.09 60.16 79.69 60.16"/><circle class="cls-4_team-presentation-4-28" cx="92.08" cy="74.83" r="3.22"/><circle class="cls-4_team-presentation-4-28" cx="104.39" cy="74.83" r="3.22"/><circle class="cls-4_team-presentation-4-28" cx="116.6" cy="74.83" r="3.22"/></g><g id="boy_team-presentation-4-28"><path class="cls-13_team-presentation-4-28 targetColor" d="m304.98,246.03s-13.67,28.48-1.16,63.33c12.51,34.86-14.73,52.46,38.06,57.13,52.79,4.67-36.89-120.46-36.89-120.46Z" style="fill: rgb(236, 156, 82);"/><path class="cls-2_team-presentation-4-28" d="m304.98,246.03s-13.67,28.48-1.16,63.33c12.51,34.86-14.73,52.46,38.06,57.13,52.79,4.67-36.89-120.46-36.89-120.46Z"/><path class="cls-3_team-presentation-4-28" d="m336.69,174.81s-2.37,8.55-1.98,14.59c.16,2.45,2.31,4.34,4.76,4.15,3.04-.24,7.09-1.45,8.92-5.87l4.02-7.13s2.36-4.56-1.89-9.01c-4.26-4.45-12.64-2.02-13.82,3.26Z"/><polygon class="cls-3_team-presentation-4-28" points="350.73 182.32 357.69 210.53 341.87 213.26 343.12 192.18 350.73 182.32"/><path class="cls-3_team-presentation-4-28" d="m335.47,180.27l-3.05,2.91c-.75.72-.51,1.98.47,2.35l3.22,1.25-.63-6.51Z"/><path class="cls-10_team-presentation-4-28" d="m343.09,192.78s5.39-2.49,6.87-4.7c0,0-.31,11.6-7.49,14.98l.61-10.28Z"/><path class="cls-3_team-presentation-4-28" d="m345.5,182.85s.69-3.34,3.16-2.62,1.51,5.57-2,5.38l-1.16-2.76Z"/><path class="cls-14_team-presentation-4-28" d="m355.76,178.58l-1.85,3.2s-2.23,8.2-7.69,12.44c-5.46,4.24-13.14,3.37-13.8-2.4-.76-6.61,3.68-5.03,9.61-5.3,5.93-.27,5.02-8.22,5.02-8.22-2.61.04-4.41-1.36-5.61-2.94l-3.48-1.77c-3.35-1.71-4.42-6.01-2.23-9.06,1.24-1.72,2.94-3.21,5.22-3.61,6.14-1.07,20.6,8.18,14.8,17.68Z"/><path class="cls-3_team-presentation-4-28" d="m350.61,179.39s4.3-2.55,5.91.88-3.21,6.11-6.47,4.03c0,0,1.27-2.2.56-4.91Z"/><rect class="cls-9_team-presentation-4-28" x="315.35" y="368.99" width="102.76" height="73.43"/><polygon class="cls-8_team-presentation-4-28" points="342.48 442.43 337.53 377.78 316.92 380.91 310.78 405.71 315.35 442.43 342.48 442.43"/><path class="cls-13_team-presentation-4-28 targetColor" d="m339.89,433.94s-2.2,6.12-7.73,6.59c-5.53.47-6.98,5.88-2.01,7.28,4.97,1.41,17.8-4.98,17.8-4.98l-.36-7.98-7.7-.91Z" style="fill: rgb(236, 156, 82);"/><path class="cls-13_team-presentation-4-28 targetColor" d="m340.52,212.94l15.82-2.73s52.63.08,61.84,18.1c9.21,18.02,7.28,85.11-23.16,140.17l-62.33,1.81s3.46-40.45-8.16-62.47c-11.61-22.03-47.71-68.82,15.99-94.88Z" style="fill: rgb(236, 156, 82);"/><path class="cls-14_team-presentation-4-28" d="m395.02,368.49l-30.49-4.6c-18.86-2.84-35.33,12.87-33.38,31.84l3.98,38.73h14.96l-1.3-36.26c-.31-8.65,7.35-15.44,15.89-14.06,12.98,2.09,29.05,1.19,30.33-15.65Z"/><path class="cls-13_team-presentation-4-28 targetColor" d="m308.86,433.94s-2.2,6.12-7.73,6.59c-5.53.47-6.98,5.88-2.01,7.28,4.97,1.41,17.8-4.98,17.8-4.98l-.36-7.98-7.7-.91Z" style="fill: rgb(236, 156, 82);"/><path class="cls-8_team-presentation-4-28" d="m389.67,234.78s-17.28,15.15-13.81,31.87c.56,2.7,1.14,5.97,1.73,9.55,4.58,28.07-3.68,56.72-22.4,78.14l-10.89,12.45,50.72,1.7,4.34-8.5,23.68-39.35-33.36-85.87Z"/><path class="cls-14_team-presentation-4-28" d="m363.99,368.49l-30.49-4.6c-18.86-2.84-35.33,12.87-33.38,31.84l3.98,38.73h14.96l-1.3-36.26c-.31-8.65,7.35-15.44,15.89-14.06,12.98,2.09,29.05,1.19,30.33-15.65Z"/><path class="cls-13_team-presentation-4-28 targetColor" d="m419.06,229.97c11.54,16.25,21.81,52.14,12.89,102.7-2.71,15.39-15.68,26.89-31.28,27.88l-47.63,3.01v-15.53l36.19-5.23c8.42-1.22,13.76-9.65,11.29-17.79-6.37-20.99-16.25-59.02-13.7-86.12,1.55-16.47,22.65-22.39,32.22-8.91Z" style="fill: rgb(236, 156, 82);"/><path class="cls-2_team-presentation-4-28" d="m419.06,229.97c11.54,16.25,21.81,52.14,12.89,102.7-2.71,15.39-15.68,26.89-31.28,27.88l-47.63,3.01v-15.53l36.19-5.23c8.42-1.22,13.76-9.65,11.29-17.79-6.37-20.99-16.25-59.02-13.7-86.12,1.55-16.47,22.65-22.39,32.22-8.91Z"/><path class="cls-3_team-presentation-4-28" d="m353.05,351.79s-19.33-.49-16.58,9.59c2.75,10.08,16.58,2.18,16.58,2.18v-11.77Z"/><polygon class="cls-15_team-presentation-4-28" points="288.75 367.18 280.95 323.08 336.28 323.08 341.08 360.67 366.45 361.03 366.45 367.18 288.75 367.18"/><circle class="cls-1_team-presentation-4-28" cx="310.78" cy="344.22" r="5.54"/></g><g id="speech-2_team-presentation-4-28"><polygon class="cls-9_team-presentation-4-28" points="321.52 96.34 321.52 127.2 341.46 127.2 345.82 139.49 350.98 127.2 370.92 127.2 370.92 96.34 321.52 96.34"/><circle class="cls-4_team-presentation-4-28" cx="333.91" cy="111.01" r="3.22"/><circle class="cls-4_team-presentation-4-28" cx="346.22" cy="111.01" r="3.22"/><circle class="cls-4_team-presentation-4-28" cx="358.43" cy="111.01" r="3.22"/></g></svg>