<svg width="195" height="85" viewBox="0 0 195 85" fill="none" xmlns="http://www.w3.org/2000/svg">
<path d="M0.75 34H13.23V35.56H8.19V55H5.79V35.56H0.75V34ZM24.2946 45.28L29.9646 55H27.2946L21.9846 45.49H19.3746V55H16.9746V34H22.2846C25.8846 34 28.3746 36.16 28.3746 39.76C28.3746 42.13 26.6346 44.29 24.2946 45.28ZM22.3446 44.05C24.3246 44.05 25.8546 42.31 25.8546 39.88C25.8546 37.45 24.6546 35.47 22.2846 35.47H19.3746V44.05H22.3446ZM44.8331 34H46.4831V48.1C46.4831 52.45 44.2331 55.27 39.9731 55.27C36.1931 55.27 33.5531 52.66 33.5531 48.31V34H35.9531V48.31C35.9531 51.22 36.8531 53.83 40.3031 53.83C43.3631 53.83 44.8331 51.52 44.8331 48.1V34ZM62.9895 35.56H54.5895V43.24H62.1795V44.8H54.5895V53.44H63.1095V55H52.1895V34H62.9895V35.56Z" fill="white"/>
<path d="M138.92 55.27C135.53 55.27 132.98 53.2 132.5 49.48L134.72 49.15C135.02 51.7 136.28 53.98 138.95 53.98C141.44 53.98 142.7 52.42 142.7 49.99C142.7 47.26 140.6 46.12 138.38 44.92C135.92 43.6 133.34 42.19 133.34 38.5C133.34 35.77 135.98 33.73 138.89 33.73C141.86 33.73 144.05 35.26 144.62 38.29L142.49 38.59C142.16 36.73 141.14 35.02 138.92 35.02C137.18 35.02 135.8 36.25 135.8 38.23C135.8 41.02 137.93 42.13 140.18 43.33C142.64 44.62 145.22 46.12 145.22 49.63C145.22 53.26 142.43 55.27 138.92 55.27ZM149.938 34H152.338V55H149.938V34ZM166.356 46.24V44.68H173.136V55H171.666L171.216 51.46C169.986 53.62 168.576 55.27 165.546 55.27C159.786 55.27 157.266 49.93 157.266 44.26C157.266 38.74 160.116 33.73 165.666 33.73C169.176 33.73 171.396 35.35 172.566 38.62L170.166 38.98C169.476 36.7 168.156 35.14 165.786 35.14C161.976 35.14 159.906 39.64 159.906 44.14C159.906 48.88 161.856 53.92 165.576 53.92C169.446 53.92 170.826 49.18 170.826 46.24H166.356ZM190.145 34H191.795V55H188.855L179.885 35.98V55H178.235V34H181.505L190.145 52.48V34Z" fill="white"/>
<path d="M70.9 65C74.22 65 76.48 67.42 76.48 71.76C76.48 75.98 73.9 79 70.82 79H67V65H70.9ZM70.82 78.02C73.22 78.02 74.72 74.9 74.72 71.84C74.72 68.74 73.38 65.98 70.9 65.98H68.6V78.02H70.82ZM86.9539 66.04H81.3539V71.16H86.4139V72.2H81.3539V77.96H87.0339V79H79.7539V65H86.9539V66.04ZM93.3464 79.18C91.0864 79.18 89.3864 77.8 89.0664 75.32L90.5464 75.1C90.7464 76.8 91.5864 78.32 93.3664 78.32C95.0264 78.32 95.8664 77.28 95.8664 75.66C95.8664 73.84 94.4664 73.08 92.9864 72.28C91.3464 71.4 89.6264 70.46 89.6264 68C89.6264 66.18 91.3864 64.82 93.3264 64.82C95.3064 64.82 96.7664 65.84 97.1464 67.86L95.7264 68.06C95.5064 66.82 94.8264 65.68 93.3464 65.68C92.1864 65.68 91.2664 66.5 91.2664 67.82C91.2664 69.68 92.6864 70.42 94.1864 71.22C95.8264 72.08 97.5464 73.08 97.5464 75.42C97.5464 77.84 95.6864 79.18 93.3464 79.18ZM100.691 65H102.291V79H100.691V65ZM111.637 73.16V72.12H116.157V79H115.177L114.877 76.64C114.057 78.08 113.117 79.18 111.097 79.18C107.257 79.18 105.577 75.62 105.577 71.84C105.577 68.16 107.477 64.82 111.177 64.82C113.517 64.82 114.997 65.9 115.777 68.08L114.177 68.32C113.717 66.8 112.837 65.76 111.257 65.76C108.717 65.76 107.337 68.76 107.337 71.76C107.337 74.92 108.637 78.28 111.117 78.28C113.697 78.28 114.617 75.12 114.617 73.16H111.637ZM127.497 65H128.597V79H126.637L120.657 66.32V79H119.557V65H121.737L127.497 77.32V65Z" fill="white"/>
<g clip-path="url(#clip0_324_2)">
<path d="M97.5 60.5639C110.169 60.5639 120.439 50.605 120.439 38.32C120.439 26.035 110.169 16.0761 97.5 16.0761C84.8311 16.0761 74.5609 26.035 74.5609 38.32C74.5609 50.605 84.8311 60.5639 97.5 60.5639Z" stroke="white" stroke-width="0.3"/>
<path d="M81.3672 23.0822C81.6863 23.0822 81.9451 22.8313 81.9451 22.5218C81.9451 22.2123 81.6863 21.9614 81.3672 21.9614C81.048 21.9614 80.7892 22.2123 80.7892 22.5218C80.7892 22.8313 81.048 23.0822 81.3672 23.0822Z" fill="white" stroke="white" stroke-width="0.3"/>
<path d="M81.3672 54.6532C81.6863 54.6532 81.9451 54.4023 81.9451 54.0928C81.9451 53.7833 81.6863 53.5324 81.3672 53.5324C81.048 53.5324 80.7892 53.7833 80.7892 54.0928C80.7892 54.4023 81.048 54.6532 81.3672 54.6532Z" fill="white" stroke="white" stroke-width="0.3"/>
<path d="M113.787 54.6532C114.106 54.6532 114.365 54.4023 114.365 54.0928C114.365 53.7833 114.106 53.5324 113.787 53.5324C113.468 53.5324 113.209 53.7833 113.209 54.0928C113.209 54.4023 113.468 54.6532 113.787 54.6532Z" fill="white" stroke="white" stroke-width="0.3"/>
<path d="M113.787 23.0822C114.106 23.0822 114.365 22.8313 114.365 22.5218C114.365 22.2123 114.106 21.9614 113.787 21.9614C113.468 21.9614 113.209 22.2123 113.209 22.5218C113.209 22.8313 113.468 23.0822 113.787 23.0822Z" fill="white" stroke="white" stroke-width="0.3"/>
<path d="M93.5617 52.5725C101.679 54.6817 110.023 50.0104 112.198 42.139C114.373 34.2675 109.556 26.1766 101.438 24.0675C93.3209 21.9584 84.9772 26.6296 82.8021 34.5011C80.627 42.3725 85.4443 50.4634 93.5617 52.5725Z" stroke="white" stroke-width="0.3"/>
<path d="M110.01 26.1889L102.493 38.195L102.414 38.32L102.493 38.4451L110.01 50.4511L97.6288 43.1615L97.5 43.0855L97.3711 43.1615L84.9899 50.4511L92.5072 38.4451L92.5856 38.32L92.5072 38.195L84.9899 26.1889L97.3711 33.4785L97.5 33.5545L97.6288 33.4785L110.01 26.1889Z" stroke="white" stroke-width="0.3"/>
<path fill-rule="evenodd" clip-rule="evenodd" d="M105.262 33.9591L105.05 34.4054L121.831 38.3108L104.978 42.0822L105.19 42.5293L122.915 38.5628L124 38.32L122.917 38.0679L105.262 33.9591ZM101.841 45.7766L101.38 45.571L97.5 61.8742L93.6202 45.571L93.1591 45.7766L97.2451 62.9456L97.5 64.017L97.7549 62.9456L101.841 45.7766ZM89.8104 42.5293L90.0224 42.0822L73.2097 38.32L90.0224 34.5578L89.8104 34.1107L72.1049 38.0728L71 38.32L72.1049 38.5672L89.8104 42.5293ZM97.7746 13.612L102.485 30.5762L102.027 30.7805L97.5371 14.6099L93.6202 31.069L93.1591 30.8634L97.2625 13.621L97.5 12.623L97.7746 13.612Z" fill="white"/>
<path d="M97.5 42.8934C100.106 42.8934 102.218 40.845 102.218 38.3181C102.218 35.7912 100.106 33.7427 97.5 33.7427C94.8941 33.7427 92.7816 35.7912 92.7816 38.3181C92.7816 40.845 94.8941 42.8934 97.5 42.8934Z" stroke="white" stroke-width="0.3"/>
<path d="M97.5 40.4838C98.7335 40.4838 99.7334 39.5142 99.7334 38.3181C99.7334 37.122 98.7335 36.1523 97.5 36.1523C96.2665 36.1523 95.2666 37.122 95.2666 38.3181C95.2666 39.5142 96.2665 40.4838 97.5 40.4838Z" fill="white" stroke="white" stroke-width="0.3"/>
<path d="M97.5531 53.249V52.9243L97.7317 52.7701L98.6084 52.0801L99.6556 52.7701L99.5825 53.0948L98.3243 53.9147L97.5531 53.249Z" fill="black" stroke="black" stroke-width="0.01"/>
<path d="M97.5576 39.284C98.1079 39.284 98.554 38.8515 98.554 38.3179C98.554 37.7843 98.1079 37.3518 97.5576 37.3518C97.0074 37.3518 96.5613 37.7843 96.5613 38.3179C96.5613 38.8515 97.0074 39.284 97.5576 39.284Z" fill="white" stroke="black" stroke-width="0.3"/>
<path d="M97.5 14.2291V33.5018L102.02 30.68L97.5 14.2291Z" fill="white" stroke="white" stroke-width="0.1"/>
<path d="M97.5 62.4066V43.1339L92.9803 45.9557L97.5 62.4066Z" fill="white" stroke="white" stroke-width="0.1"/>
<path d="M95.4118 23.5438L95.3394 23.8852L95.5567 24.3105L96.6971 24.3524L97.4453 23.7175V23.4121L96.7574 23.1785L95.4118 23.5438Z" fill="black" stroke="black" stroke-width="0.01"/>
<path d="M108.19 48.6038L108.42 48.8331H108.621L108.657 48.5761L108.495 48.319L108.19 48.3506V48.6038Z" fill="black" stroke="black" stroke-width="0.01"/>
<path d="M122.344 38.32H102.469L105.379 42.7028L122.344 38.32Z" fill="white" stroke="white" stroke-width="0.1"/>
<path d="M72.7715 38.4421H92.6465L89.7365 34.0593L72.7715 38.4421Z" fill="white" stroke="white" stroke-width="0.1"/>
<path d="M94.1875 35.1079L85.9062 27.0776" stroke="white" stroke-width="0.01"/>
<path d="M82.5924 40.4243L82.2619 40.3377L81.8608 39.9995L81.672 39.4409V38.7801L82.1125 38.5048H82.4429L82.671 38.7251L83.3161 39.5983L82.5924 40.4243Z" fill="black" stroke="black" stroke-width="0.01"/>
<path d="M87.1953 48.9688L86.9219 49.1367L86.6211 49.1133L86.6953 48.9297L86.9219 48.7109L87.1758 48.7422L87.1953 48.9688Z" fill="black" stroke="black" stroke-width="0.01"/>
<path d="M100.812 41.5321L109.094 49.5624" stroke="black" stroke-width="0.1"/>
<path d="M100.812 35.1079L109.094 27.0776" stroke="black" stroke-width="0.1"/>
<path d="M85.0883 50.4061L93.9818 41.9277V41.7031L93.4887 40.9644L92.7682 39.4629L92.424 38.32L85.0883 50.4061Z" fill="white"/>
<path d="M94.1875 41.5827L85.7757 49.7397L89.1404 44.0299L92.5051 38.32L92.5908 38.7419L92.7036 39.2983L93.5144 40.8577L94.0295 41.6636L93.6577 41.2847" stroke="white" stroke-width="0.1"/>
<path d="M92.668 38.8594L92.6094 38.4805" stroke="white" stroke-width="0.1"/>
<path d="M109.976 26.1309L100.681 34.736L100.805 35.089L101.43 35.6095L102.185 37.1473L102.376 38.3013L109.976 26.1309Z" fill="white"/>
<path d="M109.922 50.3655L100.812 41.5321L99.7825 42.4466L98.429 42.8216L97.5 43.1382L109.922 50.3655Z" fill="white" stroke="white" stroke-width="0.1"/>
<path d="M85.0781 26.2745L94.1875 35.1079L95.2175 34.1934L96.571 33.8184L97.5 33.5018L85.0781 26.2745Z" fill="white" stroke="white" stroke-width="0.1"/>
<path d="M108.082 27.5039L107.809 27.668V27.8789L108.059 27.9102L108.285 27.6953L108.203 27.5039H108.082Z" fill="black" stroke="black" stroke-width="0.01"/>
<path d="M97.2256 15.9294L97.1574 16.2404L97.281 16.2916L97.4471 16.2404V15.9294H97.2256Z" fill="black" stroke="black" stroke-width="0.01"/>
<path d="M97.5508 60.418V60.7227L97.6484 60.8125L97.7656 60.7227L97.8477 60.418L97.7656 60.3828L97.5508 60.418Z" fill="black" stroke="black" stroke-width="0.01"/>
<path d="M74.4055 38.5985L74.7136 38.6507L74.7969 38.5464L74.7136 38.4922H74.4055L74.3392 38.5464L74.4055 38.5985Z" fill="black" stroke="black" stroke-width="0.01"/>
<path d="M120.59 38.2695H120.281L120.195 38.0508L120.281 37.957L120.59 38.0273L120.742 38.1445L120.59 38.2695Z" fill="black" stroke="black" stroke-width="0.01"/>
<path d="M86.3438 28.0547L86.5195 28.332L86.8398 28.0547L86.5781 27.8203L86.3438 28.0547Z" fill="black" stroke="black" stroke-width="0.01"/>
<path d="M112.895 38.2631H112.479L112.052 37.8052L111.507 37.0189L112.389 36.1231L112.716 36.2027L113.133 36.5013L113.628 37.4568L112.895 38.2631Z" fill="black" stroke="black" stroke-width="0.01"/>
</g>
<defs>
<clipPath id="clip0_324_2">
<rect width="53" height="53" fill="white" transform="translate(71 11.82)"/>
</clipPath>
</defs>
</svg>
