<svg id="_0167_under_constructions" xmlns="http://www.w3.org/2000/svg" viewBox="0 0 500 500" data-imageid="under-constructions-55" imageName="Under Constructions" class="illustrations_image" style="width: 158px;"><defs><style>.cls-1_under-constructions-55{fill:#fff;}.cls-2_under-constructions-55{opacity:.46;}.cls-2_under-constructions-55,.cls-3_under-constructions-55,.cls-4_under-constructions-55{fill:none;}.cls-5_under-constructions-55{fill:#a5a5a5;}.cls-6_under-constructions-55{fill:#e6e6e6;}.cls-3_under-constructions-55{opacity:.03;}.cls-4_under-constructions-55{opacity:.08;}.cls-7_under-constructions-55{fill:#24285b;}.cls-8_under-constructions-55{fill:#000001;}.cls-9_under-constructions-55{fill:#ffd200;}.cls-10_under-constructions-55{fill:#68e1fd;}</style></defs><g id="sd_under-constructions-55" class="cls-3_under-constructions-55"><ellipse class="cls-8_under-constructions-55" cx="252.53" cy="435.7" rx="230.7" ry="18.28"/></g><g id="monitor_under-constructions-55"><rect class="cls-7_under-constructions-55" x="62.06" y="58.7" width="376.03" height="294.29"/><polygon class="cls-5_under-constructions-55" points="221.66 325.08 207.37 415.82 302.63 415.82 280.73 325.08 221.66 325.08"/><rect class="cls-6_under-constructions-55" x="62.06" y="297.18" width="376.03" height="55.81"/><circle class="cls-5_under-constructions-55" cx="252.17" cy="321.75" r="15.1"/><rect class="cls-6_under-constructions-55" x="185.64" y="399.92" width="133.97" height="29.16"/><circle class="cls-1_under-constructions-55" cx="92.63" cy="86.06" r="6.58"/><circle class="cls-10_under-constructions-55 targetColor" cx="112.21" cy="86.06" r="6.58" style="fill: rgb(236, 156, 82);"/><circle class="cls-9_under-constructions-55" cx="130.65" cy="86.06" r="6.58"/><path class="cls-9_under-constructions-55" d="m239.21,129.62l-65.59,100.48c-5.72,8.77.57,20.39,11.04,20.39h131.19c10.47,0,16.76-11.62,11.04-20.39l-65.59-100.48c-5.2-7.97-16.87-7.97-22.07,0Z"/><rect class="cls-7_under-constructions-55" x="243.13" y="163.97" width="12.78" height="41.42"/><rect class="cls-7_under-constructions-55" x="243.13" y="213.47" width="12.78" height="12.78"/><rect class="cls-1_under-constructions-55" x="285.05" y="80.38" width="123.83" height="12.26"/></g><g id="mtc_under-constructions-55"><rect class="cls-10_under-constructions-55 targetColor" x="45.75" y="353.69" width="14.1" height="79.77" style="fill: rgb(236, 156, 82);"/><rect class="cls-10_under-constructions-55 targetColor" x="121.9" y="353.69" width="14.1" height="79.77" style="fill: rgb(236, 156, 82);"/><g class="cls-4_under-constructions-55"><rect class="cls-8_under-constructions-55" x="45.75" y="353.69" width="14.1" height="79.77"/></g><g class="cls-4_under-constructions-55"><rect class="cls-8_under-constructions-55" x="121.9" y="353.69" width="14.1" height="79.77"/></g><rect class="cls-10_under-constructions-55 targetColor" x="29.07" y="316.11" width="123.67" height="43.62" style="fill: rgb(236, 156, 82);"/><polygon class="cls-7_under-constructions-55" points="35.34 316.11 50.12 359.74 70.56 359.74 53.76 316.11 35.34 316.11"/><polygon class="cls-7_under-constructions-55" points="73.19 316.11 87.97 359.74 108.41 359.74 91.61 316.11 73.19 316.11"/><polygon class="cls-7_under-constructions-55" points="110.93 316.11 125.7 359.74 146.15 359.74 129.35 316.11 110.93 316.11"/><rect class="cls-10_under-constructions-55 targetColor" x="29.07" y="376.26" width="123.67" height="20.45" style="fill: rgb(236, 156, 82);"/><g class="cls-2_under-constructions-55"><rect class="cls-1_under-constructions-55" x="29.07" y="376.26" width="123.67" height="20.45"/></g></g><g id="cone_under-constructions-55"><path class="cls-10_under-constructions-55 targetColor" d="m387.53,429.08l20.34-93.18c.94-4.33,7.1-4.37,8.11-.06l22.11,94.78-50.56-1.54Z" style="fill: rgb(236, 156, 82);"/><rect class="cls-10_under-constructions-55 targetColor" x="380.75" y="420.09" width="63.55" height="15.61" rx="5.12" ry="5.12" style="fill: rgb(236, 156, 82);"/><g class="cls-2_under-constructions-55"><rect class="cls-1_under-constructions-55" x="380.75" y="420.09" width="63.55" height="15.61" rx="5.12" ry="5.12"/></g><g class="cls-4_under-constructions-55"><polygon class="cls-8_under-constructions-55" points="400.33 370.45 422.03 361.76 428.36 388.89 394.24 398.33 400.33 370.45"/></g><path class="cls-6_under-constructions-55" d="m391.41,437.21s9.24-13.29-4.54-16.95c-13.79-3.67,3.32-21.57-9.51-23.92-12.83-2.35-10.69,16.59-10.69,16.59,0,0-8.86-7.64-14.97-1.22-6.11,6.42,2.44,13.45,2.44,13.45,0,0-12.34,4.26-4.64,12.05h41.91Z"/><path class="cls-5_under-constructions-55" d="m372.87,438.97s5.87-10.04,14.52-8.8c8.65,1.24,7.72,8.8,7.72,8.8h-22.24Z"/></g></svg>