<svg id="_0063_user_interface" xmlns="http://www.w3.org/2000/svg" viewBox="0 0 500 500" data-imageid="user-interface-73" imageName="User Interface" class="illustrations_image" style="width: 178px;"><defs><style>.cls-1_user-interface-73{opacity:.45;}.cls-1_user-interface-73,.cls-2_user-interface-73,.cls-3_user-interface-73,.cls-4_user-interface-73,.cls-5_user-interface-73,.cls-6_user-interface-73,.cls-7_user-interface-73,.cls-8_user-interface-73,.cls-9_user-interface-73,.cls-10_user-interface-73,.cls-11_user-interface-73,.cls-12_user-interface-73{fill:none;}.cls-13_user-interface-73{fill:#fff;}.cls-14_user-interface-73{fill:#f4a28c;}.cls-2_user-interface-73{opacity:.46;}.cls-15_user-interface-73{fill:#a5a5a5;}.cls-3_user-interface-73{opacity:.58;}.cls-4_user-interface-73{opacity:.62;}.cls-16_user-interface-73{fill:#ce8172;}.cls-17_user-interface-73{fill:#e6e6e6;}.cls-5_user-interface-73{opacity:.21;}.cls-6_user-interface-73{opacity:.03;}.cls-7_user-interface-73{opacity:.74;}.cls-8_user-interface-73{opacity:.73;}.cls-9_user-interface-73{opacity:.08;}.cls-10_user-interface-73{opacity:.47;}.cls-11_user-interface-73{opacity:.31;}.cls-18_user-interface-73{fill:#24285b;}.cls-19_user-interface-73{fill:#000001;}.cls-20_user-interface-73{fill:#ffd200;}.cls-21_user-interface-73{fill:#68e1fd;}.cls-12_user-interface-73{opacity:.38;}</style></defs><g id="screen_user-interface-73"><rect class="cls-17_user-interface-73" x="86.63" y="52.74" width="369.3" height="321.17"/><g class="cls-9_user-interface-73"><rect class="cls-19_user-interface-73" x="353.22" y="144.83" width="102.71" height="213.58"/></g><g class="cls-9_user-interface-73"><path class="cls-19_user-interface-73" d="m93.63,136.43s9.19-2.62,12.47,11.4c3.29,14.03,1.72,17.08-5.12,20.6s-3.32,26.29,9.12,25.82c12.44-.47,22.54-10.55,28.64,0,6.1,10.55,12.24,87.89,37.69,71.17,25.45-16.72,31.16-80.82,31.16-80.82l45.46-.66v50.21l-35.36-.7s-4.55,61.66-54.3,75.45c-10.43,2.89-16.48,13.71-13.13,24l13.37,41.02h-76.9l-.08-54.09s-3.58-167.98,7.01-183.39Z"/></g><circle class="cls-18_user-interface-73" cx="116.11" cy="80.68" r="6.41"/><circle class="cls-21_user-interface-73 targetColor" cx="135.18" cy="80.68" r="6.41" style="fill: rgb(236, 156, 82);"/><circle class="cls-20_user-interface-73" cx="153.15" cy="80.68" r="6.41"/><rect class="cls-15_user-interface-73" x="137.43" y="130.86" width="150.03" height="51.25"/><circle class="cls-13_user-interface-73" cx="172.07" cy="156.48" r="17.11"/><rect class="cls-13_user-interface-73" x="204.26" y="145.11" width="57.14" height="8.51"/><g class="cls-1_user-interface-73"><rect class="cls-13_user-interface-73" x="204.26" y="159.33" width="57.14" height="8.51"/></g><g class="cls-12_user-interface-73"><rect class="cls-15_user-interface-73" x="226.9" y="269.24" width="70.58" height="67.5"/></g><g class="cls-12_user-interface-73"><rect class="cls-15_user-interface-73" x="138.34" y="269.24" width="70.58" height="67.5"/></g><rect class="cls-13_user-interface-73" x="344.47" y="74.27" width="90.19" height="14.99" rx="7.5" ry="7.5"/></g><g id="sd_user-interface-73" class="cls-6_user-interface-73"><ellipse class="cls-19_user-interface-73" cx="128.58" cy="429.4" rx="108.88" ry="17.85"/></g><g id="plant_user-interface-73"><g class="cls-3_user-interface-73"><path class="cls-21_user-interface-73 targetColor" d="m188.54,411.59s-12.21-3.28-14.91-14.62c0,0,18.88-3.9,19.5,15.6l-4.59-.98Z" style="fill: rgb(236, 156, 82);"/></g><g class="cls-8_user-interface-73"><path class="cls-21_user-interface-73 targetColor" d="m190.03,410.38s-8.58-13.44-1.13-26.06c0,0,14.41,9.06,8.09,26.06h-6.96Z" style="fill: rgb(236, 156, 82);"/></g><path class="cls-21_user-interface-73 targetColor" d="m192.23,410.38s4.44-14.24,18.04-17c0,0,2.59,9.23-8.74,17h-9.3Z" style="fill: rgb(236, 156, 82);"/><polygon class="cls-18_user-interface-73" points="183.38 410.09 185.93 427 201.5 427 203.72 410.09 183.38 410.09"/></g><g id="sc_user-interface-73"><rect class="cls-18_user-interface-73" x="319.37" y="123.16" width="160.92" height="213.58"/><rect class="cls-13_user-interface-73" x="334.68" y="139.37" width="60.66" height="47.39"/><g class="cls-7_user-interface-73"><rect class="cls-13_user-interface-73" x="404.33" y="139.37" width="60.66" height="47.39"/></g><g class="cls-10_user-interface-73"><rect class="cls-13_user-interface-73" x="334.68" y="196.63" width="60.66" height="47.39"/></g><g class="cls-5_user-interface-73"><rect class="cls-13_user-interface-73" x="404.33" y="196.63" width="60.66" height="47.39"/></g><rect class="cls-20_user-interface-73" x="371.19" y="265.19" width="57.29" height="25.21"/><g class="cls-2_user-interface-73"><rect class="cls-13_user-interface-73" x="396.29" y="268.71" width="24.85" height="6.49"/></g><rect class="cls-13_user-interface-73" x="382.98" y="301.65" width="37.49" height="7.51"/></g><g id="girl_user-interface-73"><path class="cls-14_user-interface-73" d="m100.93,182.86s28.38-3.79,34.08,19.93c5.7,23.71,6.51,56.57,29.31,63.15,22.8,6.57,35.42-39.02,35.42-39.02,0,0,5.29-12.8,10.99-14.54,5.7-1.74,9.77,10.88,0,18.61,0,0-8.23,58.22-51.95,56.18-43.72-2.04-57.85-62.07-57.85-104.3Z"/><g class="cls-9_user-interface-73"><path class="cls-19_user-interface-73" d="m100.93,182.86s28.38-3.79,34.08,19.93c5.7,23.71,6.51,56.57,29.31,63.15,22.8,6.57,35.42-39.02,35.42-39.02,0,0,5.29-12.8,10.99-14.54,5.7-1.74,9.77,10.88,0,18.61,0,0-8.23,58.22-51.95,56.18-43.72-2.04-57.85-62.07-57.85-104.3Z"/></g><path class="cls-21_user-interface-73 targetColor" d="m100.93,182.86s30.47-6.02,34.74,18.62,11.81,41.12,11.81,41.12l-23.27,7.53-23.27-67.27Z" style="fill: rgb(236, 156, 82);"/><g class="cls-2_user-interface-73"><path class="cls-13_user-interface-73" d="m100.93,182.86s30.47-6.02,34.74,18.62,11.81,41.12,11.81,41.12l-23.27,7.53-23.27-67.27Z"/></g><path class="cls-14_user-interface-73" d="m99.48,142.83s3.91,8.28,4.57,14.5c.27,2.52-1.59,4.82-4.12,5.06-3.14.29-7.47-.23-10.1-4.41l-5.34-6.55s-3.2-4.22.35-9.49c3.55-5.27,12.51-4.26,14.63.9Z"/><polygon class="cls-14_user-interface-73" points="86.51 152.93 84.36 182.85 100.93 182.86 95.97 161.63 86.51 152.93"/><path class="cls-14_user-interface-73" d="m101.67,148.17l3.62,2.42c.89.6.86,1.92-.06,2.48l-3.05,1.83-.5-6.73Z"/><g class="cls-11_user-interface-73"><path class="cls-16_user-interface-73" d="m96.11,162.23s-3.5-.6-5.4-2.59c0,0-1.07,6.48,6.82,8.67l-1.42-6.08Z"/></g><path class="cls-14_user-interface-73" d="m91.91,152.56s-1.29-3.28-3.68-2.11c-2.39,1.17-.56,5.93,2.98,5.12l.69-3.02Z"/><polygon class="cls-14_user-interface-73" points="130.88 353.28 144.9 416.99 136.75 416.99 109.47 353.28 130.88 353.28"/><polygon class="cls-14_user-interface-73" points="85.26 345.54 70.31 416.99 62.11 416.99 63.35 345.03 85.26 345.54"/><path class="cls-21_user-interface-73 targetColor" d="m144.9,416.99s4.53,5.74,10.32,5.46,6.64,7.9-2.68,7.06c-3.55-.32-6.41-.89-8.58-1.47-2.59-.69-5.26-.41-7.85.28-.81.22-1.73.03-2.65-1.06-2.64-3.1,3.85-10.25,3.85-10.25h7.6Z" style="fill: rgb(236, 156, 82);"/><path class="cls-21_user-interface-73 targetColor" d="m62.71,416.99s-4.53,5.74-10.32,5.46c-5.79-.28-6.64,7.9,2.68,7.06,3.55-.32,6.41-.89,8.58-1.47,2.59-.69,5.26-.41,7.85.28.81.22,1.73.03,2.65-1.06,2.64-3.1-3.85-10.25-3.85-10.25h-7.6Z" style="fill: rgb(236, 156, 82);"/><path class="cls-21_user-interface-73 targetColor" d="m100.93,182.86h-16.58s-1.14-.07-3.09,0c-36.16,1.16-57.16,41.32-37.96,71.98,10.68,17.06,23.43,40.04,24.27,53.77l64.44-3.26s-4.89-41.8,7.06-65.68c0,0,21.95-37.61-38.15-56.8Z" style="fill: rgb(236, 156, 82);"/><g class="cls-9_user-interface-73"><path class="cls-19_user-interface-73" d="m72.14,204.74s8.01,16.57,9.91,46.37c1.9,29.8,47.13-5.4,47.13-5.4l2.07,49.22-65.8,3.47-5.47-19.95s-17.26-30.88,12.15-73.71Z"/></g><rect class="cls-20_user-interface-73" x="93.26" y="220.42" width="43.24" height="66.82" transform="translate(30.33 -11.65) rotate(6.68)"/><rect class="cls-18_user-interface-73" x="108.51" y="216.41" width="20.13" height="9.8" transform="translate(26.57 -12.3) rotate(6.68)"/><polygon class="cls-18_user-interface-73" points="131.26 294.93 65.46 298.4 47.89 365.06 143 361.67 131.26 294.93"/><g class="cls-9_user-interface-73"><polygon class="cls-19_user-interface-73" points="137.6 245.79 91.92 264.02 89.52 284.5 132.47 289.54 137.6 245.79"/></g><path class="cls-14_user-interface-73" d="m71.6,207.93c.59-13.43-16.29-19.83-24.85-9.46-7.37,8.94-14.14,22.07-13.89,40.03.54,39,5.79,81.22,89.93,35.08l-4.53-12.36s-37.34,17.95-52.94,12.13c-11.47-4.29,5.09-38.63,6.28-65.42Z"/><path class="cls-14_user-interface-73" d="m118.27,261.22s14.03-6.66,20,0c5.97,6.66-3.53,12.64-15.47,12.36l-4.53-12.36Z"/><path class="cls-18_user-interface-73" d="m85.8,136.67s-.54-6.79-12.76-5.7,0,17.58-10.04,32.95c0,0,18.46-3.9,19-20.46l3.8-6.79Z"/><path class="cls-20_user-interface-73" d="m86.57,136.19s-2.45-1.69-5.91.5c-3.46,2.19-4.99,10.18.46,12.93,0,0-4.52-10.82,5.45-13.43Z"/><path class="cls-21_user-interface-73 targetColor" d="m66.26,250.13H30.43s-3.93-52.3,25.72-58.99c29.65-6.69,10.11,58.99,10.11,58.99Z" style="fill: rgb(236, 156, 82);"/><g class="cls-2_user-interface-73"><path class="cls-13_user-interface-73" d="m66.26,250.13H30.43s-3.93-52.3,25.72-58.99c29.65-6.69,10.11,58.99,10.11,58.99Z"/></g><rect class="cls-21_user-interface-73 targetColor" x="183.7" y="178.27" width="53.76" height="44.85" style="fill: rgb(236, 156, 82);"/><g class="cls-4_user-interface-73"><polygon class="cls-13_user-interface-73" points="189.3 216.17 202.11 193.32 211.07 210.24 221.96 195.88 232.85 216.17 189.3 216.17"/></g><circle class="cls-13_user-interface-73" cx="213.07" cy="190.75" r="4.26"/><path class="cls-18_user-interface-73" d="m100.93,138.43l2.87,7.2-11.89,4.56s-.67,8,3.53,9.45c0,0-2.6.12-5.1-2.47-1.08-1.12-2.81-1.28-3.98-.25l-.15.13s-5.56-5.19-6.92-12.24c-1.36-7.06,6.51-8.14,6.51-8.14,0,0,10.45-7.34,15.13,1.76Z"/></g></svg>