<svg id="_0141_user_profile" xmlns="http://www.w3.org/2000/svg" viewBox="0 0 500 500" data-imageid="user-profile-97" imageName="User Profile" class="illustrations_image" style="width: 178px;"><defs><style>.cls-1_user-profile-97{opacity:.45;}.cls-1_user-profile-97,.cls-2_user-profile-97,.cls-3_user-profile-97{fill:none;}.cls-4_user-profile-97{fill:#fff;}.cls-5_user-profile-97{fill:#f4a28c;}.cls-6_user-profile-97{fill:#ce8172;}.cls-7_user-profile-97{fill:#e6e6e6;}.cls-2_user-profile-97{opacity:.09;}.cls-3_user-profile-97{opacity:.31;}.cls-8_user-profile-97{fill:#24285b;}.cls-9_user-profile-97{fill:#ffd200;}.cls-10_user-profile-97{fill:#68e1fd;}</style></defs><g id="boy_user-profile-97"><g class="cls-1_user-profile-97"><circle class="cls-7_user-profile-97" cx="128.9" cy="163.32" r="110.9"/></g><path class="cls-5_user-profile-97" d="m143.7,112.41s3.22,15.5,1.82,26.23c-.57,4.35-4.62,7.46-8.97,6.83-5.39-.78-12.46-3.41-15.19-11.5l-6.33-13.17s-3.68-8.39,4.43-15.82c8.11-7.43,22.75-2.11,24.24,7.43Z"/><polygon class="cls-5_user-profile-97" points="116.18 123.19 114.12 175.02 142.77 174.12 132.76 136.76 116.18 123.19"/><path class="cls-8_user-profile-97" d="m139.88,113.52c-2.73.47-7.77,1.05-14.62.6,0,0,5.73,6.26,1.71,14.38-4.02,8.12-12.39,5.79-12.39,5.79l-2.14-20.23c-.81-5.87,1.63-11.74,6.42-15.24,1.96-1.43,4.14-2.88,6.35-4.09,5.54-3.02,14.51-.15,19.26-4.7,2.08-1.99,5.55-1.01,6.31,1.77,1.64,6.04,1.69,15.83-6.23,20.18-1.45.8-3.04,1.25-4.67,1.53Z"/><path class="cls-5_user-profile-97" d="m128.59,127.85s-.83-6.04-5.33-5.03c-4.49,1.01-3.34,9.74,2.94,9.82l2.39-4.79Z"/><path class="cls-5_user-profile-97" d="m145.22,122.28l5.1,5.54c1.26,1.37.67,3.58-1.11,4.14l-5.88,1.84,1.89-11.52Z"/><g class="cls-3_user-profile-97"><path class="cls-6_user-profile-97" d="m135.3,144.84s-5.38-.45-9.85-4.39c0,0,1.52,9.37,12.98,17.45l-3.12-13.06Z"/></g><path class="cls-10_user-profile-97 targetColor" d="m54.19,245.27s-1.7-69.61,73.39-73.22c75.08-3.6,73.09,76.29,73.09,76.29,0,0-70.84,64.56-146.48-3.07Z" style="fill: rgb(236, 156, 82);"/><circle class="cls-9_user-profile-97" cx="199.92" cy="242.46" r="37.21"/><path class="cls-4_user-profile-97" d="m199.91,263.43c-2.22,0-4.02-1.8-4.02-4.02v-33.89c0-2.22,1.8-4.02,4.02-4.02s4.02,1.8,4.02,4.02v33.89c0,2.22-1.8,4.02-4.02,4.02Z"/><path class="cls-4_user-profile-97" d="m217.42,246.48h-33.9c-2.22,0-4.02-1.8-4.02-4.02s1.8-4.02,4.02-4.02h33.9c2.22,0,4.02,1.8,4.02,4.02s-1.8,4.02-4.02,4.02Z"/></g><g id="girl_user-profile-97"><g class="cls-1_user-profile-97"><circle class="cls-7_user-profile-97" cx="368.1" cy="163.16" r="110.9"/></g><path class="cls-5_user-profile-97" d="m382.9,112.25s3.22,15.5,1.82,26.23c-.57,4.35-4.62,7.46-8.97,6.83-5.39-.78-12.46-3.41-15.19-11.5l-6.33-13.17s-3.68-8.39,4.43-15.82c8.11-7.43,22.75-2.11,24.24,7.43Z"/><polygon class="cls-5_user-profile-97" points="355.37 123.03 353.31 174.87 381.96 173.96 371.96 136.6 355.37 123.03"/><path class="cls-5_user-profile-97" d="m367.78,127.69s-.83-6.04-5.33-5.03c-4.49,1.01-3.34,9.74,2.94,9.82l2.39-4.79Z"/><path class="cls-5_user-profile-97" d="m384.42,122.12l5.1,5.54c1.26,1.37.67,3.58-1.11,4.14l-5.88,1.84,1.89-11.52Z"/><g class="cls-3_user-profile-97"><path class="cls-6_user-profile-97" d="m374.5,144.69s-5.38-.45-9.85-4.39c0,0,1.52,9.37,12.98,17.45l-3.12-13.06Z"/></g><path class="cls-10_user-profile-97 targetColor" d="m293.38,245.12s-1.7-69.61,73.39-73.22c75.08-3.6,73.09,76.29,73.09,76.29,0,0-70.84,64.56-146.48-3.07Z" style="fill: rgb(236, 156, 82);"/><circle class="cls-9_user-profile-97" cx="444.79" cy="242.46" r="37.21"/><path class="cls-4_user-profile-97" d="m444.79,263.43c-2.22,0-4.02-1.8-4.02-4.02v-33.89c0-2.22,1.8-4.02,4.02-4.02s4.02,1.8,4.02,4.02v33.89c0,2.22-1.8,4.02-4.02,4.02Z"/><path class="cls-4_user-profile-97" d="m462.29,246.48h-33.89c-2.22,0-4.02-1.8-4.02-4.02s1.8-4.02,4.02-4.02h33.89c2.22,0,4.02,1.8,4.02,4.02s-1.8,4.02-4.02,4.02Z"/><path class="cls-8_user-profile-97" d="m371.13,117.49l23.31-2.05s-2.87-16.83-19.29-19.7c-16.42-2.87-25.86,6.16-27.09,23.4-1.23,17.24,6.49,24.59,6.49,24.59,0,0,21.18.45,16.58-26.23Z"/><path class="cls-8_user-profile-97" d="m357.69,98.51s-19.88,3.95-19.88,33.97-23.53,44.53-4.1,62.59c19.43,18.06,50.63,6.29,37.49-18.06s7.55-33.11-.06-59.52c-7.61-26.41-13.45-18.98-13.45-18.98Z"/></g><g id="info2_user-profile-97"><rect class="cls-8_user-profile-97" x="47.77" y="308.68" width="169.64" height="139.06"/><rect class="cls-10_user-profile-97 targetColor" x="96.34" y="378.58" width="72.79" height="44.98" style="fill: rgb(236, 156, 82);"/><g class="cls-2_user-profile-97"><rect class="cls-4_user-profile-97" x="82.66" y="333.24" width="100.15" height="15.71"/></g></g><g id="info1_user-profile-97"><rect class="cls-8_user-profile-97" x="289.29" y="308.68" width="169.64" height="139.06"/><rect class="cls-10_user-profile-97 targetColor" x="337.85" y="378.58" width="72.79" height="44.98" style="fill: rgb(236, 156, 82);"/><g class="cls-2_user-profile-97"><rect class="cls-4_user-profile-97" x="324.17" y="333.24" width="100.15" height="15.71"/></g></g></svg>