<svg version="1.1" id="Layer_1" xmlns="http://www.w3.org/2000/svg" xmlns:xlink="http://www.w3.org/1999/xlink" x="0px" y="0px" viewBox="0 0 500 500" style="width: 158px;" xml:space="preserve" data-imageid="video-tutorial-29" imageName="Video Tutorial" class="illustrations_image">
<style type="text/css">
	.st0_video-tutorial-29{fill:#231F20;}
	.st1_video-tutorial-29{fill:#FFFFFF;}
	.st2_video-tutorial-29{fill:#D1D3D4;}
	.st3_video-tutorial-29{fill:#68E1FD;}
	.st4_video-tutorial-29{fill:none;}
</style>
<g id="Smartphone_video-tutorial-29">
	<path class="st0_video-tutorial-29" d="M138.6,160.6h6.7v119.8h-6.7c-4.4,0-8-3.6-8-8V168.6C130.6,164.2,134.2,160.6,138.6,160.6z"/>
	<path class="st0_video-tutorial-29" d="M145.4,281h-6.7c-4.8,0-8.6-3.9-8.6-8.6V168.6c0-4.8,3.9-8.6,8.6-8.6h6.7c0.4,0,0.6,0.3,0.6,0.6v119.7&#10;&#9;&#9;C146.1,280.7,145.8,281,145.4,281C145.4,281,145.4,281,145.4,281z M138.6,161.2c-4.1,0-7.3,3.3-7.4,7.4v103.7&#10;&#9;&#9;c0,4.1,3.3,7.3,7.4,7.4h6.1V161.2L138.6,161.2z"/>
	<path class="st0_video-tutorial-29" d="M381,168.6v103.8c0,4.4-3.6,8-8,8h-9.9V160.6h9.9C377.4,160.6,381,164.2,381,168.6z"/>
	<path class="st0_video-tutorial-29" d="M373,281h-9.9c-0.4,0-0.6-0.3-0.6-0.6V160.6c0-0.4,0.3-0.6,0.6-0.6h9.9c4.8,0,8.6,3.9,8.6,8.6v103.7&#10;&#9;&#9;C381.7,277.1,377.8,281,373,281C373,281,373,281,373,281z M363.7,279.7h9.3c4.1,0,7.3-3.3,7.4-7.4V168.6c0-4.1-3.3-7.3-7.4-7.4&#10;&#9;&#9;h-9.3V279.7z"/>
</g>
<g id="Screen_video-tutorial-29">
	<rect x="145.4" y="160.6" class="st1_video-tutorial-29" width="217.6" height="119.8"/>
	<path class="st0_video-tutorial-29" d="M363,281H145.4c-0.4,0-0.6-0.3-0.6-0.6V160.6c0-0.4,0.3-0.6,0.6-0.6H363c0.4,0,0.6,0.3,0.6,0.6v119.8&#10;&#9;&#9;C363.7,280.7,363.4,281,363,281C363.1,281,363.1,281,363,281z M146,279.7h216.4V161.2H146V279.7z"/>
	<path class="st2_video-tutorial-29" d="M257.7,241.4H146.3v-1.3H257v-78.8h1.3v79.4C258.3,241.2,258,241.4,257.7,241.4L257.7,241.4z"/>
	<path class="st2_video-tutorial-29" d="M184.5,204.7h-27.3c-0.4,0-0.6-0.3-0.6-0.6v-27.3c0-0.4,0.3-0.6,0.6-0.6h27.3c0.4,0,0.6,0.3,0.6,0.6v27.3&#10;&#9;&#9;C185.2,204.4,184.9,204.7,184.5,204.7z M157.9,203.4h26v-26h-26V203.4z"/>
	<path class="st2_video-tutorial-29" d="M217.8,204.7h-27.3c-0.4,0-0.6-0.3-0.6-0.6v-27.3c0-0.4,0.3-0.6,0.6-0.6h27.3c0.4,0,0.6,0.3,0.6,0.6v27.3&#10;&#9;&#9;C218.4,204.4,218.1,204.7,217.8,204.7z M191.1,203.4h26v-26h-26V203.4z"/>
	<path class="st2_video-tutorial-29" d="M251,204.7h-27.3c-0.4,0-0.6-0.3-0.6-0.6v-27.3c0-0.4,0.3-0.6,0.6-0.6H251c0.4,0,0.6,0.3,0.6,0.6v27.3&#10;&#9;&#9;C251.6,204.4,251.4,204.7,251,204.7z M224.3,203.4h26v-26h-26V203.4z"/>
	<path class="st2_video-tutorial-29" d="M184.5,212.3h-27.3c-0.4,0-0.7-0.3-0.7-0.7c0-0.4,0.3-0.6,0.7-0.6l0,0h27.3c0.4,0,0.7,0.3,0.7,0.6&#10;&#9;&#9;C185.2,212,184.9,212.3,184.5,212.3z"/>
	<path class="st2_video-tutorial-29" d="M178.7,217.9h-21.5c-0.4,0-0.7-0.3-0.7-0.6c0-0.4,0.3-0.7,0.7-0.7l0,0h21.5c0.4,0,0.6,0.3,0.6,0.7&#10;&#9;&#9;C179.4,217.6,179.1,217.9,178.7,217.9z"/>
	<path class="st2_video-tutorial-29" d="M217.8,212.3h-27.3c-0.4,0-0.7-0.3-0.7-0.7c0-0.4,0.3-0.6,0.7-0.6l0,0h27.3c0.4,0,0.6,0.3,0.6,0.6&#10;&#9;&#9;C218.4,212,218.1,212.3,217.8,212.3z"/>
	<path class="st2_video-tutorial-29" d="M212,217.9h-21.5c-0.4,0-0.7-0.3-0.7-0.6c0-0.4,0.3-0.7,0.7-0.7l0,0H212c0.4,0,0.6,0.3,0.6,0.7&#10;&#9;&#9;C212.6,217.6,212.4,217.9,212,217.9z"/>
	<path class="st2_video-tutorial-29" d="M251,212.3h-27.3c-0.4,0-0.7-0.3-0.7-0.7c0-0.4,0.3-0.6,0.7-0.6l0,0H251c0.4,0,0.6,0.3,0.6,0.6&#10;&#9;&#9;C251.6,212,251.4,212.3,251,212.3z"/>
	<path class="st2_video-tutorial-29" d="M245.2,217.9h-21.5c-0.4,0-0.7-0.3-0.7-0.6c0-0.4,0.3-0.7,0.7-0.7l0,0h21.5c0.4,0,0.6,0.3,0.6,0.7&#10;&#9;&#9;C245.9,217.6,245.6,217.9,245.2,217.9L245.2,217.9z"/>
	<path class="st2_video-tutorial-29" d="M164.7,235.6h-7.5c-0.4,0-0.7-0.3-0.7-0.7c0-0.4,0.3-0.6,0.7-0.6l0,0h7.5c0.4,0,0.6,0.3,0.6,0.6&#10;&#9;&#9;C165.4,235.3,165.1,235.6,164.7,235.6z"/>
	<polygon class="st2_video-tutorial-29" points="155.8,276 155.8,263.3 164.7,270.2 &#9;"/>
	<path class="st2_video-tutorial-29" d="M351.5,270.3H173.9c-0.4,0-0.6-0.3-0.6-0.7c0-0.4,0.3-0.6,0.6-0.6h177.6c0.4,0,0.6,0.3,0.6,0.7&#10;&#9;&#9;C352.1,270,351.9,270.3,351.5,270.3z"/>
	<circle class="st3_video-tutorial-29 targetColor" cx="234.2" cy="269.6" r="4.9" style="fill: rgb(236, 156, 82);"/>
	<path class="st0_video-tutorial-29" d="M360.5,258.5H136.4c-0.4,0-0.7-0.3-0.7-0.6s0.3-0.7,0.6-0.7c0,0,0,0,0,0h224.1c0.4,0,0.7,0.3,0.7,0.6&#10;&#9;&#9;S360.8,258.4,360.5,258.5C360.5,258.5,360.5,258.5,360.5,258.5z"/>
</g>
<g id="Character_video-tutorial-29">
	<path class="st1_video-tutorial-29" d="M326.8,164.1c0.7,0.2,1.4,0.5,2,0.8c3.7,1.9,6.3,5.5,7,9.7c0.6,4.2-0.9,8.3-4,11.2c-2.5,2.2-8,4.6-11.1,2.5&#10;&#9;&#9;c-3.2-2.2-5.6-5.2-7-8.9c-1.3-3.6-2-9.5,0.8-12.6c1.4-1.6,4.5-2.3,6.5-2.9C322.9,163.5,324.9,163.5,326.8,164.1L326.8,164.1z"/>
	<path class="st0_video-tutorial-29" d="M323.6,189.7c-1.2,0-2.3-0.3-3.4-0.9c-3.3-2.2-5.8-5.5-7.2-9.2c-1.4-4.1-2-10,0.9-13.2c1.5-1.6,4.3-2.4,6.4-3&#10;&#9;&#9;l0.3-0.1c2.1-0.5,4.2-0.5,6.3,0.1l0,0c0.7,0.2,1.5,0.5,2.2,0.9c3.9,2,6.6,5.8,7.3,10.2c0.6,4.4-1,8.8-4.2,11.8&#10;&#9;&#9;C329.8,188.3,326.8,189.5,323.6,189.7L323.6,189.7z M323.6,164.2c-0.9,0-1.7,0.1-2.6,0.3l-0.3,0.1c-1.9,0.5-4.6,1.2-5.8,2.6&#10;&#9;&#9;c-2.8,3-1.7,8.9-0.6,11.9c1.3,3.5,3.7,6.4,6.7,8.5c2.8,1.8,7.9-0.2,10.4-2.5c2.9-2.7,4.4-6.7,3.8-10.6c-0.6-3.9-3.1-7.4-6.6-9.2&#10;&#9;&#9;c-0.6-0.3-1.3-0.6-1.9-0.8l0,0C325.7,164.4,324.7,164.2,323.6,164.2L323.6,164.2z"/>
	<path class="st0_video-tutorial-29" d="M326.3,173.1c0.8,1.4,1.4,2.8,1.9,4.3c0.9,2.9,1.2,6.4-0.8,8.7c-1.7,1.7-4.2,2.3-6.6,1.6&#10;&#9;&#9;c-2.3-0.7-4.3-2.1-5.9-3.9c-3.2-3.4-8.5-12.6-3.5-16.8C315.9,163.2,324.1,169.3,326.3,173.1L326.3,173.1z"/>
	<path class="st0_video-tutorial-29" d="M322.8,188.6c-0.7,0-1.5-0.1-2.2-0.3c-2.4-0.8-4.5-2.2-6.1-4.1c-2.4-2.5-6-8.2-5.7-13c0-1.8,0.9-3.5,2.2-4.7&#10;&#9;&#9;c1.4-1.2,3.3-1.6,5.1-1.2c4.5,0.7,9.2,4.9,10.8,7.5l0,0c0.8,1.4,1.5,2.9,1.9,4.4c0.9,2.8,1.4,6.7-0.9,9.3&#10;&#9;&#9;C326.5,187.9,324.7,188.6,322.8,188.6L322.8,188.6z M314.8,166.4c-1.1,0-2.2,0.3-3,1c-1.1,1-1.8,2.3-1.8,3.8c-0.2,4.1,3,9.6,5.4,12&#10;&#9;&#9;c1.5,1.7,3.4,3,5.6,3.8c2.1,0.6,4.3,0.1,5.9-1.4c1.9-2.1,1.4-5.6,0.6-8.1c-0.4-1.5-1-2.9-1.8-4.2l0,0c-1.5-2.4-5.9-6.2-9.9-6.9&#10;&#9;&#9;C315.5,166.4,315.2,166.4,314.8,166.4L314.8,166.4z"/>
	<path class="st1_video-tutorial-29" d="M317.8,199.2c-5.7,2.2-15.2,0.9-20.6-2c-10.5-5.5-8.4-18.6-2.4-26.6c1.1-1.6,2.6-3,4.2-4&#10;&#9;&#9;c2.6-1.3,5.5-1.8,8.3-1.4c7.2,0.7,14.1,4.9,17.4,11.4C328.8,184.6,326.7,195.7,317.8,199.2L317.8,199.2z"/>
	<path class="st0_video-tutorial-29" d="M310.9,200.9c-4.8,0-9.6-1.1-14-3.1c-3.8-1.9-6.5-5.3-7.4-9.4c-1.3-5.6,0.5-12.6,4.7-18.1&#10;&#9;&#9;c1.2-1.7,2.7-3.1,4.4-4.2c2.7-1.4,5.7-1.9,8.7-1.5c7.6,0.7,14.6,5.3,17.9,11.7c2.4,4.7,2.8,10.2,1,15.2c-1.4,3.8-4.4,6.9-8.2,8.3&#10;&#9;&#9;C315.8,200.6,313.4,201,310.9,200.9L310.9,200.9z M305.4,165.7c-2.1-0.1-4.2,0.4-6,1.4c-1.6,1-3,2.3-4,3.8&#10;&#9;&#9;c-3.9,5.2-5.7,11.9-4.5,17.1c0.8,3.7,3.3,6.9,6.7,8.6c5.1,2.7,14.4,4.1,20.1,2l0,0c3.5-1.3,6.2-4.1,7.5-7.6&#10;&#9;&#9;c1.7-4.6,1.3-9.7-0.9-14.1c-3.4-6.2-9.8-10.4-16.9-11C306.6,165.9,306,165.8,305.4,165.7L305.4,165.7z"/>
	<path class="st1_video-tutorial-29" d="M242.9,224.1c0,0-6.4-5.5-7.9-8.9s-1.7-6.7-3.2-6.2s-1.1,3.6,0.6,8c0,0-14.8-5.8-15.7-4c-0.9,1.9-0.9,4.1,0,6&#10;&#9;&#9;c1,1.6,10.6,5.5,11.7,6.9s6.8,7.2,6.8,7.2L242.9,224.1L242.9,224.1z"/>
	<path class="st0_video-tutorial-29" d="M235.1,233.8c-0.2,0-0.3-0.1-0.5-0.2c-0.2-0.2-5.8-5.8-6.9-7.2c-0.4-0.6-3.1-1.9-5.3-3c-3.6-1.8-5.9-3-6.4-3.9&#10;&#9;&#9;c-1.2-1.9-0.9-4.7,0-6.6c0.7-1.5,5.8-0.4,15.2,3.2c-0.8-2.4-1.4-5.1-0.8-6.5c0.2-0.5,0.6-0.8,1.1-1c0.4-0.1,0.8-0.1,1.1,0.1&#10;&#9;&#9;c0.9,0.4,1.2,1.7,1.8,3.4c0.3,0.9,0.6,2,1.1,3.1c1.4,3.2,7.7,8.6,7.7,8.6c0.1,0.1,0.2,0.3,0.2,0.4c0,0.2,0,0.3-0.2,0.5l-7.8,9&#10;&#9;&#9;C235.5,233.7,235.3,233.8,235.1,233.8L235.1,233.8L235.1,233.8z M217.7,213.3c-0.2,0-0.4,0-0.5,0.1c-0.8,1.7-0.8,3.6,0,5.2&#10;&#9;&#9;c0.4,0.7,3.6,2.3,5.9,3.5c3.2,1.6,5.1,2.6,5.7,3.4c0.9,1.2,4.9,5.2,6.2,6.6l6.9-8c-1.6-1.4-6.3-5.7-7.6-8.7&#10;&#9;&#9;c-0.5-1.1-0.8-2.2-1.1-3.2c-0.4-1.1-0.8-2.5-1.2-2.7c0,0-0.1,0-0.1,0c-0.2,0.1-0.3,0.2-0.3,0.3c-0.5,1,0,3.6,1.3,6.9&#10;&#9;&#9;c0.1,0.3,0,0.7-0.4,0.8c-0.2,0.1-0.3,0.1-0.5,0C226.3,215.4,219.7,213.3,217.7,213.3L217.7,213.3z"/>
	<path class="st3_video-tutorial-29 targetColor" d="M242.9,220.7c0,0,19.3,17.3,21.3,17c3.3-4.3,15.2-22.1,15.2-22.1c3-3.9,11.7-7,24-5.3c0,0,27.5,0.6,32.8,9.3&#10;&#9;&#9;c3.1,5,5.7,18.4,7.4,38.3h-91.6c-7.5-11.3-20.2-26.4-20.2-26.4L242.9,220.7L242.9,220.7z" style="fill: rgb(236, 156, 82);"/>
	<polygon class="st0_video-tutorial-29" points="299.1,214.4 299.7,251.9 316.2,212.3 &#9;"/>
	<path class="st0_video-tutorial-29" d="M299.7,252.5h-0.1c-0.3-0.1-0.5-0.3-0.5-0.6l-0.6-37.5c0-0.3,0.2-0.6,0.6-0.6l17.1-2.1c0.2,0,0.5,0.1,0.6,0.2&#10;&#9;&#9;c0.1,0.2,0.2,0.4,0.1,0.6l-16.5,39.6C300.2,252.4,299.9,252.5,299.7,252.5L299.7,252.5z M299.7,214.9l0.5,33.8l14.9-35.7&#10;&#9;&#9;L299.7,214.9z"/>
	<path class="st1_video-tutorial-29" d="M295.3,190.9c-0.3-0.9-0.7-1.7-1.3-2.4c-0.6-0.7-1.7-1-2.5-0.6c-0.6,0.4-1,1-1.1,1.7c0,0.7,0.1,1.4,0.3,2.1&#10;&#9;&#9;c0.4,1.2,1.1,2.4,2,3.3c0.9,0.9,2.2,1.4,3.5,1.4"/>
	<path class="st0_video-tutorial-29" d="M296,197c-1.4,0-2.7-0.6-3.7-1.6c-1-1-1.7-2.2-2.2-3.6c-0.3-0.7-0.4-1.5-0.4-2.4c0.1-0.9,0.6-1.8,1.4-2.2&#10;&#9;&#9;c1.1-0.5,2.5-0.2,3.3,0.7c0.7,0.8,1.2,1.7,1.5,2.7c0.2,0.3,0,0.7-0.3,0.9s-0.7,0-0.9-0.3c0,0,0-0.1-0.1-0.1&#10;&#9;&#9;c-0.2-0.8-0.6-1.6-1.2-2.2c-0.4-0.5-1.1-0.7-1.8-0.5c-0.4,0.3-0.7,0.7-0.7,1.2c0,0.6,0.1,1.2,0.3,1.8c0.4,1.1,1,2.2,1.8,3&#10;&#9;&#9;c0.8,0.8,1.9,1.2,3,1.2c0.4-0.1,0.7,0.2,0.8,0.5c0.1,0.4-0.2,0.7-0.5,0.8c0,0-0.1,0-0.1,0L296,197L296,197z"/>
	<path class="st1_video-tutorial-29" d="M300.2,203.3l-1.1,11c0,0,0.5,6.3,7.4,5c4.1-0.8,7.7-3.4,9.7-7.1l1-19.2c0-0.8-2.9-4.2-2.1-11.2&#10;&#9;&#9;c-5-0.6-9.8-2.7-13.7-6c-0.8,1.6-1.7,3-2.9,4.4c-1.1,0.9-2,1.9-2.8,3.1c-2.1,3.2-2.4,7.6-1.8,11.3&#10;&#9;&#9;C294.3,197.7,296.4,203.4,300.2,203.3z"/>
	<path class="st0_video-tutorial-29" d="M304.8,220.2c-1.4,0-2.8-0.4-3.9-1.2c-1.4-1.2-2.3-2.8-2.5-4.6l1-10.5c-3.7-0.6-5.8-5.8-6.3-9.2&#10;&#9;&#9;c-0.4-2.7-0.6-7.9,1.9-11.8c0.8-1.2,1.8-2.3,2.9-3.2c1.1-1.3,2-2.7,2.7-4.2c0.1-0.2,0.3-0.3,0.5-0.4c0.2,0,0.4,0,0.6,0.2&#10;&#9;&#9;c3.8,3.2,8.4,5.2,13.3,5.8c0.2,0,0.3,0.1,0.4,0.2c0.1,0.1,0.2,0.3,0.1,0.5c-0.5,3.4,0.1,6.8,1.7,9.8c0.3,0.4,0.4,0.9,0.5,1.4l0,0&#10;&#9;&#9;c0,0,0,0.4-1,19.2c0,0.1,0,0.2-0.1,0.2c-2.1,3.9-5.8,6.6-10.1,7.4C306,220.1,305.4,220.2,304.8,220.2L304.8,220.2z M299.7,214.4&#10;&#9;&#9;c0.3,2.8,2.8,4.8,5.6,4.6c0.4,0,0.8-0.1,1.1-0.2c3.9-0.7,7.2-3.2,9.1-6.6c0.1-1.7,1-18.9,1-19.1s-0.2-0.4-0.4-0.8&#10;&#9;&#9;c-1.6-3-2.2-6.5-1.9-9.8c-4.7-0.7-9.1-2.6-12.8-5.6c-0.7,1.4-1.6,2.7-2.6,3.8c-1,0.9-1.9,1.9-2.7,3c-2.4,3.6-2.1,8.3-1.7,10.9&#10;&#9;&#9;s2.2,8.1,5.6,8.1h0.1c0.2,0,0.4,0.1,0.5,0.2c0.1,0.1,0.2,0.3,0.2,0.5L299.7,214.4L299.7,214.4z"/>
	<path class="st1_video-tutorial-29" d="M304.8,184.3c0,0-4,5-3.3,6s3.2,0.6,3.2,0.6"/>
	<path class="st0_video-tutorial-29" d="M303.7,191.7c-1,0.1-2-0.3-2.7-0.9c-0.7-0.9,0.4-3.2,3.3-6.8c0.2-0.3,0.6-0.4,0.9-0.2c0.3,0.2,0.4,0.6,0.2,0.9&#10;&#9;&#9;c0,0-0.1,0.1-0.1,0.1c-1.8,2.2-3.3,4.7-3.2,5.2c0.3,0.4,1.7,0.4,2.5,0.3c0.3-0.1,0.7,0.1,0.8,0.5c0.1,0.3-0.1,0.7-0.5,0.8&#10;&#9;&#9;c0,0-0.1,0-0.1,0C304.4,191.6,304,191.7,303.7,191.7L303.7,191.7z"/>
	
		<ellipse transform="matrix(0.1326 -0.9912 0.9912 0.1326 73.2216 455.5453)" class="st0_video-tutorial-29" cx="296.9" cy="185.9" rx="1.1" ry="0.6"/>
	
		<ellipse transform="matrix(1.169341e-02 -0.9999 0.9999 1.169341e-02 118.7519 490.8051)" class="st0_video-tutorial-29" cx="307.7" cy="185.3" rx="1.1" ry="0.6"/>
	<path class="st1_video-tutorial-29" d="M314,188.9c0.2-0.9,0.7-1.8,1.2-2.6c0.7-0.9,1.7-1.5,2.9-1.5c0.7,0,1.3,0.4,1.8,0.9c0.2,0.4,0.4,0.9,0.4,1.3&#10;&#9;&#9;c0.4,2.5-0.5,5.7-2.8,6.9c-0.8,0.5-1.8,0.5-2.6,0"/>
	<path class="st0_video-tutorial-29" d="M316.1,195c-0.6,0-1.1-0.2-1.6-0.5c-0.2-0.3-0.2-0.7,0.1-0.9c0.2-0.2,0.5-0.2,0.7-0.1c0.6,0.3,1.3,0.3,1.9-0.1&#10;&#9;&#9;c2-1.1,2.8-4.1,2.4-6.3c0-0.4-0.2-0.7-0.3-1c-0.3-0.4-0.8-0.6-1.2-0.6c-0.9,0-1.8,0.5-2.3,1.2c-0.5,0.7-0.9,1.5-1.1,2.4&#10;&#9;&#9;c-0.1,0.3-0.5,0.5-0.9,0.3c-0.3-0.1-0.4-0.4-0.4-0.7c0.3-1,0.7-2,1.4-2.8c0.8-1.1,2.1-1.7,3.4-1.7c0.9,0,1.7,0.5,2.2,1.2&#10;&#9;&#9;c0.3,0.5,0.5,1,0.6,1.5c0.4,2.7-0.5,6.2-3.1,7.6C317.4,194.9,316.8,195.1,316.1,195L316.1,195z"/>
	<path class="st0_video-tutorial-29" d="M279.3,254.9L279.3,254.9c-0.3,0-0.6-0.3-0.6-0.6c0-0.8,4.2-23.1,5-27.6c0.1-0.4,0.4-0.6,0.8-0.5&#10;&#9;&#9;c0.4,0.1,0.6,0.4,0.5,0.8c-2,10.6-4.9,26.6-5,27.4C280,254.6,279.7,254.8,279.3,254.9z"/>
	<path class="st0_video-tutorial-29" d="M323.8,256.6c-0.4,0-0.6-0.3-0.6-0.6v-30.3c0-0.4,0.3-0.7,0.6-0.7s0.7,0.3,0.7,0.6c0,0,0,0,0,0V256&#10;&#9;&#9;C324.4,256.3,324.2,256.6,323.8,256.6z"/>
	<path class="st1_video-tutorial-29" d="M308.7,192.4l-9,0.9c0,0,0,6.4,3.8,6S308.5,196.3,308.7,192.4L308.7,192.4z"/>
	<path class="st0_video-tutorial-29" d="M303.1,199.9c-0.8,0-1.5-0.3-2.1-0.8c-1.9-1.7-2-5.7-2-5.9c0-0.3,0.3-0.6,0.6-0.6l9-0.9c0.2,0,0.4,0,0.5,0.2&#10;&#9;&#9;c0.1,0.1,0.2,0.3,0.2,0.5c-0.2,3.4-1.1,6.9-5.8,7.5C303.4,199.9,303.3,199.9,303.1,199.9L303.1,199.9z M300.4,193.8&#10;&#9;&#9;c0.1,1.2,0.5,3.4,1.5,4.3c0.4,0.4,1,0.5,1.5,0.5c2.9-0.3,4.2-1.8,4.6-5.5L300.4,193.8L300.4,193.8z"/>
	<path class="st0_video-tutorial-29" d="M300.2,203.3c3.6,0.1,7.2-0.6,10.5-2c0,0-6.2,7.5-11,10.3L300.2,203.3L300.2,203.3z"/>
	<path class="st0_video-tutorial-29" d="M299.7,212.3c-0.1,0-0.2,0-0.3-0.1c-0.2-0.1-0.3-0.4-0.3-0.6l0.5-8.3c0-0.4,0.3-0.6,0.7-0.6c0,0,0,0,0,0&#10;&#9;&#9;c3.5,0.1,7-0.6,10.2-1.9c0.3-0.2,0.7,0,0.9,0.3c0.1,0.2,0.1,0.5-0.1,0.7c-0.3,0.3-6.4,7.6-11.2,10.4&#10;&#9;&#9;C299.9,212.2,299.8,212.3,299.7,212.3L299.7,212.3z M300.8,204l-0.4,6.4c3-2.2,5.7-4.8,8.2-7.6C306.1,203.6,303.4,204,300.8,204z"/>
	<path class="st0_video-tutorial-29" d="M297.4,191.1c-3,0-5.5-2.5-5.5-5.5c0-3,2.5-5.5,5.5-5.5c3,0,5.5,2.5,5.5,5.5l0,0&#10;&#9;&#9;C302.9,188.6,300.5,191.1,297.4,191.1z M297.4,181.4c-2.3,0-4.2,1.9-4.2,4.2s1.9,4.2,4.2,4.2c2.3,0,4.2-1.9,4.2-4.2&#10;&#9;&#9;C301.6,183.3,299.7,181.4,297.4,181.4z"/>
	<path class="st0_video-tutorial-29" d="M309.4,190.8c-3,0-5.5-2.5-5.5-5.5c0-3,2.5-5.5,5.5-5.5c3,0,5.5,2.5,5.5,5.5l0,0&#10;&#9;&#9;C314.9,188.4,312.4,190.8,309.4,190.8z M309.4,181.1c-2.3,0-4.2,1.9-4.2,4.2s1.9,4.2,4.2,4.2c2.3,0,4.2-1.9,4.2-4.2&#10;&#9;&#9;C313.6,183,311.7,181.1,309.4,181.1z"/>
</g>
<g id="Hands_video-tutorial-29">
	<path class="st1_video-tutorial-29" d="M207.3,296.2c-5.6,4-75.5,8-81.4,10s-23.5,52.3-23.5,52.3H19.4c0,0,9.3-88.8,11.2-100.5c0.2-1,0.3-1.9,0.5-2.8&#10;&#9;&#9;c0.8-5.1,1.5-8.9,1.9-10.9c2-10.4,12.3-50.1,32.9-43.7c7.8-10.6,23-5.2,23-5.2c8-4.8,19.1-1.2,19.1-1.2s17.8-48.2,25.4-51.7&#10;&#9;&#9;c7.2-3.3,47.7,0.2,53.1,0.7s6.4,12.5,0.7,17.6c-8.4,7.4-34.1,5.6-34.1,5.6l-16.9,49.8c-2.6,7.4-5,25.8-3.4,39&#10;&#9;&#9;c0.1,1,0.2,1.9,0.4,2.8c0.7,3.8,1.8,7,3.3,9.1c4.3,5.7,48.8,7.5,56,8C212.3,276.8,212.8,292.2,207.3,296.2L207.3,296.2z"/>
	<path class="st0_video-tutorial-29" d="M102.3,359.2H19.4c-0.2,0-0.4-0.1-0.5-0.2c-0.1-0.1-0.2-0.3-0.2-0.5c0.1-0.9,9.3-89,11.2-100.5&#10;&#9;&#9;c0.2-1,0.3-1.9,0.5-2.8c0.9-5.3,1.5-9.1,1.9-10.9c0.3-1.4,6.7-33.8,21.5-42.7c3.5-2.2,7.8-2.8,11.8-1.6c7.4-9.6,21-5.8,23.2-5.1&#10;&#9;&#9;c7.1-4.1,16.4-1.9,18.8-1.3c2.1-5.7,18.2-48.1,25.5-51.5c6.6-3.1,39.6-0.6,53.4,0.6c2,0.2,3.7,1.8,4.5,4.4&#10;&#9;&#9;c1.4,4.3,0.5,10.9-3.5,14.4c-7.9,7-30.3,6-34.1,5.8l-16.7,49.3c-2.5,7.1-5,25.3-3.4,38.7c0.1,1,0.2,1.9,0.4,2.8&#10;&#9;&#9;c0.7,4,1.8,6.9,3.2,8.9c3.5,4.7,37.8,6.7,50.7,7.5c2.2,0.1,3.9,0.2,4.9,0.3c13.7,1.1,17.2,8.4,18,11.5c1.2,4.2-0.1,8.7-2.9,10.7&#10;&#9;&#9;c-3.3,2.3-24.9,4.5-52.9,7c-14.2,1.3-26.4,2.4-28.7,3.1c-4.2,1.4-16.1,31.8-23.1,51.9C102.9,359,102.6,359.2,102.3,359.2&#10;&#9;&#9;L102.3,359.2z M20.1,357.9h81.8c2.4-6.9,17.8-50.3,23.7-52.3c2.4-0.8,14.2-1.9,29-3.2c20.7-1.9,49-4.4,52.2-6.7l0,0&#10;&#9;&#9;c2.4-1.7,3.4-5.6,2.4-9.3c-0.8-2.8-4-9.5-16.9-10.5c-1-0.1-2.7-0.2-4.9-0.3c-23.6-1.4-48.2-3.4-51.6-8c-1.6-2.1-2.7-5.3-3.5-9.4&#10;&#9;&#9;c-0.2-0.9-0.3-1.9-0.4-2.9c-1.6-13.6,0.9-32.1,3.5-39.3l16.9-49.8c0.1-0.3,0.4-0.5,0.7-0.4c0.2,0,25.6,1.6,33.6-5.5&#10;&#9;&#9;c3.6-3.1,4.4-9.1,3.1-13c-0.4-1.2-1.4-3.3-3.4-3.5c-10.7-0.9-46.2-3.7-52.8-0.7c-6,2.8-20.1,38-25.1,51.4c-0.1,0.3-0.5,0.5-0.8,0.4&#10;&#9;&#9;c-0.1,0-11-3.4-18.6,1.1c-0.2,0.1-0.4,0.1-0.6,0.1c-0.2-0.1-14.9-5.1-22.3,5c-0.2,0.2-0.4,0.3-0.7,0.2c-3.7-1.2-7.8-0.7-11.2,1.4&#10;&#9;&#9;c-14.3,8.6-20.6,40.4-20.8,41.8c-0.4,1.8-1,5.6-1.9,10.9c-0.1,0.9-0.3,1.8-0.5,2.8C29.5,269.1,21,349.4,20.1,357.9L20.1,357.9z"/>
	<line class="st4_video-tutorial-29" x1="107.9" y1="194.3" x2="102.3" y2="207"/>
	<path class="st0_video-tutorial-29" d="M102.3,207.7c-0.1,0-0.2,0-0.3,0c-0.3-0.1-0.5-0.5-0.3-0.8c0,0,0,0,0,0l5.6-12.8c0.1-0.3,0.5-0.5,0.8-0.3&#10;&#9;&#9;c0.3,0.1,0.5,0.5,0.3,0.9l-5.6,12.8C102.8,207.5,102.6,207.7,102.3,207.7z"/>
	<path class="st1_video-tutorial-29" d="M383.8,358.9h92.8c5.6-37.7,5.8-103.2-2.9-109.2c-9.4-6.6-15.8,8.1-15.8,8.1s-0.1-11.1-13.7-15&#10;&#9;&#9;s-15.9,19.1-15.9,19.1s-5.6-14.2-19.3-15S398.2,269,398.2,269s-33.9-72.7-41.7-78.6s-16,0.1-17.1,9.5S372,311.5,372,311.5&#10;&#9;&#9;s-35.6-15.5-48.9-20.4c-20.4-7.5-31.6,7.9-20,19C316.2,322.5,383.8,358.9,383.8,358.9L383.8,358.9z"/>
	<path class="st0_video-tutorial-29" d="M476.6,359.5h-92.8c-0.1,0-0.2,0-0.3-0.1c-2.8-1.5-67.9-36.6-80.9-49c-5.1-4.8-6.3-10.8-3.3-15.7&#10;&#9;&#9;c3.3-5.3,12-8.8,24-4.4c11.7,4.3,41,17,47.6,19.9c-4.2-12.7-33.2-101.5-32.2-110.4c0.6-5.4,3.5-9.9,7.6-11.6&#10;&#9;&#9;c3.4-1.5,7.1-0.9,10.5,1.7c7,5.2,33.8,61.5,40.5,75.7c-0.1-4.5,0.3-12.4,4.3-16.6c1.9-2.1,4.7-3.1,7.5-2.8&#10;&#9;&#9;c10.8,0.6,16.7,9.4,18.9,13.5c0.7-4.1,2.7-12.8,8-16.4c2.5-1.7,5.6-2.1,8.4-1.1c10.3,3,13.1,10,13.9,13.5c1.4-2.5,4.4-6.9,8.5-8&#10;&#9;&#9;c2.5-0.7,5.2-0.1,7.3,1.5c9.1,6.4,8.6,73.2,3.1,109.8C477.2,359.3,477,359.5,476.6,359.5L476.6,359.5z M384,358.2h92.1&#10;&#9;&#9;c5.7-39.1,5.3-102.4-2.7-108c-1.7-1.4-4-1.9-6.2-1.3c-5.2,1.5-8.6,9.1-8.6,9.2c-0.1,0.3-0.4,0.4-0.7,0.4c-0.3-0.1-0.5-0.3-0.5-0.6&#10;&#9;&#9;c0-0.4-0.3-10.6-13.3-14.4c-2.5-0.8-5.2-0.5-7.3,0.9c-6.4,4.3-7.8,17.4-7.8,17.6c0,0.3-0.3,0.5-0.6,0.6c-0.3,0-0.6-0.1-0.7-0.4&#10;&#9;&#9;c0-0.1-5.6-13.9-18.7-14.6c-2.4-0.2-4.8,0.7-6.5,2.4c-5.3,5.6-3.7,18.9-3.7,19.1c0,0.3-0.2,0.6-0.5,0.7c-0.3,0.1-0.6-0.1-0.8-0.4&#10;&#9;&#9;c-0.3-0.7-33.9-72.6-41.5-78.3c-3-2.2-6.3-2.8-9.2-1.5c-3.6,1.6-6.3,5.6-6.8,10.6c-1.1,9.2,32.2,110.2,32.6,111.2&#10;&#9;&#9;c0.1,0.2,0,0.5-0.2,0.7c-0.2,0.2-0.5,0.2-0.7,0.1c-0.4-0.2-35.8-15.6-48.9-20.4c-11.3-4.1-19.4-1.1-22.4,3.8&#10;&#9;&#9;c-2.7,4.3-1.5,9.7,3.1,14C316.1,321.5,380.5,356.3,384,358.2L384,358.2z"/>
</g>
</svg>