<svg id="_0167_under_constructions" xmlns="http://www.w3.org/2000/svg" xmlns:xlink="http://www.w3.org/1999/xlink" viewBox="0 0 500 500" data-imageid="under-constructions-53" imageName="Under Constructions" class="illustrations_image" style="width: 158px;"><defs><style>.cls-1_under-constructions-53{fill:none;stroke:#fff;stroke-linecap:round;stroke-miterlimit:10;stroke-width:1.05px;}.cls-2_under-constructions-53{fill:url(#linear-gradient);}.cls-2_under-constructions-53,.cls-3_under-constructions-53,.cls-4_under-constructions-53,.cls-5_under-constructions-53,.cls-6_under-constructions-53,.cls-7_under-constructions-53,.cls-8_under-constructions-53,.cls-9_under-constructions-53,.cls-10_under-constructions-53,.cls-11_under-constructions-53,.cls-12_under-constructions-53,.cls-13_under-constructions-53,.cls-14_under-constructions-53,.cls-15_under-constructions-53,.cls-16_under-constructions-53,.cls-17_under-constructions-53,.cls-18_under-constructions-53,.cls-19_under-constructions-53,.cls-20_under-constructions-53,.cls-21_under-constructions-53,.cls-22_under-constructions-53,.cls-23_under-constructions-53,.cls-24_under-constructions-53,.cls-25_under-constructions-53,.cls-26_under-constructions-53,.cls-27_under-constructions-53,.cls-28_under-constructions-53{stroke-width:0px;}.cls-2_under-constructions-53,.cls-8_under-constructions-53,.cls-9_under-constructions-53,.cls-10_under-constructions-53,.cls-11_under-constructions-53,.cls-12_under-constructions-53,.cls-13_under-constructions-53,.cls-14_under-constructions-53,.cls-15_under-constructions-53,.cls-16_under-constructions-53,.cls-17_under-constructions-53,.cls-18_under-constructions-53{opacity:.5;}.cls-2_under-constructions-53,.cls-8_under-constructions-53,.cls-9_under-constructions-53,.cls-10_under-constructions-53,.cls-11_under-constructions-53,.cls-12_under-constructions-53,.cls-13_under-constructions-53,.cls-14_under-constructions-53,.cls-15_under-constructions-53,.cls-16_under-constructions-53,.cls-17_under-constructions-53,.cls-18_under-constructions-53,.cls-24_under-constructions-53{isolation:isolate;}.cls-3_under-constructions-53{fill:url(#linear-gradient-11-under-constructions-53);}.cls-4_under-constructions-53{fill:url(#linear-gradient-13-under-constructions-53);}.cls-5_under-constructions-53{fill:url(#linear-gradient-10-under-constructions-53);}.cls-6_under-constructions-53{fill:url(#linear-gradient-19-under-constructions-53);}.cls-7_under-constructions-53{fill:url(#linear-gradient-15-under-constructions-53);}.cls-8_under-constructions-53{fill:url(#linear-gradient-2-under-constructions-53);}.cls-9_under-constructions-53{fill:url(#linear-gradient-4-under-constructions-53);}.cls-10_under-constructions-53{fill:url(#linear-gradient-5-under-constructions-53);}.cls-11_under-constructions-53{fill:url(#linear-gradient-12-under-constructions-53);}.cls-12_under-constructions-53{fill:url(#linear-gradient-18-under-constructions-53);}.cls-13_under-constructions-53{fill:url(#linear-gradient-22-under-constructions-53);}.cls-14_under-constructions-53{fill:url(#linear-gradient-16-under-constructions-53);}.cls-15_under-constructions-53{fill:url(#linear-gradient-17-under-constructions-53);}.cls-16_under-constructions-53{fill:url(#linear-gradient-14-under-constructions-53);}.cls-17_under-constructions-53{fill:url(#linear-gradient-20-under-constructions-53);}.cls-18_under-constructions-53{fill:url(#linear-gradient-21-under-constructions-53);}.cls-19_under-constructions-53{fill:url(#linear-gradient-3-under-constructions-53);}.cls-20_under-constructions-53{fill:url(#linear-gradient-8-under-constructions-53);}.cls-21_under-constructions-53{fill:url(#linear-gradient-9-under-constructions-53);}.cls-22_under-constructions-53{fill:url(#linear-gradient-7-under-constructions-53);}.cls-23_under-constructions-53{fill:url(#linear-gradient-6-under-constructions-53);}.cls-24_under-constructions-53{opacity:.24;}.cls-24_under-constructions-53,.cls-28_under-constructions-53{fill:#68e1fd;}.cls-25_under-constructions-53{fill:#231f20;}.cls-26_under-constructions-53{fill:#fff;}.cls-27_under-constructions-53{fill:#ffaa71;}</style><linearGradient id="linear-gradient-under-constructions-53" x1="-1051.89" y1="1487.06" x2="-373.36" y2="1522.34" gradientTransform="translate(1289 1743.27) scale(1 -1)" gradientUnits="userSpaceOnUse"><stop offset="0" stop-color="#010101" stop-opacity="0"/><stop offset=".95" stop-color="#010101"/></linearGradient><linearGradient id="linear-gradient-2-under-constructions-53" x1="-1090.79" y1="1488.61" x2="-1001.8" y2="1493.25" xlink:href="#linear-gradient-under-constructions-53"/><linearGradient id="linear-gradient-3-under-constructions-53" x1="-1276.64" y1="1510.38" x2="523.47" y2="1604" gradientTransform="translate(1287.36 1696.56) scale(1 -1)" xlink:href="#linear-gradient-under-constructions-53"/><linearGradient id="linear-gradient-4-under-constructions-53" x1="-1149.09" y1="1484.71" x2="-745.66" y2="1580.23" xlink:href="#linear-gradient-under-constructions-53"/><linearGradient id="linear-gradient-5-under-constructions-53" x1="-1146.42" y1="1485.72" x2="-744.77" y2="1580.82" xlink:href="#linear-gradient-under-constructions-53"/><linearGradient id="linear-gradient-6-under-constructions-53" x1="-1181.77" y1="1597.44" x2="-845.79" y2="1676.99" xlink:href="#linear-gradient-under-constructions-53"/><linearGradient id="linear-gradient-7-under-constructions-53" x1="-1181.14" y1="1595.36" x2="-848.98" y2="1674.01" xlink:href="#linear-gradient-under-constructions-53"/><linearGradient id="linear-gradient-8-under-constructions-53" x1="-1179.92" y1="1521.55" x2="-1179.13" y2="1201.18" xlink:href="#linear-gradient-under-constructions-53"/><linearGradient id="linear-gradient-9-under-constructions-53" x1="-1179.73" y1="1641.13" x2="-1178.94" y2="1320.79" xlink:href="#linear-gradient-under-constructions-53"/><linearGradient id="linear-gradient-10-under-constructions-53" x1="-1209.23" y1="1605.29" x2="-1134.68" y2="1622.94" xlink:href="#linear-gradient-under-constructions-53"/><linearGradient id="linear-gradient-11-under-constructions-53" x1="-1208.76" y1="1603.77" x2="-1137.02" y2="1620.75" xlink:href="#linear-gradient-under-constructions-53"/><linearGradient id="linear-gradient-12-under-constructions-53" x1="-1166.34" y1="1334.91" x2="-1223.81" y2="1308.6" gradientTransform="translate(1287.36 1696.56) scale(1 -1)" xlink:href="#linear-gradient-under-constructions-53"/><linearGradient id="linear-gradient-13-under-constructions-53" x1="-938.21" y1="1465.28" x2="-790.69" y2="1335.82" gradientTransform="translate(1287.36 1696.56) scale(1 -1)" xlink:href="#linear-gradient-under-constructions-53"/><linearGradient id="linear-gradient-14-under-constructions-53" x1="-872.87" y1="1460.49" x2="-869.61" y2="1413.77" xlink:href="#linear-gradient-under-constructions-53"/><linearGradient id="linear-gradient-15-under-constructions-53" x1="-875.14" y1="1475.21" x2="-861.51" y2="1458.12" gradientTransform="translate(1287.36 1696.56) scale(1 -1)" xlink:href="#linear-gradient-under-constructions-53"/><linearGradient id="linear-gradient-16-under-constructions-53" x1="-872.83" y1="1479.25" x2="-839.01" y2="1436.83" gradientTransform="translate(1287.36 1696.56) scale(1 -1)" xlink:href="#linear-gradient-under-constructions-53"/><linearGradient id="linear-gradient-17-under-constructions-53" x1="-872.69" y1="1479.06" x2="-847.43" y2="1447.37" gradientTransform="translate(1287.36 1696.56) scale(1 -1)" xlink:href="#linear-gradient-under-constructions-53"/><linearGradient id="linear-gradient-18-under-constructions-53" x1="-873.54" y1="1470.69" x2="-940.97" y2="1441.62" xlink:href="#linear-gradient-under-constructions-53"/><linearGradient id="linear-gradient-19-under-constructions-53" x1="-875.74" y1="1362.09" x2="-858.73" y2="1493.4" xlink:href="#linear-gradient-under-constructions-53"/><linearGradient id="linear-gradient-20-under-constructions-53" x1="-1079.24" y1="1407.17" x2="-1075.59" y2="1355.38" xlink:href="#linear-gradient-under-constructions-53"/><linearGradient id="linear-gradient-21-under-constructions-53" x1="-1129.43" y1="1379.35" x2="-1030.95" y2="1398.77" gradientTransform="translate(1289 1743.27) scale(1 -1)" gradientUnits="userSpaceOnUse"><stop offset="0" stop-color="#010101" stop-opacity="0"/><stop offset=".35" stop-color="#010101" stop-opacity=".35"/><stop offset=".95" stop-color="#010101"/></linearGradient><linearGradient id="linear-gradient-22-under-constructions-53" x1="-1061.84" x2="-963.36" y2="1398.77" xlink:href="#linear-gradient-21-under-constructions-53"/></defs><path id="background_under-constructions-53" class="cls-24_under-constructions-53 targetColor" d="M435.42,393.55c-38.01,19.54-81.95,18.63-124.05,17.34l-146.14-4.58c-14.23-.43-28.58-.89-42.7-2.76-8.25-1.04-16.41-2.69-24.41-4.95-3.08-.89-6.09-1.86-9.11-2.99-1.56-.57-3.08-1.17-4.6-1.83-8.57-3.62-16.7-8.21-24.23-13.66-19.96-14.49-35.61-34.13-45.28-56.83-8.48-19.95-12.35-43.41-4.98-63.88,13.64-37.89,56.62-49.68,90.3-68.16,31.74-17.42,58.36-44.89,76.41-77.9,20.84-38.09,22.85-47.87,68.16-45.06,42.83,2.65,88.34,6.3,122.92,33.61,19.76,15.55,34.09,37.55,48.1,59.11,18.22,28.06,36.45,56.12,54.67,84.2,7.88,12.13,15.87,24.53,19.92,38.64,12.42,43.3-16.97,90.16-55,109.71Z" style="fill: rgb(236, 156, 82);"/><g id="screen_under-constructions-53"><path class="cls-28_under-constructions-53 targetColor" d="M389.39,174.5v168.69c0,4.53-3.66,8.21-8.2,8.21h-220.09c-4.16.11-7.61-3.18-7.72-7.33-.01-.42.01-.85.07-1.26v-168.68c-.59-4.16,3.08-7.82,7.64-7.82h220.04c4.53-.02,8.22,3.64,8.24,8.17,0,0,0,.02,0,.03Z" style="fill: rgb(236, 156, 82);"/><rect class="cls-2_under-constructions-53" x="293.66" y="191.78" width="83.06" height="118.65"/><polygon class="cls-8_under-constructions-53" points="284.17 191.78 284.17 310.45 201.11 310.45 201.11 302.12 247.98 302.12 247.98 191.78 284.17 191.78"/><path class="cls-19_under-constructions-53" d="M389.39,174.5v4.05h-236.53v-4.05c0-4.53,3.66-8.21,8.2-8.21,0,0,.02,0,.03,0h220.06c4.53-.02,8.22,3.64,8.24,8.17,0,.02,0,.03,0,.05Z"/></g><g id="constructions_under-constructions-53"><polygon class="cls-28_under-constructions-53 targetColor" points="83.62 130.3 102.88 122.34 208.82 132.28 208.82 142.35 83.62 142.73 83.62 130.3" style="fill: rgb(236, 156, 82);"/><rect class="cls-28_under-constructions-53 targetColor" x="99.67" y="119.22" width="18.96" height="263.39" style="fill: rgb(236, 156, 82);"/><rect class="cls-26_under-constructions-53" x="204.04" y="142.21" width="1.39" height="34.17"/><path class="cls-1_under-constructions-53" d="M164.92,183.48s34.13-17,83.1,0"/><rect class="cls-9_under-constructions-53" x="164.92" y="183.48" width="83.06" height="118.63"/><rect class="cls-10_under-constructions-53" x="167.3" y="183.58" width="83.06" height="116.56"/><rect class="cls-28_under-constructions-53 targetColor" x="173.42" y="190.99" width="53" height="4.16" rx="2.07" ry="2.07" style="fill: rgb(236, 156, 82);"/><path class="cls-28_under-constructions-53 targetColor" d="M174.58,198.47h27.13c.64,0,1.16.52,1.16,1.16h0c0,.64-.52,1.16-1.16,1.16h-27.13c-.64,0-1.16-.52-1.16-1.16h0c0-.64.52-1.16,1.16-1.16Z" style="fill: rgb(236, 156, 82);"/><path class="cls-28_under-constructions-53 targetColor" d="M186.84,204.21h27.13c.64,0,1.16.52,1.16,1.16h0c0,.64-.52,1.16-1.16,1.16h-27.13c-.64,0-1.16-.52-1.16-1.16h0c0-.64.52-1.16,1.16-1.16Z" style="fill: rgb(236, 156, 82);"/><rect class="cls-28_under-constructions-53 targetColor" x="205.66" y="198.47" width="4.32" height="2.28" rx="1.14" ry="1.14" style="fill: rgb(236, 156, 82);"/><rect class="cls-28_under-constructions-53 targetColor" x="211.89" y="198.47" width="4.32" height="2.28" rx="1.14" ry="1.14" style="fill: rgb(236, 156, 82);"/><rect class="cls-28_under-constructions-53 targetColor" x="176.58" y="204.21" width="4.32" height="2.28" rx="1.14" ry="1.14" style="fill: rgb(236, 156, 82);"/><rect class="cls-28_under-constructions-53 targetColor" x="218.11" y="198.47" width="4.32" height="2.28" rx="1.14" ry="1.14" style="fill: rgb(236, 156, 82);"/><polygon class="cls-23_under-constructions-53" points="208.82 132.28 208.82 142.35 118.64 142.35 118.64 122.54 208.82 132.28"/><polygon class="cls-22_under-constructions-53" points="208.82 136.73 208.82 142.35 118.64 142.35 118.64 126.99 208.82 136.73"/><rect class="cls-20_under-constructions-53" x="99.67" y="119.22" width="18.96" height="263.39"/><rect class="cls-21_under-constructions-53" x="104.4" y="119.22" width="10.48" height="263.39"/><polygon class="cls-5_under-constructions-53" points="99.67 123.8 99.67 142.73 83.62 142.73 83.62 130.3 99.67 123.8"/><polygon class="cls-3_under-constructions-53" points="99.67 127.07 99.67 142.73 83.62 142.73 83.62 133.56 99.67 127.07"/></g><g id="plant_under-constructions-53"><path class="cls-28_under-constructions-53 targetColor" d="M118.58,356.46c-1.46,2.99-2.5,6.69-.75,9.55.9,1.12,1.85,2.18,2.87,3.19,3.82,4.66,1.81,11.67-1.18,16.88-.92,1.31-1.52,2.82-1.75,4.4-.11,2.49,1.69,4.57,3.19,6.55s2.59,4.48,1.58,6.55c-11.44-1.37-22.68-4.04-33.52-7.94-1.56-.57-3.08-1.17-4.6-1.83-.32-3.48.78-7.11,2.19-10.38,1.56-3.59,3.94-7.33,4.55-11.27.54-3.59-.09-6.95,1.03-10.57,2.14-7.15,7.49-12.89,14.47-15.52,2.02-.7,4.22-1.18,5.73-2.65,1.03-1.11,1.83-2.4,2.36-3.82,2.7-5.86,5.38-11.75,8.04-17.65,1.24-2.7,2.87-5.73,5.84-6.21,2.27-.37,4.55,1.13,5.66,3.13,1.03,2.09,1.38,4.44,1.01,6.73-1.28,11.77-11.45,20.27-16.72,30.85Z" style="fill: rgb(236, 156, 82);"/><path class="cls-11_under-constructions-53" d="M118.58,356.46c-1.46,2.99-2.5,6.69-.75,9.55.9,1.12,1.85,2.18,2.87,3.19,3.82,4.66,1.81,11.67-1.18,16.88-.92,1.31-1.52,2.82-1.75,4.4-.11,2.49,1.69,4.57,3.19,6.55s2.59,4.48,1.58,6.55c-11.44-1.37-22.68-4.04-33.52-7.94-1.56-.57-3.08-1.17-4.6-1.83-.32-3.48.78-7.11,2.19-10.38,1.56-3.59,3.94-7.33,4.55-11.27.54-3.59-.09-6.95,1.03-10.57,2.14-7.15,7.49-12.89,14.47-15.52,2.02-.7,4.22-1.18,5.73-2.65,1.03-1.11,1.83-2.4,2.36-3.82,2.7-5.86,5.38-11.75,8.04-17.65,1.24-2.7,2.87-5.73,5.84-6.21,2.27-.37,4.55,1.13,5.66,3.13,1.03,2.09,1.38,4.44,1.01,6.73-1.28,11.77-11.45,20.27-16.72,30.85Z"/><path class="cls-28_under-constructions-53 targetColor" d="M103.23,390.76c-.36,3.28-2.26,6.19-5.12,7.84-3.08-.89-6.09-1.86-9.11-2.99-1.56-.57-3.08-1.17-4.6-1.83-8.57-3.62-16.7-8.21-24.23-13.66-.5-1.46-.88-2.96-1.15-4.48-.51-3.09.85-6.19,3.48-7.91,1.28-.61,2.5-1.31,3.68-2.1,2.56-2.1,2.59-6.09,1.3-9.11s-3.66-5.49-5.38-8.31-2.87-6.35-1.5-9.34c.9-1.91,2.7-3.3,3.82-5.15,2.12-3.45,1.43-7.87.66-11.84-1.03-5.4-2.07-10.77-3.13-16.18-.66-3.51-1.16-7.64,1.43-10.12,3.52-3.33,9.31-.66,12.8,2.67,4.16,3.8,7.23,8.64,8.88,14.03,3.28,11.76-2.45,24.99,2.15,36.3,3.08,7.64,10.3,12.86,13.89,20.24,3.26,6.74,3.2,14.64,2.14,21.95Z" style="fill: rgb(236, 156, 82);"/></g><g id="shadow_under-constructions-53"><ellipse class="cls-24_under-constructions-53 targetColor" cx="284.46" cy="388.65" rx="149.48" ry="12.95" style="fill: rgb(236, 156, 82);"/><path class="cls-4_under-constructions-53" d="M342.17,236.65s-1.5-.12-1.05.84,3.56,1.42,3.49,1.91c-1.34,8.38,5.93,9.55,9.05,8.75,3.11-.8,35.52,17.98,35.52,17.98l.3-17.01-47.3-12.47Z"/></g><g id="character_under-constructions-53"><path class="cls-28_under-constructions-53 targetColor" d="M424.3,247.55s12.26,6.33,12.47,11.08,3.16,25.31,3.16,25.31l-8.31,3.56,1.14,16.8c.15,2.1-1.41,3.94-3.51,4.15-7.78.76-28.72-1.91-28.5-4.29,2.67-28.66-1.28-49.67,3.82-52.65,5.1-2.98,12.03-3.93,12.03-3.93l7.71-.04Z" style="fill: rgb(236, 156, 82);"/><polygon class="cls-16_under-constructions-53" points="431.61 287.5 420.17 289.03 418.69 287.1 401.41 289.03 401.63 290.66 418.83 291.4 422.55 294.67 431.89 293.62 431.61 287.5"/><path class="cls-27_under-constructions-53" d="M352,237.39c-3.13-.71-6.28-1.42-9.46-1.82-.14-.04-.29-.04-.43,0-.36.18-.21.75.06,1.05.96,1.02,2.42,1.23,3.69,1.76.11.03.2.11.26.21.03.09.03.19,0,.28-.35,1-.44,2.07-.26,3.11.19,1.05.8,1.98,1.69,2.57.83.43,1.75.67,2.68.69,1.1.15,2.22.05,3.28-.3.61-.33,1.25-.6,1.91-.82.42-.09.91-.09,1.17-.42.12-.18.19-.38.2-.59.17-1.24.27-3.09-.71-4.03-1.19-.91-2.59-1.49-4.08-1.68Z"/><path class="cls-27_under-constructions-53" d="M406.78,233.12c-.18.34-.3.71-.36,1.09.05.93.34,1.84.83,2.63.91,2.13.77,4.93,2.66,6.26,1.05.74,2.44.75,3.63,1.21,1.47.58,2.6,1.78,3.09,3.28.42,1.34-1.39,6.31-.09,6.81s3.43-.96,4.67-1.85c1.48-1.03,2.82-1.91,2.96-3.37.51-5.18,1-10.42.22-15.57-.18-1.55-.64-3.06-1.35-4.45-1.36-2.4-3.78-4.01-6.52-4.32-5.85-.6-7.76,3.83-9.74,8.29Z"/><path class="cls-25_under-constructions-53" d="M407.28,224.68c-.32,1.2,0,2.49.86,3.39,1.61,1.69,4.56,1.52,6.1,3.27.53.68.92,1.46,1.17,2.29.19.53.54,1.15,1.1,1.07.75-.11.7-1.32,1.33-1.76.6-.28,1.31-.04,1.6.55.71,1.2-.07,2.79-1.19,3.62-.09.06-.18.13-.17.24s.06.12.11.18l3.32,3.57c.37.48.86.84,1.43,1.04,1.06.25,2.02-.63,2.75-1.43l3.28-3.6c.58-.58,1.07-1.25,1.46-1.97.51-1.39.64-2.89.39-4.35-.05-1.54-.37-3.05-.96-4.47-.84-1.56-2.11-2.86-3.66-3.73-4.48-2.72-9.98-3.14-15.22-2.87-1.33.08-.76,1.41-1.39,2.24-.75,1.04-1.92,1.3-2.31,2.7Z"/><path class="cls-7_under-constructions-53" d="M407.12,225.41c.06.48.16.94.3,1.4.11.19,22.06,8.05,22.06,8.05,0,0,.96.26,1.03-.27s.33-1.37.33-1.37l-23.73-7.82Z"/><path class="cls-28_under-constructions-53 targetColor" d="M434.28,229.04c.04,1.28-.08,2.57-.37,3.82,0,0-1.27.96-4.78.05s-25.79-8.81-25.79-8.81c0,0-.33-1.36.96-1.48h0c1.04-.21,1.99-.72,2.74-1.47,0,0,4.67-10.33,17.36-5.52,8.24,3.09,9.81,9.37,9.89,13.41Z" style="fill: rgb(236, 156, 82);"/><path class="cls-14_under-constructions-53" d="M434.28,229.04c-.06.67-.17,1.33-.33,1.99-.85.45-1.83.6-2.78.42-.65-.05-1.29-.17-1.91-.34-2.11-.54-11-3.62-17.79-5.98-3.11-1.1-5.73-2.06-7.08-2.53,1.04-.21,1.99-.72,2.74-1.47,0,0,4.67-10.33,17.36-5.52,8.15,3.11,9.71,9.4,9.79,13.44Z"/><path class="cls-15_under-constructions-53" d="M431.17,231.44c-.65-.05-1.29-.17-1.91-.34-2.11-.54-11-3.62-17.79-5.98.05-.05.09-.11.12-.17,0,0,3.42-10.33,12.56-5.52,5.24,2.78,6.75,8.05,7.01,12.02Z"/><polygon class="cls-26_under-constructions-53" points="408.23 264.56 390.36 266.04 401.41 289.03 418.83 288.49 408.23 264.56"/><polygon class="cls-12_under-constructions-53" points="407.76 265.25 390.36 266.04 401.41 289.03 418.83 288.49 407.76 265.25"/><path class="cls-27_under-constructions-53" d="M412.75,279.5c-.39.06-.87.2-.96.59s.48.74.96.86l1.73.48c-.78-.32-1.64-.42-2.47-.28-.26,0-.56.15-.62.41s.41.62.8.69l2.27.41c-.76-.17-1.56-.08-2.25.28-.1.05-.19.12-.25.22-.12.28.25.51.54.58.83.22,1.67.37,2.52.47h-1.6c-.2-.02-.39.03-.55.14-.2.24-.17.6.07.81.02.02.04.03.06.04.29.16.62.24.96.21h1.34c.27,0,.53.03.78.11.75.32.96,1.34,1.68,1.71.68.26,1.45,0,1.83-.62.35-.63.45-1.36.3-2.06-.3-1.59-1.28-2.96-2.68-3.77-1.58-.97-2.5-1.58-4.46-1.28Z"/><polygon class="cls-28_under-constructions-53 targetColor" points="432.11 306.68 426.48 345.83 433.3 391.22 428.84 391.82 415.5 349.1 413.71 328.93 398.3 389.73 394.44 389.73 401.83 304.7 432.11 306.68" style="fill: rgb(236, 156, 82);"/><polygon class="cls-6_under-constructions-53" points="432.11 306.68 426.48 345.83 433.3 391.22 428.84 391.82 415.5 349.1 413.71 328.93 398.3 389.73 394.44 389.73 398.24 346.05 401.83 304.7 432.11 306.68"/><path class="cls-25_under-constructions-53" d="M434.41,395.48c0,.11.06.25,0,.33-.08.07-.17.11-.28.11-3.31.33-6.65.33-9.96,0,.27-1.03.79-1.98,1.52-2.75.4-.34.86-.62,1.36-.81,1.32-.58,4.16-1.72,5.62-1.18,1.19.49,1.48,3.16,1.75,4.31Z"/><path class="cls-25_under-constructions-53" d="M398.26,394.82c0,.11-.04.22-.11.3-.08.07-.19.1-.3.1-3.09.22-6.2.22-9.29,0-.1,0-.2-.03-.29-.09-.15-.14-.07-.39,0-.56.96-1.75,2.41-3.19,4.17-4.13,1.11-.56,4.01-1.6,5.19-.73s.76,3.81.63,5.11Z"/><path class="cls-28_under-constructions-53 targetColor" d="M378.64,242.46l36.49,5.34-12.9,15.17h0c-1.64-3.16-4.51-5.49-7.94-6.44l-38.53-10.76.3-7.12,22.59,3.8Z" style="fill: rgb(236, 156, 82);"/></g><g id="portal_under-constructions-53"><rect class="cls-17_under-constructions-53" x="160.62" y="342.78" width="99.83" height="8.63"/><rect class="cls-26_under-constructions-53" x="238.32" y="341.98" width="9.45" height="66.44"/><rect class="cls-26_under-constructions-53" x="170.87" y="341.98" width="9.45" height="64.22"/><polygon class="cls-18_under-constructions-53" points="170.94 377.05 180.45 377.05 180.45 344.47 170.74 344.47 170.94 377.05"/><polygon class="cls-13_under-constructions-53" points="238.53 377.05 248.04 377.05 248.04 344.47 238.32 344.47 238.53 377.05"/><rect class="cls-28_under-constructions-53 targetColor" x="161.02" y="347.71" width="95.92" height="25.09" style="fill: rgb(236, 156, 82);"/><path class="cls-26_under-constructions-53" d="M159.81,346.69v26.11l97.32-.19-.59-25.91h-96.73ZM162.3,350.02h14.82l-14.39,19.1h-.43v-19.1ZM186.05,350.02h9.49l-14.24,19.1h-9.55l14.3-19.1ZM204.46,350.02h9.5l-14.25,19.1h-9.35l14.1-19.1ZM223.03,350.02h9.49l-14.38,19.1h-9.36l14.25-19.1ZM241.46,350.02h9.49l-14.25,19.1h-9.35l14.11-19.1ZM253.68,369.12h-7.91l7.91-10.64v10.64Z"/></g></svg>